<svg width="1280" height="720" xmlns="http://www.w3.org/2000/svg" xmlns:xlink="http://www.w3.org/1999/xlink" overflow="hidden"><defs><clipPath id="clip0"><rect x="0" y="0" width="1280" height="720"/></clipPath></defs><g clip-path="url(#clip0)"><rect x="0" y="0" width="1280" height="720" fill="#FFFFFF"/><path d="M314.5 201.5 314.5 416.773" stroke="#000000" stroke-width="1.33333" stroke-miterlimit="8" fill="none" fill-rule="evenodd"/><path d="M314.5 201.5 545.54 201.5" stroke="#000000" stroke-width="0.666667" stroke-miterlimit="8" fill="none" fill-rule="evenodd"/><path d="M314.5 416.5 545.54 416.5" stroke="#000000" stroke-width="0.666667" stroke-miterlimit="8" fill="none" fill-rule="evenodd"/><text font-family="DengXian,DengXian_MSFontService,sans-serif" font-weight="700" font-size="37" transform="translate(175.066 246)">a</text><text font-family="DengXian,DengXian_MSFontService,sans-serif" font-weight="700" font-size="37" transform="translate(175.418 393)">b</text><text font-family="DengXian,DengXian_MSFontService,sans-serif" font-weight="700" font-size="37" transform="translate(663.913 320)">out</text><path d="M0 0 109.091 0.000104987" stroke="#000000" stroke-width="0.666667" stroke-miterlimit="8" fill="none" fill-rule="evenodd" transform="matrix(-1 0 0 1 314.591 381.5)"/><path d="M0 0 109.091 0.000104987" stroke="#000000" stroke-width="0.666667" stroke-miterlimit="8" fill="none" fill-rule="evenodd" transform="matrix(-1 0 0 1 314.591 240.5)"/><path d="M0 0 109.091 0.000104987" stroke="#000000" stroke-width="0.666667" stroke-miterlimit="8" fill="none" fill-rule="evenodd" transform="matrix(-1 0 0 1 654.591 309.5)"/><text font-family="DengXian,DengXian_MSFontService,sans-serif" font-weight="700" font-size="48" transform="translate(355.429 304)">16</text><text font-family="DengXian,DengXian_MSFontService,sans-serif" font-weight="700" font-size="48" transform="translate(408.763 304)">-</text><text font-family="DengXian,DengXian_MSFontService,sans-serif" font-weight="700" font-size="48" transform="translate(432.763 304)">bit</text><text font-family="DengXian,DengXian_MSFontService,sans-serif" font-weight="700" font-size="48" transform="translate(355.429 361)">adder</text><text font-family="DengXian,DengXian_MSFontService,sans-serif" font-weight="700" font-size="37" transform="translate(243.029 280)">16</text><path d="M0 0 44.7897 61.9479" stroke="#000000" stroke-width="0.666667" stroke-miterlimit="8" fill="none" fill-rule="evenodd" transform="matrix(-1 0 0 1 278.29 206.5)"/><text font-family="DengXian,DengXian_MSFontService,sans-serif" font-weight="700" font-size="37" transform="translate(256.171 428)">16</text><path d="M0 0 48.3514 58.4845" stroke="#000000" stroke-width="0.666667" stroke-miterlimit="8" fill="none" fill-rule="evenodd" transform="matrix(1 0 0 -1 232.5 413.985)"/><path d="M0 0 44.7897 61.9479" stroke="#000000" stroke-width="0.666667" stroke-miterlimit="8" fill="none" fill-rule="evenodd" transform="matrix(-1 0 0 1 638.29 281.5)"/><text font-family="DengXian,DengXian_MSFontService,sans-serif" font-weight="700" font-size="37" transform="translate(581.79 382)">16</text><path d="M545.5 200.5 545.5 415.773" stroke="#000000" stroke-width="1.33333" stroke-miterlimit="8" fill="none" fill-rule="evenodd"/></g></svg>