<svg width="1280" height="720" xmlns="http://www.w3.org/2000/svg" xmlns:xlink="http://www.w3.org/1999/xlink" overflow="hidden"><defs><filter id="fx0" x="-10%" y="-10%" width="120%" height="120%" filterUnits="userSpaceOnUse" primitiveUnits="userSpaceOnUse"><feComponentTransfer color-interpolation-filters="sRGB"><feFuncR type="discrete" tableValues="0 0"/><feFuncG type="discrete" tableValues="0 0"/><feFuncB type="discrete" tableValues="0 0"/><feFuncA type="linear" slope="0.4" intercept="0"/></feComponentTransfer><feGaussianBlur stdDeviation="1.77778 1.77778"/></filter><filter id="fx1" x="-10%" y="-10%" width="120%" height="120%" filterUnits="userSpaceOnUse" primitiveUnits="userSpaceOnUse"><feComponentTransfer color-interpolation-filters="sRGB"><feFuncR type="discrete" tableValues="0 0"/><feFuncG type="discrete" tableValues="0 0"/><feFuncB type="discrete" tableValues="0 0"/><feFuncA type="linear" slope="0.4" intercept="0"/></feComponentTransfer><feGaussianBlur stdDeviation="1.77778 1.77778"/></filter><filter id="fx2" x="-10%" y="-10%" width="120%" height="120%" filterUnits="userSpaceOnUse" primitiveUnits="userSpaceOnUse"><feComponentTransfer color-interpolation-filters="sRGB"><feFuncR type="discrete" tableValues="0 0"/><feFuncG type="discrete" tableValues="0 0"/><feFuncB type="discrete" tableValues="0 0"/><feFuncA type="linear" slope="0.4" intercept="0"/></feComponentTransfer><feGaussianBlur stdDeviation="1.77778 1.77778"/></filter><clipPath id="clip3"><rect x="0" y="0" width="1280" height="720"/></clipPath><clipPath id="clip4"><path d="M640.5 13.5001 640.5 63.5001 917.5 63.5001 917.5 13.5001ZM1.90735e-05 1.07288e-05 1280 1.07288e-05 1280 720 1.90735e-05 720Z" fill-rule="evenodd" clip-rule="evenodd"/></clipPath><clipPath id="clip5"><rect x="-2" y="-2" width="296" height="69"/></clipPath><clipPath id="clip6"><rect x="0" y="0" width="292" height="65"/></clipPath><clipPath id="clip7"><path d="M198.5 13.5001 198.5 63.5001 476.5 63.5001 476.5 13.5001ZM1.90735e-05 1.07288e-05 1280 1.07288e-05 1280 720 1.90735e-05 720Z" fill-rule="evenodd" clip-rule="evenodd"/></clipPath><clipPath id="clip8"><rect x="-2" y="-2" width="296" height="69"/></clipPath><clipPath id="clip9"><rect x="0" y="0" width="293" height="65"/></clipPath><clipPath id="clip10"><path d="M338.5 149.5 338.5 217.5 647.5 217.5 647.5 149.5ZM1.90735e-05 1.07288e-05 1280 1.07288e-05 1280 720 1.90735e-05 720Z" fill-rule="evenodd" clip-rule="evenodd"/></clipPath><clipPath id="clip11"><rect x="-2" y="-2" width="327" height="85"/></clipPath><clipPath id="clip12"><rect x="0" y="0" width="324" height="83"/></clipPath></defs><g clip-path="url(#clip3)"><rect x="0" y="0" width="1280" height="720" fill="#FFFFFF"/><g clip-path="url(#clip4)"><g clip-path="url(#clip5)" filter="url(#fx0)" transform="translate(636 9)"><g clip-path="url(#clip6)"><rect x="7.32849" y="7.32848" width="277" height="50" stroke="#2F528F" stroke-miterlimit="8" fill="#DAE3F3"/></g></g></g><rect x="640.5" y="13.5001" width="277" height="50" stroke="#2F528F" stroke-width="1.33333" stroke-miterlimit="8" fill="#DAE3F3"/><text font-family="Consolas,Consolas_MSFontService,sans-serif" font-weight="400" font-size="24" transform="translate(664.61 46)">Load R1, 5782</text><path d="M1014.65 187.052 1139.79 187.052 1139.79 225.452 1014.65 225.452Z" fill="#4472C4" fill-rule="evenodd"/><path d="M1014.65 225.452 1139.79 225.452 1139.79 264.385 1014.65 264.385Z" fill="#CFD5EA" fill-rule="evenodd"/><path d="M1014.65 264.385 1139.79 264.385 1139.79 303.318 1014.65 303.318Z" fill="#E9EBF5" fill-rule="evenodd"/><path d="M1014.65 303.318 1139.79 303.318 1139.79 342.252 1014.65 342.252Z" fill="#CFD5EA" fill-rule="evenodd"/><path d="M1014.65 342.252 1139.79 342.252 1139.79 381.185 1014.65 381.185Z" fill="#E9EBF5" fill-rule="evenodd"/><path d="M1014.65 381.185 1139.79 381.185 1139.79 420.118 1014.65 420.118Z" fill="#CFD5EA" fill-rule="evenodd"/><path d="M1014.65 420.118 1139.79 420.118 1139.79 459.052 1014.65 459.052Z" fill="#E9EBF5" fill-rule="evenodd"/><path d="M1014.65 459.052 1139.79 459.052 1139.79 497.985 1014.65 497.985Z" fill="#CFD5EA" fill-rule="evenodd"/><path d="M1013.99 225.452 1140.46 225.452" stroke="#FFFFFF" stroke-width="4" stroke-linejoin="round" stroke-miterlimit="10" fill="none" fill-rule="evenodd"/><path d="M1013.99 264.385 1140.46 264.385" stroke="#FFFFFF" stroke-width="1.33333" stroke-linejoin="round" stroke-miterlimit="10" fill="none" fill-rule="evenodd"/><path d="M1013.99 303.318 1140.46 303.318" stroke="#FFFFFF" stroke-width="1.33333" stroke-linejoin="round" stroke-miterlimit="10" fill="none" fill-rule="evenodd"/><path d="M1013.99 342.252 1140.46 342.252" stroke="#FFFFFF" stroke-width="1.33333" stroke-linejoin="round" stroke-miterlimit="10" fill="none" fill-rule="evenodd"/><path d="M1013.99 381.185 1140.46 381.185" stroke="#FFFFFF" stroke-width="1.33333" stroke-linejoin="round" stroke-miterlimit="10" fill="none" fill-rule="evenodd"/><path d="M1013.99 420.118 1140.46 420.118" stroke="#FFFFFF" stroke-width="1.33333" stroke-linejoin="round" stroke-miterlimit="10" fill="none" fill-rule="evenodd"/><path d="M1013.99 459.052 1140.46 459.052" stroke="#FFFFFF" stroke-width="1.33333" stroke-linejoin="round" stroke-miterlimit="10" fill="none" fill-rule="evenodd"/><path d="M1014.65 186.385 1014.65 498.652" stroke="#FFFFFF" stroke-width="1.33333" stroke-linejoin="round" stroke-miterlimit="10" fill="none" fill-rule="evenodd"/><path d="M1139.79 186.385 1139.79 498.652" stroke="#FFFFFF" stroke-width="1.33333" stroke-linejoin="round" stroke-miterlimit="10" fill="none" fill-rule="evenodd"/><path d="M1013.99 187.052 1140.46 187.052" stroke="#FFFFFF" stroke-width="1.33333" stroke-linejoin="round" stroke-miterlimit="10" fill="none" fill-rule="evenodd"/><path d="M1013.99 497.985 1140.46 497.985" stroke="#FFFFFF" stroke-width="1.33333" stroke-linejoin="round" stroke-miterlimit="10" fill="none" fill-rule="evenodd"/><text fill="#FFFFFF" font-family="DengXian,DengXian_MSFontService,sans-serif" font-weight="700" font-size="24" transform="translate(1050.56 214)">RAM</text><text font-family="DengXian,DengXian_MSFontService,sans-serif" font-weight="400" font-size="24" transform="translate(1068.81 252)">…</text><text font-family="DengXian,DengXian_MSFontService,sans-serif" font-weight="400" font-size="24" transform="translate(1068.81 291)">…</text><text font-family="DengXian,DengXian_MSFontService,sans-serif" font-weight="400" font-size="24" transform="translate(1068.81 330)">…</text><text font-family="DengXian,DengXian_MSFontService,sans-serif" font-weight="400" font-size="24" transform="translate(1068.81 369)">…</text><text font-family="DengXian,DengXian_MSFontService,sans-serif" font-weight="400" font-size="24" transform="translate(1068.81 408)">…</text><text font-family="DengXian,DengXian_MSFontService,sans-serif" font-weight="400" font-size="24" transform="translate(1068.81 447)">…</text><text font-family="DengXian,DengXian_MSFontService,sans-serif" font-weight="400" font-size="24" transform="translate(1068.81 486)">…</text><text font-family="Consolas,Consolas_MSFontService,sans-serif" font-weight="400" font-size="24" transform="translate(1162.41 250)">5780</text><text font-family="Consolas,Consolas_MSFontService,sans-serif" font-weight="400" font-size="24" transform="translate(1162.41 328)">weight</text><g clip-path="url(#clip7)"><g clip-path="url(#clip8)" filter="url(#fx1)" transform="translate(194 9)"><g clip-path="url(#clip9)"><rect x="7.32848" y="7.32848" width="278" height="50" stroke="#2F528F" stroke-miterlimit="8" fill="#DAE3F3"/></g></g></g><rect x="198.5" y="13.5001" width="278" height="50" stroke="#2F528F" stroke-width="1.33333" stroke-miterlimit="8" fill="#DAE3F3"/><text font-family="Consolas,Consolas_MSFontService,sans-serif" font-weight="400" font-size="24" transform="translate(222.903 46)">Load R1, weight</text><path d="M513.5 30.5001 587.5 30.5001 587.5 22.5001 603.5 38.5001 587.5 54.5001 587.5 46.5001 513.5 46.5001Z" stroke="#2F528F" stroke-width="1.33333" stroke-miterlimit="8" fill="#4472C4" fill-rule="evenodd"/><path d="M353.354 299.923 582.493 299.923 582.493 343.211 353.354 343.211Z" fill="#FFC000" fill-rule="evenodd"/><path d="M582.493 299.923 811.632 299.923 811.632 343.211 582.493 343.211Z" fill="#FFC000" fill-rule="evenodd"/><path d="M353.354 343.211 582.493 343.211 582.493 386.498 353.354 386.498Z" fill="#FFC000" fill-rule="evenodd"/><path d="M582.493 343.211 811.632 343.211 811.632 386.498 582.493 386.498Z" fill="#FFC000" fill-rule="evenodd"/><path d="M353.354 386.498 582.493 386.498 582.493 429.785 353.354 429.785Z" fill="#FFC000" fill-rule="evenodd"/><path d="M582.493 386.498 811.632 386.498 811.632 429.785 582.493 429.785Z" fill="#FFC000" fill-rule="evenodd"/><path d="M353.354 429.785 582.493 429.785 582.493 473.072 353.354 473.072Z" fill="#FFC000" fill-rule="evenodd"/><path d="M582.493 429.785 811.632 429.785 811.632 473.072 582.493 473.072Z" fill="#FFC000" fill-rule="evenodd"/><path d="M582.493 299.257 582.493 473.739" stroke="#FFFFFF" stroke-width="1.33333" stroke-linejoin="round" stroke-miterlimit="10" fill="none" fill-rule="evenodd"/><path d="M352.687 343.211 812.299 343.211" stroke="#FFFFFF" stroke-width="4" stroke-linejoin="round" stroke-miterlimit="10" fill="none" fill-rule="evenodd"/><path d="M352.687 386.498 812.299 386.498" stroke="#FFFFFF" stroke-width="1.33333" stroke-linejoin="round" stroke-miterlimit="10" fill="none" fill-rule="evenodd"/><path d="M352.687 429.785 812.299 429.785" stroke="#FFFFFF" stroke-width="1.33333" stroke-linejoin="round" stroke-miterlimit="10" fill="none" fill-rule="evenodd"/><path d="M353.354 299.257 353.354 473.739" stroke="#FFFFFF" stroke-width="1.33333" stroke-linejoin="round" stroke-miterlimit="10" fill="none" fill-rule="evenodd"/><path d="M811.632 299.257 811.632 473.739" stroke="#FFFFFF" stroke-width="1.33333" stroke-linejoin="round" stroke-miterlimit="10" fill="none" fill-rule="evenodd"/><path d="M352.687 299.923 812.299 299.923" stroke="#FFFFFF" stroke-width="1.33333" stroke-linejoin="round" stroke-miterlimit="10" fill="none" fill-rule="evenodd"/><path d="M352.687 473.072 812.299 473.072" stroke="#FFFFFF" stroke-width="1.33333" stroke-linejoin="round" stroke-miterlimit="10" fill="none" fill-rule="evenodd"/><text fill="#FFFFFF" font-family="DengXian,DengXian_MSFontService,sans-serif" font-weight="700" font-size="24" transform="translate(427.09 327)">Symbol</text><text fill="#FFFFFF" font-family="DengXian,DengXian_MSFontService,sans-serif" font-weight="700" font-size="24" transform="translate(653.313 327)">Address</text><text font-family="DengXian,DengXian_MSFontService,sans-serif" font-weight="400" font-size="24" transform="translate(433.34 370)">weight</text><text font-family="DengXian,DengXian_MSFontService,sans-serif" font-weight="400" font-size="24" transform="translate(671.729 370)">5782</text><g clip-path="url(#clip10)"><g clip-path="url(#clip11)" filter="url(#fx2)" transform="translate(334 145)"><g clip-path="url(#clip12)"><rect x="7.32849" y="7.32848" width="309" height="68" stroke="#2F528F" stroke-miterlimit="8" fill="#DAE3F3"/></g></g></g><rect x="338.5" y="149.5" width="309" height="68" stroke="#2F528F" stroke-width="1.33333" stroke-miterlimit="8" fill="#DAE3F3"/><text font-family="Consolas,Consolas_MSFontService,sans-serif" font-weight="400" font-size="24" transform="translate(378.789 177)">Find an unallocated</text><text font-family="Consolas,Consolas_MSFontService,sans-serif" font-weight="400" font-size="24" transform="translate(378.789 205)">memory cell</text><path d="M655.355 186.065 997.656 315.959 996.947 317.829 654.645 187.935ZM997.475 312.681 1003.54 319.259 994.637 320.161Z" fill="#4472C4"/></g></svg>