<svg width="1280" height="720" xmlns="http://www.w3.org/2000/svg" xmlns:xlink="http://www.w3.org/1999/xlink" overflow="hidden"><defs><clipPath id="clip0"><rect x="0" y="0" width="1280" height="720"/></clipPath></defs><g clip-path="url(#clip0)"><rect x="0" y="0" width="1280" height="720" fill="#FFFFFF"/><path d="M769.81 210.722 774.5 406.278 673.19 484.5 671.314 363.093 715.403 323.982 668.5 292.204 668.5 154.5 769.81 210.722Z" stroke="#2F528F" stroke-width="1.33333" stroke-miterlimit="8" fill="#B4C7E7" fill-rule="evenodd"/><text font-family="Times New Roman,Times New Roman_MSFontService,sans-serif" font-weight="700" font-size="24" transform="translate(717.561 327)">ALU</text><path d="M733 110 733 179.761 731 179.761 731 110ZM736 178.427 732 186.427 728 178.427Z"/><text font-family="Times New Roman,Times New Roman_MSFontService,sans-serif" font-style="italic" font-weight="700" font-size="24" transform="translate(729.988 96)">f</text><path d="M587 212 661.421 212 661.421 214 587 214ZM660.087 209 668.087 213 660.087 217Z"/><text font-family="Times New Roman,Times New Roman_MSFontService,sans-serif" font-weight="700" font-size="24" transform="translate(593.833 204)">input1</text><text font-family="Times New Roman,Times New Roman_MSFontService,sans-serif" font-weight="700" font-size="24" transform="translate(595.386 410)">input2</text><path d="M592 419 666.421 419 666.421 421 592 421ZM665.087 416 673.087 420 665.087 424Z"/><path d="M774 308 917.003 308 917.003 310 774 310ZM915.67 305 923.67 309 915.67 313Z"/><text font-family="Times New Roman,Times New Roman_MSFontService,sans-serif" font-style="italic" font-weight="700" font-size="24" transform="translate(783.192 298)">f</text><text font-family="Times New Roman,Times New Roman_MSFontService,sans-serif" font-weight="700" font-size="24" transform="translate(791.192 298)">(i</text><text font-family="Times New Roman,Times New Roman_MSFontService,sans-serif" font-weight="700" font-size="24" transform="translate(805.859 298)">nput1,input2</text><text font-family="Times New Roman,Times New Roman_MSFontService,sans-serif" font-weight="700" font-size="24" transform="translate(938.526 298)">)</text></g></svg>