<svg width="1280" height="720" xmlns="http://www.w3.org/2000/svg" xmlns:xlink="http://www.w3.org/1999/xlink" overflow="hidden"><defs><clipPath id="clip0"><rect x="0" y="0" width="1280" height="720"/></clipPath><clipPath id="clip1"><rect x="737" y="475" width="54" height="203"/></clipPath><clipPath id="clip2"><rect x="790" y="475" width="55" height="203"/></clipPath><clipPath id="clip3"><rect x="844" y="475" width="54" height="203"/></clipPath><clipPath id="clip4"><rect x="897" y="475" width="55" height="203"/></clipPath><clipPath id="clip5"><rect x="951" y="475" width="54" height="203"/></clipPath><clipPath id="clip6"><rect x="1004" y="475" width="54" height="203"/></clipPath><clipPath id="clip7"><rect x="1057" y="475" width="55" height="203"/></clipPath><clipPath id="clip8"><rect x="1111" y="475" width="54" height="203"/></clipPath><clipPath id="clip9"><rect x="1164" y="475" width="55" height="203"/></clipPath></defs><g clip-path="url(#clip0)"><rect x="0" y="0" width="1280" height="720" fill="#FFFFFF"/><path d="M156.921 123.876 246.631 123.876 246.631 172.371 156.921 172.371Z" fill="#4472C4" fill-rule="evenodd"/><path d="M246.631 123.876 336.341 123.876 336.341 172.371 246.631 172.371Z" fill="#4472C4" fill-rule="evenodd"/><path d="M336.341 123.876 426.051 123.876 426.051 172.371 336.341 172.371Z" fill="#4472C4" fill-rule="evenodd"/><path d="M426.051 123.876 515.761 123.876 515.761 172.371 426.051 172.371Z" fill="#4472C4" fill-rule="evenodd"/><path d="M246.631 123.21 246.631 174.371" stroke="#FFFFFF" stroke-width="1.33333" stroke-linejoin="round" stroke-miterlimit="10" fill="none" fill-rule="evenodd"/><path d="M336.341 123.21 336.341 174.371" stroke="#FFFFFF" stroke-width="1.33333" stroke-linejoin="round" stroke-miterlimit="10" fill="none" fill-rule="evenodd"/><path d="M426.051 123.21 426.051 174.371" stroke="#FFFFFF" stroke-width="1.33333" stroke-linejoin="round" stroke-miterlimit="10" fill="none" fill-rule="evenodd"/><path d="M156.921 123.21 156.921 174.371" stroke="#FFFFFF" stroke-width="1.33333" stroke-linejoin="round" stroke-miterlimit="10" fill="none" fill-rule="evenodd"/><path d="M515.761 123.21 515.761 174.371" stroke="#FFFFFF" stroke-width="1.33333" stroke-linejoin="round" stroke-miterlimit="10" fill="none" fill-rule="evenodd"/><path d="M156.254 123.876 516.428 123.876" stroke="#FFFFFF" stroke-width="1.33333" stroke-linejoin="round" stroke-miterlimit="10" fill="none" fill-rule="evenodd"/><path d="M156.254 172.371 516.428 172.371" stroke="#FFFFFF" stroke-width="4" stroke-linejoin="round" stroke-miterlimit="10" fill="none" fill-rule="evenodd"/><text fill="#FFFFFF" font-family="Consolas,Consolas_MSFontService,sans-serif" font-weight="700" font-size="24" transform="translate(195.192 152)">L</text><text fill="#FFFFFF" font-family="Consolas,Consolas_MSFontService,sans-serif" font-weight="700" font-size="24" transform="translate(284.903 152)">o</text><text fill="#FFFFFF" font-family="Consolas,Consolas_MSFontService,sans-serif" font-weight="700" font-size="24" transform="translate(374.613 152)">a</text><text fill="#FFFFFF" font-family="Consolas,Consolas_MSFontService,sans-serif" font-weight="700" font-size="24" transform="translate(464.323 152)">d</text><path d="M632.434 123.876 722.144 123.876 722.144 172.371 632.434 172.371Z" fill="#4472C4" fill-rule="evenodd"/><path d="M722.144 123.876 811.854 123.876 811.854 172.371 722.144 172.371Z" fill="#4472C4" fill-rule="evenodd"/><path d="M722.144 123.21 722.144 174.371" stroke="#FFFFFF" stroke-width="1.33333" stroke-linejoin="round" stroke-miterlimit="10" fill="none" fill-rule="evenodd"/><path d="M632.434 123.21 632.434 174.371" stroke="#FFFFFF" stroke-width="1.33333" stroke-linejoin="round" stroke-miterlimit="10" fill="none" fill-rule="evenodd"/><path d="M811.854 123.21 811.854 174.371" stroke="#FFFFFF" stroke-width="1.33333" stroke-linejoin="round" stroke-miterlimit="10" fill="none" fill-rule="evenodd"/><path d="M631.768 123.876 812.521 123.876" stroke="#FFFFFF" stroke-width="1.33333" stroke-linejoin="round" stroke-miterlimit="10" fill="none" fill-rule="evenodd"/><path d="M631.768 172.371 812.521 172.371" stroke="#FFFFFF" stroke-width="4" stroke-linejoin="round" stroke-miterlimit="10" fill="none" fill-rule="evenodd"/><text fill="#FFFFFF" font-family="Consolas,Consolas_MSFontService,sans-serif" font-weight="700" font-size="24" transform="translate(670.706 152)">R</text><text fill="#FFFFFF" font-family="Consolas,Consolas_MSFontService,sans-serif" font-weight="700" font-size="24" transform="translate(760.416 152)">1</text><path d="M959.45 123.876 1049.16 123.876 1049.16 172.371 959.45 172.371Z" fill="#4472C4" fill-rule="evenodd"/><path d="M1049.16 123.876 1138.87 123.876 1138.87 172.371 1049.16 172.371Z" fill="#4472C4" fill-rule="evenodd"/><path d="M1049.16 123.21 1049.16 174.371" stroke="#FFFFFF" stroke-width="1.33333" stroke-linejoin="round" stroke-miterlimit="10" fill="none" fill-rule="evenodd"/><path d="M959.45 123.21 959.45 174.371" stroke="#FFFFFF" stroke-width="1.33333" stroke-linejoin="round" stroke-miterlimit="10" fill="none" fill-rule="evenodd"/><path d="M1138.87 123.21 1138.87 174.371" stroke="#FFFFFF" stroke-width="1.33333" stroke-linejoin="round" stroke-miterlimit="10" fill="none" fill-rule="evenodd"/><path d="M958.783 123.876 1139.54 123.876" stroke="#FFFFFF" stroke-width="1.33333" stroke-linejoin="round" stroke-miterlimit="10" fill="none" fill-rule="evenodd"/><path d="M958.783 172.371 1139.54 172.371" stroke="#FFFFFF" stroke-width="4" stroke-linejoin="round" stroke-miterlimit="10" fill="none" fill-rule="evenodd"/><text fill="#FFFFFF" font-family="Consolas,Consolas_MSFontService,sans-serif" font-weight="700" font-size="24" transform="translate(997.721 152)">1</text><text fill="#FFFFFF" font-family="Consolas,Consolas_MSFontService,sans-serif" font-weight="700" font-size="24" transform="translate(1087.43 152)">8</text><path d="M17.3746 557.19 89.1427 557.19 89.1427 596.124 17.3746 596.124Z" fill="#FFC000" fill-rule="evenodd"/><path d="M89.1427 557.19 160.911 557.19 160.911 596.124 89.1427 596.124Z" fill="#FFC000" fill-rule="evenodd"/><path d="M160.911 557.19 232.679 557.19 232.679 596.124 160.911 596.124Z" fill="#FFC000" fill-rule="evenodd"/><path d="M232.679 557.19 304.447 557.19 304.447 596.124 232.679 596.124Z" fill="#FFC000" fill-rule="evenodd"/><path d="M304.447 557.19 376.215 557.19 376.215 596.124 304.447 596.124Z" fill="#FFC000" fill-rule="evenodd"/><path d="M89.1427 556.524 89.1427 598.124" stroke="#FFFFFF" stroke-width="1.33333" stroke-linejoin="round" stroke-miterlimit="10" fill="none" fill-rule="evenodd"/><path d="M160.911 556.524 160.911 598.124" stroke="#FFFFFF" stroke-width="1.33333" stroke-linejoin="round" stroke-miterlimit="10" fill="none" fill-rule="evenodd"/><path d="M232.679 556.524 232.679 598.124" stroke="#FFFFFF" stroke-width="1.33333" stroke-linejoin="round" stroke-miterlimit="10" fill="none" fill-rule="evenodd"/><path d="M304.447 556.524 304.447 598.124" stroke="#FFFFFF" stroke-width="1.33333" stroke-linejoin="round" stroke-miterlimit="10" fill="none" fill-rule="evenodd"/><path d="M17.3746 556.524 17.3746 598.124" stroke="#FFFFFF" stroke-width="1.33333" stroke-linejoin="round" stroke-miterlimit="10" fill="none" fill-rule="evenodd"/><path d="M376.215 556.524 376.215 598.124" stroke="#FFFFFF" stroke-width="1.33333" stroke-linejoin="round" stroke-miterlimit="10" fill="none" fill-rule="evenodd"/><path d="M16.7079 557.19 376.882 557.19" stroke="#FFFFFF" stroke-width="1.33333" stroke-linejoin="round" stroke-miterlimit="10" fill="none" fill-rule="evenodd"/><path d="M16.7079 596.124 376.882 596.124" stroke="#FFFFFF" stroke-width="4" stroke-linejoin="round" stroke-miterlimit="10" fill="none" fill-rule="evenodd"/><text fill="#FFFFFF" font-family="DengXian,DengXian_MSFontService,sans-serif" font-weight="700" font-size="24" transform="translate(46.5919 584)">1</text><text fill="#FFFFFF" font-family="DengXian,DengXian_MSFontService,sans-serif" font-weight="700" font-size="24" transform="translate(118.36 584)">1</text><text fill="#FFFFFF" font-family="DengXian,DengXian_MSFontService,sans-serif" font-weight="700" font-size="24" transform="translate(190.128 584)">0</text><text fill="#FFFFFF" font-family="DengXian,DengXian_MSFontService,sans-serif" font-weight="700" font-size="24" transform="translate(261.896 584)">0</text><text fill="#FFFFFF" font-family="DengXian,DengXian_MSFontService,sans-serif" font-weight="700" font-size="24" transform="translate(333.664 584)">1</text><path d="M499.728 557.19 566.081 557.19 566.081 596.124 499.728 596.124Z" fill="#FFC000" fill-rule="evenodd"/><path d="M566.081 557.19 632.434 557.19 632.434 596.124 566.081 596.124Z" fill="#FFC000" fill-rule="evenodd"/><path d="M566.081 556.524 566.081 598.124" stroke="#FFFFFF" stroke-width="1.33333" stroke-linejoin="round" stroke-miterlimit="10" fill="none" fill-rule="evenodd"/><path d="M499.728 556.524 499.728 598.124" stroke="#FFFFFF" stroke-width="1.33333" stroke-linejoin="round" stroke-miterlimit="10" fill="none" fill-rule="evenodd"/><path d="M632.434 556.524 632.434 598.124" stroke="#FFFFFF" stroke-width="1.33333" stroke-linejoin="round" stroke-miterlimit="10" fill="none" fill-rule="evenodd"/><path d="M499.061 557.19 633.101 557.19" stroke="#FFFFFF" stroke-width="1.33333" stroke-linejoin="round" stroke-miterlimit="10" fill="none" fill-rule="evenodd"/><path d="M499.061 596.124 633.101 596.124" stroke="#FFFFFF" stroke-width="4" stroke-linejoin="round" stroke-miterlimit="10" fill="none" fill-rule="evenodd"/><text fill="#FFFFFF" font-family="DengXian,DengXian_MSFontService,sans-serif" font-weight="700" font-size="24" transform="translate(526.238 584)">0</text><text fill="#FFFFFF" font-family="DengXian,DengXian_MSFontService,sans-serif" font-weight="700" font-size="24" transform="translate(592.591 584)">1</text><path d="M737.232 557.19 790.685 557.19 790.685 596.124 737.232 596.124Z" fill="#FFC000" fill-rule="evenodd"/><path d="M790.685 557.19 844.138 557.19 844.138 596.124 790.685 596.124Z" fill="#FFC000" fill-rule="evenodd"/><path d="M844.138 557.19 897.591 557.19 897.591 596.124 844.138 596.124Z" fill="#FFC000" fill-rule="evenodd"/><path d="M897.591 557.19 951.044 557.19 951.044 596.124 897.591 596.124Z" fill="#FFC000" fill-rule="evenodd"/><path d="M951.044 557.19 1004.5 557.19 1004.5 596.124 951.044 596.124Z" fill="#FFC000" fill-rule="evenodd"/><path d="M1004.5 557.19 1057.95 557.19 1057.95 596.124 1004.5 596.124Z" fill="#FFC000" fill-rule="evenodd"/><path d="M1057.95 557.19 1111.4 557.19 1111.4 596.124 1057.95 596.124Z" fill="#FFC000" fill-rule="evenodd"/><path d="M1111.4 557.19 1164.86 557.19 1164.86 596.124 1111.4 596.124Z" fill="#FFC000" fill-rule="evenodd"/><path d="M1164.86 557.19 1218.31 557.19 1218.31 596.124 1164.86 596.124Z" fill="#FFC000" fill-rule="evenodd"/><path d="M790.685 556.524 790.685 598.124" stroke="#FFFFFF" stroke-width="1.33333" stroke-linejoin="round" stroke-miterlimit="10" fill="none" fill-rule="evenodd"/><path d="M844.138 556.524 844.138 598.124" stroke="#FFFFFF" stroke-width="1.33333" stroke-linejoin="round" stroke-miterlimit="10" fill="none" fill-rule="evenodd"/><path d="M897.591 556.524 897.591 598.124" stroke="#FFFFFF" stroke-width="1.33333" stroke-linejoin="round" stroke-miterlimit="10" fill="none" fill-rule="evenodd"/><path d="M951.044 556.524 951.044 598.124" stroke="#FFFFFF" stroke-width="1.33333" stroke-linejoin="round" stroke-miterlimit="10" fill="none" fill-rule="evenodd"/><path d="M1004.5 556.524 1004.5 598.124" stroke="#FFFFFF" stroke-width="1.33333" stroke-linejoin="round" stroke-miterlimit="10" fill="none" fill-rule="evenodd"/><path d="M1057.95 556.524 1057.95 598.124" stroke="#FFFFFF" stroke-width="1.33333" stroke-linejoin="round" stroke-miterlimit="10" fill="none" fill-rule="evenodd"/><path d="M1111.4 556.524 1111.4 598.124" stroke="#FFFFFF" stroke-width="1.33333" stroke-linejoin="round" stroke-miterlimit="10" fill="none" fill-rule="evenodd"/><path d="M1164.86 556.524 1164.86 598.124" stroke="#FFFFFF" stroke-width="1.33333" stroke-linejoin="round" stroke-miterlimit="10" fill="none" fill-rule="evenodd"/><path d="M737.232 556.524 737.232 598.124" stroke="#FFFFFF" stroke-width="1.33333" stroke-linejoin="round" stroke-miterlimit="10" fill="none" fill-rule="evenodd"/><path d="M1218.31 556.524 1218.31 598.124" stroke="#FFFFFF" stroke-width="1.33333" stroke-linejoin="round" stroke-miterlimit="10" fill="none" fill-rule="evenodd"/><path d="M736.565 557.19 1218.98 557.19" stroke="#FFFFFF" stroke-width="1.33333" stroke-linejoin="round" stroke-miterlimit="10" fill="none" fill-rule="evenodd"/><path d="M736.565 596.124 1218.98 596.124" stroke="#FFFFFF" stroke-width="4" stroke-linejoin="round" stroke-miterlimit="10" fill="none" fill-rule="evenodd"/><g clip-path="url(#clip1)"><text fill="#FFFFFF" font-family="DengXian,DengXian_MSFontService,sans-serif" font-weight="700" font-size="24" transform="translate(746.832 584)">0</text></g><g clip-path="url(#clip2)"><text fill="#FFFFFF" font-family="DengXian,DengXian_MSFontService,sans-serif" font-weight="700" font-size="24" transform="translate(800.285 584)">0</text></g><g clip-path="url(#clip3)"><text fill="#FFFFFF" font-family="DengXian,DengXian_MSFontService,sans-serif" font-weight="700" font-size="24" transform="translate(853.738 584)">0</text></g><g clip-path="url(#clip4)"><text fill="#FFFFFF" font-family="DengXian,DengXian_MSFontService,sans-serif" font-weight="700" font-size="24" transform="translate(907.191 584)">0</text></g><g clip-path="url(#clip5)"><text fill="#FFFFFF" font-family="DengXian,DengXian_MSFontService,sans-serif" font-weight="700" font-size="24" transform="translate(960.644 584)">1</text></g><g clip-path="url(#clip6)"><text fill="#FFFFFF" font-family="DengXian,DengXian_MSFontService,sans-serif" font-weight="700" font-size="24" transform="translate(1014.1 584)">0</text></g><g clip-path="url(#clip7)"><text fill="#FFFFFF" font-family="DengXian,DengXian_MSFontService,sans-serif" font-weight="700" font-size="24" transform="translate(1067.55 584)">0</text></g><g clip-path="url(#clip8)"><text fill="#FFFFFF" font-family="DengXian,DengXian_MSFontService,sans-serif" font-weight="700" font-size="24" transform="translate(1121 584)">1</text></g><g clip-path="url(#clip9)"><text fill="#FFFFFF" font-family="DengXian,DengXian_MSFontService,sans-serif" font-weight="700" font-size="24" transform="translate(1174.46 584)">0</text></g><path d="M205.768 282.133 632.434 282.133 632.434 321.067 205.768 321.067Z" fill="#4472C4" fill-rule="evenodd"/><path d="M632.434 282.133 1059.1 282.133 1059.1 321.067 632.434 321.067Z" fill="#4472C4" fill-rule="evenodd"/><path d="M205.768 321.067 632.434 321.067 632.434 360 205.768 360Z" fill="#CFD5EA" fill-rule="evenodd"/><path d="M632.434 321.067 1059.1 321.067 1059.1 360 632.434 360Z" fill="#CFD5EA" fill-rule="evenodd"/><path d="M205.768 360 632.434 360 632.434 398.933 205.768 398.933Z" fill="#E9EBF5" fill-rule="evenodd"/><path d="M632.434 360 1059.1 360 1059.1 398.933 632.434 398.933Z" fill="#E9EBF5" fill-rule="evenodd"/><path d="M205.768 398.933 632.434 398.933 632.434 437.867 205.768 437.867Z" fill="#CFD5EA" fill-rule="evenodd"/><path d="M632.434 398.933 1059.1 398.933 1059.1 437.867 632.434 437.867Z" fill="#CFD5EA" fill-rule="evenodd"/><path d="M632.434 281.467 632.434 438.533" stroke="#FFFFFF" stroke-width="1.33333" stroke-linejoin="round" stroke-miterlimit="10" fill="none" fill-rule="evenodd"/><path d="M205.101 321.067 1059.77 321.067" stroke="#FFFFFF" stroke-width="4" stroke-linejoin="round" stroke-miterlimit="10" fill="none" fill-rule="evenodd"/><path d="M205.101 360 1059.77 360" stroke="#FFFFFF" stroke-width="1.33333" stroke-linejoin="round" stroke-miterlimit="10" fill="none" fill-rule="evenodd"/><path d="M205.101 398.933 1059.77 398.933" stroke="#FFFFFF" stroke-width="1.33333" stroke-linejoin="round" stroke-miterlimit="10" fill="none" fill-rule="evenodd"/><path d="M205.768 281.467 205.768 438.533" stroke="#FFFFFF" stroke-width="1.33333" stroke-linejoin="round" stroke-miterlimit="10" fill="none" fill-rule="evenodd"/><path d="M1059.1 281.467 1059.1 438.533" stroke="#FFFFFF" stroke-width="1.33333" stroke-linejoin="round" stroke-miterlimit="10" fill="none" fill-rule="evenodd"/><path d="M205.101 282.133 1059.77 282.133" stroke="#FFFFFF" stroke-width="1.33333" stroke-linejoin="round" stroke-miterlimit="10" fill="none" fill-rule="evenodd"/><path d="M205.101 437.867 1059.77 437.867" stroke="#FFFFFF" stroke-width="1.33333" stroke-linejoin="round" stroke-miterlimit="10" fill="none" fill-rule="evenodd"/><text fill="#FFFFFF" font-family="DengXian,DengXian_MSFontService,sans-serif" font-weight="700" font-size="24" transform="translate(362.684 309)">Command</text><text fill="#FFFFFF" font-family="DengXian,DengXian_MSFontService,sans-serif" font-weight="700" font-size="24" transform="translate(802.934 309)">Opcode</text><text font-family="DengXian,DengXian_MSFontService,sans-serif" font-weight="700" font-size="24" transform="translate(396.518 348)">Add</text><text font-family="DengXian,DengXian_MSFontService,sans-serif" font-weight="700" font-size="24" transform="translate(812.434 348)">10010</text><text font-family="DengXian,DengXian_MSFontService,sans-serif" font-weight="700" font-size="24" transform="translate(392.601 387)">Load</text><text font-family="DengXian,DengXian_MSFontService,sans-serif" font-weight="700" font-size="24" transform="translate(812.434 387)">11001</text><text font-family="DengXian,DengXian_MSFontService,sans-serif" font-weight="700" font-size="24" transform="translate(409.351 426)">…</text><text font-family="DengXian,DengXian_MSFontService,sans-serif" font-weight="700" font-size="24" transform="translate(836.018 426)">…</text></g></svg>