<svg width="1280" height="720" xmlns="http://www.w3.org/2000/svg" xmlns:xlink="http://www.w3.org/1999/xlink" overflow="hidden"><defs><filter id="fx0" x="-10%" y="-10%" width="120%" height="120%" filterUnits="userSpaceOnUse" primitiveUnits="userSpaceOnUse"><feComponentTransfer color-interpolation-filters="sRGB"><feFuncR type="discrete" tableValues="0 0"/><feFuncG type="discrete" tableValues="0 0"/><feFuncB type="discrete" tableValues="0 0"/><feFuncA type="linear" slope="0.4" intercept="0"/></feComponentTransfer><feGaussianBlur stdDeviation="1.77778 1.77778"/></filter><clipPath id="clip1"><rect x="0" y="0" width="1280" height="720"/></clipPath><clipPath id="clip2"><path d="M79.5001 138.5 79.5001 289.5 965.5 289.5 965.5 138.5ZM1.90735e-05 1.07288e-05 1280 1.07288e-05 1280 720 1.90735e-05 720Z" fill-rule="evenodd" clip-rule="evenodd"/></clipPath><clipPath id="clip3"><rect x="-2" y="-2" width="905" height="170"/></clipPath><clipPath id="clip4"><rect x="0" y="0" width="901" height="166"/></clipPath></defs><g clip-path="url(#clip1)"><rect x="0" y="0" width="1280" height="720" fill="#FFFFFF"/><g clip-path="url(#clip2)"><g clip-path="url(#clip3)" filter="url(#fx0)" transform="translate(75 134)"><g clip-path="url(#clip4)"><rect x="7.32848" y="7.32848" width="886" height="151" stroke="#2F528F" stroke-miterlimit="8" fill="#DAE3F3"/></g></g></g><rect x="79.5001" y="138.5" width="886" height="151" stroke="#2F528F" stroke-width="1.33333" stroke-miterlimit="8" fill="#DAE3F3"/><text font-family="Consolas,Consolas_MSFontService,sans-serif" font-weight="400" font-size="24" transform="translate(113.517 193)">// Start processing the table..</text><text font-family="Consolas,Consolas_MSFontService,sans-serif" font-weight="400" font-size="24" transform="translate(113.517 221)">Load R1, 18</text><rect x="640.5" y="62.5001" width="278" height="68" stroke="#000000" stroke-width="1.33333" stroke-miterlimit="8" fill="#FFFFFF"/><path d="M623.467 112.938 538.024 181.647" stroke="#000000" stroke-width="1.33333" stroke-miterlimit="8" fill="none" fill-rule="evenodd"/><text font-family="Times New Roman,Times New Roman_MSFontService,sans-serif" font-weight="400" font-size="27" transform="translate(681.801 106)">Ignore whitespace</text><rect x="607.5" y="326.5" width="278" height="68" stroke="#000000" stroke-width="1.33333" stroke-miterlimit="8" fill="#FFFFFF"/><path d="M590.467 376.938 274.512 213.568" stroke="#000000" stroke-width="1.33333" stroke-miterlimit="8" fill="none" fill-rule="evenodd"/><text font-family="Times New Roman,Times New Roman_MSFontService,sans-serif" font-weight="400" font-size="27" transform="translate(625.067 354)">Read this into an array</text><text font-family="Times New Roman,Times New Roman_MSFontService,sans-serif" font-weight="400" font-size="27" transform="translate(677.234 386)">of characters</text><path d="M132.179 442.731 217.512 442.731 217.512 481.664 132.179 481.664Z" fill="#4472C4" fill-rule="evenodd"/><path d="M217.512 442.731 302.845 442.731 302.845 481.664 217.512 481.664Z" fill="#4472C4" fill-rule="evenodd"/><path d="M302.845 442.731 388.179 442.731 388.179 481.664 302.845 481.664Z" fill="#4472C4" fill-rule="evenodd"/><path d="M388.179 442.731 473.512 442.731 473.512 481.664 388.179 481.664Z" fill="#4472C4" fill-rule="evenodd"/><path d="M473.512 442.731 558.845 442.731 558.845 481.664 473.512 481.664Z" fill="#4472C4" fill-rule="evenodd"/><path d="M558.845 442.731 644.179 442.731 644.179 481.664 558.845 481.664Z" fill="#4472C4" fill-rule="evenodd"/><path d="M644.179 442.731 729.512 442.731 729.512 481.664 644.179 481.664Z" fill="#4472C4" fill-rule="evenodd"/><path d="M729.512 442.731 814.845 442.731 814.845 481.664 729.512 481.664Z" fill="#4472C4" fill-rule="evenodd"/><path d="M814.845 442.731 900.179 442.731 900.179 481.664 814.845 481.664Z" fill="#4472C4" fill-rule="evenodd"/><path d="M900.179 442.731 985.512 442.731 985.512 481.664 900.179 481.664Z" fill="#4472C4" fill-rule="evenodd"/><path d="M217.512 442.064 217.512 483.664" stroke="#FFFFFF" stroke-width="1.33333" stroke-linejoin="round" stroke-miterlimit="10" fill="none" fill-rule="evenodd"/><path d="M302.845 442.064 302.845 483.664" stroke="#FFFFFF" stroke-width="1.33333" stroke-linejoin="round" stroke-miterlimit="10" fill="none" fill-rule="evenodd"/><path d="M388.179 442.064 388.179 483.664" stroke="#FFFFFF" stroke-width="1.33333" stroke-linejoin="round" stroke-miterlimit="10" fill="none" fill-rule="evenodd"/><path d="M473.512 442.064 473.512 483.664" stroke="#FFFFFF" stroke-width="1.33333" stroke-linejoin="round" stroke-miterlimit="10" fill="none" fill-rule="evenodd"/><path d="M558.845 442.064 558.845 483.664" stroke="#FFFFFF" stroke-width="1.33333" stroke-linejoin="round" stroke-miterlimit="10" fill="none" fill-rule="evenodd"/><path d="M644.179 442.064 644.179 483.664" stroke="#FFFFFF" stroke-width="1.33333" stroke-linejoin="round" stroke-miterlimit="10" fill="none" fill-rule="evenodd"/><path d="M729.512 442.064 729.512 483.664" stroke="#FFFFFF" stroke-width="1.33333" stroke-linejoin="round" stroke-miterlimit="10" fill="none" fill-rule="evenodd"/><path d="M814.845 442.064 814.845 483.664" stroke="#FFFFFF" stroke-width="1.33333" stroke-linejoin="round" stroke-miterlimit="10" fill="none" fill-rule="evenodd"/><path d="M900.179 442.064 900.179 483.664" stroke="#FFFFFF" stroke-width="1.33333" stroke-linejoin="round" stroke-miterlimit="10" fill="none" fill-rule="evenodd"/><path d="M132.179 442.064 132.179 483.664" stroke="#FFFFFF" stroke-width="1.33333" stroke-linejoin="round" stroke-miterlimit="10" fill="none" fill-rule="evenodd"/><path d="M985.512 442.064 985.512 483.664" stroke="#FFFFFF" stroke-width="1.33333" stroke-linejoin="round" stroke-miterlimit="10" fill="none" fill-rule="evenodd"/><path d="M131.512 442.731 986.179 442.731" stroke="#FFFFFF" stroke-width="1.33333" stroke-linejoin="round" stroke-miterlimit="10" fill="none" fill-rule="evenodd"/><path d="M131.512 481.664 986.179 481.664" stroke="#FFFFFF" stroke-width="4" stroke-linejoin="round" stroke-miterlimit="10" fill="none" fill-rule="evenodd"/><text fill="#FFFFFF" font-family="Consolas,Consolas_MSFontService,sans-serif" font-weight="700" font-size="24" transform="translate(168.262 471)">L</text><text fill="#FFFFFF" font-family="Consolas,Consolas_MSFontService,sans-serif" font-weight="700" font-size="24" transform="translate(253.595 471)">o</text><text fill="#FFFFFF" font-family="Consolas,Consolas_MSFontService,sans-serif" font-weight="700" font-size="24" transform="translate(338.929 471)">a</text><text fill="#FFFFFF" font-family="Consolas,Consolas_MSFontService,sans-serif" font-weight="700" font-size="24" transform="translate(424.262 471)">d</text><text fill="#FFFFFF" font-family="Consolas,Consolas_MSFontService,sans-serif" font-weight="700" font-size="24" transform="translate(594.929 471)">R</text><text fill="#FFFFFF" font-family="Consolas,Consolas_MSFontService,sans-serif" font-weight="700" font-size="24" transform="translate(680.262 471)">1</text><text fill="#FFFFFF" font-family="Consolas,Consolas_MSFontService,sans-serif" font-weight="700" font-size="24" transform="translate(765.595 471)">,</text><text fill="#FFFFFF" font-family="Consolas,Consolas_MSFontService,sans-serif" font-weight="700" font-size="24" transform="translate(850.929 471)">1</text><text fill="#FFFFFF" font-family="Consolas,Consolas_MSFontService,sans-serif" font-weight="700" font-size="24" transform="translate(936.262 471)">8</text></g></svg>