<svg width="1280" height="720" xmlns="http://www.w3.org/2000/svg" xmlns:xlink="http://www.w3.org/1999/xlink" overflow="hidden"><defs><clipPath id="clip0"><rect x="0" y="0" width="1280" height="720"/></clipPath><clipPath id="clip1"><rect x="771" y="84" width="55" height="203"/></clipPath><clipPath id="clip2"><rect x="825" y="84" width="54" height="203"/></clipPath><clipPath id="clip3"><rect x="878" y="84" width="55" height="203"/></clipPath><clipPath id="clip4"><rect x="932" y="84" width="54" height="203"/></clipPath><clipPath id="clip5"><rect x="985" y="84" width="55" height="203"/></clipPath><clipPath id="clip6"><rect x="1039" y="84" width="54" height="203"/></clipPath><clipPath id="clip7"><rect x="1092" y="84" width="55" height="203"/></clipPath><clipPath id="clip8"><rect x="1146" y="84" width="54" height="203"/></clipPath><clipPath id="clip9"><rect x="1199" y="84" width="54" height="203"/></clipPath><clipPath id="clip10"><rect x="667" y="394" width="54" height="202"/></clipPath><clipPath id="clip11"><rect x="720" y="394" width="54" height="202"/></clipPath><clipPath id="clip12"><rect x="773" y="394" width="55" height="202"/></clipPath><clipPath id="clip13"><rect x="827" y="394" width="54" height="202"/></clipPath><clipPath id="clip14"><rect x="880" y="394" width="55" height="202"/></clipPath><clipPath id="clip15"><rect x="934" y="394" width="54" height="202"/></clipPath><clipPath id="clip16"><rect x="987" y="394" width="55" height="202"/></clipPath><clipPath id="clip17"><rect x="1041" y="394" width="54" height="202"/></clipPath><clipPath id="clip18"><rect x="1094" y="394" width="55" height="202"/></clipPath></defs><g clip-path="url(#clip0)"><rect x="0" y="0" width="1280" height="720" fill="#FFFFFF"/><path d="M52.0138 166.263 123.782 166.263 123.782 205.196 52.0138 205.196Z" fill="#FFC000" fill-rule="evenodd"/><path d="M123.782 166.263 195.55 166.263 195.55 205.196 123.782 205.196Z" fill="#FFC000" fill-rule="evenodd"/><path d="M195.55 166.263 267.318 166.263 267.318 205.196 195.55 205.196Z" fill="#FFC000" fill-rule="evenodd"/><path d="M267.318 166.263 339.086 166.263 339.086 205.196 267.318 205.196Z" fill="#FFC000" fill-rule="evenodd"/><path d="M339.086 166.263 410.854 166.263 410.854 205.196 339.086 205.196Z" fill="#FFC000" fill-rule="evenodd"/><path d="M123.782 165.596 123.782 207.196" stroke="#FFFFFF" stroke-width="1.33333" stroke-linejoin="round" stroke-miterlimit="10" fill="none" fill-rule="evenodd"/><path d="M195.55 165.596 195.55 207.196" stroke="#FFFFFF" stroke-width="1.33333" stroke-linejoin="round" stroke-miterlimit="10" fill="none" fill-rule="evenodd"/><path d="M267.318 165.596 267.318 207.196" stroke="#FFFFFF" stroke-width="1.33333" stroke-linejoin="round" stroke-miterlimit="10" fill="none" fill-rule="evenodd"/><path d="M339.086 165.596 339.086 207.196" stroke="#FFFFFF" stroke-width="1.33333" stroke-linejoin="round" stroke-miterlimit="10" fill="none" fill-rule="evenodd"/><path d="M52.0138 165.596 52.0138 207.196" stroke="#FFFFFF" stroke-width="1.33333" stroke-linejoin="round" stroke-miterlimit="10" fill="none" fill-rule="evenodd"/><path d="M410.854 165.596 410.854 207.196" stroke="#FFFFFF" stroke-width="1.33333" stroke-linejoin="round" stroke-miterlimit="10" fill="none" fill-rule="evenodd"/><path d="M51.3471 166.263 411.521 166.263" stroke="#FFFFFF" stroke-width="1.33333" stroke-linejoin="round" stroke-miterlimit="10" fill="none" fill-rule="evenodd"/><path d="M51.3471 205.196 411.521 205.196" stroke="#FFFFFF" stroke-width="4" stroke-linejoin="round" stroke-miterlimit="10" fill="none" fill-rule="evenodd"/><text fill="#FFFFFF" font-family="DengXian,DengXian_MSFontService,sans-serif" font-weight="700" font-size="24" transform="translate(81.2311 193)">1</text><text fill="#FFFFFF" font-family="DengXian,DengXian_MSFontService,sans-serif" font-weight="700" font-size="24" transform="translate(152.999 193)">1</text><text fill="#FFFFFF" font-family="DengXian,DengXian_MSFontService,sans-serif" font-weight="700" font-size="24" transform="translate(224.767 193)">0</text><text fill="#FFFFFF" font-family="DengXian,DengXian_MSFontService,sans-serif" font-weight="700" font-size="24" transform="translate(296.535 193)">0</text><text fill="#FFFFFF" font-family="DengXian,DengXian_MSFontService,sans-serif" font-weight="700" font-size="24" transform="translate(368.303 193)">1</text><path d="M534.367 166.263 600.72 166.263 600.72 205.196 534.367 205.196Z" fill="#FFC000" fill-rule="evenodd"/><path d="M600.72 166.263 667.073 166.263 667.073 205.196 600.72 205.196Z" fill="#FFC000" fill-rule="evenodd"/><path d="M600.72 165.596 600.72 207.196" stroke="#FFFFFF" stroke-width="1.33333" stroke-linejoin="round" stroke-miterlimit="10" fill="none" fill-rule="evenodd"/><path d="M534.367 165.596 534.367 207.196" stroke="#FFFFFF" stroke-width="1.33333" stroke-linejoin="round" stroke-miterlimit="10" fill="none" fill-rule="evenodd"/><path d="M667.073 165.596 667.073 207.196" stroke="#FFFFFF" stroke-width="1.33333" stroke-linejoin="round" stroke-miterlimit="10" fill="none" fill-rule="evenodd"/><path d="M533.7 166.263 667.74 166.263" stroke="#FFFFFF" stroke-width="1.33333" stroke-linejoin="round" stroke-miterlimit="10" fill="none" fill-rule="evenodd"/><path d="M533.7 205.196 667.74 205.196" stroke="#FFFFFF" stroke-width="4" stroke-linejoin="round" stroke-miterlimit="10" fill="none" fill-rule="evenodd"/><text fill="#FFFFFF" font-family="DengXian,DengXian_MSFontService,sans-serif" font-weight="700" font-size="24" transform="translate(560.877 193)">0</text><text fill="#FFFFFF" font-family="DengXian,DengXian_MSFontService,sans-serif" font-weight="700" font-size="24" transform="translate(627.23 193)">1</text><path d="M771.871 166.263 825.324 166.263 825.324 205.196 771.871 205.196Z" fill="#FFC000" fill-rule="evenodd"/><path d="M825.324 166.263 878.777 166.263 878.777 205.196 825.324 205.196Z" fill="#FFC000" fill-rule="evenodd"/><path d="M878.777 166.263 932.23 166.263 932.23 205.196 878.777 205.196Z" fill="#FFC000" fill-rule="evenodd"/><path d="M932.23 166.263 985.683 166.263 985.683 205.196 932.23 205.196Z" fill="#FFC000" fill-rule="evenodd"/><path d="M985.683 166.263 1039.14 166.263 1039.14 205.196 985.683 205.196Z" fill="#FFC000" fill-rule="evenodd"/><path d="M1039.14 166.263 1092.59 166.263 1092.59 205.196 1039.14 205.196Z" fill="#FFC000" fill-rule="evenodd"/><path d="M1092.59 166.263 1146.04 166.263 1146.04 205.196 1092.59 205.196Z" fill="#FFC000" fill-rule="evenodd"/><path d="M1146.04 166.263 1199.49 166.263 1199.49 205.196 1146.04 205.196Z" fill="#FFC000" fill-rule="evenodd"/><path d="M1199.49 166.263 1252.95 166.263 1252.95 205.196 1199.49 205.196Z" fill="#FFC000" fill-rule="evenodd"/><path d="M825.324 165.596 825.324 207.196" stroke="#FFFFFF" stroke-width="1.33333" stroke-linejoin="round" stroke-miterlimit="10" fill="none" fill-rule="evenodd"/><path d="M878.777 165.596 878.777 207.196" stroke="#FFFFFF" stroke-width="1.33333" stroke-linejoin="round" stroke-miterlimit="10" fill="none" fill-rule="evenodd"/><path d="M932.23 165.596 932.23 207.196" stroke="#FFFFFF" stroke-width="1.33333" stroke-linejoin="round" stroke-miterlimit="10" fill="none" fill-rule="evenodd"/><path d="M985.683 165.596 985.683 207.196" stroke="#FFFFFF" stroke-width="1.33333" stroke-linejoin="round" stroke-miterlimit="10" fill="none" fill-rule="evenodd"/><path d="M1039.14 165.596 1039.14 207.196" stroke="#FFFFFF" stroke-width="1.33333" stroke-linejoin="round" stroke-miterlimit="10" fill="none" fill-rule="evenodd"/><path d="M1092.59 165.596 1092.59 207.196" stroke="#FFFFFF" stroke-width="1.33333" stroke-linejoin="round" stroke-miterlimit="10" fill="none" fill-rule="evenodd"/><path d="M1146.04 165.596 1146.04 207.196" stroke="#FFFFFF" stroke-width="1.33333" stroke-linejoin="round" stroke-miterlimit="10" fill="none" fill-rule="evenodd"/><path d="M1199.49 165.596 1199.49 207.196" stroke="#FFFFFF" stroke-width="1.33333" stroke-linejoin="round" stroke-miterlimit="10" fill="none" fill-rule="evenodd"/><path d="M771.871 165.596 771.871 207.196" stroke="#FFFFFF" stroke-width="1.33333" stroke-linejoin="round" stroke-miterlimit="10" fill="none" fill-rule="evenodd"/><path d="M1252.95 165.596 1252.95 207.196" stroke="#FFFFFF" stroke-width="1.33333" stroke-linejoin="round" stroke-miterlimit="10" fill="none" fill-rule="evenodd"/><path d="M771.204 166.263 1253.61 166.263" stroke="#FFFFFF" stroke-width="1.33333" stroke-linejoin="round" stroke-miterlimit="10" fill="none" fill-rule="evenodd"/><path d="M771.204 205.196 1253.61 205.196" stroke="#FFFFFF" stroke-width="4" stroke-linejoin="round" stroke-miterlimit="10" fill="none" fill-rule="evenodd"/><g clip-path="url(#clip1)"><text fill="#FFFFFF" font-family="DengXian,DengXian_MSFontService,sans-serif" font-weight="700" font-size="24" transform="translate(781.471 193)">0</text></g><g clip-path="url(#clip2)"><text fill="#FFFFFF" font-family="DengXian,DengXian_MSFontService,sans-serif" font-weight="700" font-size="24" transform="translate(834.924 193)">0</text></g><g clip-path="url(#clip3)"><text fill="#FFFFFF" font-family="DengXian,DengXian_MSFontService,sans-serif" font-weight="700" font-size="24" transform="translate(888.377 193)">0</text></g><g clip-path="url(#clip4)"><text fill="#FFFFFF" font-family="DengXian,DengXian_MSFontService,sans-serif" font-weight="700" font-size="24" transform="translate(941.83 193)">0</text></g><g clip-path="url(#clip5)"><text fill="#FFFFFF" font-family="DengXian,DengXian_MSFontService,sans-serif" font-weight="700" font-size="24" transform="translate(995.283 193)">1</text></g><g clip-path="url(#clip6)"><text fill="#FFFFFF" font-family="DengXian,DengXian_MSFontService,sans-serif" font-weight="700" font-size="24" transform="translate(1048.74 193)">0</text></g><g clip-path="url(#clip7)"><text fill="#FFFFFF" font-family="DengXian,DengXian_MSFontService,sans-serif" font-weight="700" font-size="24" transform="translate(1102.19 193)">0</text></g><g clip-path="url(#clip8)"><text fill="#FFFFFF" font-family="DengXian,DengXian_MSFontService,sans-serif" font-weight="700" font-size="24" transform="translate(1155.64 193)">1</text></g><g clip-path="url(#clip9)"><text fill="#FFFFFF" font-family="DengXian,DengXian_MSFontService,sans-serif" font-weight="700" font-size="24" transform="translate(1209.09 193)">0</text></g><path d="M175.527 475.871 247.295 475.871 247.295 514.804 175.527 514.804Z" fill="#FFC000" fill-rule="evenodd"/><path d="M247.295 475.871 319.063 475.871 319.063 514.804 247.295 514.804Z" fill="#FFC000" fill-rule="evenodd"/><path d="M319.063 475.871 390.831 475.871 390.831 514.804 319.063 514.804Z" fill="#FFC000" fill-rule="evenodd"/><path d="M390.831 475.871 462.599 475.871 462.599 514.804 390.831 514.804Z" fill="#FFC000" fill-rule="evenodd"/><path d="M462.599 475.871 534.367 475.871 534.367 514.804 462.599 514.804Z" fill="#FFC000" fill-rule="evenodd"/><path d="M247.295 475.204 247.295 516.804" stroke="#FFFFFF" stroke-width="1.33333" stroke-linejoin="round" stroke-miterlimit="10" fill="none" fill-rule="evenodd"/><path d="M319.063 475.204 319.063 516.804" stroke="#FFFFFF" stroke-width="1.33333" stroke-linejoin="round" stroke-miterlimit="10" fill="none" fill-rule="evenodd"/><path d="M390.831 475.204 390.831 516.804" stroke="#FFFFFF" stroke-width="1.33333" stroke-linejoin="round" stroke-miterlimit="10" fill="none" fill-rule="evenodd"/><path d="M462.599 475.204 462.599 516.804" stroke="#FFFFFF" stroke-width="1.33333" stroke-linejoin="round" stroke-miterlimit="10" fill="none" fill-rule="evenodd"/><path d="M175.527 475.204 175.527 516.804" stroke="#FFFFFF" stroke-width="1.33333" stroke-linejoin="round" stroke-miterlimit="10" fill="none" fill-rule="evenodd"/><path d="M534.367 475.204 534.367 516.804" stroke="#FFFFFF" stroke-width="1.33333" stroke-linejoin="round" stroke-miterlimit="10" fill="none" fill-rule="evenodd"/><path d="M174.86 475.871 535.034 475.871" stroke="#FFFFFF" stroke-width="1.33333" stroke-linejoin="round" stroke-miterlimit="10" fill="none" fill-rule="evenodd"/><path d="M174.86 514.804 535.034 514.804" stroke="#FFFFFF" stroke-width="4" stroke-linejoin="round" stroke-miterlimit="10" fill="none" fill-rule="evenodd"/><text fill="#FFFFFF" font-family="DengXian,DengXian_MSFontService,sans-serif" font-weight="700" font-size="24" transform="translate(204.744 503)">1</text><text fill="#FFFFFF" font-family="DengXian,DengXian_MSFontService,sans-serif" font-weight="700" font-size="24" transform="translate(276.512 503)">1</text><text fill="#FFFFFF" font-family="DengXian,DengXian_MSFontService,sans-serif" font-weight="700" font-size="24" transform="translate(348.28 503)">0</text><text fill="#FFFFFF" font-family="DengXian,DengXian_MSFontService,sans-serif" font-weight="700" font-size="24" transform="translate(420.048 503)">0</text><text fill="#FFFFFF" font-family="DengXian,DengXian_MSFontService,sans-serif" font-weight="700" font-size="24" transform="translate(491.816 503)">1</text><path d="M534.367 475.871 600.72 475.871 600.72 514.804 534.367 514.804Z" fill="#FFC000" fill-rule="evenodd"/><path d="M600.72 475.871 667.073 475.871 667.073 514.804 600.72 514.804Z" fill="#FFC000" fill-rule="evenodd"/><path d="M600.72 475.204 600.72 516.804" stroke="#FFFFFF" stroke-width="1.33333" stroke-linejoin="round" stroke-miterlimit="10" fill="none" fill-rule="evenodd"/><path d="M534.367 475.204 534.367 516.804" stroke="#FFFFFF" stroke-width="1.33333" stroke-linejoin="round" stroke-miterlimit="10" fill="none" fill-rule="evenodd"/><path d="M667.073 475.204 667.073 516.804" stroke="#FFFFFF" stroke-width="1.33333" stroke-linejoin="round" stroke-miterlimit="10" fill="none" fill-rule="evenodd"/><path d="M533.7 475.871 667.74 475.871" stroke="#FFFFFF" stroke-width="1.33333" stroke-linejoin="round" stroke-miterlimit="10" fill="none" fill-rule="evenodd"/><path d="M533.7 514.804 667.74 514.804" stroke="#FFFFFF" stroke-width="4" stroke-linejoin="round" stroke-miterlimit="10" fill="none" fill-rule="evenodd"/><text fill="#FFFFFF" font-family="DengXian,DengXian_MSFontService,sans-serif" font-weight="700" font-size="24" transform="translate(560.877 503)">0</text><text fill="#FFFFFF" font-family="DengXian,DengXian_MSFontService,sans-serif" font-weight="700" font-size="24" transform="translate(627.23 503)">1</text><path d="M667.073 475.871 720.526 475.871 720.526 514.804 667.073 514.804Z" fill="#FFC000" fill-rule="evenodd"/><path d="M720.526 475.871 773.979 475.871 773.979 514.804 720.526 514.804Z" fill="#FFC000" fill-rule="evenodd"/><path d="M773.979 475.871 827.433 475.871 827.433 514.804 773.979 514.804Z" fill="#FFC000" fill-rule="evenodd"/><path d="M827.433 475.871 880.886 475.871 880.886 514.804 827.433 514.804Z" fill="#FFC000" fill-rule="evenodd"/><path d="M880.886 475.871 934.339 475.871 934.339 514.804 880.886 514.804Z" fill="#FFC000" fill-rule="evenodd"/><path d="M934.339 475.871 987.792 475.871 987.792 514.804 934.339 514.804Z" fill="#FFC000" fill-rule="evenodd"/><path d="M987.792 475.871 1041.24 475.871 1041.24 514.804 987.792 514.804Z" fill="#FFC000" fill-rule="evenodd"/><path d="M1041.24 475.871 1094.7 475.871 1094.7 514.804 1041.24 514.804Z" fill="#FFC000" fill-rule="evenodd"/><path d="M1094.7 475.871 1148.15 475.871 1148.15 514.804 1094.7 514.804Z" fill="#FFC000" fill-rule="evenodd"/><path d="M720.526 475.204 720.526 516.804" stroke="#FFFFFF" stroke-width="1.33333" stroke-linejoin="round" stroke-miterlimit="10" fill="none" fill-rule="evenodd"/><path d="M773.979 475.204 773.979 516.804" stroke="#FFFFFF" stroke-width="1.33333" stroke-linejoin="round" stroke-miterlimit="10" fill="none" fill-rule="evenodd"/><path d="M827.433 475.204 827.433 516.804" stroke="#FFFFFF" stroke-width="1.33333" stroke-linejoin="round" stroke-miterlimit="10" fill="none" fill-rule="evenodd"/><path d="M880.886 475.204 880.886 516.804" stroke="#FFFFFF" stroke-width="1.33333" stroke-linejoin="round" stroke-miterlimit="10" fill="none" fill-rule="evenodd"/><path d="M934.339 475.204 934.339 516.804" stroke="#FFFFFF" stroke-width="1.33333" stroke-linejoin="round" stroke-miterlimit="10" fill="none" fill-rule="evenodd"/><path d="M987.792 475.204 987.792 516.804" stroke="#FFFFFF" stroke-width="1.33333" stroke-linejoin="round" stroke-miterlimit="10" fill="none" fill-rule="evenodd"/><path d="M1041.24 475.204 1041.24 516.804" stroke="#FFFFFF" stroke-width="1.33333" stroke-linejoin="round" stroke-miterlimit="10" fill="none" fill-rule="evenodd"/><path d="M1094.7 475.204 1094.7 516.804" stroke="#FFFFFF" stroke-width="1.33333" stroke-linejoin="round" stroke-miterlimit="10" fill="none" fill-rule="evenodd"/><path d="M667.073 475.204 667.073 516.804" stroke="#FFFFFF" stroke-width="1.33333" stroke-linejoin="round" stroke-miterlimit="10" fill="none" fill-rule="evenodd"/><path d="M1148.15 475.204 1148.15 516.804" stroke="#FFFFFF" stroke-width="1.33333" stroke-linejoin="round" stroke-miterlimit="10" fill="none" fill-rule="evenodd"/><path d="M666.407 475.871 1148.82 475.871" stroke="#FFFFFF" stroke-width="1.33333" stroke-linejoin="round" stroke-miterlimit="10" fill="none" fill-rule="evenodd"/><path d="M666.407 514.804 1148.82 514.804" stroke="#FFFFFF" stroke-width="4" stroke-linejoin="round" stroke-miterlimit="10" fill="none" fill-rule="evenodd"/><g clip-path="url(#clip10)"><text fill="#FFFFFF" font-family="DengXian,DengXian_MSFontService,sans-serif" font-weight="700" font-size="24" transform="translate(676.673 503)">0</text></g><g clip-path="url(#clip11)"><text fill="#FFFFFF" font-family="DengXian,DengXian_MSFontService,sans-serif" font-weight="700" font-size="24" transform="translate(730.127 503)">0</text></g><g clip-path="url(#clip12)"><text fill="#FFFFFF" font-family="DengXian,DengXian_MSFontService,sans-serif" font-weight="700" font-size="24" transform="translate(783.58 503)">0</text></g><g clip-path="url(#clip13)"><text fill="#FFFFFF" font-family="DengXian,DengXian_MSFontService,sans-serif" font-weight="700" font-size="24" transform="translate(837.033 503)">0</text></g><g clip-path="url(#clip14)"><text fill="#FFFFFF" font-family="DengXian,DengXian_MSFontService,sans-serif" font-weight="700" font-size="24" transform="translate(890.486 503)">1</text></g><g clip-path="url(#clip15)"><text fill="#FFFFFF" font-family="DengXian,DengXian_MSFontService,sans-serif" font-weight="700" font-size="24" transform="translate(943.939 503)">0</text></g><g clip-path="url(#clip16)"><text fill="#FFFFFF" font-family="DengXian,DengXian_MSFontService,sans-serif" font-weight="700" font-size="24" transform="translate(997.392 503)">0</text></g><g clip-path="url(#clip17)"><text fill="#FFFFFF" font-family="DengXian,DengXian_MSFontService,sans-serif" font-weight="700" font-size="24" transform="translate(1050.84 503)">1</text></g><g clip-path="url(#clip18)"><text fill="#FFFFFF" font-family="DengXian,DengXian_MSFontService,sans-serif" font-weight="700" font-size="24" transform="translate(1104.3 503)">0</text></g></g></svg>