<svg width="1280" height="720" xmlns="http://www.w3.org/2000/svg" xmlns:xlink="http://www.w3.org/1999/xlink" overflow="hidden"><defs><filter id="fx0" x="-10%" y="-10%" width="120%" height="120%" filterUnits="userSpaceOnUse" primitiveUnits="userSpaceOnUse"><feComponentTransfer color-interpolation-filters="sRGB"><feFuncR type="discrete" tableValues="0 0"/><feFuncG type="discrete" tableValues="0 0"/><feFuncB type="discrete" tableValues="0 0"/><feFuncA type="linear" slope="0.4" intercept="0"/></feComponentTransfer><feGaussianBlur stdDeviation="1.77778 1.77778"/></filter><clipPath id="clip1"><rect x="0" y="0" width="1280" height="720"/></clipPath><clipPath id="clip2"><rect x="688" y="132" width="55" height="203"/></clipPath><clipPath id="clip3"><rect x="742" y="132" width="54" height="203"/></clipPath><clipPath id="clip4"><rect x="795" y="132" width="55" height="203"/></clipPath><clipPath id="clip5"><rect x="849" y="132" width="54" height="203"/></clipPath><clipPath id="clip6"><rect x="902" y="132" width="55" height="203"/></clipPath><clipPath id="clip7"><rect x="956" y="132" width="54" height="203"/></clipPath><clipPath id="clip8"><rect x="1009" y="132" width="55" height="203"/></clipPath><clipPath id="clip9"><rect x="1063" y="132" width="54" height="203"/></clipPath><clipPath id="clip10"><rect x="1116" y="132" width="54" height="203"/></clipPath><clipPath id="clip11"><path d="M336.5 328.5 336.5 526.5 700.5 526.5 700.5 328.5ZM1.90735e-05 1.07288e-05 1280 1.07288e-05 1280 720 1.90735e-05 720Z" fill-rule="evenodd" clip-rule="evenodd"/></clipPath><clipPath id="clip12"><rect x="-2" y="-2" width="382" height="215"/></clipPath><clipPath id="clip13"><rect x="0" y="0" width="379" height="213"/></clipPath></defs><g clip-path="url(#clip1)"><rect x="0" y="0" width="1280" height="720" fill="#FFFFFF"/><path d="M197.3 214.592 269.068 214.592 269.068 253.526 197.3 253.526Z" fill="#FFC000" fill-rule="evenodd"/><path d="M269.068 214.592 340.836 214.592 340.836 253.526 269.068 253.526Z" fill="#FFC000" fill-rule="evenodd"/><path d="M340.836 214.592 412.604 214.592 412.604 253.526 340.836 253.526Z" fill="#FFC000" fill-rule="evenodd"/><path d="M412.604 214.592 484.372 214.592 484.372 253.526 412.604 253.526Z" fill="#FFC000" fill-rule="evenodd"/><path d="M484.372 214.592 556.14 214.592 556.14 253.526 484.372 253.526Z" fill="#FFC000" fill-rule="evenodd"/><path d="M269.068 213.926 269.068 255.526" stroke="#FFFFFF" stroke-width="1.33333" stroke-linejoin="round" stroke-miterlimit="10" fill="none" fill-rule="evenodd"/><path d="M340.836 213.926 340.836 255.526" stroke="#FFFFFF" stroke-width="1.33333" stroke-linejoin="round" stroke-miterlimit="10" fill="none" fill-rule="evenodd"/><path d="M412.604 213.926 412.604 255.526" stroke="#FFFFFF" stroke-width="1.33333" stroke-linejoin="round" stroke-miterlimit="10" fill="none" fill-rule="evenodd"/><path d="M484.372 213.926 484.372 255.526" stroke="#FFFFFF" stroke-width="1.33333" stroke-linejoin="round" stroke-miterlimit="10" fill="none" fill-rule="evenodd"/><path d="M197.3 213.926 197.3 255.526" stroke="#FFFFFF" stroke-width="1.33333" stroke-linejoin="round" stroke-miterlimit="10" fill="none" fill-rule="evenodd"/><path d="M556.14 213.926 556.14 255.526" stroke="#FFFFFF" stroke-width="1.33333" stroke-linejoin="round" stroke-miterlimit="10" fill="none" fill-rule="evenodd"/><path d="M196.633 214.592 556.807 214.592" stroke="#FFFFFF" stroke-width="1.33333" stroke-linejoin="round" stroke-miterlimit="10" fill="none" fill-rule="evenodd"/><path d="M196.633 253.526 556.807 253.526" stroke="#FFFFFF" stroke-width="4" stroke-linejoin="round" stroke-miterlimit="10" fill="none" fill-rule="evenodd"/><text fill="#FFFFFF" font-family="DengXian,DengXian_MSFontService,sans-serif" font-weight="700" font-size="24" transform="translate(226.517 241)">1</text><text fill="#FFFFFF" font-family="DengXian,DengXian_MSFontService,sans-serif" font-weight="700" font-size="24" transform="translate(298.285 241)">1</text><text fill="#FFFFFF" font-family="DengXian,DengXian_MSFontService,sans-serif" font-weight="700" font-size="24" transform="translate(370.053 241)">0</text><text fill="#FFFFFF" font-family="DengXian,DengXian_MSFontService,sans-serif" font-weight="700" font-size="24" transform="translate(441.821 241)">0</text><text fill="#FFFFFF" font-family="DengXian,DengXian_MSFontService,sans-serif" font-weight="700" font-size="24" transform="translate(513.589 241)">1</text><path d="M556.14 214.592 622.493 214.592 622.493 253.526 556.14 253.526Z" fill="#FFC000" fill-rule="evenodd"/><path d="M622.493 214.592 688.847 214.592 688.847 253.526 622.493 253.526Z" fill="#FFC000" fill-rule="evenodd"/><path d="M622.493 213.926 622.493 255.526" stroke="#FFFFFF" stroke-width="1.33333" stroke-linejoin="round" stroke-miterlimit="10" fill="none" fill-rule="evenodd"/><path d="M556.14 213.926 556.14 255.526" stroke="#FFFFFF" stroke-width="1.33333" stroke-linejoin="round" stroke-miterlimit="10" fill="none" fill-rule="evenodd"/><path d="M688.847 213.926 688.847 255.526" stroke="#FFFFFF" stroke-width="1.33333" stroke-linejoin="round" stroke-miterlimit="10" fill="none" fill-rule="evenodd"/><path d="M555.473 214.592 689.513 214.592" stroke="#FFFFFF" stroke-width="1.33333" stroke-linejoin="round" stroke-miterlimit="10" fill="none" fill-rule="evenodd"/><path d="M555.473 253.526 689.513 253.526" stroke="#FFFFFF" stroke-width="4" stroke-linejoin="round" stroke-miterlimit="10" fill="none" fill-rule="evenodd"/><text fill="#FFFFFF" font-family="DengXian,DengXian_MSFontService,sans-serif" font-weight="700" font-size="24" transform="translate(582.65 241)">0</text><text fill="#FFFFFF" font-family="DengXian,DengXian_MSFontService,sans-serif" font-weight="700" font-size="24" transform="translate(649.003 241)">1</text><path d="M688.847 214.592 742.3 214.592 742.3 253.526 688.847 253.526Z" fill="#FFC000" fill-rule="evenodd"/><path d="M742.3 214.592 795.753 214.592 795.753 253.526 742.3 253.526Z" fill="#FFC000" fill-rule="evenodd"/><path d="M795.753 214.592 849.206 214.592 849.206 253.526 795.753 253.526Z" fill="#FFC000" fill-rule="evenodd"/><path d="M849.206 214.592 902.659 214.592 902.659 253.526 849.206 253.526Z" fill="#FFC000" fill-rule="evenodd"/><path d="M902.659 214.592 956.112 214.592 956.112 253.526 902.659 253.526Z" fill="#FFC000" fill-rule="evenodd"/><path d="M956.112 214.592 1009.56 214.592 1009.56 253.526 956.112 253.526Z" fill="#FFC000" fill-rule="evenodd"/><path d="M1009.56 214.592 1063.02 214.592 1063.02 253.526 1009.56 253.526Z" fill="#FFC000" fill-rule="evenodd"/><path d="M1063.02 214.592 1116.47 214.592 1116.47 253.526 1063.02 253.526Z" fill="#FFC000" fill-rule="evenodd"/><path d="M1116.47 214.592 1169.92 214.592 1169.92 253.526 1116.47 253.526Z" fill="#FFC000" fill-rule="evenodd"/><path d="M742.3 213.926 742.3 255.526" stroke="#FFFFFF" stroke-width="1.33333" stroke-linejoin="round" stroke-miterlimit="10" fill="none" fill-rule="evenodd"/><path d="M795.753 213.926 795.753 255.526" stroke="#FFFFFF" stroke-width="1.33333" stroke-linejoin="round" stroke-miterlimit="10" fill="none" fill-rule="evenodd"/><path d="M849.206 213.926 849.206 255.526" stroke="#FFFFFF" stroke-width="1.33333" stroke-linejoin="round" stroke-miterlimit="10" fill="none" fill-rule="evenodd"/><path d="M902.659 213.926 902.659 255.526" stroke="#FFFFFF" stroke-width="1.33333" stroke-linejoin="round" stroke-miterlimit="10" fill="none" fill-rule="evenodd"/><path d="M956.112 213.926 956.112 255.526" stroke="#FFFFFF" stroke-width="1.33333" stroke-linejoin="round" stroke-miterlimit="10" fill="none" fill-rule="evenodd"/><path d="M1009.56 213.926 1009.56 255.526" stroke="#FFFFFF" stroke-width="1.33333" stroke-linejoin="round" stroke-miterlimit="10" fill="none" fill-rule="evenodd"/><path d="M1063.02 213.926 1063.02 255.526" stroke="#FFFFFF" stroke-width="1.33333" stroke-linejoin="round" stroke-miterlimit="10" fill="none" fill-rule="evenodd"/><path d="M1116.47 213.926 1116.47 255.526" stroke="#FFFFFF" stroke-width="1.33333" stroke-linejoin="round" stroke-miterlimit="10" fill="none" fill-rule="evenodd"/><path d="M688.847 213.926 688.847 255.526" stroke="#FFFFFF" stroke-width="1.33333" stroke-linejoin="round" stroke-miterlimit="10" fill="none" fill-rule="evenodd"/><path d="M1169.92 213.926 1169.92 255.526" stroke="#FFFFFF" stroke-width="1.33333" stroke-linejoin="round" stroke-miterlimit="10" fill="none" fill-rule="evenodd"/><path d="M688.18 214.592 1170.59 214.592" stroke="#FFFFFF" stroke-width="1.33333" stroke-linejoin="round" stroke-miterlimit="10" fill="none" fill-rule="evenodd"/><path d="M688.18 253.526 1170.59 253.526" stroke="#FFFFFF" stroke-width="4" stroke-linejoin="round" stroke-miterlimit="10" fill="none" fill-rule="evenodd"/><g clip-path="url(#clip2)"><text fill="#FFFFFF" font-family="DengXian,DengXian_MSFontService,sans-serif" font-weight="700" font-size="24" transform="translate(698.447 241)">0</text></g><g clip-path="url(#clip3)"><text fill="#FFFFFF" font-family="DengXian,DengXian_MSFontService,sans-serif" font-weight="700" font-size="24" transform="translate(751.9 241)">0</text></g><g clip-path="url(#clip4)"><text fill="#FFFFFF" font-family="DengXian,DengXian_MSFontService,sans-serif" font-weight="700" font-size="24" transform="translate(805.353 241)">0</text></g><g clip-path="url(#clip5)"><text fill="#FFFFFF" font-family="DengXian,DengXian_MSFontService,sans-serif" font-weight="700" font-size="24" transform="translate(858.806 241)">0</text></g><g clip-path="url(#clip6)"><text fill="#FFFFFF" font-family="DengXian,DengXian_MSFontService,sans-serif" font-weight="700" font-size="24" transform="translate(912.259 241)">1</text></g><g clip-path="url(#clip7)"><text fill="#FFFFFF" font-family="DengXian,DengXian_MSFontService,sans-serif" font-weight="700" font-size="24" transform="translate(965.712 241)">0</text></g><g clip-path="url(#clip8)"><text fill="#FFFFFF" font-family="DengXian,DengXian_MSFontService,sans-serif" font-weight="700" font-size="24" transform="translate(1019.16 241)">0</text></g><g clip-path="url(#clip9)"><text fill="#FFFFFF" font-family="DengXian,DengXian_MSFontService,sans-serif" font-weight="700" font-size="24" transform="translate(1072.62 241)">1</text></g><g clip-path="url(#clip10)"><text fill="#FFFFFF" font-family="DengXian,DengXian_MSFontService,sans-serif" font-weight="700" font-size="24" transform="translate(1126.07 241)">0</text></g><g clip-path="url(#clip11)"><g clip-path="url(#clip12)" filter="url(#fx0)" transform="translate(332 324)"><g clip-path="url(#clip13)"><rect x="7.32849" y="7.32849" width="364" height="198" stroke="#2F528F" stroke-miterlimit="8" fill="#DAE3F3"/></g></g></g><rect x="336.5" y="328.5" width="364" height="198" stroke="#2F528F" stroke-width="1.33333" stroke-miterlimit="8" fill="#DAE3F3"/><text font-family="Consolas,Consolas_MSFontService,sans-serif" font-weight="400" font-size="24" transform="translate(375.786 407)">…</text><text font-family="Consolas,Consolas_MSFontService,sans-serif" font-weight="400" font-size="24" transform="translate(375.786 435)">110010100001001</text><text font-family="Consolas,Consolas_MSFontService,sans-serif" font-weight="400" font-size="24" transform="translate(573.286 435)">0</text><text font-family="Consolas,Consolas_MSFontService,sans-serif" font-weight="400" font-size="24" transform="translate(375.786 464)">…</text></g></svg>