<svg width="1280" height="720" xmlns="http://www.w3.org/2000/svg" xmlns:xlink="http://www.w3.org/1999/xlink" overflow="hidden"><defs><clipPath id="clip0"><rect x="0" y="0" width="1280" height="720"/></clipPath></defs><g clip-path="url(#clip0)"><rect x="0" y="0" width="1280" height="720" fill="#FFFFFF"/><path d="M145.045 222.68 234.755 222.68 234.755 271.175 145.045 271.175Z" fill="#4472C4" fill-rule="evenodd"/><path d="M234.755 222.68 324.465 222.68 324.465 271.175 234.755 271.175Z" fill="#4472C4" fill-rule="evenodd"/><path d="M324.465 222.68 414.175 222.68 414.175 271.175 324.465 271.175Z" fill="#4472C4" fill-rule="evenodd"/><path d="M414.175 222.68 503.885 222.68 503.885 271.175 414.175 271.175Z" fill="#4472C4" fill-rule="evenodd"/><path d="M503.885 222.68 593.595 222.68 593.595 271.175 503.885 271.175Z" fill="#4472C4" fill-rule="evenodd"/><path d="M593.595 222.68 683.305 222.68 683.305 271.175 593.595 271.175Z" fill="#4472C4" fill-rule="evenodd"/><path d="M683.305 222.68 773.015 222.68 773.015 271.175 683.305 271.175Z" fill="#4472C4" fill-rule="evenodd"/><path d="M773.015 222.68 862.725 222.68 862.725 271.175 773.015 271.175Z" fill="#4472C4" fill-rule="evenodd"/><path d="M862.725 222.68 952.435 222.68 952.435 271.175 862.725 271.175Z" fill="#4472C4" fill-rule="evenodd"/><path d="M952.435 222.68 1042.14 222.68 1042.14 271.175 952.435 271.175Z" fill="#4472C4" fill-rule="evenodd"/><path d="M234.755 222.014 234.755 273.175" stroke="#FFFFFF" stroke-width="1.33333" stroke-linejoin="round" stroke-miterlimit="10" fill="none" fill-rule="evenodd"/><path d="M324.465 222.014 324.465 273.175" stroke="#FFFFFF" stroke-width="1.33333" stroke-linejoin="round" stroke-miterlimit="10" fill="none" fill-rule="evenodd"/><path d="M414.175 222.014 414.175 273.175" stroke="#FFFFFF" stroke-width="1.33333" stroke-linejoin="round" stroke-miterlimit="10" fill="none" fill-rule="evenodd"/><path d="M503.885 222.014 503.885 273.175" stroke="#FFFFFF" stroke-width="1.33333" stroke-linejoin="round" stroke-miterlimit="10" fill="none" fill-rule="evenodd"/><path d="M593.595 222.014 593.595 273.175" stroke="#FFFFFF" stroke-width="1.33333" stroke-linejoin="round" stroke-miterlimit="10" fill="none" fill-rule="evenodd"/><path d="M683.305 222.014 683.305 273.175" stroke="#FFFFFF" stroke-width="1.33333" stroke-linejoin="round" stroke-miterlimit="10" fill="none" fill-rule="evenodd"/><path d="M773.015 222.014 773.015 273.175" stroke="#FFFFFF" stroke-width="1.33333" stroke-linejoin="round" stroke-miterlimit="10" fill="none" fill-rule="evenodd"/><path d="M862.725 222.014 862.725 273.175" stroke="#FFFFFF" stroke-width="1.33333" stroke-linejoin="round" stroke-miterlimit="10" fill="none" fill-rule="evenodd"/><path d="M952.435 222.014 952.435 273.175" stroke="#FFFFFF" stroke-width="1.33333" stroke-linejoin="round" stroke-miterlimit="10" fill="none" fill-rule="evenodd"/><path d="M145.045 222.014 145.045 273.175" stroke="#FFFFFF" stroke-width="1.33333" stroke-linejoin="round" stroke-miterlimit="10" fill="none" fill-rule="evenodd"/><path d="M1042.14 222.014 1042.14 273.175" stroke="#FFFFFF" stroke-width="1.33333" stroke-linejoin="round" stroke-miterlimit="10" fill="none" fill-rule="evenodd"/><path d="M144.378 222.68 1042.81 222.68" stroke="#FFFFFF" stroke-width="1.33333" stroke-linejoin="round" stroke-miterlimit="10" fill="none" fill-rule="evenodd"/><path d="M144.378 271.175 1042.81 271.175" stroke="#FFFFFF" stroke-width="4" stroke-linejoin="round" stroke-miterlimit="10" fill="none" fill-rule="evenodd"/><text fill="#FFFFFF" font-family="Consolas,Consolas_MSFontService,sans-serif" font-weight="700" font-size="24" transform="translate(183.316 250)">L</text><text fill="#FFFFFF" font-family="Consolas,Consolas_MSFontService,sans-serif" font-weight="700" font-size="24" transform="translate(273.026 250)">o</text><text fill="#FFFFFF" font-family="Consolas,Consolas_MSFontService,sans-serif" font-weight="700" font-size="24" transform="translate(362.736 250)">a</text><text fill="#FFFFFF" font-family="Consolas,Consolas_MSFontService,sans-serif" font-weight="700" font-size="24" transform="translate(452.446 250)">d</text><text fill="#FFFFFF" font-family="Consolas,Consolas_MSFontService,sans-serif" font-weight="700" font-size="24" transform="translate(631.866 250)">R</text><text fill="#FFFFFF" font-family="Consolas,Consolas_MSFontService,sans-serif" font-weight="700" font-size="24" transform="translate(721.576 250)">1</text><text fill="#FFFFFF" font-family="Consolas,Consolas_MSFontService,sans-serif" font-weight="700" font-size="24" transform="translate(811.286 250)">,</text><text fill="#FFFFFF" font-family="Consolas,Consolas_MSFontService,sans-serif" font-weight="700" font-size="24" transform="translate(900.996 250)">1</text><text fill="#FFFFFF" font-family="Consolas,Consolas_MSFontService,sans-serif" font-weight="700" font-size="24" transform="translate(990.706 250)">8</text><path d="M74.7765 412.866 164.487 412.866 164.487 461.361 74.7765 461.361Z" fill="#4472C4" fill-rule="evenodd"/><path d="M164.487 412.866 254.197 412.866 254.197 461.361 164.487 461.361Z" fill="#4472C4" fill-rule="evenodd"/><path d="M254.197 412.866 343.907 412.866 343.907 461.361 254.197 461.361Z" fill="#4472C4" fill-rule="evenodd"/><path d="M343.907 412.866 433.617 412.866 433.617 461.361 343.907 461.361Z" fill="#4472C4" fill-rule="evenodd"/><path d="M164.487 412.199 164.487 463.361" stroke="#FFFFFF" stroke-width="1.33333" stroke-linejoin="round" stroke-miterlimit="10" fill="none" fill-rule="evenodd"/><path d="M254.197 412.199 254.197 463.361" stroke="#FFFFFF" stroke-width="1.33333" stroke-linejoin="round" stroke-miterlimit="10" fill="none" fill-rule="evenodd"/><path d="M343.907 412.199 343.907 463.361" stroke="#FFFFFF" stroke-width="1.33333" stroke-linejoin="round" stroke-miterlimit="10" fill="none" fill-rule="evenodd"/><path d="M74.7765 412.199 74.7765 463.361" stroke="#FFFFFF" stroke-width="1.33333" stroke-linejoin="round" stroke-miterlimit="10" fill="none" fill-rule="evenodd"/><path d="M433.617 412.199 433.617 463.361" stroke="#FFFFFF" stroke-width="1.33333" stroke-linejoin="round" stroke-miterlimit="10" fill="none" fill-rule="evenodd"/><path d="M74.1098 412.866 434.283 412.866" stroke="#FFFFFF" stroke-width="1.33333" stroke-linejoin="round" stroke-miterlimit="10" fill="none" fill-rule="evenodd"/><path d="M74.1098 461.361 434.283 461.361" stroke="#FFFFFF" stroke-width="4" stroke-linejoin="round" stroke-miterlimit="10" fill="none" fill-rule="evenodd"/><text fill="#FFFFFF" font-family="Consolas,Consolas_MSFontService,sans-serif" font-weight="700" font-size="24" transform="translate(113.048 441)">L</text><text fill="#FFFFFF" font-family="Consolas,Consolas_MSFontService,sans-serif" font-weight="700" font-size="24" transform="translate(202.758 441)">o</text><text fill="#FFFFFF" font-family="Consolas,Consolas_MSFontService,sans-serif" font-weight="700" font-size="24" transform="translate(292.468 441)">a</text><text fill="#FFFFFF" font-family="Consolas,Consolas_MSFontService,sans-serif" font-weight="700" font-size="24" transform="translate(382.178 441)">d</text><path d="M550.29 412.866 640 412.866 640 461.361 550.29 461.361Z" fill="#4472C4" fill-rule="evenodd"/><path d="M640 412.866 729.71 412.866 729.71 461.361 640 461.361Z" fill="#4472C4" fill-rule="evenodd"/><path d="M640 412.199 640 463.361" stroke="#FFFFFF" stroke-width="1.33333" stroke-linejoin="round" stroke-miterlimit="10" fill="none" fill-rule="evenodd"/><path d="M550.29 412.199 550.29 463.361" stroke="#FFFFFF" stroke-width="1.33333" stroke-linejoin="round" stroke-miterlimit="10" fill="none" fill-rule="evenodd"/><path d="M729.71 412.199 729.71 463.361" stroke="#FFFFFF" stroke-width="1.33333" stroke-linejoin="round" stroke-miterlimit="10" fill="none" fill-rule="evenodd"/><path d="M549.623 412.866 730.377 412.866" stroke="#FFFFFF" stroke-width="1.33333" stroke-linejoin="round" stroke-miterlimit="10" fill="none" fill-rule="evenodd"/><path d="M549.623 461.361 730.377 461.361" stroke="#FFFFFF" stroke-width="4" stroke-linejoin="round" stroke-miterlimit="10" fill="none" fill-rule="evenodd"/><text fill="#FFFFFF" font-family="Consolas,Consolas_MSFontService,sans-serif" font-weight="700" font-size="24" transform="translate(588.562 441)">R</text><text fill="#FFFFFF" font-family="Consolas,Consolas_MSFontService,sans-serif" font-weight="700" font-size="24" transform="translate(678.272 441)">1</text><path d="M877.306 412.866 967.016 412.866 967.016 461.361 877.306 461.361Z" fill="#4472C4" fill-rule="evenodd"/><path d="M967.016 412.866 1056.73 412.866 1056.73 461.361 967.016 461.361Z" fill="#4472C4" fill-rule="evenodd"/><path d="M967.016 412.199 967.016 463.361" stroke="#FFFFFF" stroke-width="1.33333" stroke-linejoin="round" stroke-miterlimit="10" fill="none" fill-rule="evenodd"/><path d="M877.306 412.199 877.306 463.361" stroke="#FFFFFF" stroke-width="1.33333" stroke-linejoin="round" stroke-miterlimit="10" fill="none" fill-rule="evenodd"/><path d="M1056.73 412.199 1056.73 463.361" stroke="#FFFFFF" stroke-width="1.33333" stroke-linejoin="round" stroke-miterlimit="10" fill="none" fill-rule="evenodd"/><path d="M876.639 412.866 1057.39 412.866" stroke="#FFFFFF" stroke-width="1.33333" stroke-linejoin="round" stroke-miterlimit="10" fill="none" fill-rule="evenodd"/><path d="M876.639 461.361 1057.39 461.361" stroke="#FFFFFF" stroke-width="4" stroke-linejoin="round" stroke-miterlimit="10" fill="none" fill-rule="evenodd"/><text fill="#FFFFFF" font-family="Consolas,Consolas_MSFontService,sans-serif" font-weight="700" font-size="24" transform="translate(915.577 441)">1</text><text fill="#FFFFFF" font-family="Consolas,Consolas_MSFontService,sans-serif" font-weight="700" font-size="24" transform="translate(1005.29 441)">8</text></g></svg>