<svg width="1280" height="720" xmlns="http://www.w3.org/2000/svg" xmlns:xlink="http://www.w3.org/1999/xlink" overflow="hidden"><defs><clipPath id="clip0"><rect x="0" y="0" width="1280" height="720"/></clipPath></defs><g clip-path="url(#clip0)"><rect x="0" y="0" width="1280" height="720" fill="#FFFFFF"/><rect x="231.5" y="190.5" width="833" height="67" stroke="#BC8C00" stroke-width="1.33333" stroke-miterlimit="8" fill="#FFC000"/><text font-family="Times New Roman,Times New Roman_MSFontService,sans-serif" font-weight="400" font-size="37" transform="translate(336.008 237)">1 1 1</text><text fill="#4472C4" font-family="Times New Roman,Times New Roman_MSFontService,sans-serif" font-weight="400" font-size="37" transform="translate(420.008 237)">a c1 c2 c3 c4 c5 c6</text><text fill="#C00000" font-family="Times New Roman,Times New Roman_MSFontService,sans-serif" font-weight="400" font-size="37" transform="translate(712.841 237)">d1 d2 d3</text><text fill="#70AD47" font-family="Times New Roman,Times New Roman_MSFontService,sans-serif" font-weight="400" font-size="37" transform="translate(852.841 237)">j1 j2 j3</text><path d="M354.5 257.5C354.5 275.449 353.381 290 352 290L342 290C340.619 290 339.5 304.551 339.5 322.5 339.5 304.551 338.381 290 337 290L327 290C325.619 290 324.5 275.449 324.5 257.5" stroke="#4472C4" stroke-width="0.666667" stroke-miterlimit="8" fill="none" fill-rule="evenodd"/><path d="M411.5 257.5C411.5 275.449 409.821 290 407.75 290L392.75 290C390.679 290 389 304.551 389 322.5 389 304.551 387.321 290 385.25 290L370.25 290C368.179 290 366.5 275.449 366.5 257.5" stroke="#4472C4" stroke-width="0.666667" stroke-miterlimit="8" fill="none" fill-rule="evenodd"/><path d="M706.5 257.5C706.5 275.449 704.075 290 701.084 290L570.417 290C567.425 290 565 304.551 565 322.5 565 304.551 562.575 290 559.584 290L428.917 290C425.925 290 423.5 275.449 423.5 257.5" stroke="#4472C4" stroke-width="0.666667" stroke-miterlimit="8" fill="none" fill-rule="evenodd"/><path d="M843.5 257.5C843.5 275.449 841.075 290 838.084 290L786.416 290C783.425 290 781 304.551 781 322.5 781 304.551 778.575 290 775.584 290L723.916 290C720.925 290 718.5 275.449 718.5 257.5" stroke="#4472C4" stroke-width="0.666667" stroke-miterlimit="8" fill="none" fill-rule="evenodd"/><path d="M963.5 259.5C963.5 277.449 961.075 292 958.084 292L914.916 292C911.925 292 909.5 306.551 909.5 324.5 909.5 306.551 907.075 292 904.084 292L860.916 292C857.925 292 855.5 277.449 855.5 259.5" stroke="#4472C4" stroke-width="0.666667" stroke-miterlimit="8" fill="none" fill-rule="evenodd"/><text font-family="Times New Roman,Times New Roman_MSFontService,sans-serif" font-weight="400" font-size="24" transform="translate(277.806 349)">o</text><text font-family="Times New Roman,Times New Roman_MSFontService,sans-serif" font-weight="400" font-size="24" transform="translate(289.806 349)">p code</text><text font-family="Times New Roman,Times New Roman_MSFontService,sans-serif" font-weight="400" font-size="24" transform="translate(364.899 349)">n</text><text font-family="Times New Roman,Times New Roman_MSFontService,sans-serif" font-weight="400" font-size="24" transform="translate(376.899 349)">ot used</text><text fill="#4472C4" font-family="Times New Roman,Times New Roman_MSFontService,sans-serif" font-style="italic" font-weight="400" font-size="24" transform="translate(513.518 349)">c</text><text fill="#4472C4" font-family="Times New Roman,Times New Roman_MSFontService,sans-serif" font-style="italic" font-weight="400" font-size="24" transform="translate(524.185 349)">omp</text><text font-family="Times New Roman,Times New Roman_MSFontService,sans-serif" font-weight="400" font-size="24" transform="translate(571.518 349)">bits</text><text fill="#C00000" font-family="Times New Roman,Times New Roman_MSFontService,sans-serif" font-style="italic" font-weight="400" font-size="24" transform="translate(732.94 349)">dest</text><text font-family="Times New Roman,Times New Roman_MSFontService,sans-serif" font-weight="400" font-size="24" transform="translate(777.607 349)">bits</text><text fill="#70AD47" font-family="Times New Roman,Times New Roman_MSFontService,sans-serif" font-style="italic" font-weight="400" font-size="24" transform="translate(870.508 349)">jump</text><text font-family="Times New Roman,Times New Roman_MSFontService,sans-serif" font-weight="400" font-size="24" transform="translate(924.508 349)">bits</text></g></svg>