<svg width="1280" height="720" xmlns="http://www.w3.org/2000/svg" xmlns:xlink="http://www.w3.org/1999/xlink" overflow="hidden"><defs><clipPath id="clip0"><rect x="0" y="0" width="1280" height="720"/></clipPath></defs><g clip-path="url(#clip0)"><rect x="0" y="0" width="1280" height="720" fill="#FFFFFF"/><rect x="335" y="134" width="995" height="648" stroke="#2F528F" stroke-width="2" stroke-miterlimit="8" stroke-dasharray="16 6 2 6 2 6" fill="#FFFFFF"/><path d="M399.525 363.034 397.595 246.188 505.299 291.538Z" stroke="#787878" stroke-width="1.33333" stroke-miterlimit="8" fill="#A5A5A5" fill-rule="evenodd"/><text font-family="Times New Roman,Times New Roman_MSFontService,sans-serif" font-weight="400" font-size="24" transform="translate(589.156 709)">( C = control bits)</text><path d="M0.00796505-0.999968 275.444 1.19397 275.428 3.1939-0.00796505 0.999968ZM274.135-1.81656 282.103 2.24703 274.071 6.18319Z" transform="matrix(1 0 0 -1 116 334.247)"/><path d="M784 362 849.333 362 849.333 364 784 364ZM848 359 856 363 848 367Z"/><text font-family="Times New Roman,Times New Roman_MSFontService,sans-serif" font-weight="400" font-size="24" transform="translate(216.546 422)">inM</text><text font-family="Times New Roman,Times New Roman_MSFontService,sans-serif" font-weight="400" font-size="24" transform="translate(407.969 307)">Mux16</text><text font-family="Times New Roman,Times New Roman_MSFontService,sans-serif" font-weight="400" font-size="24" transform="translate(1201.49 608)">PC</text><text font-family="Times New Roman,Times New Roman_MSFontService,sans-serif" font-weight="400" font-size="24" transform="translate(1182.23 211)">outM</text><path d="M358 281 392.357 281 392.357 283 358 283ZM391.024 278 399.024 282 391.024 286Z"/><path d="M505 289 540.328 289 540.328 291 505 291ZM538.994 286 546.994 290 538.994 294Z"/><path d="M1074 224 1232.61 224 1232.61 226 1074 226ZM1231.28 221 1239.28 225 1231.28 229Z"/><path d="M740 435 853.492 435 853.492 437 740 437ZM852.159 432 860.159 436 852.159 440Z"/><path d="M1111 406 1223.73 406.214 1223.73 408.214 1111 408ZM1222.41 403.212 1230.4 407.227 1222.39 411.212Z"/><text font-family="Times New Roman,Times New Roman_MSFontService,sans-serif" font-weight="400" font-size="24" transform="translate(528.686 170)">ALU output</text><text font-family="Times New Roman,Times New Roman_MSFontService,sans-serif" font-weight="400" font-size="24" transform="translate(1143.64 486)">addressM</text><text font-family="Times New Roman,Times New Roman_MSFontService,sans-serif" font-weight="400" font-size="24" transform="translate(1166.05 393)">writeM</text><text font-family="Times New Roman,Times New Roman_MSFontService,sans-serif" font-weight="400" font-size="24" transform="translate(137.607 319)">instruction</text><path d="M358 162 358 282.275" stroke="#000000" stroke-width="2" stroke-miterlimit="8" fill="none" fill-rule="evenodd"/><path d="M358 162 522.055 162" stroke="#000000" stroke-width="2" stroke-miterlimit="8" fill="none" fill-rule="evenodd"/><path d="M650 162 732.695 162" stroke="#000000" stroke-width="2" stroke-miterlimit="8" fill="none" fill-rule="evenodd"/><path d="M732.5 162C732.5 158.41 734.963 155.5 738 155.5 741.038 155.5 743.5 158.41 743.5 162 743.5 165.59 741.038 168.5 738 168.5 734.963 168.5 732.5 165.59 732.5 162Z" stroke="#000000" stroke-width="1.33333" stroke-miterlimit="8" fill="#FFFFFF" fill-rule="evenodd"/><path d="M723.353 437.134C723.02 432.58 726.303 428.63 730.683 428.311 735 427.996 738.785 431.326 739.203 435.805" stroke="#000000" stroke-width="2" stroke-miterlimit="8" fill="none" fill-rule="evenodd"/><rect x="547.5" y="259.5" width="144" height="64" stroke="#000000" stroke-width="1.33333" stroke-miterlimit="8" fill="#D6DCE5"/><text font-family="Times New Roman,Times New Roman_MSFontService,sans-serif" font-weight="400" font-size="24" transform="translate(565.237 299)">A Register</text><path d="M689.019 289 718.305 289.565 718.267 291.565 688.981 291ZM717.03 286.54 724.951 290.694 716.876 294.539Z"/><path d="M725.5 289C725.5 285.41 727.963 282.5 731 282.5 734.038 282.5 736.5 285.41 736.5 289 736.5 292.59 734.038 295.5 731 295.5 727.963 295.5 725.5 292.59 725.5 289Z" stroke="#000000" stroke-width="1.33333" stroke-miterlimit="8" fill="#FFFFFF" fill-rule="evenodd"/><path d="M0.00874864-0.999962 65.5458-0.42658 65.5283 1.57334-0.00874864 0.999962ZM64.2388-3.43813 72.2035 0.631706 64.1688 4.56156Z" transform="matrix(1 0 0 -1 736 249.632)"/><path d="M736 168 736 249.394" stroke="#000000" stroke-width="2" stroke-miterlimit="8" fill="none" fill-rule="evenodd"/><rect x="809.5" y="217.5" width="143" height="65" stroke="#000000" stroke-width="1.33333" stroke-miterlimit="8" fill="#D6DCE5"/><text font-family="Times New Roman,Times New Roman_MSFontService,sans-serif" font-weight="400" font-size="24" transform="translate(826.515 257)">D Register</text><path d="M622 230 622 252.215 620 252.215 620 230ZM625 250.882 621 258.882 617 250.882Z"/><text font-family="Times New Roman,Times New Roman_MSFontService,sans-serif" font-weight="400" font-size="24" transform="translate(614.433 225)">C</text><path d="M885 190 885 212.215 883 212.215 883 190ZM888 210.882 884 218.882 880 210.882Z"/><text font-family="Times New Roman,Times New Roman_MSFontService,sans-serif" font-weight="400" font-size="24" transform="translate(877.886 185)">C</text><path d="M3.32541e-07-1 309.045-0.999897 309.045 1.0001-3.32541e-07 1ZM307.711-3.9999 315.711 0.000104987 307.711 4.0001Z" transform="matrix(-1 0 0 1 1058.71 162)"/><text font-family="Times New Roman,Times New Roman_MSFontService,sans-serif" font-weight="400" font-size="24" transform="translate(1059.19 170)">ALU output</text><path d="M1183 162 1265.69 162" stroke="#000000" stroke-width="2" stroke-miterlimit="8" fill="none" fill-rule="evenodd"/><path d="M1266 161 1266 333.967" stroke="#000000" stroke-width="2" stroke-miterlimit="8" fill="none" fill-rule="evenodd"/><path d="M952 249 1017.33 249 1017.33 251 952 251ZM1016 246 1024 250 1016 254Z"/><path d="M1124.85 262.604 1129.5 412.53 1029.15 472.5 1027.29 379.421 1070.96 349.436 1024.5 325.073 1024.5 219.5 1124.85 262.604Z" stroke="#787878" stroke-width="1.33333" stroke-miterlimit="8" fill="#A5A5A5" fill-rule="evenodd"/><text font-family="Times New Roman,Times New Roman_MSFontService,sans-serif" font-weight="700" font-size="24" transform="translate(1074.16 341)">ALU</text><path d="M1088 218 1088 240.215 1086 240.215 1086 218ZM1091 238.882 1087 246.882 1083 238.882Z"/><text font-family="Times New Roman,Times New Roman_MSFontService,sans-serif" font-weight="400" font-size="24" transform="translate(1080.65 214)">C’s</text><path d="M1129 339 1249.99 339 1249.99 341 1129 341ZM1248.66 336 1256.66 340 1248.66 344Z"/><path d="M1254.5 341C1254.5 337.41 1256.96 334.5 1260 334.5 1263.04 334.5 1265.5 337.41 1265.5 341 1265.5 344.59 1263.04 347.5 1260 347.5 1256.96 347.5 1254.5 344.59 1254.5 341Z" stroke="#000000" stroke-width="1.33333" stroke-miterlimit="8" fill="#FFFFFF" fill-rule="evenodd"/><path d="M1087 439 1087 462.746 1085 462.746 1085 439ZM1090 461.412 1086 469.412 1082 461.412Z"/><text font-family="Times New Roman,Times New Roman_MSFontService,sans-serif" font-weight="400" font-size="24" transform="translate(1078.33 490)">C’s</text><path d="M738 290 784.526 290" stroke="#000000" stroke-width="2" stroke-miterlimit="8" fill="none" fill-rule="evenodd"/><path d="M784 289 784 363.445" stroke="#000000" stroke-width="2" stroke-miterlimit="8" fill="none" fill-rule="evenodd"/><path d="M861.092 458.929 859.161 342.083 966.865 387.433Z" stroke="#787878" stroke-width="1.33333" stroke-miterlimit="8" fill="#A5A5A5" fill-rule="evenodd"/><text font-family="Times New Roman,Times New Roman_MSFontService,sans-serif" font-weight="400" font-size="24" transform="translate(869.536 403)">Mux16</text><path d="M967 388 1017.39 388 1017.39 390 967 390ZM1016.06 385 1024.06 389 1016.06 393Z"/><path d="M1-1.75515e-06 1.00009 53.1498-0.999907 53.1498-1 1.75515e-06ZM4.00009 51.8165 0.000104987 59.8165-3.99991 51.8165Z" transform="matrix(1 0 0 -1 907 486.816)"/><text font-family="Times New Roman,Times New Roman_MSFontService,sans-serif" font-weight="400" font-size="24" transform="translate(898.361 511)">C</text><path d="M951 498 1224.14 498 1224.14 500 951 500ZM1222.81 495 1230.81 499 1222.81 503Z"/><path d="M0 0 1.08021 202.73" stroke="#000000" stroke-width="2" stroke-miterlimit="8" fill="none" fill-rule="evenodd" transform="matrix(-1 0 0 1 732.08 298)"/><path d="M738 610 904.598 610" stroke="#000000" stroke-width="2" stroke-miterlimit="8" fill="none" fill-rule="evenodd"/><path d="M725.5 608C725.5 604.41 727.963 601.5 731 601.5 734.038 601.5 736.5 604.41 736.5 608 736.5 611.59 734.038 614.5 731 614.5 727.963 614.5 725.5 611.59 725.5 608Z" stroke="#000000" stroke-width="1.33333" stroke-miterlimit="8" fill="#FFFFFF" fill-rule="evenodd"/><text font-family="Times New Roman,Times New Roman_MSFontService,sans-serif" font-weight="400" font-size="24" transform="translate(912.567 620)">memory address output</text><text font-family="Times New Roman,Times New Roman_MSFontService,sans-serif" font-weight="400" font-size="24" transform="translate(474.606 445)">M input</text><text font-family="Times New Roman,Times New Roman_MSFontService,sans-serif" font-weight="400" font-size="24" transform="translate(423.13 678)">reset bit</text><text font-family="Times New Roman,Times New Roman_MSFontService,sans-serif" font-weight="400" font-size="24" transform="translate(1286.02 529)">C</text><path d="M0 0 0.675696 47.0892" stroke="#000000" stroke-width="2" stroke-miterlimit="8" fill="none" fill-rule="evenodd" transform="matrix(-1 0 0 1 731.676 615)"/><path d="M729.611 678.756C725.08 678.193 721.847 674.203 722.389 669.844 722.923 665.549 726.928 662.487 731.402 662.952" stroke="#000000" stroke-width="2" stroke-miterlimit="8" fill="none" fill-rule="evenodd"/><path d="M731 677 731 735.195" stroke="#000000" stroke-width="2" stroke-miterlimit="8" fill="none" fill-rule="evenodd"/><path d="M505 668 831.695 670.968" stroke="#000000" stroke-width="2" stroke-miterlimit="8" fill="none" fill-rule="evenodd"/><rect x="803.5" y="703.5" width="143" height="65" stroke="#000000" stroke-width="1.33333" stroke-miterlimit="8" fill="#D6DCE5"/><text font-family="Times New Roman,Times New Roman_MSFontService,sans-serif" font-weight="400" font-size="24" transform="translate(859.003 745)">PC</text><path d="M0.99937-0.0354815 1.92965 26.1667-0.0690895 26.2377-0.99937 0.0354815ZM4.88045 24.7278 1.16682 32.8647-3.11451 25.0116Z" transform="matrix(-1 0 0 1 832.167 671)"/><text font-family="Times New Roman,Times New Roman_MSFontService,sans-serif" font-weight="400" font-size="24" transform="translate(867.352 664)">C</text><path d="M0.99937-0.0354815 1.92965 26.1667-0.0690895 26.2377-0.99937 0.0354815ZM4.88045 24.7278 1.16682 32.8647-3.11451 25.0116Z" transform="matrix(-1 0 0 1 877.167 671)"/><text font-family="Times New Roman,Times New Roman_MSFontService,sans-serif" font-weight="400" font-size="24" transform="translate(997.895 738)">Program Counter output</text><path d="M1045 618 1224.1 618 1224.1 620 1045 620ZM1222.77 615 1230.77 619 1222.77 623Z"/><path d="M556 439 722.598 439" stroke="#000000" stroke-width="2" stroke-miterlimit="8" fill="none" fill-rule="evenodd"/><path d="M219 439 469.655 439" stroke="#000000" stroke-width="2" stroke-miterlimit="8" fill="none" fill-rule="evenodd"/><path d="M219 668 418.79 669.484" stroke="#000000" stroke-width="2" stroke-miterlimit="8" fill="none" fill-rule="evenodd"/><text font-family="Times New Roman,Times New Roman_MSFontService,sans-serif" font-weight="400" font-size="24" transform="translate(218.814 649)">reset</text><text font-family="Times New Roman,Times New Roman_MSFontService,sans-serif" font-weight="400" font-size="24" transform="translate(680.376 523)">A register</text><text font-family="Times New Roman,Times New Roman_MSFontService,sans-serif" font-weight="400" font-size="24" transform="translate(698.376 552)">output</text><path d="M0 0 0.675696 47.0892" stroke="#000000" stroke-width="2" stroke-miterlimit="8" fill="none" fill-rule="evenodd" transform="matrix(-1 0 0 1 733.676 555)"/><path d="M1-1.75515e-06 1.00009 53.1498-0.999907 53.1498-1 1.75515e-06ZM4.00009 51.8165 0.000104987 59.8165-3.99991 51.8165Z" transform="matrix(1 0 0 -1 455 381.816)"/><text font-family="Times New Roman,Times New Roman_MSFontService,sans-serif" font-weight="400" font-size="24" transform="translate(447.123 401)">C</text><rect x="155.5" y="404.5" width="1267" height="424" stroke="#FFFFFF" stroke-width="1.33333" stroke-miterlimit="8" fill="#FFFFFF"/><rect x="723.5" y="86.5001" width="649" height="425" stroke="#FFFFFF" stroke-width="1.33333" stroke-miterlimit="8" fill="#FFFFFF"/><text fill="#767171" font-family="Times New Roman,Times New Roman_MSFontService,sans-serif" font-weight="400" font-size="24" transform="translate(28.83 292)">D</text><text font-family="Times New Roman,Times New Roman_MSFontService,sans-serif" font-weight="400" font-size="24" transform="translate(46.1634 292)">=</text><text fill="#4472C4" font-family="Times New Roman,Times New Roman_MSFontService,sans-serif" font-weight="400" font-size="24" transform="translate(59.6634 292)">D+1</text><text font-family="Times New Roman,Times New Roman_MSFontService,sans-serif" font-weight="400" font-size="24" transform="translate(102.497 292)">;</text><text fill="#A9D18E" font-family="Times New Roman,Times New Roman_MSFontService,sans-serif" font-weight="400" font-size="24" transform="translate(109.163 292)">JMP</text><text font-family="Times New Roman,Times New Roman_MSFontService,sans-serif" font-weight="400" font-size="24" transform="translate(112.462 368)">1</text><text fill="#E7E6E6" font-family="Times New Roman,Times New Roman_MSFontService,sans-serif" font-weight="400" font-size="24" transform="translate(123.569 368)">11</text><text fill="#4472C4" font-family="Times New Roman,Times New Roman_MSFontService,sans-serif" font-weight="400" font-size="24" transform="translate(146.675 368)">0011111</text><text fill="#767171" font-family="Times New Roman,Times New Roman_MSFontService,sans-serif" font-weight="400" font-size="24" transform="translate(227.102 368)">010</text><text fill="#A9D18E" font-family="Times New Roman,Times New Roman_MSFontService,sans-serif" font-weight="400" font-size="24" transform="translate(263.102 368)">001</text><path d="M24.5001 419.167C24.5001 414.38 28.3803 410.5 33.1668 410.5L52.5001 410.5 100.901 383.344 94.5001 410.5 183.833 410.5C188.62 410.5 192.5 414.38 192.5 419.167L192.5 419.167 192.5 419.167 192.5 432.167 192.5 453.833C192.5 458.62 188.62 462.5 183.833 462.5L94.5001 462.5 52.5001 462.5 52.5001 462.5 33.1668 462.5C28.3803 462.5 24.5001 458.62 24.5001 453.833L24.5001 432.167 24.5001 419.167 24.5001 419.167Z" stroke="#BC8C00" stroke-width="1.33333" stroke-miterlimit="8" fill="#FFC000" fill-rule="evenodd"/><text fill="#FFFFFF" font-family="Times New Roman,Times New Roman_MSFontService,sans-serif" font-weight="400" font-size="24" transform="translate(44.725 445)">C</text><text fill="#FFFFFF" font-family="Times New Roman,Times New Roman_MSFontService,sans-serif" font-weight="400" font-size="24" transform="translate(60.725 445)">-</text><text fill="#FFFFFF" font-family="Times New Roman,Times New Roman_MSFontService,sans-serif" font-weight="400" font-size="24" transform="translate(68.725 445)">instruction</text></g></svg>