<svg width="1280" height="720" xmlns="http://www.w3.org/2000/svg" xmlns:xlink="http://www.w3.org/1999/xlink" overflow="hidden"><defs><clipPath id="clip0"><rect x="0" y="0" width="1280" height="720"/></clipPath></defs><g clip-path="url(#clip0)"><rect x="0" y="0" width="1280" height="720" fill="#FFFFFF"/><path d="M359.5 98.5001 359.5 627.985" stroke="#ED7D31" stroke-width="0.666667" stroke-miterlimit="8" fill="none" fill-rule="evenodd"/><path d="M460.5 98.5001 460.5 627.985" stroke="#ED7D31" stroke-width="0.666667" stroke-miterlimit="8" fill="none" fill-rule="evenodd"/><path d="M870.5 98.5001 870.5 627.985" stroke="#ED7D31" stroke-width="0.666667" stroke-miterlimit="8" fill="none" fill-rule="evenodd"/><path d="M769.5 98.5001 769.5 627.985" stroke="#ED7D31" stroke-width="0.666667" stroke-miterlimit="8" fill="none" fill-rule="evenodd"/><path d="M563.5 98.5001 563.5 627.985" stroke="#ED7D31" stroke-width="0.666667" stroke-miterlimit="8" fill="none" fill-rule="evenodd"/><path d="M666.5 98.5001 666.5 627.985" stroke="#ED7D31" stroke-width="0.666667" stroke-miterlimit="8" fill="none" fill-rule="evenodd"/><text font-family="Times New Roman,Times New Roman_MSFontService,sans-serif" font-weight="400" font-size="24" transform="translate(227.011 211)">Time</text><text font-family="Times New Roman,Times New Roman_MSFontService,sans-serif" font-weight="400" font-size="24" transform="translate(407.256 377)">a</text><text font-family="Times New Roman,Times New Roman_MSFontService,sans-serif" font-weight="400" font-size="24" transform="translate(250.072 381)">i</text><text font-family="Times New Roman,Times New Roman_MSFontService,sans-serif" font-weight="400" font-size="24" transform="translate(256.739 381)">n</text><text font-family="Times New Roman,Times New Roman_MSFontService,sans-serif" font-weight="400" font-size="24" transform="translate(403.825 211)">1</text><text font-family="Times New Roman,Times New Roman_MSFontService,sans-serif" font-weight="400" font-size="24" transform="translate(505.928 211)">2</text><text font-family="Times New Roman,Times New Roman_MSFontService,sans-serif" font-weight="400" font-size="24" transform="translate(609.736 211)">3</text><text font-family="Times New Roman,Times New Roman_MSFontService,sans-serif" font-weight="400" font-size="24" transform="translate(712.936 211)">4</text><text font-family="Times New Roman,Times New Roman_MSFontService,sans-serif" font-weight="400" font-size="24" transform="translate(814.732 211)">5</text><text font-family="Times New Roman,Times New Roman_MSFontService,sans-serif" font-weight="400" font-size="24" transform="translate(915.532 211)">…</text><text font-family="Times New Roman,Times New Roman_MSFontService,sans-serif" font-weight="400" font-size="24" transform="translate(611.331 379)">c</text><text font-family="Times New Roman,Times New Roman_MSFontService,sans-serif" font-weight="400" font-size="24" transform="translate(396.316 511)">f</text><text font-family="Times New Roman,Times New Roman_MSFontService,sans-serif" font-weight="400" font-size="24" transform="translate(404.316 511)">(a)</text><text font-family="Times New Roman,Times New Roman_MSFontService,sans-serif" font-weight="400" font-size="24" transform="translate(712.13 381)">d</text><text font-family="Times New Roman,Times New Roman_MSFontService,sans-serif" font-weight="400" font-size="24" transform="translate(507.24 381)">b</text><text font-family="Times New Roman,Times New Roman_MSFontService,sans-serif" font-weight="400" font-size="24" transform="translate(817.038 381)">e</text><text font-family="Times New Roman,Times New Roman_MSFontService,sans-serif" font-weight="400" font-size="24" transform="translate(501.223 513)">f</text><text font-family="Times New Roman,Times New Roman_MSFontService,sans-serif" font-weight="400" font-size="24" transform="translate(509.223 513)">(b)</text><text font-family="Times New Roman,Times New Roman_MSFontService,sans-serif" font-weight="400" font-size="24" transform="translate(597.146 515)">f</text><text font-family="Times New Roman,Times New Roman_MSFontService,sans-serif" font-weight="400" font-size="24" transform="translate(605.146 515)">(c)</text><text font-family="Times New Roman,Times New Roman_MSFontService,sans-serif" font-weight="400" font-size="24" transform="translate(696.311 515)">f</text><text font-family="Times New Roman,Times New Roman_MSFontService,sans-serif" font-weight="400" font-size="24" transform="translate(704.311 515)">(d)</text><text font-family="Times New Roman,Times New Roman_MSFontService,sans-serif" font-weight="400" font-size="24" transform="translate(799.165 515)">f</text><text font-family="Times New Roman,Times New Roman_MSFontService,sans-serif" font-weight="400" font-size="24" transform="translate(807.165 515)">(e)</text><path d="M409 398 409 481.353 407 481.353 407 398ZM413.531 473.857 408 483.338 402.47 473.857C402.191 473.38 402.353 472.768 402.83 472.49 403.307 472.211 403.919 472.372 404.197 472.849L408.864 480.849 407.136 480.849 411.803 472.849C412.081 472.372 412.694 472.211 413.171 472.49 413.648 472.768 413.809 473.38 413.531 473.857Z" fill="#ED7D31"/><path d="M511 400 511 483.353 509 483.353 509 400ZM515.531 475.857 510 485.338 504.47 475.857C504.191 475.38 504.353 474.768 504.83 474.49 505.307 474.211 505.919 474.372 506.197 474.849L510.864 482.849 509.136 482.849 513.803 474.849C514.081 474.372 514.694 474.211 515.171 474.49 515.648 474.768 515.809 475.38 515.531 475.857Z" fill="#ED7D31"/><path d="M617 400 617 483.353 615 483.353 615 400ZM621.531 475.857 616 485.338 610.47 475.857C610.191 475.38 610.352 474.768 610.83 474.49 611.307 474.211 611.919 474.372 612.197 474.849L616.864 482.849 615.136 482.849 619.803 474.849C620.081 474.372 620.694 474.211 621.171 474.49 621.648 474.768 621.809 475.38 621.531 475.857Z" fill="#ED7D31"/><path d="M717 402 717 485.353 715 485.353 715 402ZM721.531 477.857 716 487.338 710.47 477.857C710.191 477.38 710.352 476.768 710.83 476.49 711.307 476.211 711.919 476.372 712.197 476.849L716.864 484.849 715.136 484.849 719.803 476.849C720.081 476.372 720.694 476.211 721.171 476.49 721.648 476.768 721.809 477.38 721.531 477.857Z" fill="#ED7D31"/><path d="M821 402 821 485.353 819 485.353 819 402ZM825.531 477.857 820 487.338 814.47 477.857C814.191 477.38 814.352 476.768 814.83 476.49 815.307 476.211 815.919 476.372 816.197 476.849L820.864 484.849 819.136 484.849 823.803 476.849C824.081 476.372 824.694 476.211 825.171 476.49 825.648 476.768 825.809 477.38 825.531 477.857Z" fill="#ED7D31"/><text font-family="Times New Roman,Times New Roman_MSFontService,sans-serif" font-weight="400" font-size="24" transform="translate(240.357 511)">out</text></g></svg>