<svg width="1280" height="720" xmlns="http://www.w3.org/2000/svg" xmlns:xlink="http://www.w3.org/1999/xlink" overflow="hidden"><defs><clipPath id="clip0"><rect x="0" y="0" width="1280" height="720"/></clipPath></defs><g clip-path="url(#clip0)"><rect x="0" y="0" width="1280" height="720" fill="#FFFFFF"/><path d="M221.75 541.5C228.516 541.5 234 536.016 234 529.25L221.75 529.25C225.133 529.25 227.875 526.508 227.875 523.125 227.875 519.742 225.133 517 221.75 517L234 517 234 148.75C234 141.985 239.485 136.5 246.25 136.5L393.25 136.5C400.016 136.5 405.5 141.985 405.5 148.75 405.5 155.516 400.016 161 393.25 161L381 161 381 529.25C381 536.016 375.516 541.5 368.75 541.5ZM258.5 148.75C258.5 155.516 253.015 161 246.25 161 242.867 161 240.125 158.258 240.125 154.875 240.125 151.492 242.867 148.75 246.25 148.75Z" fill="#5B9BD5" fill-rule="evenodd"/><path d="M258.5 148.75C258.5 155.516 253.015 161 246.25 161 242.867 161 240.125 158.258 240.125 154.875 240.125 151.492 242.867 148.75 246.25 148.75ZM234 529.25C234 536.016 228.516 541.5 221.75 541.5 214.985 541.5 209.5 536.016 209.5 529.25 209.5 522.484 214.985 517 221.75 517 225.133 517 227.875 519.742 227.875 523.125 227.875 526.508 225.133 529.25 221.75 529.25Z" fill="#497DAB" fill-rule="evenodd"/><path d="M234 517 234 148.75C234 141.985 239.485 136.5 246.25 136.5L393.25 136.5C400.016 136.5 405.5 141.985 405.5 148.75 405.5 155.516 400.016 161 393.25 161L381 161 381 529.25C381 536.016 375.516 541.5 368.75 541.5L221.75 541.5C214.985 541.5 209.5 536.016 209.5 529.25 209.5 522.484 214.985 517 221.75 517ZM246.25 136.5C253.015 136.5 258.5 141.985 258.5 148.75 258.5 155.516 253.015 161 246.25 161 242.867 161 240.125 158.258 240.125 154.875 240.125 151.492 242.867 148.75 246.25 148.75L258.5 148.75M381 161 246.25 161M221.75 517C225.133 517 227.875 519.743 227.875 523.125 227.875 526.508 225.133 529.25 221.75 529.25L234 529.25M221.75 541.5C228.516 541.5 234 536.016 234 529.25L234 517" stroke="#41719C" stroke-width="1.33333" stroke-miterlimit="8" fill="none" fill-rule="evenodd"/><text fill="#FFFFFF" font-family="Times New Roman,Times New Roman_MSFontService,sans-serif" font-weight="400" font-size="24" transform="translate(252.974 281)">Program in</text><text fill="#FFFFFF" font-family="Times New Roman,Times New Roman_MSFontService,sans-serif" font-weight="400" font-size="24" transform="translate(258.307 310)">nice high</text><text fill="#FFFFFF" font-family="Times New Roman,Times New Roman_MSFontService,sans-serif" font-weight="400" font-size="24" transform="translate(346.974 310)">-</text><text fill="#FFFFFF" font-family="Times New Roman,Times New Roman_MSFontService,sans-serif" font-weight="400" font-size="24" transform="translate(283.307 339)">level</text><text fill="#FFFFFF" font-family="Times New Roman,Times New Roman_MSFontService,sans-serif" font-weight="400" font-size="24" transform="translate(263.307 368)">language</text><text fill="#FFFFFF" font-family="Times New Roman,Times New Roman_MSFontService,sans-serif" font-weight="400" font-size="24" transform="translate(265.641 396)">(Python,</text><text fill="#FFFFFF" font-family="Times New Roman,Times New Roman_MSFontService,sans-serif" font-weight="400" font-size="24" transform="translate(266.307 425)">Java,…)</text><rect x="703.5" y="158.5" width="172" height="383" fill="#5B9BD5"/><path d="M725 158.5 725 541.5M854 158.5 854 541.5" stroke="#41719C" stroke-width="1.33333" stroke-miterlimit="8" fill="none" fill-rule="evenodd"/><rect x="703.5" y="158.5" width="172" height="383" stroke="#41719C" stroke-width="1.33333" stroke-miterlimit="8" fill="none"/><text fill="#FFFFFF" font-family="Times New Roman,Times New Roman_MSFontService,sans-serif" font-weight="400" font-size="24" transform="translate(747.793 315)">Program</text><text fill="#FFFFFF" font-family="Times New Roman,Times New Roman_MSFontService,sans-serif" font-weight="400" font-size="24" transform="translate(779.793 344)">in</text><text fill="#FFFFFF" font-family="Times New Roman,Times New Roman_MSFontService,sans-serif" font-weight="400" font-size="24" transform="translate(748.46 373)">machine</text><text fill="#FFFFFF" font-family="Times New Roman,Times New Roman_MSFontService,sans-serif" font-weight="400" font-size="24" transform="translate(745.793 402)">language</text><path d="M890.5 589.5 869 675.5 710 675.5 688.5 589.5Z" stroke="#AE5A21" stroke-width="1.33333" stroke-miterlimit="8" fill="#ED7D31" fill-rule="evenodd"/><text font-family="Times New Roman,Times New Roman_MSFontService,sans-serif" font-weight="400" font-size="24" transform="translate(761.755 640)">CPU</text><path d="M440.5 281.5 610 281.5 667.5 339 610 396.5 440.5 396.5Z" stroke="#2F528F" stroke-width="1.33333" stroke-miterlimit="8" fill="#FF0000" fill-rule="evenodd"/><text fill="#FFFFFF" font-family="Times New Roman,Times New Roman_MSFontService,sans-serif" font-weight="400" font-size="24" transform="translate(493.328 347)">Compiler</text></g></svg>