<svg width="1280" height="720" xmlns="http://www.w3.org/2000/svg" xmlns:xlink="http://www.w3.org/1999/xlink" overflow="hidden"><defs><clipPath id="clip0"><rect x="0" y="0" width="1280" height="720"/></clipPath></defs><g clip-path="url(#clip0)"><rect x="0" y="0" width="1280" height="720" fill="#FFFFFF"/><path d="M28.0079 174 349.635 176.541 349.619 178.541 27.9921 176ZM348.326 173.53 356.295 177.593 348.263 181.53Z"/><path d="M0.00291884-0.999996 550.092 0.605636 550.086 2.60563-0.00291884 0.999996ZM548.768-2.39824 556.756 1.62509 548.744 5.60172Z" transform="matrix(1 0 0 -1 546 174.625)"/><text font-family="Times New Roman,Times New Roman_MSFontService,sans-serif" font-weight="400" font-size="24" transform="translate(1201.49 608)">PC</text><text font-family="Times New Roman,Times New Roman_MSFontService,sans-serif" font-weight="400" font-size="24" transform="translate(26.5341 161)">instruction</text><rect x="356.5" y="145.5" width="144" height="65" stroke="#000000" stroke-width="1.33333" stroke-miterlimit="8" fill="#D6DCE5"/><text font-family="Times New Roman,Times New Roman_MSFontService,sans-serif" font-weight="400" font-size="24" transform="translate(373.243 183)">A Register</text><path d="M497.019 173 526.305 173.565 526.267 175.565 496.981 175ZM525.03 170.54 532.951 174.694 524.876 178.539Z"/><path d="M533.5 174C533.5 170.41 535.963 167.5 539 167.5 542.038 167.5 544.5 170.41 544.5 174 544.5 177.59 542.038 180.5 539 180.5 535.963 180.5 533.5 177.59 533.5 174Z" stroke="#000000" stroke-width="1.33333" stroke-miterlimit="8" fill="#FFFFFF" fill-rule="evenodd"/><path d="M430 114 430 136.215 428 136.215 428 114ZM433 134.882 429 142.882 425 134.882Z"/><text font-family="Times New Roman,Times New Roman_MSFontService,sans-serif" font-weight="400" font-size="24" transform="translate(422.439 110)">C</text><text font-family="Times New Roman,Times New Roman_MSFontService,sans-serif" font-weight="400" font-size="24" transform="translate(958.743 646)">16</text><path d="M525 324 553.465 358.185" stroke="#000000" stroke-width="2" stroke-miterlimit="8" fill="none" fill-rule="evenodd"/><path d="M0 0 0.675696 47.0892" stroke="#000000" stroke-width="2" stroke-miterlimit="8" fill="none" fill-rule="evenodd" transform="matrix(-1 0 0 1 539.676 500)"/><path d="M537.617 563.447C533.086 562.884 529.853 558.894 530.395 554.535 530.929 550.24 534.934 547.178 539.408 547.643" stroke="#000000" stroke-width="2" stroke-miterlimit="8" fill="none" fill-rule="evenodd"/><path d="M539 562 539 620.195" stroke="#000000" stroke-width="2" stroke-miterlimit="8" fill="none" fill-rule="evenodd"/><path d="M233 555 639.99 555" stroke="#000000" stroke-width="2" stroke-miterlimit="8" fill="none" fill-rule="evenodd"/><rect x="611.5" y="588.5" width="143" height="64" stroke="#000000" stroke-width="1.33333" stroke-miterlimit="8" fill="#D6DCE5"/><text font-family="Times New Roman,Times New Roman_MSFontService,sans-serif" font-weight="400" font-size="24" transform="translate(667.009 630)">PC</text><path d="M540 619 603.949 619 603.949 621 540 621ZM602.616 616 610.616 620 602.616 624Z"/><path d="M0.99937-0.0354815 1.92965 26.1667-0.0690895 26.2377-0.99937 0.0354815ZM4.88045 24.7278 1.16682 32.8647-3.11451 25.0116Z" transform="matrix(-1 0 0 1 640.167 555)"/><text font-family="Times New Roman,Times New Roman_MSFontService,sans-serif" font-weight="400" font-size="24" transform="translate(675.358 548)">load</text><path d="M0.99937-0.0354815 1.92965 26.1667-0.0690895 26.2377-0.99937 0.0354815ZM4.88045 24.7278 1.16682 32.8647-3.11451 25.0116Z" transform="matrix(-1 0 0 1 685.167 556)"/><path d="M0 0 303.782 1.43643" stroke="#000000" stroke-width="2" stroke-miterlimit="8" fill="none" fill-rule="evenodd" transform="matrix(1 0 0 -1 754 620.436)"/><path d="M1045 618 1224.1 618 1224.1 620 1045 620ZM1222.77 615 1230.77 619 1222.77 623Z"/><text font-family="Times New Roman,Times New Roman_MSFontService,sans-serif" font-weight="400" font-size="24" transform="translate(230.688 534)">reset</text><path d="M0 0 3.44462 342.554" stroke="#000000" stroke-width="2" stroke-miterlimit="8" fill="none" fill-rule="evenodd" transform="matrix(-1 0 0 1 542.445 169)"/><path d="M972 602 997.25 636.436" stroke="#000000" stroke-width="2" stroke-miterlimit="8" fill="none" fill-rule="evenodd"/><text font-family="Times New Roman,Times New Roman_MSFontService,sans-serif" font-weight="400" font-size="24" transform="translate(504.607 352)">16</text><text font-family="Times New Roman,Times New Roman_MSFontService,sans-serif" font-weight="400" font-size="24" transform="translate(402.022 582)">1</text><path d="M402 537 427.25 571.436" stroke="#000000" stroke-width="2" stroke-miterlimit="8" fill="none" fill-rule="evenodd"/><path d="M666.5 689.5 684.5 671.5 702.5 689.5 693.5 689.5 693.5 712.5 675.5 712.5 675.5 689.5Z" stroke="#41719C" stroke-width="1.33333" stroke-miterlimit="8" fill="#5B9BD5" fill-rule="evenodd"/><rect x="24.5001" y="220.5" width="378" height="33" stroke="#AE5A21" stroke-width="1.33333" stroke-miterlimit="8" fill="#ED7D31"/><text font-family="Times New Roman,Times New Roman_MSFontService,sans-serif" font-weight="400" font-size="24" transform="translate(84.6747 245)">1</text><text fill="#FFFFFF" font-family="Times New Roman,Times New Roman_MSFontService,sans-serif" font-weight="400" font-size="24" transform="translate(102.675 245)">1 1</text><text fill="#385723" font-family="Times New Roman,Times New Roman_MSFontService,sans-serif" font-weight="400" font-size="24" transform="translate(138.675 245)">a</text><text fill="#4472C4" font-family="Times New Roman,Times New Roman_MSFontService,sans-serif" font-weight="400" font-size="24" transform="translate(155.341 245)">c</text><text fill="#4472C4" font-family="Times New Roman,Times New Roman_MSFontService,sans-serif" font-weight="400" font-size="24" transform="translate(172.008 245)">c</text><text fill="#4472C4" font-family="Times New Roman,Times New Roman_MSFontService,sans-serif" font-weight="400" font-size="24" transform="translate(188.675 245)">c</text><text fill="#4472C4" font-family="Times New Roman,Times New Roman_MSFontService,sans-serif" font-weight="400" font-size="24" transform="translate(205.341 245)">c</text><text fill="#4472C4" font-family="Times New Roman,Times New Roman_MSFontService,sans-serif" font-weight="400" font-size="24" transform="translate(222.008 245)">c</text><text fill="#4472C4" font-family="Times New Roman,Times New Roman_MSFontService,sans-serif" font-weight="400" font-size="24" transform="translate(238.675 245)">c</text><text fill="#70AD47" font-family="Times New Roman,Times New Roman_MSFontService,sans-serif" font-weight="400" font-size="24" transform="translate(255.341 245)">d</text><text fill="#70AD47" font-family="Times New Roman,Times New Roman_MSFontService,sans-serif" font-weight="400" font-size="24" transform="translate(273.341 245)">d</text><text fill="#70AD47" font-family="Times New Roman,Times New Roman_MSFontService,sans-serif" font-weight="400" font-size="24" transform="translate(291.341 245)">d</text><text fill="#FFFF00" font-family="Times New Roman,Times New Roman_MSFontService,sans-serif" font-weight="400" font-size="24" transform="translate(309.341 245)">j</text><text fill="#FFFF00" font-family="Times New Roman,Times New Roman_MSFontService,sans-serif" font-weight="400" font-size="24" transform="translate(322.008 245)">j</text><text fill="#FFFF00" font-family="Times New Roman,Times New Roman_MSFontService,sans-serif" font-weight="400" font-size="24" transform="translate(334.675 245)">j</text><path d="M300 266 343.27 266" stroke="#ED7D31" stroke-width="2" stroke-miterlimit="8" fill="none" fill-rule="evenodd"/></g></svg>