<svg width="1280" height="720" xmlns="http://www.w3.org/2000/svg" xmlns:xlink="http://www.w3.org/1999/xlink" overflow="hidden"><defs><clipPath id="clip0"><rect x="0" y="0" width="1280" height="720"/></clipPath></defs><g clip-path="url(#clip0)"><rect x="0" y="0" width="1280" height="720" fill="#FFFFFF"/><rect x="506.5" y="293.5" width="185" height="86" stroke="#000000" stroke-width="1.33333" stroke-miterlimit="8" fill="#D6DCE5"/><text font-family="Times New Roman,Times New Roman_MSFontService,sans-serif" font-weight="400" font-size="24" transform="translate(587.373 342)">PC</text><path d="M434 335 499.333 335 499.333 337 434 337ZM498 332 506 336 498 340Z"/><path d="M691 337 756.333 337 756.333 339 691 339ZM755 334 763 338 755 342Z"/><text font-family="Times New Roman,Times New Roman_MSFontService,sans-serif" font-weight="400" font-size="24" transform="translate(402.484 330)">in</text><path d="M601 262 601 286.407 599 286.407 599 262ZM604 285.073 600 293.073 596 285.073Z"/><text font-family="Times New Roman,Times New Roman_MSFontService,sans-serif" font-weight="400" font-size="24" transform="translate(513.398 250)">load</text><text font-family="Times New Roman,Times New Roman_MSFontService,sans-serif" font-weight="400" font-size="24" transform="translate(782.693 335)">out</text><path d="M590.5 373.5 600 359.5 609.5 373.5Z" stroke="#000000" stroke-width="1.33333" stroke-miterlimit="8" fill="#FFFFFF" fill-rule="evenodd"/><path d="M0 0 17.5257 30.6804" stroke="#000000" stroke-width="0.666667" stroke-miterlimit="8" fill="none" fill-rule="evenodd" transform="matrix(-1 0 0 1 475.026 320.5)"/><path d="M0 0 17.5257 30.6804" stroke="#000000" stroke-width="0.666667" stroke-miterlimit="8" fill="none" fill-rule="evenodd" transform="matrix(-1 0 0 1 733.026 320.5)"/><text font-family="Times New Roman,Times New Roman_MSFontService,sans-serif" font-weight="400" font-size="24" transform="translate(447.74 370)">16</text><text font-family="Times New Roman,Times New Roman_MSFontService,sans-serif" font-weight="400" font-size="24" transform="translate(703.914 369)">16</text><path d="M665 262 665 286.407 663 286.407 663 262ZM668 285.073 664 293.073 660 285.073Z"/><path d="M537 262 537 286.407 535 286.407 535 262ZM540 285.073 536 293.073 532 285.073Z"/><text font-family="Times New Roman,Times New Roman_MSFontService,sans-serif" font-weight="400" font-size="24" transform="translate(585.297 249)">inc</text><text font-family="Times New Roman,Times New Roman_MSFontService,sans-serif" font-weight="400" font-size="24" transform="translate(647.818 250)">reset</text></g></svg>