<svg width="1280" height="720" xmlns="http://www.w3.org/2000/svg" xmlns:xlink="http://www.w3.org/1999/xlink" overflow="hidden"><defs><clipPath id="clip0"><rect x="0" y="0" width="1280" height="720"/></clipPath></defs><g clip-path="url(#clip0)"><rect x="0" y="0" width="1280" height="720" fill="#FFFFFF"/><rect x="72.5001" y="280.5" width="354" height="160" stroke="#2F528F" stroke-width="1.33333" stroke-miterlimit="8" fill="#F8CBAD"/><rect x="266.5" y="305.5" width="124" height="92" stroke="#2F528F" stroke-width="1.33333" stroke-miterlimit="8" fill="#F4B183"/><rect x="497.5" y="147.5" width="502" height="403" stroke="#2F528F" stroke-width="1.33333" stroke-miterlimit="8" fill="#A9D18E"/><rect x="540.5" y="280.5" width="145" height="37" stroke="#2F528F" stroke-width="1.33333" stroke-miterlimit="8" fill="#F8CBAD"/><rect x="540.5" y="320.5" width="145" height="37" stroke="#2F528F" stroke-width="1.33333" stroke-miterlimit="8" fill="#F8CBAD"/><text font-family="Times New Roman,Times New Roman_MSFontService,sans-serif" font-weight="700" font-size="24" transform="translate(558.532 261)">Registers</text><text font-family="Times New Roman,Times New Roman_MSFontService,sans-serif" font-weight="700" font-size="24" transform="translate(199.774 429)">Memory</text><rect x="88.5001" y="305.5" width="124" height="92" stroke="#2F528F" stroke-width="1.33333" stroke-miterlimit="8" fill="#FFD966"/><text font-family="Times New Roman,Times New Roman_MSFontService,sans-serif" font-weight="700" font-size="24" transform="translate(718.571 197)">CPU</text><path d="M894.765 300.776 896.5 395.701 825.368 443.5 826.235 374.831 848.789 355.98 824.5 343.189 824.5 272.5 894.765 300.776Z" stroke="#2F528F" stroke-width="1.33333" stroke-miterlimit="8" fill="#B4C7E7" fill-rule="evenodd"/><text font-family="Times New Roman,Times New Roman_MSFontService,sans-serif" font-weight="700" font-size="24" transform="translate(861.019 330)">A</text><text font-family="Times New Roman,Times New Roman_MSFontService,sans-serif" font-weight="700" font-size="24" transform="translate(861.019 359)">L</text><text font-family="Times New Roman,Times New Roman_MSFontService,sans-serif" font-weight="700" font-size="24" transform="translate(861.019 388)">U</text><text font-family="Times New Roman,Times New Roman_MSFontService,sans-serif" font-weight="700" font-size="24" transform="translate(288.9 359)">Program</text><text font-family="Times New Roman,Times New Roman_MSFontService,sans-serif" font-weight="700" font-size="24" transform="translate(127.619 358)">Data</text><rect x="541.5" y="361.5" width="144" height="37" stroke="#2F528F" stroke-width="1.33333" stroke-miterlimit="8" fill="#F8CBAD"/><rect x="541.5" y="402.5" width="145" height="37" stroke="#2F528F" stroke-width="1.33333" stroke-miterlimit="8" fill="#F8CBAD"/></g></svg>