<svg width="1280" height="720" xmlns="http://www.w3.org/2000/svg" xmlns:xlink="http://www.w3.org/1999/xlink" overflow="hidden"><defs><clipPath id="clip0"><rect x="0" y="0" width="1280" height="720"/></clipPath></defs><g clip-path="url(#clip0)"><rect x="0" y="0" width="1280" height="720" fill="#FFFFFF"/><path d="M104.5 425.25 874.001 425.25 874.001 412.5 899.5 438 874.001 463.5 874.001 450.75 104.5 450.75Z" stroke="#41719C" stroke-width="1.33333" stroke-miterlimit="8" fill="#5B9BD5" fill-rule="evenodd"/><text fill="#FFFFFF" font-family="Times New Roman,Times New Roman_MSFontService,sans-serif" font-weight="400" font-size="24" transform="translate(458.423 446)">Control</text><rect x="127.5" y="122.5" width="354" height="159" stroke="#2F528F" stroke-width="1.33333" stroke-miterlimit="8" fill="#F8CBAD"/><rect x="553.5" y="16.5001" width="503" height="329" stroke="#2F528F" stroke-width="1.33333" stroke-miterlimit="8" fill="#A9D18E"/><rect x="595.5" y="121.5" width="145" height="37" stroke="#2F528F" stroke-width="1.33333" stroke-miterlimit="8" fill="#F8CBAD"/><rect x="595.5" y="162.5" width="145" height="37" stroke="#2F528F" stroke-width="1.33333" stroke-miterlimit="8" fill="#F8CBAD"/><text font-family="Times New Roman,Times New Roman_MSFontService,sans-serif" font-weight="700" font-size="24" transform="translate(613.522 103)">Registers</text><text font-family="Times New Roman,Times New Roman_MSFontService,sans-serif" font-weight="700" font-size="24" transform="translate(254.765 270)">Memory</text><rect x="143.5" y="147.5" width="124" height="92" stroke="#2F528F" stroke-width="1.33333" stroke-miterlimit="8" fill="#FFD966"/><text font-family="Times New Roman,Times New Roman_MSFontService,sans-serif" font-weight="700" font-size="24" transform="translate(774.571 54)">CPU</text><path d="M949.765 142.61 951.5 236.98 880.368 284.5 881.235 216.232 903.789 197.492 879.5 184.776 879.5 114.5 949.765 142.61Z" stroke="#2F528F" stroke-width="1.33333" stroke-miterlimit="8" fill="#B4C7E7" fill-rule="evenodd"/><text font-family="Times New Roman,Times New Roman_MSFontService,sans-serif" font-weight="700" font-size="24" transform="translate(916.009 172)">A</text><text font-family="Times New Roman,Times New Roman_MSFontService,sans-serif" font-weight="700" font-size="24" transform="translate(916.009 201)">L</text><text font-family="Times New Roman,Times New Roman_MSFontService,sans-serif" font-weight="700" font-size="24" transform="translate(916.009 230)">U</text><text font-family="Times New Roman,Times New Roman_MSFontService,sans-serif" font-weight="700" font-size="24" transform="translate(182.609 199)">Data</text><rect x="596.5" y="203.5" width="144" height="37" stroke="#2F528F" stroke-width="1.33333" stroke-miterlimit="8" fill="#F8CBAD"/><rect x="596.5" y="243.5" width="145" height="37" stroke="#2F528F" stroke-width="1.33333" stroke-miterlimit="8" fill="#F8CBAD"/><path d="M79.5001 544.501 105.5 518.5 105.5 531.5 1086.5 531.5 1086.5 518.5 1112.5 544.501 1086.5 570.5 1086.5 557.5 105.5 557.5 105.5 570.5Z" stroke="#AE5A21" stroke-width="1.33333" stroke-miterlimit="8" fill="#ED7D31" fill-rule="evenodd"/><text fill="#FFFFFF" font-family="Times New Roman,Times New Roman_MSFontService,sans-serif" font-weight="400" font-size="24" transform="translate(556.123 553)">Address</text><path d="M80.5001 651.5 106.5 625.5 106.5 638.501 1086.5 638.501 1086.5 625.5 1112.5 651.5 1086.5 677.5 1086.5 664.501 106.5 664.501 106.5 677.5Z" stroke="#507E32" stroke-width="1.33333" stroke-miterlimit="8" fill="#70AD47" fill-rule="evenodd"/><text fill="#FFFFFF" font-family="Times New Roman,Times New Roman_MSFontService,sans-serif" font-weight="400" font-size="24" transform="translate(573.644 660)">Data</text><path d="M809.5 217 824 202.5 838.5 217 831.25 217 831.25 639.5 816.75 639.5 816.75 217Z" stroke="#507E32" stroke-width="1.33333" stroke-miterlimit="8" fill="#70AD47" fill-rule="evenodd"/><path d="M834.5 196 874.5 196 874.5 190.5 885.5 201.5 874.5 212.5 874.5 207 834.5 207Z" stroke="#507E32" stroke-width="1.33333" stroke-miterlimit="8" fill="#70AD47" fill-rule="evenodd"/><path d="M956.5 196.75 997 196.75 997 191.5 1007.5 202 997 212.5 997 207.25 956.5 207.25Z" stroke="#507E32" stroke-width="1.33333" stroke-miterlimit="8" fill="#70AD47" fill-rule="evenodd"/><path d="M1036.5 626 1022 640.5 1007.5 626 1014.75 626 1014.75 203.5 1029.25 203.5 1029.25 626Z" stroke="#507E32" stroke-width="1.33333" stroke-miterlimit="8" fill="#70AD47" fill-rule="evenodd"/><path d="M899.5 290 914 275.5 928.5 290 921.25 290 921.25 426.5 906.75 426.5 906.75 290Z" stroke="#41719C" stroke-width="1.33333" stroke-miterlimit="8" fill="#5B9BD5" fill-rule="evenodd"/><path d="M605.5 299.5 620.5 284.5 635.5 299.5 628 299.5 628 424.5 613 424.5 613 299.5Z" stroke="#41719C" stroke-width="1.33333" stroke-miterlimit="8" fill="#5B9BD5" fill-rule="evenodd"/><path d="M739.5 518 725 532.5 710.5 518 717.75 518 717.75 282.5 732.25 282.5 732.25 518Z" stroke="#AE5A21" stroke-width="1.33333" stroke-miterlimit="8" fill="#ED7D31" fill-rule="evenodd"/><path d="M639.5 299.5 654.5 284.5 669.5 299.5 662 299.5 662 640.5 647 640.5 647 299.5Z" stroke="#507E32" stroke-width="1.33333" stroke-miterlimit="8" fill="#70AD47" fill-rule="evenodd"/><path d="M707.5 624.5 692.5 639.5 677.5 624.5 685 624.5 685 284.5 700 284.5 700 624.5Z" stroke="#507E32" stroke-width="1.33333" stroke-miterlimit="8" fill="#70AD47" fill-rule="evenodd"/><path d="M146.5 299.5 161.5 284.5 176.5 299.5 169 299.5 169 424.5 154 424.5 154 299.5Z" stroke="#41719C" stroke-width="1.33333" stroke-miterlimit="8" fill="#5B9BD5" fill-rule="evenodd"/><path d="M202.5 296 217 281.5 231.5 296 224.25 296 224.25 531.5 209.75 531.5 209.75 296Z" stroke="#AE5A21" stroke-width="1.33333" stroke-miterlimit="8" fill="#ED7D31" fill-rule="evenodd"/><path d="M351.5 622 336 637.5 320.5 622 328.25 622 328.25 281.5 343.75 281.5 343.75 622Z" stroke="#507E32" stroke-width="1.33333" stroke-miterlimit="8" fill="#70AD47" fill-rule="evenodd"/><path d="M250.5 296 265 281.5 279.5 296 272.25 296 272.25 637.5 257.75 637.5 257.75 296Z" stroke="#507E32" stroke-width="1.33333" stroke-miterlimit="8" fill="#70AD47" fill-rule="evenodd"/><text font-family="Times New Roman,Times New Roman_MSFontService,sans-serif" font-weight="400" font-size="24" transform="translate(0.354331 446)">instruction</text></g></svg>