<svg width="1280" height="720" xmlns="http://www.w3.org/2000/svg" xmlns:xlink="http://www.w3.org/1999/xlink" overflow="hidden"><defs><clipPath id="clip0"><rect x="0" y="0" width="1280" height="720"/></clipPath></defs><g clip-path="url(#clip0)"><rect x="0" y="0" width="1280" height="720" fill="#FFFFFF"/><path d="M79.5001 641.5 105.5 615.5 105.5 628.501 1085.5 628.501 1085.5 615.5 1111.5 641.5 1085.5 667.5 1085.5 654.501 105.5 654.501 105.5 667.5Z" stroke="#41719C" stroke-width="1.33333" stroke-miterlimit="8" fill="#5B9BD5" fill-rule="evenodd"/><text fill="#FFFFFF" font-family="Times New Roman,Times New Roman_MSFontService,sans-serif" font-weight="400" font-size="24" transform="translate(558.236 650)">Control</text><rect x="127.5" y="122.5" width="354" height="159" stroke="#2F528F" stroke-width="1.33333" stroke-miterlimit="8" fill="#F8CBAD"/><text font-family="Times New Roman,Times New Roman_MSFontService,sans-serif" font-weight="700" font-size="24" transform="translate(505.639 183)">Instruction</text><text font-family="Times New Roman,Times New Roman_MSFontService,sans-serif" font-weight="700" font-size="24" transform="translate(264.452 269)">address</text><rect x="808.5" y="105.5" width="259" height="146" stroke="#2F528F" stroke-width="1.33333" stroke-miterlimit="8" fill="#FFD966"/><text font-family="Times New Roman,Times New Roman_MSFontService,sans-serif" font-weight="700" font-size="24" transform="translate(788.863 397)">Data address</text><path d="M1181.77 120.776 1183.5 215.701 1112.37 263.5 1113.23 194.831 1135.79 175.98 1111.5 163.189 1111.5 92.5001 1181.77 120.776Z" stroke="#2F528F" stroke-width="1.33333" stroke-miterlimit="8" fill="#B4C7E7" fill-rule="evenodd"/><text font-family="Times New Roman,Times New Roman_MSFontService,sans-serif" font-weight="700" font-size="24" transform="translate(1149.56 157)">A</text><text font-family="Times New Roman,Times New Roman_MSFontService,sans-serif" font-weight="700" font-size="24" transform="translate(1149.56 186)">L</text><text font-family="Times New Roman,Times New Roman_MSFontService,sans-serif" font-weight="700" font-size="24" transform="translate(1149.56 215)">U</text><text font-family="Times New Roman,Times New Roman_MSFontService,sans-serif" font-weight="700" font-size="24" transform="translate(205.91 206)">Program Memory</text><path d="M481.5 196 613.5 196 613.5 189.5 626.5 202.5 613.5 215.5 613.5 209 481.5 209Z" stroke="#507E32" stroke-width="1.33333" stroke-miterlimit="8" fill="#70AD47" fill-rule="evenodd"/><path d="M1067.5 173.75 1109 173.75 1109 168.5 1119.5 179 1109 189.5 1109 184.25 1067.5 184.25Z" stroke="#507E32" stroke-width="1.33333" stroke-miterlimit="8" fill="#70AD47" fill-rule="evenodd"/><path d="M844.5 441 859 426.5 873.5 441 866.25 441 866.25 629.5 851.75 629.5 851.75 441Z" stroke="#41719C" stroke-width="1.33333" stroke-miterlimit="8" fill="#5B9BD5" fill-rule="evenodd"/><path d="M844.5 266 859 251.5 873.5 266 866.25 266 866.25 361.5 851.75 361.5 851.75 266Z" stroke="#AE5A21" stroke-width="1.33333" stroke-miterlimit="8" fill="#ED7D31" fill-rule="evenodd"/><path d="M646.5 609.5 630.5 625.5 614.5 609.5 622.5 609.5 622.5 205.5 638.5 205.5 638.5 609.5Z" stroke="#41719C" stroke-width="1.33333" stroke-miterlimit="8" fill="#5B9BD5" fill-rule="evenodd"/><path d="M289.5 296.5 304.5 281.5 319.5 296.5 312 296.5 312 408.5 297 408.5 297 296.5Z" stroke="#AE5A21" stroke-width="1.33333" stroke-miterlimit="8" fill="#ED7D31" fill-rule="evenodd"/><text font-family="Times New Roman,Times New Roman_MSFontService,sans-serif" font-weight="700" font-size="24" transform="translate(443.425 206)">out</text><text font-family="Times New Roman,Times New Roman_MSFontService,sans-serif" font-weight="700" font-size="24" transform="translate(874.028 191)">Data Memory</text><text font-family="Times New Roman,Times New Roman_MSFontService,sans-serif" font-weight="700" font-size="24" transform="translate(831.348 242)">address</text><text font-family="Times New Roman,Times New Roman_MSFontService,sans-serif" font-weight="700" font-size="24" transform="translate(1032.55 189)">out</text><rect x="161.5" y="407.5" width="289" height="63" stroke="#AE5A21" stroke-width="1.33333" stroke-miterlimit="8" fill="#ED7D31"/><text fill="#FFFFFF" font-family="Times New Roman,Times New Roman_MSFontService,sans-serif" font-weight="400" font-size="24" transform="translate(222.377 447)">Program Counter</text><path d="M659.94 36.0141 707.395 13.5001 703.616 43.4549 753.267 29.9475 730.067 47.3697 804.5 47.9556 738.694 62.2512 757.017 72.0408 730.067 77.3297 765.672 94.5549 705.256 87.9074 709.562 103.567 670.178 96.126 662.079 111.199 637.267 103.567 620.556 115.71 603.83 107.482 566.613 125.5 565.016 108.078 514.823 105.926 543.983 93.1963 496.5 80.2697 552.61 73.6067 513.212 56.3815 573.101 54.0326 560.695 32.2963 618.417 46.5919 635.129 23.2845Z" stroke="#ED7D31" stroke-width="0.666667" stroke-miterlimit="8" fill="#FF0000" fill-rule="evenodd"/><text fill="#FFFFFF" font-family="Times New Roman,Times New Roman_MSFontService,sans-serif" font-weight="400" font-size="24" transform="translate(612.261 65)">Same</text><text fill="#FFFFFF" font-family="Times New Roman,Times New Roman_MSFontService,sans-serif" font-weight="400" font-size="24" transform="translate(597.594 94)">Memory</text><path d="M0.561494-0.827481 57.259 37.6451 56.136 39.3-0.561494 0.827481ZM57.8402 34.414 62.2141 42.2159 53.3482 41.0338Z" fill="#FF0000" transform="matrix(-1 0 0 1 496.214 80)"/><path d="M804.646 46.2371 867.772 99.7302 866.479 101.256 803.354 47.7629ZM868.694 96.5795 872.211 104.803 863.522 102.683Z" fill="#FF0000"/></g></svg>