<svg width="1280" height="720" xmlns="http://www.w3.org/2000/svg" xmlns:xlink="http://www.w3.org/1999/xlink" overflow="hidden"><defs><filter id="fx0" x="-10%" y="-10%" width="120%" height="120%" filterUnits="userSpaceOnUse" primitiveUnits="userSpaceOnUse"><feComponentTransfer color-interpolation-filters="sRGB"><feFuncR type="discrete" tableValues="0 0"/><feFuncG type="discrete" tableValues="0 0"/><feFuncB type="discrete" tableValues="0 0"/><feFuncA type="linear" slope="0.4" intercept="0"/></feComponentTransfer><feGaussianBlur stdDeviation="1.77778 1.77778"/></filter><clipPath id="clip1"><rect x="0" y="0" width="1280" height="720"/></clipPath><clipPath id="clip2"><path d="M90.5001 131.5 90.5001 407.5 453.5 407.5 453.5 131.5ZM1.90735e-05 1.07288e-05 1280 1.07288e-05 1280 720 1.90735e-05 720Z" fill-rule="evenodd" clip-rule="evenodd"/></clipPath><clipPath id="clip3"><rect x="-2" y="-2" width="380" height="294"/></clipPath><clipPath id="clip4"><rect x="0" y="0" width="378" height="291"/></clipPath></defs><g clip-path="url(#clip1)"><rect x="0" y="0" width="1280" height="720" fill="#FFFFFF"/><g clip-path="url(#clip2)"><g clip-path="url(#clip3)" filter="url(#fx0)" transform="translate(86 127)"><g clip-path="url(#clip4)"><rect x="7.32848" y="7.32848" width="363" height="276" stroke="#2F528F" stroke-miterlimit="8" fill="#DAE3F3"/></g></g></g><rect x="90.5001" y="131.5" width="363" height="276" stroke="#2F528F" stroke-width="1.33333" stroke-miterlimit="8" fill="#DAE3F3"/><text font-family="Consolas,Consolas_MSFontService,sans-serif" font-weight="400" font-size="24" transform="translate(113.517 172)">…</text><text font-family="Consolas,Consolas_MSFontService,sans-serif" font-weight="400" font-size="24" transform="translate(113.517 200)">JGT</text><text font-family="Consolas,Consolas_MSFontService,sans-serif" font-weight="400" font-size="24" transform="translate(166.184 200)">cont</text><text font-family="Consolas,Consolas_MSFontService,sans-serif" font-weight="400" font-size="24" transform="translate(113.517 229)">…</text><text font-family="Consolas,Consolas_MSFontService,sans-serif" font-weight="400" font-size="24" transform="translate(113.517 258)">Label</text><text font-family="Consolas,Consolas_MSFontService,sans-serif" font-weight="400" font-size="24" transform="translate(192.517 258)">cont</text><text font-family="Consolas,Consolas_MSFontService,sans-serif" font-weight="400" font-size="24" transform="translate(245.184 258)">:</text><text font-family="Consolas,Consolas_MSFontService,sans-serif" font-weight="400" font-size="24" transform="translate(113.517 287)">…</text><path d="M545.649 140.706 826.722 140.706 826.722 204.703 545.649 204.703Z" fill="#FFC000" fill-rule="evenodd"/><path d="M826.722 140.706 1107.79 140.706 1107.79 204.703 826.722 204.703Z" fill="#FFC000" fill-rule="evenodd"/><path d="M545.649 204.703 826.722 204.703 826.722 268.701 545.649 268.701Z" fill="#FFC000" fill-rule="evenodd"/><path d="M826.722 204.703 1107.79 204.703 1107.79 268.701 826.722 268.701Z" fill="#FFC000" fill-rule="evenodd"/><path d="M545.649 268.701 826.722 268.701 826.722 332.699 545.649 332.699Z" fill="#FFC000" fill-rule="evenodd"/><path d="M826.722 268.701 1107.79 268.701 1107.79 332.699 826.722 332.699Z" fill="#FFC000" fill-rule="evenodd"/><path d="M545.649 332.699 826.722 332.699 826.722 396.696 545.649 396.696Z" fill="#FFC000" fill-rule="evenodd"/><path d="M826.722 332.699 1107.79 332.699 1107.79 396.696 826.722 396.696Z" fill="#FFC000" fill-rule="evenodd"/><path d="M826.722 140.039 826.722 397.363" stroke="#FFFFFF" stroke-width="1.33333" stroke-linejoin="round" stroke-miterlimit="10" fill="none" fill-rule="evenodd"/><path d="M544.983 204.703 1108.46 204.703" stroke="#FFFFFF" stroke-width="4" stroke-linejoin="round" stroke-miterlimit="10" fill="none" fill-rule="evenodd"/><path d="M544.983 268.701 1108.46 268.701" stroke="#FFFFFF" stroke-width="1.33333" stroke-linejoin="round" stroke-miterlimit="10" fill="none" fill-rule="evenodd"/><path d="M544.983 332.699 1108.46 332.699" stroke="#FFFFFF" stroke-width="1.33333" stroke-linejoin="round" stroke-miterlimit="10" fill="none" fill-rule="evenodd"/><path d="M545.649 140.039 545.649 397.363" stroke="#FFFFFF" stroke-width="1.33333" stroke-linejoin="round" stroke-miterlimit="10" fill="none" fill-rule="evenodd"/><path d="M1107.79 140.039 1107.79 397.363" stroke="#FFFFFF" stroke-width="1.33333" stroke-linejoin="round" stroke-miterlimit="10" fill="none" fill-rule="evenodd"/><path d="M544.983 140.706 1108.46 140.706" stroke="#FFFFFF" stroke-width="1.33333" stroke-linejoin="round" stroke-miterlimit="10" fill="none" fill-rule="evenodd"/><path d="M544.983 396.696 1108.46 396.696" stroke="#FFFFFF" stroke-width="1.33333" stroke-linejoin="round" stroke-miterlimit="10" fill="none" fill-rule="evenodd"/><text fill="#FFFFFF" font-family="DengXian,DengXian_MSFontService,sans-serif" font-weight="700" font-size="24" transform="translate(645.352 168)">Symbol</text><text fill="#FFFFFF" font-family="DengXian,DengXian_MSFontService,sans-serif" font-weight="700" font-size="24" transform="translate(923.508 168)">Address</text></g></svg>