<svg width="1280" height="720" xmlns="http://www.w3.org/2000/svg" xmlns:xlink="http://www.w3.org/1999/xlink" overflow="hidden"><defs><clipPath id="clip0"><rect x="0" y="0" width="1280" height="720"/></clipPath></defs><g clip-path="url(#clip0)"><rect x="0" y="0" width="1280" height="720" fill="#FFFFFF"/><path d="M800.187 256.477 800.187 256.477 809.5 511.795 757.344 570.5 407.157 569.568 465.832 503.409C466.142 420.788 466.453 338.167 466.763 255.546L402.5 203.364 724.747 201.5 800.187 256.477Z" stroke="#2F528F" stroke-width="1.33333" stroke-miterlimit="8" fill="#E7E6E6" fill-rule="evenodd"/><text font-family="Times New Roman,Times New Roman_MSFontService,sans-serif" font-weight="400" font-size="53" transform="translate(569.367 406)">ALU</text><path d="M802 385 937.935 385 937.935 387 802 387ZM936.602 382 944.602 386 936.602 390Z"/><path d="M325 330 460.935 330 460.935 332 325 332ZM459.602 327 467.602 331 459.602 335Z"/><path d="M325 437 460.935 437 460.935 439 325 439ZM459.602 434 467.602 438 459.602 442Z"/><path d="M0 0 23.301 27.9612" stroke="#000000" stroke-width="0.666667" stroke-miterlimit="8" fill="none" fill-rule="evenodd" transform="matrix(-1 0 0 1 408.801 317.5)"/><text font-family="Times New Roman,Times New Roman_MSFontService,sans-serif" font-weight="400" font-size="24" transform="translate(348.551 366)">16 bits</text><path d="M0 0 23.301 27.9612" stroke="#000000" stroke-width="0.666667" stroke-miterlimit="8" fill="none" fill-rule="evenodd" transform="matrix(-1 0 0 1 408.801 424.5)"/><path d="M0 0 23.301 27.9612" stroke="#000000" stroke-width="0.666667" stroke-miterlimit="8" fill="none" fill-rule="evenodd" transform="matrix(-1 0 0 1 883.801 372.5)"/><text font-family="Times New Roman,Times New Roman_MSFontService,sans-serif" font-weight="400" font-size="24" transform="translate(360.202 473)">16 bits</text><text font-family="Times New Roman,Times New Roman_MSFontService,sans-serif" font-weight="400" font-size="24" transform="translate(831.114 422)">16 bits</text><text font-family="Times New Roman,Times New Roman_MSFontService,sans-serif" font-style="italic" font-weight="400" font-size="24" transform="translate(301.095 340)">x</text><text font-family="Times New Roman,Times New Roman_MSFontService,sans-serif" font-style="italic" font-weight="400" font-size="24" transform="translate(304.008 450)">y</text><text font-family="Times New Roman,Times New Roman_MSFontService,sans-serif" font-style="italic" font-weight="400" font-size="24" transform="translate(959.192 394)">out</text><path d="M431 131 431 194.236 429 194.236 429 131ZM434 192.903 430 200.903 426 192.903Z"/><path d="M487 131 487 194.236 485 194.236 485 131ZM490 192.903 486 200.903 482 192.903Z"/><path d="M541 131 541 194.236 539 194.236 539 131ZM544 192.903 540 200.903 536 192.903Z"/><path d="M596 131 596 194.236 594 194.236 594 131ZM599 192.903 595 200.903 591 192.903Z"/><path d="M654 131 654 194.236 652 194.236 652 131ZM657 192.903 653 200.903 649 192.903Z"/><path d="M707 131 707 194.236 705 194.236 705 131ZM710 192.903 706 200.903 702 192.903Z"/><path d="M541 570 541 633.236 539 633.236 539 570ZM544 631.903 540 639.903 536 631.903Z"/><path d="M668 570 668 633.236 666 633.236 666 570ZM671 631.903 667 639.903 663 631.903Z"/><text font-family="Times New Roman,Times New Roman_MSFontService,sans-serif" font-weight="400" font-size="24" transform="translate(535.037 657)">zr</text><text font-family="Times New Roman,Times New Roman_MSFontService,sans-serif" font-weight="400" font-size="24" transform="translate(655.425 657)">ng</text><text font-family="Times New Roman,Times New Roman_MSFontService,sans-serif" font-weight="400" font-size="24" transform="translate(417.988 124)">zx</text><text font-family="Times New Roman,Times New Roman_MSFontService,sans-serif" font-weight="400" font-size="24" transform="translate(477.639 122)">n</text><text font-family="Times New Roman,Times New Roman_MSFontService,sans-serif" font-weight="400" font-size="24" transform="translate(489.639 122)">x</text><text font-family="Times New Roman,Times New Roman_MSFontService,sans-serif" font-weight="400" font-size="24" transform="translate(535.037 123)">zy</text><text font-family="Times New Roman,Times New Roman_MSFontService,sans-serif" font-weight="400" font-size="24" transform="translate(584.746 123)">ny</text><text font-family="Times New Roman,Times New Roman_MSFontService,sans-serif" font-weight="400" font-size="24" transform="translate(693.639 124)">no</text><text font-family="Times New Roman,Times New Roman_MSFontService,sans-serif" font-weight="400" font-size="24" transform="translate(647.192 126)">f</text></g></svg>