<svg width="1280" height="720" xmlns="http://www.w3.org/2000/svg" xmlns:xlink="http://www.w3.org/1999/xlink" overflow="hidden"><defs><clipPath id="clip0"><rect x="0" y="0" width="1280" height="720"/></clipPath><linearGradient x1="189.5" y1="226.5" x2="189.5" y2="494.5" gradientUnits="userSpaceOnUse" spreadMethod="reflect" id="fill1"><stop offset="0" stop-color="#FFDD9C"/><stop offset="0.5" stop-color="#FFD78E"/><stop offset="1" stop-color="#FFD479"/></linearGradient><linearGradient x1="480.5" y1="360.5" x2="417.5" y2="360.5" gradientUnits="userSpaceOnUse" spreadMethod="reflect" id="fill2"><stop offset="0" stop-color="#FFDD9C"/><stop offset="0.5" stop-color="#FFD78E"/><stop offset="1" stop-color="#FFD479"/></linearGradient><linearGradient x1="674.5" y1="226.5" x2="674.5" y2="494.5" gradientUnits="userSpaceOnUse" spreadMethod="reflect" id="fill3"><stop offset="0" stop-color="#FFDD9C"/><stop offset="0.5" stop-color="#FFD78E"/><stop offset="1" stop-color="#FFD479"/></linearGradient><clipPath id="clip4"><rect x="949" y="183" width="96" height="96"/></clipPath><clipPath id="clip5"><rect x="949" y="183" width="96" height="96"/></clipPath><clipPath id="clip6"><rect x="949" y="183" width="96" height="96"/></clipPath><clipPath id="clip7"><rect x="951" y="408" width="96" height="96"/></clipPath><clipPath id="clip8"><rect x="951" y="408" width="96" height="96"/></clipPath><clipPath id="clip9"><rect x="951" y="408" width="96" height="96"/></clipPath></defs><g clip-path="url(#clip0)"><rect x="0" y="0" width="1280" height="720" fill="#FFFFFF"/><rect x="80.5001" y="183.5" width="746" height="354" stroke="#507E32" stroke-width="1.33333" stroke-miterlimit="8" fill="#C5E0B4"/><rect x="120.5" y="226.5" width="138" height="268" stroke="#FFC000" stroke-width="0.666667" stroke-miterlimit="8" fill="url(#fill1)"/><path d="M417.5 269.5 480.5 285.25 480.5 435.75 417.5 451.5Z" stroke="#FFC000" stroke-width="0.666667" stroke-miterlimit="8" fill="url(#fill2)" fill-rule="evenodd"/><text font-family="Times New Roman,Times New Roman_MSFontService,sans-serif" font-weight="400" font-size="24" transform="translate(426.532 368)">CPU</text><rect x="605.5" y="226.5" width="138" height="268" stroke="#FFC000" stroke-width="0.666667" stroke-miterlimit="8" fill="url(#fill3)"/><path d="M260 346.5 394 346.5 394 333 421 360 394 387 394 373.5 260 373.5Z" stroke="#FFFFFF" stroke-width="2" stroke-miterlimit="8" fill="#A5A5A5" fill-rule="evenodd"/><text fill="#FFFFFF" font-family="Times New Roman,Times New Roman_MSFontService,sans-serif" font-weight="400" font-size="24" transform="translate(277.864 369)">instructions</text><path d="M486.5 301 580.5 301 580.5 288.5 605.5 313.5 580.5 338.5 580.5 326 486.5 326Z" stroke="#787878" stroke-width="1.33333" stroke-miterlimit="8" fill="#A5A5A5" fill-rule="evenodd"/><text fill="#FFFFFF" font-family="Times New Roman,Times New Roman_MSFontService,sans-serif" font-weight="400" font-size="24" transform="translate(501.045 322)">data out</text><path d="M486 388 511 363 511 375.5 599 375.5 599 400.5 511 400.5 511 413Z" stroke="#FFFFFF" stroke-width="2" stroke-miterlimit="8" fill="#A5A5A5" fill-rule="evenodd"/><text fill="#FFFFFF" font-family="Times New Roman,Times New Roman_MSFontService,sans-serif" font-weight="400" font-size="24" transform="translate(516.599 397)">data in</text><text font-family="Times New Roman,Times New Roman_MSFontService,sans-serif" font-weight="400" font-size="24" transform="translate(166.183 365)">RO</text><text font-family="Times New Roman,Times New Roman_MSFontService,sans-serif" font-weight="400" font-size="24" transform="translate(199.516 365)">M</text><text font-family="Times New Roman,Times New Roman_MSFontService,sans-serif" font-weight="400" font-size="24" transform="translate(649.911 372)">RAM</text><g clip-path="url(#clip4)"><g clip-path="url(#clip5)"><g clip-path="url(#clip6)"><path d="M1025 243 969 243 969 209 1025 209 1025 243ZM1031 207C1031 204.8 1029.2 203 1027 203L967 203C964.8 203 963 204.8 963 207L963 249 1031 249 1031 207Z"/><path d="M1003 253 1003 254C1003 254.6 1002.6 255 1002 255L992 255C991.4 255 991 254.6 991 254L991 253 951 253 951 255C951 257.2 952.8 259 955 259L1039 259C1041.2 259 1043 257.2 1043 255L1043 253 1003 253Z"/></g></g></g><g clip-path="url(#clip7)"><g clip-path="url(#clip8)"><g clip-path="url(#clip9)"><path d="M1028.5 458.5C1028.5 458.5 1027.4 458.2 1027 458.2 1006.4 453.7 1007.5 454 997.7 431L997.7 431C994.9 423.9 987.9 418.8 979.8 419 969.3 419.1 961 428 961 438.5L961 489C961 491.2 962.8 493 965 493L968 493 999 493 1033 493C1035.2 493 1037 491.2 1037 489L1037 470C1037 464.6 1033.4 460 1028.5 458.5ZM1033 489 965 489 965 477 969 477 969 486 973 486 973 477 975 477 975 486 979 486 979 477 981 477 981 486 985 486 985 477 994 477 994 486 998 486 998 477 1000 477 1000 486 1004 486 1004 477 1013 477 1013 486 1017 486 1017 477 1019 477 1019 486 1023 486 1023 477 1025 477 1025 486 1029 486 1029 477 1033 477 1033 489Z"/></g></g></g><path d="M0.00865509-0.333221 9.64237-0.0829946 19.2224 0.668383 28.6761 1.92053 37.817 3.54835 46.7087 5.61474 55.2248 8.05685 63.304 10.8125 70.885 13.8826 77.7801 17.2047 84.0517 20.7795 89.5755 24.5458 94.2922 28.4449 98.076 32.5441 100.858 36.7804 102.637 41.0373 103.205 45.3313 103.768 49.5813 103.745 49.4965 105.495 53.684 105.465 53.6276 108.215 57.7526 108.182 57.7114 111.932 61.7739 111.902 61.7448 116.589 65.6823 116.561 65.6606 122.061 69.3481 122.04 69.3354 128.29 72.8979 128.27 72.8872 135.145 76.1997 135.125 76.191 142.688 79.2535 142.67 79.247 150.733 81.997 150.717 81.9921 159.217 84.4296 159.2 84.4253 168.075 86.4878 168.058 86.4843 177.183 88.1093 177.169 88.107 186.606 89.357 186.589 89.3552 196.151 90.1052 196.132 90.1042 199.089 90.1667 199.075 90.8333 196.108 90.7706 186.528 90.0191 177.074 88.767 167.933 87.1391 159.041 85.0728 150.525 82.6306 142.446 79.875 134.865 76.8049 127.97 73.4828 121.699 69.9086 116.174 66.2043 111.457 62.2416 107.675 58.1443 104.892 53.9707 103.113 49.7127 102.545 45.4187 101.982 41.1687 102.005 41.2535 100.255 37.066 100.284 37.1205 97.5339 32.933 97.5676 32.9761 93.8176 28.9136 93.8501 28.9444 89.1626 25.0694 89.1872 25.0879 83.6872 21.3379 83.7099 21.3521 77.4599 17.7896 77.4803 17.8003 70.6053 14.4878 70.6249 14.4965 63.0624 11.434 63.0799 11.4405 55.0174 8.69049 55.0331 8.69542 46.5331 6.25792 46.5495 6.26218 37.6745 4.19968 37.6916 4.20317 28.5666 2.57817 28.5812 2.58045 19.1437 1.33045 19.1614 1.33231 9.59894 0.582313 9.61634 0.583221-0.00865509 0.333221ZM197.834 86.4727 205.748 90.6408 197.665 94.4709Z" transform="matrix(1 0 0 -1 743.5 322.141)"/><path d="M932.481 471.154 915.409 470.653 898.829 469.214 890.942 468.15 883.37 466.961 876.234 465.584 869.472 464.019 863.333 462.39 857.754 460.572 852.859 458.69 848.709 456.74 845.296 454.718 842.807 452.612 841.181 450.401 840.666 448.209 840.166 446.084 840.222 446.205 838.659 444.08 838.712 444.137 836.275 442.075 836.32 442.107 832.945 440.107 832.974 440.122 828.849 438.185 828.871 438.194 823.996 436.319 824.012 436.325 818.45 434.512 818.468 434.518 812.281 432.893 812.289 432.895 805.602 431.333 805.615 431.335 798.49 429.96 798.501 429.962 790.939 428.775 790.946 428.776 783.071 427.713 783.086 427.715 766.524 426.278 766.544 426.279 756.156 426.007 756.173 425.341 766.572 425.613 783.152 427.052 791.038 428.116 798.61 429.305 805.747 430.682 812.446 432.247 818.647 433.876 824.227 435.694 829.121 437.576 833.271 439.526 836.684 441.548 839.173 443.654 840.799 445.865 841.315 448.057 841.815 450.182 841.759 450.06 843.321 452.185 843.268 452.129 845.706 454.191 845.66 454.159 849.035 456.159 849.007 456.144 853.132 458.081 853.11 458.072 857.985 459.947 857.969 459.941 863.531 461.754 863.513 461.748 869.638 463.373 869.628 463.371 876.378 464.933 876.366 464.931 883.491 466.306 883.479 466.304 891.042 467.491 891.035 467.49 898.91 468.553 898.894 468.551 915.457 469.988 915.438 469.987 932.5 470.487ZM757.393 429.708 749.5 425.5 757.602 421.71Z"/></g></svg>