<svg width="1280" height="720" xmlns="http://www.w3.org/2000/svg" xmlns:xlink="http://www.w3.org/1999/xlink" overflow="hidden"><defs><clipPath id="clip0"><rect x="0" y="0" width="1280" height="720"/></clipPath><linearGradient x1="387.5" y1="226.5" x2="387.5" y2="494.5" gradientUnits="userSpaceOnUse" spreadMethod="reflect" id="fill1"><stop offset="0" stop-color="#FFDD9C"/><stop offset="0.5" stop-color="#FFD78E"/><stop offset="1" stop-color="#FFD479"/></linearGradient><linearGradient x1="678.5" y1="360.5" x2="615.5" y2="360.5" gradientUnits="userSpaceOnUse" spreadMethod="reflect" id="fill2"><stop offset="0" stop-color="#FFDD9C"/><stop offset="0.5" stop-color="#FFD78E"/><stop offset="1" stop-color="#FFD479"/></linearGradient><linearGradient x1="872.5" y1="226.5" x2="872.5" y2="494.5" gradientUnits="userSpaceOnUse" spreadMethod="reflect" id="fill3"><stop offset="0" stop-color="#FFDD9C"/><stop offset="0.5" stop-color="#FFD78E"/><stop offset="1" stop-color="#FFD479"/></linearGradient></defs><g clip-path="url(#clip0)"><rect x="0" y="0" width="1280" height="720" fill="#FFFFFF"/><rect x="291.5" y="179.5" width="745" height="354" stroke="#507E32" stroke-width="1.33333" stroke-miterlimit="8" fill="#C5E0B4"/><rect x="318.5" y="226.5" width="138" height="268" stroke="#FFC000" stroke-width="0.666667" stroke-miterlimit="8" fill="url(#fill1)"/><text font-family="Times New Roman,Times New Roman_MSFontService,sans-serif" font-weight="400" font-size="24" transform="translate(334.796 354)">Instruction</text><text font-family="Times New Roman,Times New Roman_MSFontService,sans-serif" font-weight="400" font-size="24" transform="translate(346.796 383)">memory</text><path d="M615.5 269.5 678.5 285.25 678.5 435.75 615.5 451.5Z" stroke="#FFC000" stroke-width="0.666667" stroke-miterlimit="8" fill="url(#fill2)" fill-rule="evenodd"/><text font-family="Times New Roman,Times New Roman_MSFontService,sans-serif" font-weight="400" font-size="24" transform="translate(624.124 368)">CPU</text><rect x="803.5" y="226.5" width="138" height="268" stroke="#FFC000" stroke-width="0.666667" stroke-miterlimit="8" fill="url(#fill3)"/><text font-family="Times New Roman,Times New Roman_MSFontService,sans-serif" font-weight="400" font-size="24" transform="translate(851.767 354)">data</text><text font-family="Times New Roman,Times New Roman_MSFontService,sans-serif" font-weight="400" font-size="24" transform="translate(831.767 383)">memory</text><path d="M458 346.5 591 346.5 591 333 618 360 591 387 591 373.5 458 373.5Z" stroke="#FFFFFF" stroke-width="2" stroke-miterlimit="8" fill="#A5A5A5" fill-rule="evenodd"/><text fill="#FFFFFF" font-family="Times New Roman,Times New Roman_MSFontService,sans-serif" font-weight="400" font-size="24" transform="translate(475.456 369)">instructions</text><path d="M684.5 301 777.5 301 777.5 288.5 802.5 313.5 777.5 338.5 777.5 326 684.5 326Z" stroke="#787878" stroke-width="1.33333" stroke-miterlimit="8" fill="#A5A5A5" fill-rule="evenodd"/><text fill="#FFFFFF" font-family="Times New Roman,Times New Roman_MSFontService,sans-serif" font-weight="400" font-size="24" transform="translate(698.638 322)">data out</text><path d="M684 388 709 363 709 375.5 797 375.5 797 400.5 709 400.5 709 413Z" stroke="#FFFFFF" stroke-width="2" stroke-miterlimit="8" fill="#A5A5A5" fill-rule="evenodd"/><text fill="#FFFFFF" font-family="Times New Roman,Times New Roman_MSFontService,sans-serif" font-weight="400" font-size="24" transform="translate(714.191 397)">data in</text><path d="M0.896915-0.442202 65.3664 130.321 63.5725 131.205-0.896915 0.442202ZM67.4675 127.798 67.4174 136.742 60.2921 131.336Z" fill="#4472C4" transform="matrix(-1 0 0 1 707.417 162)"/><rect x="630.5" y="101.5" width="155" height="62" stroke="#2F528F" stroke-width="1.33333" stroke-miterlimit="8" fill="#4472C4"/><text fill="#FFFFFF" font-family="Times New Roman,Times New Roman_MSFontService,sans-serif" font-weight="400" font-size="24" transform="translate(660.414 140)">A register</text><path d="M719.515 590.743 646.964 438.449 648.77 437.589 721.32 589.883ZM644.829 440.943 645 432 652.052 437.502Z" fill="#4472C4"/><rect x="642.5" y="590.5" width="155" height="62" stroke="#2F528F" stroke-width="1.33333" stroke-miterlimit="8" fill="#4472C4"/><text fill="#FFFFFF" font-family="Times New Roman,Times New Roman_MSFontService,sans-serif" font-weight="400" font-size="24" transform="translate(671.829 630)">D register</text><path d="M0.837674-0.546171 92.0703 139.379 90.395 140.472-0.837674 0.546171ZM93.8551 136.624 94.8738 145.51 87.1537 140.993Z" fill="#4472C4" transform="matrix(-1 0 0 1 1007.87 139)"/><rect x="931.5" y="77.5001" width="154" height="63" stroke="#2F528F" stroke-width="1.33333" stroke-miterlimit="8" fill="#4472C4"/><text fill="#FFFFFF" font-family="Times New Roman,Times New Roman_MSFontService,sans-serif" font-weight="400" font-size="24" transform="translate(958.372 117)">M register</text></g></svg>