<svg width="1280" height="720" xmlns="http://www.w3.org/2000/svg" xmlns:xlink="http://www.w3.org/1999/xlink" overflow="hidden"><defs><clipPath id="clip0"><rect x="0" y="0" width="1280" height="720"/></clipPath></defs><g clip-path="url(#clip0)"><rect x="0" y="0" width="1280" height="720" fill="#FFFFFF"/><rect x="143" y="19" width="995" height="648" stroke="#2F528F" stroke-width="2" stroke-miterlimit="8" stroke-dasharray="16 6 2 6 2 6" fill="#FFFFFF"/><path d="M207.531 247.725 205.601 130.879 313.305 176.23Z" stroke="#787878" stroke-width="1.33333" stroke-miterlimit="8" fill="#A5A5A5" fill-rule="evenodd"/><text font-family="Times New Roman,Times New Roman_MSFontService,sans-serif" font-weight="400" font-size="24" transform="translate(589.156 709)">( C = control bits)</text><path d="M15 216 199.863 216 199.863 218 15 218ZM198.53 213 206.53 217 198.53 221Z"/><path d="M592 247 657.333 247 657.333 249 592 249ZM656 244 664 248 656 252Z"/><text font-family="Times New Roman,Times New Roman_MSFontService,sans-serif" font-weight="400" font-size="24" transform="translate(24.552 307)">inM</text><text font-family="Times New Roman,Times New Roman_MSFontService,sans-serif" font-weight="400" font-size="24" transform="translate(215.976 192)">Mux16</text><text font-family="Times New Roman,Times New Roman_MSFontService,sans-serif" font-weight="400" font-size="24" transform="translate(1201.49 608)">PC</text><text font-family="Times New Roman,Times New Roman_MSFontService,sans-serif" font-weight="400" font-size="24" transform="translate(1182.23 211)">outM</text><path d="M167 166 201.357 166 201.357 168 167 168ZM200.024 163 208.024 167 200.024 171Z"/><path d="M313 174 348.328 174 348.328 176 313 176ZM346.994 171 354.994 175 346.994 179Z"/><path d="M1074 224 1232.61 224 1232.61 226 1074 226ZM1231.28 221 1239.28 225 1231.28 229Z"/><path d="M548 320 661.492 320 661.492 322 548 322ZM660.159 317 668.159 321 660.159 325Z"/><path d="M1111 406 1223.73 406.214 1223.73 408.214 1111 408ZM1222.41 403.212 1230.4 407.227 1222.39 411.212Z"/><text font-family="Times New Roman,Times New Roman_MSFontService,sans-serif" font-weight="400" font-size="24" transform="translate(336.692 55)">ALU output</text><text font-family="Times New Roman,Times New Roman_MSFontService,sans-serif" font-weight="400" font-size="24" transform="translate(1143.64 486)">addressM</text><text font-family="Times New Roman,Times New Roman_MSFontService,sans-serif" font-weight="400" font-size="24" transform="translate(1166.05 393)">writeM</text><text font-family="Times New Roman,Times New Roman_MSFontService,sans-serif" font-weight="400" font-size="24" transform="translate(24.4454 199)">instruction</text><path d="M167 47 167 167.275" stroke="#000000" stroke-width="2" stroke-miterlimit="8" fill="none" fill-rule="evenodd"/><path d="M167 47 331.055 47.0001" stroke="#000000" stroke-width="2" stroke-miterlimit="8" fill="none" fill-rule="evenodd"/><path d="M458 47 540.695 47.0001" stroke="#000000" stroke-width="2" stroke-miterlimit="8" fill="none" fill-rule="evenodd"/><path d="M540.5 47.0001C540.5 43.4102 542.963 40.5001 546 40.5001 549.038 40.5001 551.5 43.4102 551.5 47.0001 551.5 50.5899 549.038 53.5001 546 53.5001 542.963 53.5001 540.5 50.5899 540.5 47.0001Z" stroke="#000000" stroke-width="1.33333" stroke-miterlimit="8" fill="#FFFFFF" fill-rule="evenodd"/><path d="M531.359 321.825C531.027 317.272 534.309 313.321 538.69 313.002 543.006 312.687 546.791 316.017 547.209 320.496" stroke="#000000" stroke-width="2" stroke-miterlimit="8" fill="none" fill-rule="evenodd"/><rect x="355.5" y="143.5" width="144" height="65" stroke="#000000" stroke-width="1.33333" stroke-miterlimit="8" fill="#D6DCE5"/><text font-family="Times New Roman,Times New Roman_MSFontService,sans-serif" font-weight="400" font-size="24" transform="translate(373.243 183)">A Register</text><path d="M497.019 173 526.305 173.565 526.267 175.565 496.981 175ZM525.03 170.54 532.951 174.694 524.876 178.539Z"/><path d="M533.5 174C533.5 170.41 535.963 167.5 539 167.5 542.038 167.5 544.5 170.41 544.5 174 544.5 177.59 542.038 180.5 539 180.5 535.963 180.5 533.5 177.59 533.5 174Z" stroke="#000000" stroke-width="1.33333" stroke-miterlimit="8" fill="#FFFFFF" fill-rule="evenodd"/><path d="M0.00874864-0.999962 65.5458-0.42658 65.5283 1.57334-0.00874864 0.999962ZM64.2388-3.43813 72.2035 0.631706 64.1688 4.56156Z" transform="matrix(1 0 0 -1 544 134.632)"/><path d="M544 53 544 134.394" stroke="#000000" stroke-width="2" stroke-miterlimit="8" fill="none" fill-rule="evenodd"/><rect x="617.5" y="102.5" width="143" height="64" stroke="#000000" stroke-width="1.33333" stroke-miterlimit="8" fill="#D6DCE5"/><text font-family="Times New Roman,Times New Roman_MSFontService,sans-serif" font-weight="400" font-size="24" transform="translate(634.521 142)">D Register</text><path d="M430 114 430 136.215 428 136.215 428 114ZM433 134.882 429 142.882 425 134.882Z"/><text font-family="Times New Roman,Times New Roman_MSFontService,sans-serif" font-weight="400" font-size="24" transform="translate(422.439 110)">C</text><path d="M693 74 693 96.2149 691 96.2149 691 74ZM696 94.8816 692 102.882 688 94.8816Z"/><text font-family="Times New Roman,Times New Roman_MSFontService,sans-serif" font-weight="400" font-size="24" transform="translate(685.892 70)">C</text><path d="M3.32541e-07-1 309.045-0.999897 309.045 1.0001-3.32541e-07 1ZM307.711-3.9999 315.711 0.000104987 307.711 4.0001Z" transform="matrix(-1 0 0 1 866.711 47)"/><text font-family="Times New Roman,Times New Roman_MSFontService,sans-serif" font-weight="400" font-size="24" transform="translate(867.199 55)">ALU output</text><path d="M991 47 1073.69 47.0001" stroke="#000000" stroke-width="2" stroke-miterlimit="8" fill="none" fill-rule="evenodd"/><path d="M1074 46 1074 218.967" stroke="#000000" stroke-width="2" stroke-miterlimit="8" fill="none" fill-rule="evenodd"/><path d="M760 133 825.333 133 825.333 135 760 135ZM824 130 832 134 824 138Z"/><path d="M932.854 146.604 937.5 296.53 837.146 356.5 835.288 263.421 878.96 233.436 832.5 209.073 832.5 103.5 932.854 146.604Z" stroke="#787878" stroke-width="1.33333" stroke-miterlimit="8" fill="#A5A5A5" fill-rule="evenodd"/><text font-family="Times New Roman,Times New Roman_MSFontService,sans-serif" font-weight="700" font-size="24" transform="translate(882.163 226)">ALU</text><path d="M896 103 896 125.215 894 125.215 894 103ZM899 123.882 895 131.882 891 123.882Z"/><text font-family="Times New Roman,Times New Roman_MSFontService,sans-serif" font-weight="400" font-size="24" transform="translate(888.66 99)">C’s</text><path d="M937 224 1057.99 224 1057.99 226 937 226ZM1056.66 221 1064.66 225 1056.66 229Z"/><path d="M1062.5 226C1062.5 222.41 1064.96 219.5 1068 219.5 1071.04 219.5 1073.5 222.41 1073.5 226 1073.5 229.59 1071.04 232.5 1068 232.5 1064.96 232.5 1062.5 229.59 1062.5 226Z" stroke="#000000" stroke-width="1.33333" stroke-miterlimit="8" fill="#FFFFFF" fill-rule="evenodd"/><path d="M895 323 895 346.746 893 346.746 893 323ZM898 345.412 894 353.412 890 345.412Z"/><text font-family="Times New Roman,Times New Roman_MSFontService,sans-serif" font-weight="400" font-size="24" transform="translate(886.336 375)">C’s</text><path d="M546 175 592.526 175" stroke="#000000" stroke-width="2" stroke-miterlimit="8" fill="none" fill-rule="evenodd"/><path d="M592 173 592 247.445" stroke="#000000" stroke-width="2" stroke-miterlimit="8" fill="none" fill-rule="evenodd"/><path d="M669.098 343.62 667.168 226.774 774.871 272.124Z" stroke="#787878" stroke-width="1.33333" stroke-miterlimit="8" fill="#A5A5A5" fill-rule="evenodd"/><text font-family="Times New Roman,Times New Roman_MSFontService,sans-serif" font-weight="400" font-size="24" transform="translate(677.542 288)">Mux16</text><path d="M775 273 825.391 273 825.391 275 775 275ZM824.057 270 832.057 274 824.057 278Z"/><path d="M1-1.75515e-06 1.00009 53.1498-0.999907 53.1498-1 1.75515e-06ZM4.00009 51.8165 0.000104987 59.8165-3.99991 51.8165Z" transform="matrix(1 0 0 -1 715 370.816)"/><text font-family="Times New Roman,Times New Roman_MSFontService,sans-serif" font-weight="400" font-size="24" transform="translate(706.367 396)">C</text><path d="M951 498 1224.14 498 1224.14 500 951 500ZM1222.81 495 1230.81 499 1222.81 503Z"/><path d="M0 0 1.08021 202.73" stroke="#000000" stroke-width="2" stroke-miterlimit="8" fill="none" fill-rule="evenodd" transform="matrix(-1 0 0 1 540.08 183)"/><path d="M546 495 712.598 495" stroke="#000000" stroke-width="2" stroke-miterlimit="8" fill="none" fill-rule="evenodd"/><path d="M533.5 493C533.5 489.41 535.963 486.5 539 486.5 542.038 486.5 544.5 489.41 544.5 493 544.5 496.59 542.038 499.5 539 499.5 535.963 499.5 533.5 496.59 533.5 493Z" stroke="#000000" stroke-width="1.33333" stroke-miterlimit="8" fill="#FFFFFF" fill-rule="evenodd"/><text font-family="Times New Roman,Times New Roman_MSFontService,sans-serif" font-weight="400" font-size="24" transform="translate(720.573 505)">memory address output</text><text font-family="Times New Roman,Times New Roman_MSFontService,sans-serif" font-weight="400" font-size="24" transform="translate(282.612 330)">M input</text><text font-family="Times New Roman,Times New Roman_MSFontService,sans-serif" font-weight="400" font-size="24" transform="translate(231.136 562)">reset bit</text><text font-family="Times New Roman,Times New Roman_MSFontService,sans-serif" font-weight="400" font-size="24" transform="translate(1094.03 414)">C</text><path d="M0 0 0.675696 47.0892" stroke="#000000" stroke-width="2" stroke-miterlimit="8" fill="none" fill-rule="evenodd" transform="matrix(-1 0 0 1 539.676 500)"/><path d="M537.617 563.447C533.086 562.884 529.853 558.894 530.395 554.535 530.929 550.24 534.934 547.178 539.408 547.643" stroke="#000000" stroke-width="2" stroke-miterlimit="8" fill="none" fill-rule="evenodd"/><path d="M539 562 539 620.195" stroke="#000000" stroke-width="2" stroke-miterlimit="8" fill="none" fill-rule="evenodd"/><path d="M313 552 639.695 554.968" stroke="#000000" stroke-width="2" stroke-miterlimit="8" fill="none" fill-rule="evenodd"/><rect x="611.5" y="588.5" width="143" height="64" stroke="#000000" stroke-width="1.33333" stroke-miterlimit="8" fill="#D6DCE5"/><text font-family="Times New Roman,Times New Roman_MSFontService,sans-serif" font-weight="400" font-size="24" transform="translate(667.009 630)">PC</text><path d="M540 619 603.949 619 603.949 621 540 621ZM602.616 616 610.616 620 602.616 624Z"/><path d="M0.99937-0.0354815 1.92965 26.1667-0.0690895 26.2377-0.99937 0.0354815ZM4.88045 24.7278 1.16682 32.8647-3.11451 25.0116Z" transform="matrix(-1 0 0 1 640.167 555)"/><text font-family="Times New Roman,Times New Roman_MSFontService,sans-serif" font-weight="400" font-size="24" transform="translate(675.358 548)">C</text><path d="M0.99937-0.0354815 1.92965 26.1667-0.0690895 26.2377-0.99937 0.0354815ZM4.88045 24.7278 1.16682 32.8647-3.11451 25.0116Z" transform="matrix(-1 0 0 1 685.167 556)"/><path d="M754 620 795.951 620" stroke="#000000" stroke-width="2" stroke-miterlimit="8" fill="none" fill-rule="evenodd"/><text font-family="Times New Roman,Times New Roman_MSFontService,sans-serif" font-weight="400" font-size="24" transform="translate(805.901 623)">Program Counter output</text><path d="M1045 618 1224.1 618 1224.1 620 1045 620ZM1222.77 615 1230.77 619 1222.77 623Z"/><path d="M364 323 530.598 323" stroke="#000000" stroke-width="2" stroke-miterlimit="8" fill="none" fill-rule="evenodd"/><path d="M27 323 277.655 323" stroke="#000000" stroke-width="2" stroke-miterlimit="8" fill="none" fill-rule="evenodd"/><path d="M27 552 226.79 553.484" stroke="#000000" stroke-width="2" stroke-miterlimit="8" fill="none" fill-rule="evenodd"/><text font-family="Times New Roman,Times New Roman_MSFontService,sans-serif" font-weight="400" font-size="24" transform="translate(26.8199 534)">reset</text><text font-family="Times New Roman,Times New Roman_MSFontService,sans-serif" font-weight="400" font-size="24" transform="translate(488.382 408)">A register</text><text font-family="Times New Roman,Times New Roman_MSFontService,sans-serif" font-weight="400" font-size="24" transform="translate(506.382 437)">output</text><path d="M0 0 0.675696 47.0892" stroke="#000000" stroke-width="2" stroke-miterlimit="8" fill="none" fill-rule="evenodd" transform="matrix(-1 0 0 1 541.676 439)"/><path d="M1-1.75515e-06 1.00009 53.1498-0.999907 53.1498-1 1.75515e-06ZM4.00009 51.8165 0.000104987 59.8165-3.99991 51.8165Z" transform="matrix(1 0 0 -1 264 266.816)"/><text font-family="Times New Roman,Times New Roman_MSFontService,sans-serif" font-weight="400" font-size="24" transform="translate(255.129 288)">C</text></g></svg>