<svg width="1280" height="720" xmlns="http://www.w3.org/2000/svg" xmlns:xlink="http://www.w3.org/1999/xlink" overflow="hidden"><defs><clipPath id="clip0"><rect x="0" y="0" width="1280" height="720"/></clipPath><linearGradient x1="678.5" y1="342.5" x2="528.5" y2="342.5" gradientUnits="userSpaceOnUse" spreadMethod="reflect" id="fill1"><stop offset="0" stop-color="#D2D2D2"/><stop offset="0.5" stop-color="#C8C8C8"/><stop offset="1" stop-color="#C0C0C0"/></linearGradient></defs><g clip-path="url(#clip0)"><rect x="0" y="0" width="1280" height="720" fill="#FFFFFF"/><path d="M528.5 115.5 678.5 153 678.5 532 528.5 569.5Z" stroke="#A5A5A5" stroke-width="0.666667" stroke-miterlimit="8" fill="url(#fill1)" fill-rule="evenodd"/><text font-family="Times New Roman,Times New Roman_MSFontService,sans-serif" font-weight="400" font-size="24" transform="translate(572.157 344)">CPU</text><path d="M457 207 522.333 207 522.333 209 457 209ZM521 204 529 208 521 212Z"/><path d="M679 298 744.333 298 744.333 300 679 300ZM743 295 751 299 743 303Z"/><text font-family="Times New Roman,Times New Roman_MSFontService,sans-serif" font-weight="400" font-size="24" transform="translate(411.655 219)">inM</text><text font-family="Times New Roman,Times New Roman_MSFontService,sans-serif" font-weight="400" font-size="24" transform="translate(219.447 192)">From</text><text font-family="Times New Roman,Times New Roman_MSFontService,sans-serif" font-weight="400" font-size="24" transform="translate(219.447 221)">Data</text><text font-family="Times New Roman,Times New Roman_MSFontService,sans-serif" font-weight="400" font-size="24" transform="translate(219.447 250)">Memory</text><text font-family="Times New Roman,Times New Roman_MSFontService,sans-serif" font-weight="400" font-size="24" transform="translate(755.383 459)">pc</text><text font-family="Times New Roman,Times New Roman_MSFontService,sans-serif" font-weight="400" font-size="24" transform="translate(760.343 214)">outM</text><path d="M0 0 17.5257 30.6804" stroke="#000000" stroke-width="0.666667" stroke-miterlimit="8" fill="none" fill-rule="evenodd" transform="matrix(-1 0 0 1 503.026 192.5)"/><path d="M0 0 17.5257 30.6804" stroke="#000000" stroke-width="0.666667" stroke-miterlimit="8" fill="none" fill-rule="evenodd" transform="matrix(-1 0 0 1 720.026 282.5)"/><text font-family="Times New Roman,Times New Roman_MSFontService,sans-serif" font-weight="400" font-size="24" transform="translate(480.484 246)">16</text><text font-family="Times New Roman,Times New Roman_MSFontService,sans-serif" font-weight="400" font-size="24" transform="translate(703.425 331)">1</text><path d="M459 341 524.333 341 524.333 343 459 343ZM523 338 531 342 523 346Z"/><path d="M0 0 17.5257 30.6804" stroke="#000000" stroke-width="0.666667" stroke-miterlimit="8" fill="none" fill-rule="evenodd" transform="matrix(-1 0 0 1 500.026 325.5)"/><text font-family="Times New Roman,Times New Roman_MSFontService,sans-serif" font-weight="400" font-size="24" transform="translate(482.845 377)">16</text><path d="M458 473 523.333 473 523.333 475 458 475ZM522 470 530 474 522 478Z"/><path d="M0 0 17.5257 30.6804" stroke="#000000" stroke-width="0.666667" stroke-miterlimit="8" fill="none" fill-rule="evenodd" transform="matrix(-1 0 0 1 503.026 459.5)"/><text font-family="Times New Roman,Times New Roman_MSFontService,sans-serif" font-weight="400" font-size="24" transform="translate(489.886 513)">1</text><path d="M679 208 744.333 208 744.333 210 679 210ZM743 205 751 209 743 213Z"/><path d="M0 0 17.5257 30.6804" stroke="#000000" stroke-width="0.666667" stroke-miterlimit="8" fill="none" fill-rule="evenodd" transform="matrix(-1 0 0 1 720.026 193.5)"/><text font-family="Times New Roman,Times New Roman_MSFontService,sans-serif" font-weight="400" font-size="24" transform="translate(705.157 242)">16</text><path d="M677 387 742.333 387 742.333 389 677 389ZM741 384 749 388 741 392Z"/><path d="M0 0 17.5257 30.6804" stroke="#000000" stroke-width="0.666667" stroke-miterlimit="8" fill="none" fill-rule="evenodd" transform="matrix(-1 0 0 1 718.026 372.5)"/><text font-family="Times New Roman,Times New Roman_MSFontService,sans-serif" font-weight="400" font-size="24" transform="translate(699.236 417)">15</text><path d="M679 458 744.333 458 744.333 460 679 460ZM743 455 751 459 743 463Z"/><path d="M0 0 17.5257 30.6804" stroke="#000000" stroke-width="0.666667" stroke-miterlimit="8" fill="none" fill-rule="evenodd" transform="matrix(-1 0 0 1 722.026 445.5)"/><text font-family="Times New Roman,Times New Roman_MSFontService,sans-serif" font-weight="400" font-size="24" transform="translate(702.914 494)">15</text><text font-family="Times New Roman,Times New Roman_MSFontService,sans-serif" font-weight="400" font-size="24" transform="translate(406.578 481)">reset</text><text font-family="Times New Roman,Times New Roman_MSFontService,sans-serif" font-weight="400" font-size="24" transform="translate(752.575 392)">addressM</text><text font-family="Times New Roman,Times New Roman_MSFontService,sans-serif" font-weight="400" font-size="24" transform="translate(757.489 303)">writeM</text><path d="M319.5 259.5C313.701 259.5 309 258.717 309 257.75L309 210.75C309 209.784 304.299 209 298.5 209 304.299 209 309 208.217 309 207.25L309 160.25C309 159.284 313.701 158.5 319.5 158.5" stroke="#4472C4" stroke-width="0.666667" stroke-miterlimit="8" fill="none" fill-rule="evenodd"/><path d="M316.5 393.5C310.701 393.5 306 392.717 306 391.75L306 345.25C306 344.284 301.299 343.5 295.5 343.5 301.299 343.5 306 342.717 306 341.75L306 295.25C306 294.284 310.701 293.5 316.5 293.5" stroke="#4472C4" stroke-width="0.666667" stroke-miterlimit="8" fill="none" fill-rule="evenodd"/><text font-family="Times New Roman,Times New Roman_MSFontService,sans-serif" font-weight="400" font-size="24" transform="translate(366.898 366)">instruction</text><text font-family="Times New Roman,Times New Roman_MSFontService,sans-serif" font-weight="400" font-size="24" transform="translate(182.945 320)">From</text><text font-family="Times New Roman,Times New Roman_MSFontService,sans-serif" font-weight="400" font-size="24" transform="translate(182.945 349)">Instructio</text><text font-family="Times New Roman,Times New Roman_MSFontService,sans-serif" font-weight="400" font-size="24" transform="translate(274.945 349)">n</text><text font-family="Times New Roman,Times New Roman_MSFontService,sans-serif" font-weight="400" font-size="24" transform="translate(182.945 378)">Memory</text><path d="M876.5 186.5C883.68 186.5 889.5 187.47 889.5 188.667L889.5 298.833C889.5 300.03 895.32 301 902.5 301 895.32 301 889.5 301.97 889.5 303.167L889.5 413.333C889.5 414.53 883.68 415.5 876.5 415.5" stroke="#4472C4" stroke-width="0.666667" stroke-miterlimit="8" fill="none" fill-rule="evenodd"/><path d="M881.5 431.5C888.404 431.5 894 432.433 894 433.583L894 467.917C894 469.067 899.597 470 906.5 470 899.597 470 894 470.933 894 472.083L894 506.417C894 507.567 888.404 508.5 881.5 508.5" stroke="#4472C4" stroke-width="0.666667" stroke-miterlimit="8" fill="none" fill-rule="evenodd"/><text font-family="Times New Roman,Times New Roman_MSFontService,sans-serif" font-weight="400" font-size="24" transform="translate(920.01 278)">to</text><text font-family="Times New Roman,Times New Roman_MSFontService,sans-serif" font-weight="400" font-size="24" transform="translate(920.01 307)">Data</text><text font-family="Times New Roman,Times New Roman_MSFontService,sans-serif" font-weight="400" font-size="24" transform="translate(920.01 336)">Memory</text><text font-family="Times New Roman,Times New Roman_MSFontService,sans-serif" font-weight="400" font-size="24" transform="translate(920.01 446)">to</text><text font-family="Times New Roman,Times New Roman_MSFontService,sans-serif" font-weight="400" font-size="24" transform="translate(920.01 475)">Instructio</text><text font-family="Times New Roman,Times New Roman_MSFontService,sans-serif" font-weight="400" font-size="24" transform="translate(1012.01 475)">n</text><text font-family="Times New Roman,Times New Roman_MSFontService,sans-serif" font-weight="400" font-size="24" transform="translate(920.01 504)">Memory</text></g></svg>