<svg width="1280" height="720" xmlns="http://www.w3.org/2000/svg" xmlns:xlink="http://www.w3.org/1999/xlink" overflow="hidden"><defs><clipPath id="clip0"><rect x="0" y="0" width="1280" height="720"/></clipPath></defs><g clip-path="url(#clip0)"><rect x="0" y="0" width="1280" height="720" fill="#FFFFFF"/><rect x="58" y="20" width="1080" height="626" stroke="#2F528F" stroke-width="2" stroke-miterlimit="8" stroke-dasharray="16 6 2 6 2 6" fill="#FFFFFF"/><path d="M555.5 200.5 670.5 229.25 670.5 525.75 555.5 554.5Z" stroke="#787878" stroke-width="1.33333" stroke-miterlimit="8" fill="#A5A5A5" fill-rule="evenodd"/><text font-family="Times New Roman,Times New Roman_MSFontService,sans-serif" font-weight="400" font-size="24" transform="translate(586.844 376)">CPU</text><rect x="162.5" y="192.5" width="185" height="369" stroke="#000000" stroke-width="1.33333" stroke-miterlimit="8" fill="#D6DCE5"/><text font-family="Times New Roman,Times New Roman_MSFontService,sans-serif" font-weight="400" font-size="24" transform="translate(209.883 376)">ROM32K</text><rect x="877.5" y="192.5" width="186" height="369" stroke="#000000" stroke-width="1.33333" stroke-miterlimit="8" fill="#D6DCE5"/><text font-family="Times New Roman,Times New Roman_MSFontService,sans-serif" font-weight="400" font-size="24" transform="translate(936.37 376)">Memory</text><path d="M971 125 971 185.003 969 185.003 969 125ZM974 183.67 970 191.67 966 183.67Z"/><text font-family="Times New Roman,Times New Roman_MSFontService,sans-serif" font-weight="400" font-size="24" transform="translate(679.621 287)">w</text><text font-family="Times New Roman,Times New Roman_MSFontService,sans-serif" font-weight="400" font-size="24" transform="translate(696.954 287)">riteM</text><path d="M670 298 769.959 298" stroke="#000000" stroke-width="2" stroke-miterlimit="8" fill="none" fill-rule="evenodd"/><path d="M770 125 770 297.967" stroke="#000000" stroke-width="2" stroke-miterlimit="8" fill="none" fill-rule="evenodd"/><path d="M770 125 970.183 125" stroke="#000000" stroke-width="2" stroke-miterlimit="8" fill="none" fill-rule="evenodd"/><path d="M670 339 870.16 339 870.16 341 670 341ZM868.826 336 876.826 340 868.826 344Z"/><text font-family="Times New Roman,Times New Roman_MSFontService,sans-serif" font-weight="400" font-size="24" transform="translate(682.72 330)">outM</text><path d="M670 386 870.16 386 870.16 388 670 388ZM868.826 383 876.826 387 868.826 391Z"/><text font-family="Times New Roman,Times New Roman_MSFontService,sans-serif" font-weight="400" font-size="24" transform="translate(682.72 374)">addressM</text><path d="M670 438 737.519 438" stroke="#000000" stroke-width="2" stroke-miterlimit="8" fill="none" fill-rule="evenodd"/><text font-family="Times New Roman,Times New Roman_MSFontService,sans-serif" font-weight="400" font-size="24" transform="translate(682.72 428)">pc</text><path d="M738 438 738 610.967" stroke="#000000" stroke-width="2" stroke-miterlimit="8" fill="none" fill-rule="evenodd"/><path d="M90 611 740.029 611" stroke="#000000" stroke-width="2" stroke-miterlimit="8" fill="none" fill-rule="evenodd"/><path d="M90 377 90.4641 611.627" stroke="#000000" stroke-width="2" stroke-miterlimit="8" fill="none" fill-rule="evenodd"/><path d="M90 376 155.464 376 155.464 378 90 378ZM154.131 373 162.131 377 154.131 381Z"/><path d="M463.649 619.097C459.119 618.533 455.885 614.543 456.427 610.184 456.961 605.889 460.967 602.827 465.441 603.292" stroke="#000000" stroke-width="2" stroke-miterlimit="8" fill="none" fill-rule="evenodd"/><path d="M465 429 465 601.967" stroke="#000000" stroke-width="2" stroke-miterlimit="8" fill="none" fill-rule="evenodd"/><path d="M465 620 465 665.492" stroke="#000000" stroke-width="2" stroke-miterlimit="8" fill="none" fill-rule="evenodd"/><path d="M465 428 548.424 428 548.424 430 465 430ZM547.091 425 555.091 429 547.091 433Z"/><text font-family="Times New Roman,Times New Roman_MSFontService,sans-serif" font-weight="400" font-size="24" transform="translate(438.981 688)">reset</text><path d="M348 373 548.16 373 548.16 375 348 375ZM546.826 370 554.826 374 546.826 378Z"/><text font-family="Times New Roman,Times New Roman_MSFontService,sans-serif" font-weight="400" font-size="24" transform="translate(415.849 365)">instruction</text><path d="M487 316 552.464 316 552.464 318 487 318ZM551.131 313 559.131 317 551.131 321Z"/><text font-family="Times New Roman,Times New Roman_MSFontService,sans-serif" font-weight="400" font-size="24" transform="translate(495.68 305)">inM</text><path d="M486 81 486 316.219" stroke="#000000" stroke-width="2" stroke-miterlimit="8" fill="none" fill-rule="evenodd"/><path d="M1063 370 1109.7 370" stroke="#000000" stroke-width="2" stroke-miterlimit="8" fill="none" fill-rule="evenodd"/><path d="M1110 81 1110 369.878" stroke="#000000" stroke-width="2" stroke-miterlimit="8" fill="none" fill-rule="evenodd"/><path d="M0 0 625.496 2.6632" stroke="#000000" stroke-width="2" stroke-miterlimit="8" fill="none" fill-rule="evenodd" transform="matrix(1 0 0 -1 484 83.6632)"/></g></svg>