<svg width="1280" height="720" xmlns="http://www.w3.org/2000/svg" xmlns:xlink="http://www.w3.org/1999/xlink" overflow="hidden"><defs><clipPath id="clip0"><rect x="0" y="0" width="1280" height="720"/></clipPath></defs><g clip-path="url(#clip0)"><rect x="0" y="0" width="1280" height="720" fill="#FFFFFF"/><rect x="321.5" y="185.5" width="319" height="214" stroke="#000000" stroke-width="1.33333" stroke-miterlimit="8" fill="#FFFFFF"/><text font-family="DengXian,DengXian_MSFontService,sans-serif" font-weight="700" font-size="48" transform="translate(355.054 308)">Half adder</text><text font-family="DengXian,DengXian_MSFontService,sans-serif" font-weight="700" font-size="37" transform="translate(193.373 245)">a</text><text font-family="DengXian,DengXian_MSFontService,sans-serif" font-weight="700" font-size="37" transform="translate(194.237 361)">b</text><text font-family="DengXian,DengXian_MSFontService,sans-serif" font-weight="700" font-size="37" transform="translate(744.727 243)">sum</text><text font-family="DengXian,DengXian_MSFontService,sans-serif" font-weight="700" font-size="37" transform="translate(744.727 358)">carry</text><path d="M222.5 349.167 315.463 349.167 315.463 349.833 222.5 349.833ZM314.129 345.5 322.129 349.5 314.129 353.5Z"/><path d="M222.5 238.167 315.463 238.167 315.463 238.833 222.5 238.833ZM314.129 234.5 322.129 238.5 314.129 242.5Z"/><path d="M640.5 349.167 733.463 349.167 733.463 349.833 640.5 349.833ZM732.129 345.5 740.129 349.5 732.129 353.5Z"/><path d="M640.5 238.167 733.463 238.167 733.463 238.833 640.5 238.833ZM732.129 234.5 740.129 238.5 732.129 242.5Z"/></g></svg>