<svg width="1280" height="720" xmlns="http://www.w3.org/2000/svg" xmlns:xlink="http://www.w3.org/1999/xlink" overflow="hidden"><defs><clipPath id="clip0"><rect x="0" y="0" width="1280" height="720"/></clipPath></defs><g clip-path="url(#clip0)"><rect x="0" y="0" width="1280" height="720" fill="#FFFFFF"/><path d="M556.5 88.3336C556.5 84.0073 560.007 80.5001 564.334 80.5001L716.667 80.5001C720.993 80.5001 724.5 84.0073 724.5 88.3336L724.5 119.666C724.5 123.993 720.993 127.5 716.667 127.5L564.334 127.5C560.007 127.5 556.5 123.993 556.5 119.666Z" stroke="#BC8C00" stroke-width="1.33333" stroke-miterlimit="8" fill="#FFC000" fill-rule="evenodd"/><text fill="#FFFFFF" font-family="Times New Roman,Times New Roman_MSFontService,sans-serif" font-weight="400" font-size="24" transform="translate(594.667 112)">computer</text><path d="M336.5 185.333C336.5 181.007 340.007 177.5 344.333 177.5L497.667 177.5C501.993 177.5 505.5 181.007 505.5 185.333L505.5 216.667C505.5 220.993 501.993 224.5 497.667 224.5L344.333 224.5C340.007 224.5 336.5 220.993 336.5 216.667Z" stroke="#BC8C00" stroke-width="1.33333" stroke-miterlimit="8" fill="#FFC000" fill-rule="evenodd"/><text fill="#FFFFFF" font-family="Times New Roman,Times New Roman_MSFontService,sans-serif" font-weight="400" font-size="24" transform="translate(380.267 209)">memory</text><path d="M783.5 185.334C783.5 181.007 787.007 177.5 791.334 177.5L943.667 177.5C947.993 177.5 951.5 181.007 951.5 185.334L951.5 216.666C951.5 220.993 947.993 224.5 943.667 224.5L791.334 224.5C787.007 224.5 783.5 220.993 783.5 216.666Z" stroke="#BC8C00" stroke-width="1.33333" stroke-miterlimit="8" fill="#FFC000" fill-rule="evenodd"/><text fill="#FFFFFF" font-family="Times New Roman,Times New Roman_MSFontService,sans-serif" font-weight="400" font-size="24" transform="translate(843.867 209)">CPU</text><path d="M336.5 332.334C336.5 328.007 340.007 324.5 344.333 324.5L497.667 324.5C501.993 324.5 505.5 328.007 505.5 332.334L505.5 363.667C505.5 367.993 501.993 371.5 497.667 371.5L344.333 371.5C340.007 371.5 336.5 367.993 336.5 363.667Z" stroke="#BC8C00" stroke-width="1.33333" stroke-miterlimit="8" fill="#FFC000" fill-rule="evenodd"/><text fill="#FFFFFF" font-family="Times New Roman,Times New Roman_MSFontService,sans-serif" font-weight="400" font-size="24" transform="translate(366.6 356)">RAM units</text><path d="M336.5 481.167C336.5 476.933 339.933 473.5 344.167 473.5L497.833 473.5C502.068 473.5 505.5 476.933 505.5 481.167L505.5 511.833C505.5 516.068 502.068 519.5 497.833 519.5L344.167 519.5C339.933 519.5 336.5 516.068 336.5 511.833Z" stroke="#BC8C00" stroke-width="1.33333" stroke-miterlimit="8" fill="#FFC000" fill-rule="evenodd"/><text fill="#FFFFFF" font-family="Times New Roman,Times New Roman_MSFontService,sans-serif" font-weight="400" font-size="24" transform="translate(379.6 505)">registers</text><path d="M742.5 332.334C742.5 328.007 746.007 324.5 750.333 324.5L903.667 324.5C907.993 324.5 911.5 328.007 911.5 332.334L911.5 363.667C911.5 367.993 907.993 371.5 903.667 371.5L750.333 371.5C746.007 371.5 742.5 367.993 742.5 363.667Z" stroke="#BC8C00" stroke-width="1.33333" stroke-miterlimit="8" fill="#FFC000" fill-rule="evenodd"/><text fill="#FFFFFF" font-family="Times New Roman,Times New Roman_MSFontService,sans-serif" font-weight="400" font-size="24" transform="translate(812 356)">PC</text><path d="M1017.5 332.334C1017.5 328.007 1021.01 324.5 1025.33 324.5L1177.67 324.5C1181.99 324.5 1185.5 328.007 1185.5 332.334L1185.5 363.666C1185.5 367.993 1181.99 371.5 1177.67 371.5L1025.33 371.5C1021.01 371.5 1017.5 367.993 1017.5 363.666Z" stroke="#BC8C00" stroke-width="1.33333" stroke-miterlimit="8" fill="#FFC000" fill-rule="evenodd"/><text fill="#FFFFFF" font-family="Times New Roman,Times New Roman_MSFontService,sans-serif" font-weight="400" font-size="24" transform="translate(1076.13 356)">ALU</text><path d="M932.5 481.167C932.5 476.933 935.933 473.5 940.167 473.5L1093.83 473.5C1098.07 473.5 1101.5 476.933 1101.5 481.167L1101.5 511.833C1101.5 516.068 1098.07 519.5 1093.83 519.5L940.167 519.5C935.933 519.5 932.5 516.068 932.5 511.833Z" stroke="#BC8C00" stroke-width="1.33333" stroke-miterlimit="8" fill="#FFC000" fill-rule="evenodd"/><text fill="#FFFFFF" font-family="Times New Roman,Times New Roman_MSFontService,sans-serif" font-weight="400" font-size="24" transform="translate(989.867 505)">adder</text><path d="M559.5 625.167C559.5 620.933 562.933 617.5 567.167 617.5L804.833 617.5C809.067 617.5 812.5 620.933 812.5 625.167L812.5 655.833C812.5 660.067 809.067 663.5 804.833 663.5L567.167 663.5C562.933 663.5 559.5 660.067 559.5 655.833Z" stroke="#BC8C00" stroke-width="1.33333" stroke-miterlimit="8" fill="#FFC000" fill-rule="evenodd"/><text fill="#FFFFFF" font-family="Times New Roman,Times New Roman_MSFontService,sans-serif" font-weight="400" font-size="24" transform="translate(577.333 649)">e</text><text fill="#FFFFFF" font-family="Times New Roman,Times New Roman_MSFontService,sans-serif" font-weight="400" font-size="24" transform="translate(588 649)">lementary</text><text fill="#FFFFFF" font-family="Times New Roman,Times New Roman_MSFontService,sans-serif" font-weight="400" font-size="24" transform="translate(690 649)">l</text><text fill="#FFFFFF" font-family="Times New Roman,Times New Roman_MSFontService,sans-serif" font-weight="400" font-size="24" transform="translate(696.667 649)">ogic gates</text><path d="M640.572 127.175 861.262 175.871 861.118 176.522 640.428 127.826ZM860.75 172.004 867.7 177.633 859.026 179.816Z" fill="#4472C4"/><path d="M0.0741464-0.324982 213.307 48.3253 213.159 48.9753-0.0741464 0.324982ZM212.824 44.454 219.733 50.1333 211.044 52.2536Z" fill="#4472C4" transform="matrix(-1 0 0 1 640.233 127.5)"/><path d="M420.833 224.5 420.833 318.1 420.167 318.1 420.167 224.5ZM424.5 316.767 420.5 324.767 416.5 316.767Z" fill="#4472C4"/><path d="M420.833 371.5 420.833 466.167 420.167 466.167 420.167 371.5ZM424.5 464.833 420.5 472.833 416.5 464.833Z" fill="#4472C4"/><path d="M420.615 519.187 679.421 613.961 679.191 614.587 420.385 519.813ZM679.43 610.06 685.567 616.567 676.679 617.572Z" fill="#4472C4"/><path d="M0.161999-0.29132 441.27 245.003 440.946 245.585-0.161999 0.29132ZM441.886 241.15 446.933 248.533 437.998 248.141Z" fill="#4472C4" transform="matrix(-1 0 0 1 867.433 224.5)"/><path d="M0.309037-0.12493 38.3438 93.9611 37.7257 94.2109-0.309037 0.12493ZM41.2435 91.3506 40.5333 100.267 33.8266 94.3489Z" fill="#4472C4" transform="matrix(-1 0 0 1 868.033 224.5)"/><path d="M867.632 224.194 1095.1 321.831 1094.84 322.443 867.369 224.806ZM1095.33 317.936 1101.1 324.767 1092.17 325.287Z" fill="#4472C4"/><path d="M0.0806455-0.323431 400.012 99.397 399.85 100.044-0.0806455 0.323431ZM399.605 95.5168 406.4 101.333 397.67 103.279Z" fill="#4472C4" transform="matrix(-1 0 0 1 826.9 371.5)"/><path d="M827.657 371.206 1011.64 469.401 1011.33 469.989 827.343 371.794ZM1012.19 465.538 1017.37 472.833 1008.43 472.596Z" fill="#4472C4"/><path d="M0.256295-0.213129 80.2603 95.9943 79.7477 96.4206-0.256295 0.213129ZM82.2271 92.6248 84.2667 101.333 76.076 97.7399Z" fill="#4472C4" transform="matrix(-1 0 0 1 1101.77 371.5)"/><path d="M0.0937485-0.319879 324.896 94.8718 324.709 95.5115-0.0937485 0.319879ZM324.648 90.9781 331.2 97.0666 322.398 98.6551Z" fill="#4472C4" transform="matrix(-1 0 0 1 1016.7 519.5)"/></g></svg>