<svg width="1280" height="720" xmlns="http://www.w3.org/2000/svg" xmlns:xlink="http://www.w3.org/1999/xlink" overflow="hidden"><defs><clipPath id="clip0"><rect x="0" y="0" width="1280" height="720"/></clipPath></defs><g clip-path="url(#clip0)"><rect x="0" y="0" width="1280" height="720" fill="#FFFFFF"/><rect x="127.5" y="122.5" width="354" height="159" stroke="#2F528F" stroke-width="1.33333" stroke-miterlimit="8" fill="#F8CBAD"/><rect x="321.5" y="147.5" width="124" height="92" stroke="#2F528F" stroke-width="1.33333" stroke-miterlimit="8" fill="#F4B183"/><text font-family="Times New Roman,Times New Roman_MSFontService,sans-serif" font-weight="700" font-size="24" transform="translate(254.765 270)">Memory</text><text font-family="Times New Roman,Times New Roman_MSFontService,sans-serif" font-weight="700" font-size="24" transform="translate(343.891 201)">Program</text><path d="M79.5001 437.501 105.5 411.5 105.5 424.5 1086.5 424.5 1086.5 411.5 1112.5 437.501 1086.5 463.5 1086.5 450.5 105.5 450.5 105.5 463.5Z" stroke="#41719C" stroke-width="1.33333" stroke-miterlimit="8" fill="#5B9BD5" fill-rule="evenodd"/><text fill="#FFFFFF" font-family="Times New Roman,Times New Roman_MSFontService,sans-serif" font-weight="400" font-size="24" transform="translate(558.789 446)">Control</text><path d="M79.5001 544.501 105.5 518.5 105.5 531.5 1086.5 531.5 1086.5 518.5 1112.5 544.501 1086.5 570.5 1086.5 557.5 105.5 557.5 105.5 570.5Z" stroke="#AE5A21" stroke-width="1.33333" stroke-miterlimit="8" fill="#ED7D31" fill-rule="evenodd"/><text fill="#FFFFFF" font-family="Times New Roman,Times New Roman_MSFontService,sans-serif" font-weight="400" font-size="24" transform="translate(556.123 553)">Address</text><path d="M80.5001 651.5 106.5 625.5 106.5 638.501 1086.5 638.501 1086.5 625.5 1112.5 651.5 1086.5 677.5 1086.5 664.501 106.5 664.501 106.5 677.5Z" stroke="#507E32" stroke-width="1.33333" stroke-miterlimit="8" fill="#70AD47" fill-rule="evenodd"/><text fill="#FFFFFF" font-family="Times New Roman,Times New Roman_MSFontService,sans-serif" font-weight="400" font-size="24" transform="translate(573.644 660)">Data</text><path d="M294.5 408 280 422.5 265.5 408 272.75 408 272.75 281.5 287.25 281.5 287.25 408Z" stroke="#41719C" stroke-width="1.33333" stroke-miterlimit="8" fill="#5B9BD5" fill-rule="evenodd"/><path d="M381.5 296 396 281.5 410.5 296 403.25 296 403.25 531.5 388.75 531.5 388.75 296Z" stroke="#AE5A21" stroke-width="1.33333" stroke-miterlimit="8" fill="#ED7D31" fill-rule="evenodd"/><path d="M351.5 622 336 637.5 320.5 622 328.25 622 328.25 281.5 343.75 281.5 343.75 622Z" stroke="#507E32" stroke-width="1.33333" stroke-miterlimit="8" fill="#70AD47" fill-rule="evenodd"/><rect x="585.5" y="239.5" width="124" height="63" stroke="#AE5A21" stroke-width="1.33333" stroke-miterlimit="8" fill="#ED7D31"/><text fill="#FFFFFF" font-family="Times New Roman,Times New Roman_MSFontService,sans-serif" font-weight="400" font-size="24" transform="translate(602.46 279)">Registers</text><path d="M669.5 519.008 655.008 533.5 640.516 519.008 647.762 519.008 647.762 303.5 662.254 303.5 662.254 519.008Z" stroke="#AE5A21" stroke-width="1.33333" stroke-miterlimit="8" fill="#ED7D31" fill-rule="evenodd"/></g></svg>