<svg width="1280" height="720" xmlns="http://www.w3.org/2000/svg" xmlns:xlink="http://www.w3.org/1999/xlink" overflow="hidden"><defs><clipPath id="clip0"><rect x="0" y="0" width="1280" height="720"/></clipPath><linearGradient x1="516.5" y1="209.5" x2="516.5" y2="658.5" gradientUnits="userSpaceOnUse" spreadMethod="reflect" id="fill1"><stop offset="0" stop-color="#FFDD9C"/><stop offset="0.5" stop-color="#FFD78E"/><stop offset="1" stop-color="#FFD479"/></linearGradient><clipPath id="clip2"><rect x="839" y="216" width="96" height="96"/></clipPath><clipPath id="clip3"><rect x="839" y="216" width="96" height="96"/></clipPath><clipPath id="clip4"><rect x="839" y="216" width="96" height="96"/></clipPath><clipPath id="clip5"><rect x="839" y="584" width="96" height="96"/></clipPath><clipPath id="clip6"><rect x="839" y="584" width="96" height="96"/></clipPath><clipPath id="clip7"><rect x="839" y="584" width="96" height="96"/></clipPath></defs><g clip-path="url(#clip0)"><rect x="0" y="0" width="1280" height="720" fill="#FFFFFF"/><rect x="399.5" y="209.5" width="234" height="449" stroke="#FFC000" stroke-width="0.666667" stroke-miterlimit="8" fill="url(#fill1)"/><text font-family="Times New Roman,Times New Roman_MSFontService,sans-serif" font-weight="400" font-size="24" transform="translate(457.289 197)">Hack RAM</text><g clip-path="url(#clip2)"><g clip-path="url(#clip3)"><g clip-path="url(#clip4)"><path d="M915 276 859 276 859 242 915 242 915 276ZM921 240C921 237.8 919.2 236 917 236L857 236C854.8 236 853 237.8 853 240L853 282 921 282 921 240Z"/><path d="M893 286 893 287C893 287.6 892.6 288 892 288L882 288C881.4 288 881 287.6 881 287L881 286 841 286 841 288C841 290.2 842.8 292 845 292L929 292C931.2 292 933 290.2 933 288L933 286 893 286Z"/></g></g></g><g clip-path="url(#clip5)"><g clip-path="url(#clip6)"><g clip-path="url(#clip7)"><path d="M916.5 634.5C916.5 634.5 915.4 634.2 915 634.2 894.4 629.7 895.5 630 885.7 607L885.7 607C882.9 599.9 875.9 594.8 867.8 595 857.3 595.1 849 604 849 614.5L849 665C849 667.2 850.8 669 853 669L856 669 887 669 921 669C923.2 669 925 667.2 925 665L925 646C925 640.6 921.4 636 916.5 634.5ZM921 665 853 665 853 653 857 653 857 662 861 662 861 653 863 653 863 662 867 662 867 653 869 653 869 662 873 662 873 653 882 653 882 662 886 662 886 653 888 653 888 662 892 662 892 653 901 653 901 662 905 662 905 653 907 653 907 662 911 662 911 653 913 653 913 662 917 662 917 653 921 653 921 665Z"/></g></g></g><path d="M0.00865509-0.333221 9.64237-0.0829946 19.2224 0.668383 28.6761 1.92053 37.817 3.54835 46.7087 5.61474 55.2248 8.05685 63.304 10.8125 70.885 13.8826 77.7801 17.2047 84.0517 20.7795 89.5755 24.5458 94.2922 28.4449 98.076 32.5441 100.858 36.7804 102.637 41.0373 103.205 45.3313 103.768 49.5813 103.745 49.4965 105.495 53.684 105.465 53.6276 108.215 57.7526 108.182 57.7114 111.932 61.7739 111.902 61.7448 116.589 65.6823 116.561 65.6606 122.061 69.3481 122.04 69.3354 128.29 72.8979 128.27 72.8872 135.145 76.1997 135.125 76.191 142.688 79.2535 142.67 79.247 150.733 81.997 150.717 81.9921 159.217 84.4296 159.2 84.4253 168.075 86.4878 168.058 86.4843 177.183 88.1093 177.169 88.107 186.606 89.357 186.589 89.3552 196.151 90.1052 196.132 90.1042 199.089 90.1667 199.075 90.8333 196.108 90.7706 186.528 90.0191 177.074 88.767 167.933 87.1391 159.041 85.0728 150.525 82.6306 142.446 79.875 134.865 76.8049 127.97 73.4828 121.699 69.9086 116.174 66.2043 111.457 62.2416 107.675 58.1443 104.892 53.9707 103.113 49.7127 102.545 45.4187 101.982 41.1687 102.005 41.2535 100.255 37.066 100.284 37.1205 97.5339 32.933 97.5676 32.9761 93.8176 28.9136 93.8501 28.9444 89.1626 25.0694 89.1872 25.0879 83.6872 21.3379 83.7099 21.3521 77.4599 17.7896 77.4803 17.8003 70.6053 14.4878 70.6249 14.4965 63.0624 11.434 63.0799 11.4405 55.0174 8.69049 55.0331 8.69542 46.5331 6.25792 46.5495 6.26218 37.6745 4.19968 37.6916 4.20317 28.5666 2.57817 28.5812 2.58045 19.1437 1.33045 19.1614 1.33231 9.59894 0.582313 9.61634 0.583221-0.00865509 0.333221ZM197.834 86.4727 205.748 90.6408 197.665 94.4709Z" transform="matrix(1 0 0 -1 633.5 355.141)"/><path d="M839.864 643.222 821.736 642.972 804.166 642.346 795.787 641.846 787.72 641.346 780.089 640.72 773.021 640.032 766.452 639.282 760.568 638.468 755.371 637.591 750.984 636.714 747.398 635.833 744.724 634.878 743 633.817 742.396 632.81 741.833 631.872 741.952 631.99 740.327 631.052 740.382 631.077 737.757 630.14 737.784 630.148 734.222 629.211 734.241 629.215 729.866 628.34 729.88 628.343 724.692 627.53 724.699 627.531 718.761 626.719 718.768 626.72 712.268 625.97 712.274 625.97 705.149 625.283 705.154 625.283 697.529 624.658 697.533 624.658 689.533 624.096 689.539 624.096 681.164 623.659 681.17 623.659 663.607 623.034 663.615 623.034 652.163 622.907 652.17 622.241 663.627 622.368 681.196 622.993 689.577 623.431 697.582 623.994 705.211 624.619 712.342 625.307 718.848 626.058 724.792 626.871 729.99 627.685 734.382 628.564 737.968 629.507 740.634 630.46 742.36 631.455 742.967 632.467 743.53 633.404 743.419 633.292 745.044 634.292 744.981 634.262 747.606 635.2 747.573 635.19 751.136 636.065 751.122 636.062 755.497 636.937 755.487 636.935 760.674 637.81 760.665 637.808 766.54 638.621 766.532 638.62 773.094 639.37 773.089 639.369 780.151 640.057 780.146 640.056 787.771 640.681 787.765 640.681 795.826 641.181 804.201 641.681 804.193 641.68 821.756 642.305 821.749 642.305 839.874 642.555ZM653.455 626.589 645.5 622.5 653.544 618.589Z"/><text font-family="Times New Roman,Times New Roman_MSFontService,sans-serif" font-weight="400" font-size="24" transform="translate(465.522 647)">keyboard</text><path d="M399.5 619.5 633.752 619.5" stroke="#000000" stroke-width="0.666667" stroke-miterlimit="8" fill="none" fill-rule="evenodd"/><text font-family="Times New Roman,Times New Roman_MSFontService,sans-serif" font-weight="400" font-size="24" transform="translate(415.372 561)">Screen Memory</text><text font-family="Times New Roman,Times New Roman_MSFontService,sans-serif" font-weight="400" font-size="24" transform="translate(575.372 561)">map</text><text font-family="DengXian,DengXian_MSFontService,sans-serif" font-weight="400" font-size="24" transform="translate(477.372 589)">（</text><text font-family="Times New Roman,Times New Roman_MSFontService,sans-serif" font-weight="400" font-size="24" transform="translate(501.372 589)">8K</text><text font-family="DengXian,DengXian_MSFontService,sans-serif" font-weight="400" font-size="24" transform="translate(530.705 589)">）</text><path d="M399.5 508.5 633.752 508.5" stroke="#000000" stroke-width="0.666667" stroke-miterlimit="8" fill="none" fill-rule="evenodd"/><text font-family="Times New Roman,Times New Roman_MSFontService,sans-serif" font-weight="400" font-size="24" transform="translate(377.289 229)">0</text><text font-family="Times New Roman,Times New Roman_MSFontService,sans-serif" font-weight="400" font-size="24" transform="translate(333.949 533)">16384</text><text font-family="Times New Roman,Times New Roman_MSFontService,sans-serif" font-weight="400" font-size="24" transform="translate(333.949 644)">24576</text><text font-family="Times New Roman,Times New Roman_MSFontService,sans-serif" font-weight="400" font-size="24" transform="translate(448.818 354)">Data memory</text><text font-family="DengXian,DengXian_MSFontService,sans-serif" font-weight="400" font-size="24" transform="translate(469.818 382)">（</text><text font-family="Times New Roman,Times New Roman_MSFontService,sans-serif" font-weight="400" font-size="24" transform="translate(493.818 382)">16K</text><text font-family="DengXian,DengXian_MSFontService,sans-serif" font-weight="400" font-size="24" transform="translate(535.152 382)">）</text></g></svg>