<svg width="1280" height="720" xmlns="http://www.w3.org/2000/svg" xmlns:xlink="http://www.w3.org/1999/xlink" overflow="hidden"><defs><clipPath id="clip0"><rect x="0" y="0" width="1280" height="720"/></clipPath></defs><g clip-path="url(#clip0)"><rect x="0" y="0" width="1280" height="720" fill="#FFFFFF"/><path d="M98.5001 648.5 124.5 622.5 124.5 635.501 1104.5 635.501 1104.5 622.5 1130.5 648.5 1104.5 674.5 1104.5 661.501 124.5 661.501 124.5 674.5Z" stroke="#41719C" stroke-width="1.33333" stroke-miterlimit="8" fill="#5B9BD5" fill-rule="evenodd"/><text fill="#FFFFFF" font-family="Times New Roman,Times New Roman_MSFontService,sans-serif" font-weight="400" font-size="24" transform="translate(577.283 656)">Control</text><rect x="127.5" y="122.5" width="354" height="159" stroke="#2F528F" stroke-width="1.33333" stroke-miterlimit="8" fill="#F8CBAD"/><text font-family="Times New Roman,Times New Roman_MSFontService,sans-serif" font-weight="700" font-size="24" transform="translate(264.452 269)">address</text><text font-family="Times New Roman,Times New Roman_MSFontService,sans-serif" font-weight="700" font-size="24" transform="translate(356.666 522)">Data address</text><text font-family="Times New Roman,Times New Roman_MSFontService,sans-serif" font-weight="700" font-size="24" transform="translate(256.513 210)">Memory</text><path d="M481.5 192.25 546 192.25 546 184.5 561.5 200 546 215.5 546 207.75 481.5 207.75Z" stroke="#507E32" stroke-width="1.33333" stroke-miterlimit="8" fill="#70AD47" fill-rule="evenodd"/><path d="M574.5 97.7499 1025 97.7499 1025 91.5001 1037.5 104 1025 116.5 1025 110.25 574.5 110.25Z" stroke="#507E32" stroke-width="1.33333" stroke-miterlimit="8" fill="#70AD47" fill-rule="evenodd"/><path d="M559.5 135 574 120.5 588.5 135 581.25 135 581.25 193.5 566.75 193.5 566.75 135Z" stroke="#41719C" stroke-width="1.33333" stroke-miterlimit="8" fill="#70AD47" fill-rule="evenodd"/><path d="M289.5 297.5 305.5 281.5 321.5 297.5 313.5 297.5 313.5 360.5 297.5 360.5 297.5 297.5Z" stroke="#AE5A21" stroke-width="1.33333" stroke-miterlimit="8" fill="#ED7D31" fill-rule="evenodd"/><text font-family="Times New Roman,Times New Roman_MSFontService,sans-serif" font-weight="700" font-size="24" transform="translate(443.425 206)">out</text><rect x="48.5001" y="496.5" width="289" height="63" stroke="#AE5A21" stroke-width="1.33333" stroke-miterlimit="8" fill="#ED7D31"/><text fill="#FFFFFF" font-family="Times New Roman,Times New Roman_MSFontService,sans-serif" font-weight="400" font-size="24" transform="translate(109.6 536)">Program Counter</text><path d="M258.5 426.5 307 363.5 355.5 426.5Z" stroke="#41719C" stroke-width="1.33333" stroke-miterlimit="8" fill="#5B9BD5" fill-rule="evenodd"/><text font-family="Times New Roman,Times New Roman_MSFontService,sans-serif" font-weight="700" font-size="24" transform="translate(154.324 396)">Multiplexor</text><path d="M347.5 442 361 428.5 374.5 442 367.75 442 367.75 494.5 354.25 494.5 354.25 442Z" stroke="#AE5A21" stroke-width="1.33333" stroke-miterlimit="8" fill="#ED7D31" fill-rule="evenodd"/><path d="M276.5 443 290 429.5 303.5 443 296.75 443 296.75 492.5 283.25 492.5 283.25 443Z" stroke="#AE5A21" stroke-width="1.33333" stroke-miterlimit="8" fill="#ED7D31" fill-rule="evenodd"/><path d="M577.5 287 617.5 287 617.5 281.5 628.5 292.5 617.5 303.5 617.5 298 577.5 298Z" stroke="#507E32" stroke-width="1.33333" stroke-miterlimit="8" fill="#70AD47" fill-rule="evenodd"/><path d="M588.5 266 574 280.5 559.5 266 566.75 266 566.75 207.5 581.25 207.5 581.25 266Z" stroke="#41719C" stroke-width="1.33333" stroke-miterlimit="8" fill="#70AD47" fill-rule="evenodd"/><rect x="539.5" y="432.5" width="289" height="63" stroke="#AE5A21" stroke-width="1.33333" stroke-miterlimit="8" fill="#ED7D31"/><text fill="#FFFFFF" font-family="Times New Roman,Times New Roman_MSFontService,sans-serif" font-weight="400" font-size="24" transform="translate(596.854 472)">Fetch/Execute Bit</text><path d="M330 395 670.194 395" stroke="#4472C4" stroke-width="2" stroke-miterlimit="8" fill="none" fill-rule="evenodd"/><path d="M683 394 863.812 394.399" stroke="#4472C4" stroke-width="2" stroke-miterlimit="8" fill="none" fill-rule="evenodd"/><path d="M678 400 678 428.897" stroke="#4472C4" stroke-width="2" stroke-miterlimit="8" fill="none" fill-rule="evenodd"/><path d="M864 331 864 632.391" stroke="#4472C4" stroke-width="2" stroke-miterlimit="8" fill="none" fill-rule="evenodd"/><rect x="640.5" y="268.5" width="289" height="63" stroke="#AE5A21" stroke-width="1.33333" stroke-miterlimit="8" fill="#ED7D31"/><text fill="#FFFFFF" font-family="Times New Roman,Times New Roman_MSFontService,sans-serif" font-weight="400" font-size="24" transform="translate(693.369 308)">Instruction register</text><text font-family="Times New Roman,Times New Roman_MSFontService,sans-serif" font-weight="700" font-size="24" transform="translate(708.804 360)">Load on Fetch</text><path d="M1103.77 45.7756 1105.5 140.701 1034.37 188.5 1035.23 119.831 1057.79 100.98 1033.5 88.1891 1033.5 17.5001 1103.77 45.7756Z" stroke="#2F528F" stroke-width="1.33333" stroke-miterlimit="8" fill="#B4C7E7" fill-rule="evenodd"/><text font-family="Times New Roman,Times New Roman_MSFontService,sans-serif" font-weight="700" font-size="24" transform="translate(1071.58 82)">A</text><text font-family="Times New Roman,Times New Roman_MSFontService,sans-serif" font-weight="700" font-size="24" transform="translate(1071.58 111)">L</text><text font-family="Times New Roman,Times New Roman_MSFontService,sans-serif" font-weight="700" font-size="24" transform="translate(1071.58 140)">U</text><path d="M893.5 609.5 901 609.5 901 340.5 916 340.5 916 609.5 923.5 609.5 908.5 624.5Z" stroke="#2F528F" stroke-width="1.33333" stroke-miterlimit="8" fill="#4472C4" fill-rule="evenodd"/></g></svg>