<svg width="1280" height="720" xmlns="http://www.w3.org/2000/svg" xmlns:xlink="http://www.w3.org/1999/xlink" overflow="hidden"><defs><filter id="fx0" x="-10%" y="-10%" width="120%" height="120%" filterUnits="userSpaceOnUse" primitiveUnits="userSpaceOnUse"><feComponentTransfer color-interpolation-filters="sRGB"><feFuncR type="discrete" tableValues="0 0"/><feFuncG type="discrete" tableValues="0 0"/><feFuncB type="discrete" tableValues="0 0"/><feFuncA type="linear" slope="0.4" intercept="0"/></feComponentTransfer><feGaussianBlur stdDeviation="1.77778 1.77778"/></filter><filter id="fx1" x="-10%" y="-10%" width="120%" height="120%" filterUnits="userSpaceOnUse" primitiveUnits="userSpaceOnUse"><feComponentTransfer color-interpolation-filters="sRGB"><feFuncR type="discrete" tableValues="0 0"/><feFuncG type="discrete" tableValues="0 0"/><feFuncB type="discrete" tableValues="0 0"/><feFuncA type="linear" slope="0.4" intercept="0"/></feComponentTransfer><feGaussianBlur stdDeviation="1.77778 1.77778"/></filter><filter id="fx2" x="-10%" y="-10%" width="120%" height="120%" filterUnits="userSpaceOnUse" primitiveUnits="userSpaceOnUse"><feComponentTransfer color-interpolation-filters="sRGB"><feFuncR type="discrete" tableValues="0 0"/><feFuncG type="discrete" tableValues="0 0"/><feFuncB type="discrete" tableValues="0 0"/><feFuncA type="linear" slope="0.4" intercept="0"/></feComponentTransfer><feGaussianBlur stdDeviation="1.77778 1.77778"/></filter><clipPath id="clip3"><rect x="0" y="0" width="1280" height="720"/></clipPath><clipPath id="clip4"><path d="M709.5 276.5 709.5 327.5 987.5 327.5 987.5 276.5ZM1.90735e-05 1.07288e-05 1280 1.07288e-05 1280 720 1.90735e-05 720Z" fill-rule="evenodd" clip-rule="evenodd"/></clipPath><clipPath id="clip5"><rect x="-2" y="-2" width="296" height="69"/></clipPath><clipPath id="clip6"><rect x="0" y="0" width="293" height="66"/></clipPath><clipPath id="clip7"><path d="M198.5 13.5001 198.5 221.5 476.5 221.5 476.5 13.5001ZM1.90735e-05 1.07288e-05 1280 1.07288e-05 1280 720 1.90735e-05 720Z" fill-rule="evenodd" clip-rule="evenodd"/></clipPath><clipPath id="clip8"><rect x="-2" y="-2" width="296" height="225"/></clipPath><clipPath id="clip9"><rect x="0" y="0" width="293" height="223"/></clipPath><clipPath id="clip10"><path d="M268.5 276.5 268.5 327.5 545.5 327.5 545.5 276.5ZM1.90735e-05 1.07288e-05 1280 1.07288e-05 1280 720 1.90735e-05 720Z" fill-rule="evenodd" clip-rule="evenodd"/></clipPath><clipPath id="clip11"><rect x="-2" y="-2" width="296" height="69"/></clipPath><clipPath id="clip12"><rect x="0" y="0" width="292" height="66"/></clipPath></defs><g clip-path="url(#clip3)"><rect x="0" y="0" width="1280" height="720" fill="#FFFFFF"/><g clip-path="url(#clip4)"><g clip-path="url(#clip5)" filter="url(#fx0)" transform="translate(705 272)"><g clip-path="url(#clip6)"><rect x="7.32849" y="7.32849" width="278" height="51" stroke="#2F528F" stroke-miterlimit="8" fill="#DAE3F3"/></g></g></g><rect x="709.5" y="276.5" width="278" height="51" stroke="#2F528F" stroke-width="1.33333" stroke-miterlimit="8" fill="#DAE3F3"/><text font-family="Consolas,Consolas_MSFontService,sans-serif" font-weight="400" font-size="24" transform="translate(733.889 310)">JMP 673</text><path d="M158.13 343.813 283.271 343.813 283.271 382.746 158.13 382.746Z" fill="#4472C4" fill-rule="evenodd"/><path d="M158.13 382.746 283.271 382.746 283.271 421.68 158.13 421.68Z" fill="#CFD5EA" fill-rule="evenodd"/><path d="M158.13 421.68 283.271 421.68 283.271 460.613 158.13 460.613Z" fill="#E9EBF5" fill-rule="evenodd"/><path d="M158.13 460.613 283.271 460.613 283.271 499.546 158.13 499.546Z" fill="#CFD5EA" fill-rule="evenodd"/><path d="M158.13 499.546 283.271 499.546 283.271 538.48 158.13 538.48Z" fill="#E9EBF5" fill-rule="evenodd"/><path d="M158.13 538.48 283.271 538.48 283.271 577.413 158.13 577.413Z" fill="#CFD5EA" fill-rule="evenodd"/><path d="M158.13 577.413 283.271 577.413 283.271 616.346 158.13 616.346Z" fill="#E9EBF5" fill-rule="evenodd"/><path d="M158.13 616.346 283.271 616.346 283.271 655.28 158.13 655.28Z" fill="#CFD5EA" fill-rule="evenodd"/><path d="M157.464 382.746 283.938 382.746" stroke="#FFFFFF" stroke-width="4" stroke-linejoin="round" stroke-miterlimit="10" fill="none" fill-rule="evenodd"/><path d="M157.464 421.68 283.938 421.68" stroke="#FFFFFF" stroke-width="1.33333" stroke-linejoin="round" stroke-miterlimit="10" fill="none" fill-rule="evenodd"/><path d="M157.464 460.613 283.938 460.613" stroke="#FFFFFF" stroke-width="1.33333" stroke-linejoin="round" stroke-miterlimit="10" fill="none" fill-rule="evenodd"/><path d="M157.464 499.546 283.938 499.546" stroke="#FFFFFF" stroke-width="1.33333" stroke-linejoin="round" stroke-miterlimit="10" fill="none" fill-rule="evenodd"/><path d="M157.464 538.48 283.938 538.48" stroke="#FFFFFF" stroke-width="1.33333" stroke-linejoin="round" stroke-miterlimit="10" fill="none" fill-rule="evenodd"/><path d="M157.464 577.413 283.938 577.413" stroke="#FFFFFF" stroke-width="1.33333" stroke-linejoin="round" stroke-miterlimit="10" fill="none" fill-rule="evenodd"/><path d="M157.464 616.346 283.938 616.346" stroke="#FFFFFF" stroke-width="1.33333" stroke-linejoin="round" stroke-miterlimit="10" fill="none" fill-rule="evenodd"/><path d="M158.13 343.146 158.13 655.946" stroke="#FFFFFF" stroke-width="1.33333" stroke-linejoin="round" stroke-miterlimit="10" fill="none" fill-rule="evenodd"/><path d="M283.271 343.146 283.271 655.946" stroke="#FFFFFF" stroke-width="1.33333" stroke-linejoin="round" stroke-miterlimit="10" fill="none" fill-rule="evenodd"/><path d="M157.464 343.813 283.938 343.813" stroke="#FFFFFF" stroke-width="1.33333" stroke-linejoin="round" stroke-miterlimit="10" fill="none" fill-rule="evenodd"/><path d="M157.464 655.28 283.938 655.28" stroke="#FFFFFF" stroke-width="1.33333" stroke-linejoin="round" stroke-miterlimit="10" fill="none" fill-rule="evenodd"/><text fill="#FFFFFF" font-family="DengXian,DengXian_MSFontService,sans-serif" font-weight="700" font-size="24" transform="translate(194.868 371)">Prog</text><text font-family="DengXian,DengXian_MSFontService,sans-serif" font-weight="400" font-size="24" transform="translate(212.284 410)">…</text><text font-family="DengXian,DengXian_MSFontService,sans-serif" font-weight="400" font-size="24" transform="translate(212.284 448)">…</text><text font-family="DengXian,DengXian_MSFontService,sans-serif" font-weight="400" font-size="24" transform="translate(212.284 487)">…</text><text font-family="DengXian,DengXian_MSFontService,sans-serif" font-weight="400" font-size="24" transform="translate(212.284 526)">…</text><text font-family="DengXian,DengXian_MSFontService,sans-serif" font-weight="400" font-size="24" transform="translate(212.284 565)">…</text><text font-family="DengXian,DengXian_MSFontService,sans-serif" font-weight="400" font-size="24" transform="translate(212.284 604)">…</text><text font-family="DengXian,DengXian_MSFontService,sans-serif" font-weight="400" font-size="24" transform="translate(212.284 643)">…</text><text font-family="Consolas,Consolas_MSFontService,sans-serif" font-weight="400" font-size="24" transform="translate(107.286 409)">670</text><text font-family="Consolas,Consolas_MSFontService,sans-serif" font-weight="400" font-size="24" transform="translate(97.0471 526)">loop</text><g clip-path="url(#clip7)"><g clip-path="url(#clip8)" filter="url(#fx1)" transform="translate(194 9)"><g clip-path="url(#clip9)"><rect x="7.32848" y="7.32848" width="278" height="208" stroke="#2F528F" stroke-miterlimit="8" fill="#DAE3F3"/></g></g></g><rect x="198.5" y="13.5001" width="278" height="208" stroke="#2F528F" stroke-width="1.33333" stroke-miterlimit="8" fill="#DAE3F3"/><path d="M168.5 107.5C168.5 98.6635 219.763 91.5001 283 91.5001 346.237 91.5001 397.5 98.6635 397.5 107.5 397.5 116.337 346.237 123.5 283 123.5 219.763 123.5 168.5 116.337 168.5 107.5Z" stroke="#2F528F" stroke-width="1.33333" stroke-miterlimit="8" fill="#FFFFFF" fill-rule="evenodd"/><text font-family="Consolas,Consolas_MSFontService,sans-serif" font-weight="400" font-size="24" transform="translate(219.341 30)">…</text><text font-family="Consolas,Consolas_MSFontService,sans-serif" font-weight="400" font-size="24" transform="translate(219.341 58)">Load</text><text font-family="Consolas,Consolas_MSFontService,sans-serif" font-weight="400" font-size="24" transform="translate(285.174 58)">R1,</text><text font-family="Consolas,Consolas_MSFontService,sans-serif" font-weight="400" font-size="24" transform="translate(337.841 58)">30</text><text font-family="Consolas,Consolas_MSFontService,sans-serif" font-weight="400" font-size="24" transform="translate(219.341 87)">Label loop:</text><text font-family="Consolas,Consolas_MSFontService,sans-serif" font-weight="400" font-size="24" transform="translate(219.341 116)">Add</text><text font-family="Consolas,Consolas_MSFontService,sans-serif" font-weight="400" font-size="24" transform="translate(272.007 116)">1, R1</text><text font-family="Consolas,Consolas_MSFontService,sans-serif" font-weight="400" font-size="24" transform="translate(219.341 145)">…</text><text font-family="Consolas,Consolas_MSFontService,sans-serif" font-weight="400" font-size="24" transform="translate(219.341 174)">JMP</text><text font-family="Consolas,Consolas_MSFontService,sans-serif" font-weight="400" font-size="24" transform="translate(272.007 174)">loop</text><text font-family="Consolas,Consolas_MSFontService,sans-serif" font-weight="400" font-size="24" transform="translate(219.341 202)">…</text><g clip-path="url(#clip10)"><g clip-path="url(#clip11)" filter="url(#fx2)" transform="translate(264 272)"><g clip-path="url(#clip12)"><rect x="7.32849" y="7.32849" width="277" height="51" stroke="#2F528F" stroke-miterlimit="8" fill="#DAE3F3"/></g></g></g><rect x="268.5" y="276.5" width="277" height="51" stroke="#2F528F" stroke-width="1.33333" stroke-miterlimit="8" fill="#DAE3F3"/><text font-family="Consolas,Consolas_MSFontService,sans-serif" font-weight="400" font-size="24" transform="translate(292.181 310)">JMP loop</text><path d="M582.5 296.75 656 296.75 656 288.5 672.5 305 656 321.5 656 313.25 582.5 313.25Z" stroke="#2F528F" stroke-width="1.33333" stroke-miterlimit="8" fill="#4472C4" fill-rule="evenodd"/><path d="M422.632 439.47 651.771 439.47 651.771 482.757 422.632 482.757Z" fill="#FFC000" fill-rule="evenodd"/><path d="M651.771 439.47 880.911 439.47 880.911 482.757 651.771 482.757Z" fill="#FFC000" fill-rule="evenodd"/><path d="M422.632 482.757 651.771 482.757 651.771 526.044 422.632 526.044Z" fill="#FFC000" fill-rule="evenodd"/><path d="M651.771 482.757 880.911 482.757 880.911 526.044 651.771 526.044Z" fill="#FFC000" fill-rule="evenodd"/><path d="M422.632 526.044 651.771 526.044 651.771 569.331 422.632 569.331Z" fill="#FFC000" fill-rule="evenodd"/><path d="M651.771 526.044 880.911 526.044 880.911 569.331 651.771 569.331Z" fill="#FFC000" fill-rule="evenodd"/><path d="M651.771 438.803 651.771 569.998" stroke="#FFFFFF" stroke-width="1.33333" stroke-linejoin="round" stroke-miterlimit="10" fill="none" fill-rule="evenodd"/><path d="M421.965 482.757 881.577 482.757" stroke="#FFFFFF" stroke-width="4" stroke-linejoin="round" stroke-miterlimit="10" fill="none" fill-rule="evenodd"/><path d="M421.965 526.044 881.577 526.044" stroke="#FFFFFF" stroke-width="1.33333" stroke-linejoin="round" stroke-miterlimit="10" fill="none" fill-rule="evenodd"/><path d="M422.632 438.803 422.632 569.998" stroke="#FFFFFF" stroke-width="1.33333" stroke-linejoin="round" stroke-miterlimit="10" fill="none" fill-rule="evenodd"/><path d="M880.911 438.803 880.911 569.998" stroke="#FFFFFF" stroke-width="1.33333" stroke-linejoin="round" stroke-miterlimit="10" fill="none" fill-rule="evenodd"/><path d="M421.965 439.47 881.577 439.47" stroke="#FFFFFF" stroke-width="1.33333" stroke-linejoin="round" stroke-miterlimit="10" fill="none" fill-rule="evenodd"/><path d="M421.965 569.331 881.577 569.331" stroke="#FFFFFF" stroke-width="1.33333" stroke-linejoin="round" stroke-miterlimit="10" fill="none" fill-rule="evenodd"/><text fill="#FFFFFF" font-family="DengXian,DengXian_MSFontService,sans-serif" font-weight="700" font-size="24" transform="translate(496.368 466)">Symbol</text><text fill="#FFFFFF" font-family="DengXian,DengXian_MSFontService,sans-serif" font-weight="700" font-size="24" transform="translate(722.591 466)">Address</text><text font-family="DengXian,DengXian_MSFontService,sans-serif" font-weight="400" font-size="24" transform="translate(513.785 510)">loop</text><text font-family="DengXian,DengXian_MSFontService,sans-serif" font-weight="400" font-size="24" transform="translate(747.341 510)">673</text><path d="M0.315873-0.106467 139.215 411.99 138.583 412.203-0.315873 0.106467ZM142.264 409.556 141.028 418.414 134.683 412.111Z" fill="#4472C4" transform="matrix(-1 0 0 1 399.529 107.5)"/></g></svg>