<svg width="1280" height="720" xmlns="http://www.w3.org/2000/svg" xmlns:xlink="http://www.w3.org/1999/xlink" overflow="hidden"><defs><clipPath id="clip0"><rect x="0" y="0" width="1280" height="720"/></clipPath></defs><g clip-path="url(#clip0)"><rect x="0" y="0" width="1280" height="720" fill="#FFFFFF"/><path d="M328.155 158.936 534.628 158.936 534.628 197.869 328.155 197.869Z" fill="#4472C4" fill-rule="evenodd"/><path d="M328.155 197.869 534.628 197.869 534.628 236.802 328.155 236.802Z" fill="#CFD5EA" fill-rule="evenodd"/><path d="M328.155 236.802 534.628 236.802 534.628 275.736 328.155 275.736Z" fill="#E9EBF5" fill-rule="evenodd"/><path d="M328.155 275.736 534.628 275.736 534.628 314.669 328.155 314.669Z" fill="#CFD5EA" fill-rule="evenodd"/><path d="M328.155 314.669 534.628 314.669 534.628 353.602 328.155 353.602Z" fill="#E9EBF5" fill-rule="evenodd"/><path d="M328.155 353.602 534.628 353.602 534.628 392.536 328.155 392.536Z" fill="#CFD5EA" fill-rule="evenodd"/><path d="M328.155 392.536 534.628 392.536 534.628 431.469 328.155 431.469Z" fill="#E9EBF5" fill-rule="evenodd"/><path d="M328.155 431.469 534.628 431.469 534.628 470.402 328.155 470.402Z" fill="#CFD5EA" fill-rule="evenodd"/><path d="M328.155 470.402 534.628 470.402 534.628 509.336 328.155 509.336Z" fill="#E9EBF5" fill-rule="evenodd"/><path d="M328.155 509.336 534.628 509.336 534.628 548.269 328.155 548.269Z" fill="#CFD5EA" fill-rule="evenodd"/><path d="M328.155 548.269 534.628 548.269 534.628 587.202 328.155 587.202Z" fill="#E9EBF5" fill-rule="evenodd"/><path d="M328.155 587.202 534.628 587.202 534.628 626.136 328.155 626.136Z" fill="#CFD5EA" fill-rule="evenodd"/><path d="M327.489 197.869 535.294 197.869" stroke="#FFFFFF" stroke-width="4" stroke-linejoin="round" stroke-miterlimit="10" fill="none" fill-rule="evenodd"/><path d="M327.489 236.802 535.294 236.802" stroke="#FFFFFF" stroke-width="1.33333" stroke-linejoin="round" stroke-miterlimit="10" fill="none" fill-rule="evenodd"/><path d="M327.489 275.736 535.294 275.736" stroke="#FFFFFF" stroke-width="1.33333" stroke-linejoin="round" stroke-miterlimit="10" fill="none" fill-rule="evenodd"/><path d="M327.489 314.669 535.294 314.669" stroke="#FFFFFF" stroke-width="1.33333" stroke-linejoin="round" stroke-miterlimit="10" fill="none" fill-rule="evenodd"/><path d="M327.489 353.602 535.294 353.602" stroke="#FFFFFF" stroke-width="1.33333" stroke-linejoin="round" stroke-miterlimit="10" fill="none" fill-rule="evenodd"/><path d="M327.489 392.536 535.294 392.536" stroke="#FFFFFF" stroke-width="1.33333" stroke-linejoin="round" stroke-miterlimit="10" fill="none" fill-rule="evenodd"/><path d="M327.489 431.469 535.294 431.469" stroke="#FFFFFF" stroke-width="1.33333" stroke-linejoin="round" stroke-miterlimit="10" fill="none" fill-rule="evenodd"/><path d="M327.489 470.402 535.294 470.402" stroke="#FFFFFF" stroke-width="1.33333" stroke-linejoin="round" stroke-miterlimit="10" fill="none" fill-rule="evenodd"/><path d="M327.489 509.336 535.294 509.336" stroke="#FFFFFF" stroke-width="1.33333" stroke-linejoin="round" stroke-miterlimit="10" fill="none" fill-rule="evenodd"/><path d="M327.489 548.269 535.294 548.269" stroke="#FFFFFF" stroke-width="1.33333" stroke-linejoin="round" stroke-miterlimit="10" fill="none" fill-rule="evenodd"/><path d="M327.489 587.202 535.294 587.202" stroke="#FFFFFF" stroke-width="1.33333" stroke-linejoin="round" stroke-miterlimit="10" fill="none" fill-rule="evenodd"/><path d="M328.155 158.269 328.155 626.802" stroke="#FFFFFF" stroke-width="1.33333" stroke-linejoin="round" stroke-miterlimit="10" fill="none" fill-rule="evenodd"/><path d="M534.628 158.269 534.628 626.802" stroke="#FFFFFF" stroke-width="1.33333" stroke-linejoin="round" stroke-miterlimit="10" fill="none" fill-rule="evenodd"/><path d="M327.489 158.936 535.294 158.936" stroke="#FFFFFF" stroke-width="1.33333" stroke-linejoin="round" stroke-miterlimit="10" fill="none" fill-rule="evenodd"/><path d="M327.489 626.136 535.294 626.136" stroke="#FFFFFF" stroke-width="1.33333" stroke-linejoin="round" stroke-miterlimit="10" fill="none" fill-rule="evenodd"/><text font-family="SimSun,SimSun_MSFontService,sans-serif" font-weight="400" font-size="24" transform="translate(365.391 228)">01011110011</text><text font-family="SimSun,SimSun_MSFontService,sans-serif" font-weight="400" font-size="24" transform="translate(365.391 267)">11010101010</text><text font-family="SimSun,SimSun_MSFontService,sans-serif" font-weight="400" font-size="24" transform="translate(365.391 306)">11001101101</text><text font-family="SimSun,SimSun_MSFontService,sans-serif" font-weight="400" font-size="24" transform="translate(419.391 344)">…</text><text font-family="Times New Roman,Times New Roman_MSFontService,sans-serif" font-weight="700" font-size="24" transform="translate(616.953 321)">Current</text><text font-family="Times New Roman,Times New Roman_MSFontService,sans-serif" font-weight="700" font-size="24" transform="translate(616.953 350)">instruction</text><text font-family="Times New Roman,Times New Roman_MSFontService,sans-serif" font-weight="700" font-size="24" transform="translate(212.707 610)">Address N</text><text font-family="Times New Roman,Times New Roman_MSFontService,sans-serif" font-weight="700" font-size="24" transform="translate(401.212 653)">Memory</text><rect x="785.5" y="172.5" width="177" height="441" stroke="#2F528F" stroke-width="1.33333" stroke-miterlimit="8" fill="#F8CBAD"/><text font-family="Times New Roman,Times New Roman_MSFontService,sans-serif" font-weight="700" font-size="24" transform="translate(847.813 209)">CPU</text><path d="M903.765 335.776 905.5 430.701 834.368 478.5 835.235 409.831 857.789 390.98 833.5 378.189 833.5 307.5 903.765 335.776Z" stroke="#2F528F" stroke-width="1.33333" stroke-miterlimit="8" fill="#B4C7E7" fill-rule="evenodd"/><text font-family="Times New Roman,Times New Roman_MSFontService,sans-serif" font-weight="700" font-size="24" transform="translate(632.512 90)">Program</text><text font-family="Times New Roman,Times New Roman_MSFontService,sans-serif" font-weight="700" font-size="24" transform="translate(645.788 584)">Data</text><path d="M607.5 460 690.5 460 690.5 448.5 713.5 471.5 690.5 494.5 690.5 483 607.5 483Z" stroke="#2F528F" stroke-width="1.33333" stroke-miterlimit="8" fill="#767171" fill-rule="evenodd"/><path d="M702.5 550 620.5 550 620.5 561.5 597.5 538.5 620.5 515.5 620.5 527 702.5 527Z" stroke="#2F528F" stroke-width="1.33333" stroke-miterlimit="8" fill="#767171" fill-rule="evenodd"/><path d="M0.198138-0.268053 131.148 96.5269 130.752 97.063-0.198138 0.268053ZM132.255 92.7857 136.311 100.758 127.5 99.219Z" fill="#4472C4" transform="matrix(-1 0 0 1 668.811 106.5)"/><path d="M532.5 290.167 779.27 290.167 779.27 290.833 532.5 290.833ZM777.937 286.5 785.937 290.5 777.937 294.5Z" fill="#4472C4"/><text font-family="Times New Roman,Times New Roman_MSFontService,sans-serif" font-weight="700" font-size="24" transform="translate(192.202 221)">Address 157</text><text font-family="Times New Roman,Times New Roman_MSFontService,sans-serif" font-weight="700" font-size="24" transform="translate(193.742 266)">Address 158</text><text font-family="Times New Roman,Times New Roman_MSFontService,sans-serif" font-weight="700" font-size="24" transform="translate(192.837 308)">Address 159</text><text font-family="Times New Roman,Times New Roman_MSFontService,sans-serif" font-weight="700" font-size="24" transform="translate(242.687 342)">…</text></g></svg>