<svg width="1280" height="720" xmlns="http://www.w3.org/2000/svg" xmlns:xlink="http://www.w3.org/1999/xlink" overflow="hidden"><defs><clipPath id="clip0"><rect x="0" y="0" width="1280" height="720"/></clipPath></defs><g clip-path="url(#clip0)"><rect x="0" y="0" width="1280" height="720" fill="#FFFFFF"/><text font-family="Times New Roman,Times New Roman_MSFontService,sans-serif" font-weight="700" font-size="24" transform="translate(487.399 210)">Main Memory</text><text font-family="Times New Roman,Times New Roman_MSFontService,sans-serif" font-weight="700" font-size="24" transform="translate(1074.3 252)">Disk</text><text font-family="Times New Roman,Times New Roman_MSFontService,sans-serif" font-weight="700" font-size="24" transform="translate(285.089 210)">cache</text><rect x="27.5001" y="224.5" width="177" height="309" stroke="#2F528F" stroke-width="1.33333" stroke-miterlimit="8" fill="#F8CBAD"/><path d="M113.765 324.61 115.5 418.98 44.3676 466.5 45.235 398.232 67.7892 379.492 43.5001 366.776 43.5001 296.5 113.765 324.61Z" stroke="#2F528F" stroke-width="1.33333" stroke-miterlimit="8" fill="#B4C7E7" fill-rule="evenodd"/><text font-family="Times New Roman,Times New Roman_MSFontService,sans-serif" font-weight="700" font-size="24" transform="translate(56.6611 366)">CPU</text><text font-family="Times New Roman,Times New Roman_MSFontService,sans-serif" font-weight="700" font-size="24" transform="translate(69.7875 215)">Registers</text><path d="M157.055 293.585 191.78 293.585 191.78 332.518 157.055 332.518Z" fill="#4472C4" fill-rule="evenodd"/><path d="M157.055 332.518 191.78 332.518 191.78 371.452 157.055 371.452Z" fill="#CFD5EA" fill-rule="evenodd"/><path d="M157.055 371.452 191.78 371.452 191.78 410.385 157.055 410.385Z" fill="#E9EBF5" fill-rule="evenodd"/><path d="M157.055 410.385 191.78 410.385 191.78 449.318 157.055 449.318Z" fill="#CFD5EA" fill-rule="evenodd"/><path d="M156.388 332.518 192.446 332.518" stroke="#FFFFFF" stroke-width="4" stroke-linejoin="round" stroke-miterlimit="10" fill="none" fill-rule="evenodd"/><path d="M156.388 371.452 192.446 371.452" stroke="#FFFFFF" stroke-width="1.33333" stroke-linejoin="round" stroke-miterlimit="10" fill="none" fill-rule="evenodd"/><path d="M156.388 410.385 192.446 410.385" stroke="#FFFFFF" stroke-width="1.33333" stroke-linejoin="round" stroke-miterlimit="10" fill="none" fill-rule="evenodd"/><path d="M157.055 292.918 157.055 449.985" stroke="#FFFFFF" stroke-width="1.33333" stroke-linejoin="round" stroke-miterlimit="10" fill="none" fill-rule="evenodd"/><path d="M191.78 292.918 191.78 449.985" stroke="#FFFFFF" stroke-width="1.33333" stroke-linejoin="round" stroke-miterlimit="10" fill="none" fill-rule="evenodd"/><path d="M156.388 293.585 192.446 293.585" stroke="#FFFFFF" stroke-width="1.33333" stroke-linejoin="round" stroke-miterlimit="10" fill="none" fill-rule="evenodd"/><path d="M156.388 449.318 192.446 449.318" stroke="#FFFFFF" stroke-width="1.33333" stroke-linejoin="round" stroke-miterlimit="10" fill="none" fill-rule="evenodd"/><path d="M214.5 381.5 230.5 365.5 230.5 373.5 261.5 373.5 261.5 365.5 277.5 381.5 261.5 397.5 261.5 389.5 230.5 389.5 230.5 397.5Z" stroke="#2F528F" stroke-width="1.33333" stroke-miterlimit="8" fill="#4472C4" fill-rule="evenodd"/><path d="M292.013 226.567 330.188 226.567 330.188 265.501 292.013 265.501Z" fill="#4472C4" fill-rule="evenodd"/><path d="M292.013 265.501 330.188 265.501 330.188 304.434 292.013 304.434Z" fill="#CFD5EA" fill-rule="evenodd"/><path d="M292.013 304.434 330.188 304.434 330.188 343.367 292.013 343.367Z" fill="#E9EBF5" fill-rule="evenodd"/><path d="M292.013 343.367 330.188 343.367 330.188 382.301 292.013 382.301Z" fill="#CFD5EA" fill-rule="evenodd"/><path d="M292.013 382.301 330.188 382.301 330.188 421.234 292.013 421.234Z" fill="#E9EBF5" fill-rule="evenodd"/><path d="M292.013 421.234 330.188 421.234 330.188 460.167 292.013 460.167Z" fill="#CFD5EA" fill-rule="evenodd"/><path d="M292.013 460.167 330.188 460.167 330.188 499.101 292.013 499.101Z" fill="#E9EBF5" fill-rule="evenodd"/><path d="M292.013 499.101 330.188 499.101 330.188 538.034 292.013 538.034Z" fill="#CFD5EA" fill-rule="evenodd"/><path d="M291.347 265.501 330.854 265.501" stroke="#FFFFFF" stroke-width="4" stroke-linejoin="round" stroke-miterlimit="10" fill="none" fill-rule="evenodd"/><path d="M291.347 304.434 330.854 304.434" stroke="#FFFFFF" stroke-width="1.33333" stroke-linejoin="round" stroke-miterlimit="10" fill="none" fill-rule="evenodd"/><path d="M291.347 343.367 330.854 343.367" stroke="#FFFFFF" stroke-width="1.33333" stroke-linejoin="round" stroke-miterlimit="10" fill="none" fill-rule="evenodd"/><path d="M291.347 382.301 330.854 382.301" stroke="#FFFFFF" stroke-width="1.33333" stroke-linejoin="round" stroke-miterlimit="10" fill="none" fill-rule="evenodd"/><path d="M291.347 421.234 330.854 421.234" stroke="#FFFFFF" stroke-width="1.33333" stroke-linejoin="round" stroke-miterlimit="10" fill="none" fill-rule="evenodd"/><path d="M291.347 460.167 330.854 460.167" stroke="#FFFFFF" stroke-width="1.33333" stroke-linejoin="round" stroke-miterlimit="10" fill="none" fill-rule="evenodd"/><path d="M291.347 499.101 330.854 499.101" stroke="#FFFFFF" stroke-width="1.33333" stroke-linejoin="round" stroke-miterlimit="10" fill="none" fill-rule="evenodd"/><path d="M292.013 225.901 292.013 538.701" stroke="#FFFFFF" stroke-width="1.33333" stroke-linejoin="round" stroke-miterlimit="10" fill="none" fill-rule="evenodd"/><path d="M330.188 225.901 330.188 538.701" stroke="#FFFFFF" stroke-width="1.33333" stroke-linejoin="round" stroke-miterlimit="10" fill="none" fill-rule="evenodd"/><path d="M291.347 226.567 330.854 226.567" stroke="#FFFFFF" stroke-width="1.33333" stroke-linejoin="round" stroke-miterlimit="10" fill="none" fill-rule="evenodd"/><path d="M291.347 538.034 330.854 538.034" stroke="#FFFFFF" stroke-width="1.33333" stroke-linejoin="round" stroke-miterlimit="10" fill="none" fill-rule="evenodd"/><path d="M451.304 225.275 491.699 225.275 491.699 264.209 451.304 264.209Z" fill="#4472C4" fill-rule="evenodd"/><path d="M491.699 225.275 532.095 225.275 532.095 264.209 491.699 264.209Z" fill="#4472C4" fill-rule="evenodd"/><path d="M532.095 225.275 572.49 225.275 572.49 264.209 532.095 264.209Z" fill="#4472C4" fill-rule="evenodd"/><path d="M572.49 225.275 612.886 225.275 612.886 264.209 572.49 264.209Z" fill="#4472C4" fill-rule="evenodd"/><path d="M612.886 225.275 653.281 225.275 653.281 264.209 612.886 264.209Z" fill="#4472C4" fill-rule="evenodd"/><path d="M653.281 225.275 693.677 225.275 693.677 264.209 653.281 264.209Z" fill="#4472C4" fill-rule="evenodd"/><path d="M693.677 225.275 734.072 225.275 734.072 264.209 693.677 264.209Z" fill="#4472C4" fill-rule="evenodd"/><path d="M734.072 225.275 774.468 225.275 774.468 264.209 734.072 264.209Z" fill="#4472C4" fill-rule="evenodd"/><path d="M774.468 225.275 814.863 225.275 814.863 264.209 774.468 264.209Z" fill="#4472C4" fill-rule="evenodd"/><path d="M814.863 225.275 855.259 225.275 855.259 264.209 814.863 264.209Z" fill="#4472C4" fill-rule="evenodd"/><path d="M451.304 264.209 491.699 264.209 491.699 303.142 451.304 303.142Z" fill="#CFD5EA" fill-rule="evenodd"/><path d="M491.699 264.209 532.095 264.209 532.095 303.142 491.699 303.142Z" fill="#CFD5EA" fill-rule="evenodd"/><path d="M532.095 264.209 572.49 264.209 572.49 303.142 532.095 303.142Z" fill="#CFD5EA" fill-rule="evenodd"/><path d="M572.49 264.209 612.886 264.209 612.886 303.142 572.49 303.142Z" fill="#CFD5EA" fill-rule="evenodd"/><path d="M612.886 264.209 653.281 264.209 653.281 303.142 612.886 303.142Z" fill="#CFD5EA" fill-rule="evenodd"/><path d="M653.281 264.209 693.677 264.209 693.677 303.142 653.281 303.142Z" fill="#CFD5EA" fill-rule="evenodd"/><path d="M693.677 264.209 734.072 264.209 734.072 303.142 693.677 303.142Z" fill="#CFD5EA" fill-rule="evenodd"/><path d="M734.072 264.209 774.468 264.209 774.468 303.142 734.072 303.142Z" fill="#CFD5EA" fill-rule="evenodd"/><path d="M774.468 264.209 814.863 264.209 814.863 303.142 774.468 303.142Z" fill="#CFD5EA" fill-rule="evenodd"/><path d="M814.863 264.209 855.259 264.209 855.259 303.142 814.863 303.142Z" fill="#CFD5EA" fill-rule="evenodd"/><path d="M451.304 303.142 491.699 303.142 491.699 342.075 451.304 342.075Z" fill="#E9EBF5" fill-rule="evenodd"/><path d="M491.699 303.142 532.095 303.142 532.095 342.075 491.699 342.075Z" fill="#E9EBF5" fill-rule="evenodd"/><path d="M532.095 303.142 572.49 303.142 572.49 342.075 532.095 342.075Z" fill="#E9EBF5" fill-rule="evenodd"/><path d="M572.49 303.142 612.886 303.142 612.886 342.075 572.49 342.075Z" fill="#E9EBF5" fill-rule="evenodd"/><path d="M612.886 303.142 653.281 303.142 653.281 342.075 612.886 342.075Z" fill="#E9EBF5" fill-rule="evenodd"/><path d="M653.281 303.142 693.677 303.142 693.677 342.075 653.281 342.075Z" fill="#E9EBF5" fill-rule="evenodd"/><path d="M693.677 303.142 734.072 303.142 734.072 342.075 693.677 342.075Z" fill="#E9EBF5" fill-rule="evenodd"/><path d="M734.072 303.142 774.468 303.142 774.468 342.075 734.072 342.075Z" fill="#E9EBF5" fill-rule="evenodd"/><path d="M774.468 303.142 814.863 303.142 814.863 342.075 774.468 342.075Z" fill="#E9EBF5" fill-rule="evenodd"/><path d="M814.863 303.142 855.259 303.142 855.259 342.075 814.863 342.075Z" fill="#E9EBF5" fill-rule="evenodd"/><path d="M451.304 342.075 491.699 342.075 491.699 381.009 451.304 381.009Z" fill="#CFD5EA" fill-rule="evenodd"/><path d="M491.699 342.075 532.095 342.075 532.095 381.009 491.699 381.009Z" fill="#CFD5EA" fill-rule="evenodd"/><path d="M532.095 342.075 572.49 342.075 572.49 381.009 532.095 381.009Z" fill="#CFD5EA" fill-rule="evenodd"/><path d="M572.49 342.075 612.886 342.075 612.886 381.009 572.49 381.009Z" fill="#CFD5EA" fill-rule="evenodd"/><path d="M612.886 342.075 653.281 342.075 653.281 381.009 612.886 381.009Z" fill="#CFD5EA" fill-rule="evenodd"/><path d="M653.281 342.075 693.677 342.075 693.677 381.009 653.281 381.009Z" fill="#CFD5EA" fill-rule="evenodd"/><path d="M693.677 342.075 734.072 342.075 734.072 381.009 693.677 381.009Z" fill="#CFD5EA" fill-rule="evenodd"/><path d="M734.072 342.075 774.468 342.075 774.468 381.009 734.072 381.009Z" fill="#CFD5EA" fill-rule="evenodd"/><path d="M774.468 342.075 814.863 342.075 814.863 381.009 774.468 381.009Z" fill="#CFD5EA" fill-rule="evenodd"/><path d="M814.863 342.075 855.259 342.075 855.259 381.009 814.863 381.009Z" fill="#CFD5EA" fill-rule="evenodd"/><path d="M451.304 381.009 491.699 381.009 491.699 419.942 451.304 419.942Z" fill="#E9EBF5" fill-rule="evenodd"/><path d="M491.699 381.009 532.095 381.009 532.095 419.942 491.699 419.942Z" fill="#E9EBF5" fill-rule="evenodd"/><path d="M532.095 381.009 572.49 381.009 572.49 419.942 532.095 419.942Z" fill="#E9EBF5" fill-rule="evenodd"/><path d="M572.49 381.009 612.886 381.009 612.886 419.942 572.49 419.942Z" fill="#E9EBF5" fill-rule="evenodd"/><path d="M612.886 381.009 653.281 381.009 653.281 419.942 612.886 419.942Z" fill="#E9EBF5" fill-rule="evenodd"/><path d="M653.281 381.009 693.677 381.009 693.677 419.942 653.281 419.942Z" fill="#E9EBF5" fill-rule="evenodd"/><path d="M693.677 381.009 734.072 381.009 734.072 419.942 693.677 419.942Z" fill="#E9EBF5" fill-rule="evenodd"/><path d="M734.072 381.009 774.468 381.009 774.468 419.942 734.072 419.942Z" fill="#E9EBF5" fill-rule="evenodd"/><path d="M774.468 381.009 814.863 381.009 814.863 419.942 774.468 419.942Z" fill="#E9EBF5" fill-rule="evenodd"/><path d="M814.863 381.009 855.259 381.009 855.259 419.942 814.863 419.942Z" fill="#E9EBF5" fill-rule="evenodd"/><path d="M451.304 419.942 491.699 419.942 491.699 458.875 451.304 458.875Z" fill="#CFD5EA" fill-rule="evenodd"/><path d="M491.699 419.942 532.095 419.942 532.095 458.875 491.699 458.875Z" fill="#CFD5EA" fill-rule="evenodd"/><path d="M532.095 419.942 572.49 419.942 572.49 458.875 532.095 458.875Z" fill="#CFD5EA" fill-rule="evenodd"/><path d="M572.49 419.942 612.886 419.942 612.886 458.875 572.49 458.875Z" fill="#CFD5EA" fill-rule="evenodd"/><path d="M612.886 419.942 653.281 419.942 653.281 458.875 612.886 458.875Z" fill="#CFD5EA" fill-rule="evenodd"/><path d="M653.281 419.942 693.677 419.942 693.677 458.875 653.281 458.875Z" fill="#CFD5EA" fill-rule="evenodd"/><path d="M693.677 419.942 734.072 419.942 734.072 458.875 693.677 458.875Z" fill="#CFD5EA" fill-rule="evenodd"/><path d="M734.072 419.942 774.468 419.942 774.468 458.875 734.072 458.875Z" fill="#CFD5EA" fill-rule="evenodd"/><path d="M774.468 419.942 814.863 419.942 814.863 458.875 774.468 458.875Z" fill="#CFD5EA" fill-rule="evenodd"/><path d="M814.863 419.942 855.259 419.942 855.259 458.875 814.863 458.875Z" fill="#CFD5EA" fill-rule="evenodd"/><path d="M451.304 458.875 491.699 458.875 491.699 497.809 451.304 497.809Z" fill="#E9EBF5" fill-rule="evenodd"/><path d="M491.699 458.875 532.095 458.875 532.095 497.809 491.699 497.809Z" fill="#E9EBF5" fill-rule="evenodd"/><path d="M532.095 458.875 572.49 458.875 572.49 497.809 532.095 497.809Z" fill="#E9EBF5" fill-rule="evenodd"/><path d="M572.49 458.875 612.886 458.875 612.886 497.809 572.49 497.809Z" fill="#E9EBF5" fill-rule="evenodd"/><path d="M612.886 458.875 653.281 458.875 653.281 497.809 612.886 497.809Z" fill="#E9EBF5" fill-rule="evenodd"/><path d="M653.281 458.875 693.677 458.875 693.677 497.809 653.281 497.809Z" fill="#E9EBF5" fill-rule="evenodd"/><path d="M693.677 458.875 734.072 458.875 734.072 497.809 693.677 497.809Z" fill="#E9EBF5" fill-rule="evenodd"/><path d="M734.072 458.875 774.468 458.875 774.468 497.809 734.072 497.809Z" fill="#E9EBF5" fill-rule="evenodd"/><path d="M774.468 458.875 814.863 458.875 814.863 497.809 774.468 497.809Z" fill="#E9EBF5" fill-rule="evenodd"/><path d="M814.863 458.875 855.259 458.875 855.259 497.809 814.863 497.809Z" fill="#E9EBF5" fill-rule="evenodd"/><path d="M451.304 497.809 491.699 497.809 491.699 536.742 451.304 536.742Z" fill="#CFD5EA" fill-rule="evenodd"/><path d="M491.699 497.809 532.095 497.809 532.095 536.742 491.699 536.742Z" fill="#CFD5EA" fill-rule="evenodd"/><path d="M532.095 497.809 572.49 497.809 572.49 536.742 532.095 536.742Z" fill="#CFD5EA" fill-rule="evenodd"/><path d="M572.49 497.809 612.886 497.809 612.886 536.742 572.49 536.742Z" fill="#CFD5EA" fill-rule="evenodd"/><path d="M612.886 497.809 653.281 497.809 653.281 536.742 612.886 536.742Z" fill="#CFD5EA" fill-rule="evenodd"/><path d="M653.281 497.809 693.677 497.809 693.677 536.742 653.281 536.742Z" fill="#CFD5EA" fill-rule="evenodd"/><path d="M693.677 497.809 734.072 497.809 734.072 536.742 693.677 536.742Z" fill="#CFD5EA" fill-rule="evenodd"/><path d="M734.072 497.809 774.468 497.809 774.468 536.742 734.072 536.742Z" fill="#CFD5EA" fill-rule="evenodd"/><path d="M774.468 497.809 814.863 497.809 814.863 536.742 774.468 536.742Z" fill="#CFD5EA" fill-rule="evenodd"/><path d="M814.863 497.809 855.259 497.809 855.259 536.742 814.863 536.742Z" fill="#CFD5EA" fill-rule="evenodd"/><path d="M491.699 224.609 491.699 537.409" stroke="#FFFFFF" stroke-width="1.33333" stroke-linejoin="round" stroke-miterlimit="10" fill="none" fill-rule="evenodd"/><path d="M532.095 224.609 532.095 537.409" stroke="#FFFFFF" stroke-width="1.33333" stroke-linejoin="round" stroke-miterlimit="10" fill="none" fill-rule="evenodd"/><path d="M572.49 224.609 572.49 537.409" stroke="#FFFFFF" stroke-width="1.33333" stroke-linejoin="round" stroke-miterlimit="10" fill="none" fill-rule="evenodd"/><path d="M612.886 224.609 612.886 537.409" stroke="#FFFFFF" stroke-width="1.33333" stroke-linejoin="round" stroke-miterlimit="10" fill="none" fill-rule="evenodd"/><path d="M653.281 224.609 653.281 537.409" stroke="#FFFFFF" stroke-width="1.33333" stroke-linejoin="round" stroke-miterlimit="10" fill="none" fill-rule="evenodd"/><path d="M693.677 224.609 693.677 537.409" stroke="#FFFFFF" stroke-width="1.33333" stroke-linejoin="round" stroke-miterlimit="10" fill="none" fill-rule="evenodd"/><path d="M734.072 224.609 734.072 537.409" stroke="#FFFFFF" stroke-width="1.33333" stroke-linejoin="round" stroke-miterlimit="10" fill="none" fill-rule="evenodd"/><path d="M774.468 224.609 774.468 537.409" stroke="#FFFFFF" stroke-width="1.33333" stroke-linejoin="round" stroke-miterlimit="10" fill="none" fill-rule="evenodd"/><path d="M814.863 224.609 814.863 537.409" stroke="#FFFFFF" stroke-width="1.33333" stroke-linejoin="round" stroke-miterlimit="10" fill="none" fill-rule="evenodd"/><path d="M450.637 264.209 855.925 264.209" stroke="#FFFFFF" stroke-width="4" stroke-linejoin="round" stroke-miterlimit="10" fill="none" fill-rule="evenodd"/><path d="M450.637 303.142 855.925 303.142" stroke="#FFFFFF" stroke-width="1.33333" stroke-linejoin="round" stroke-miterlimit="10" fill="none" fill-rule="evenodd"/><path d="M450.637 342.075 855.925 342.075" stroke="#FFFFFF" stroke-width="1.33333" stroke-linejoin="round" stroke-miterlimit="10" fill="none" fill-rule="evenodd"/><path d="M450.637 381.009 855.925 381.009" stroke="#FFFFFF" stroke-width="1.33333" stroke-linejoin="round" stroke-miterlimit="10" fill="none" fill-rule="evenodd"/><path d="M450.637 419.942 855.925 419.942" stroke="#FFFFFF" stroke-width="1.33333" stroke-linejoin="round" stroke-miterlimit="10" fill="none" fill-rule="evenodd"/><path d="M450.637 458.875 855.925 458.875" stroke="#FFFFFF" stroke-width="1.33333" stroke-linejoin="round" stroke-miterlimit="10" fill="none" fill-rule="evenodd"/><path d="M450.637 497.809 855.925 497.809" stroke="#FFFFFF" stroke-width="1.33333" stroke-linejoin="round" stroke-miterlimit="10" fill="none" fill-rule="evenodd"/><path d="M451.304 224.609 451.304 537.409" stroke="#FFFFFF" stroke-width="1.33333" stroke-linejoin="round" stroke-miterlimit="10" fill="none" fill-rule="evenodd"/><path d="M855.259 224.609 855.259 537.409" stroke="#FFFFFF" stroke-width="1.33333" stroke-linejoin="round" stroke-miterlimit="10" fill="none" fill-rule="evenodd"/><path d="M450.637 225.275 855.925 225.275" stroke="#FFFFFF" stroke-width="1.33333" stroke-linejoin="round" stroke-miterlimit="10" fill="none" fill-rule="evenodd"/><path d="M450.637 536.742 855.925 536.742" stroke="#FFFFFF" stroke-width="1.33333" stroke-linejoin="round" stroke-miterlimit="10" fill="none" fill-rule="evenodd"/><path d="M363.5 381.5 379.5 365.5 379.5 373.5 410.5 373.5 410.5 365.5 426.5 381.5 410.5 397.5 410.5 389.5 379.5 389.5 379.5 397.5Z" stroke="#2F528F" stroke-width="1.33333" stroke-miterlimit="8" fill="#4472C4" fill-rule="evenodd"/><path d="M875.5 381 891 365.5 891 373.25 923 373.25 923 365.5 938.5 381 923 396.5 923 388.75 891 388.75 891 396.5Z" stroke="#2F528F" stroke-width="1.33333" stroke-miterlimit="8" fill="#4472C4" fill-rule="evenodd"/><path d="M1014.5 307.667C1014.5 285.483 1051.88 267.5 1098 267.5 1144.12 267.5 1181.5 285.483 1181.5 307.667L1181.5 468.333C1181.5 490.517 1144.12 508.5 1098 508.5 1051.88 508.5 1014.5 490.517 1014.5 468.333Z" fill="#4472C4" fill-rule="evenodd"/><path d="M1181.5 307.667C1181.5 329.85 1144.12 347.833 1098 347.833 1051.88 347.833 1014.5 329.85 1014.5 307.667" stroke="#2F528F" stroke-width="1.33333" stroke-miterlimit="8" fill="none" fill-rule="evenodd"/><path d="M1014.5 307.667C1014.5 285.483 1051.88 267.5 1098 267.5 1144.12 267.5 1181.5 285.483 1181.5 307.667L1181.5 468.333C1181.5 490.517 1144.12 508.5 1098 508.5 1051.88 508.5 1014.5 490.517 1014.5 468.333Z" stroke="#2F528F" stroke-width="1.33333" stroke-miterlimit="8" fill="none" fill-rule="evenodd"/></g></svg>