<svg width="1280" height="720" xmlns="http://www.w3.org/2000/svg" xmlns:xlink="http://www.w3.org/1999/xlink" overflow="hidden"><defs><filter id="fx0" x="-10%" y="-10%" width="120%" height="120%" filterUnits="userSpaceOnUse" primitiveUnits="userSpaceOnUse"><feComponentTransfer color-interpolation-filters="sRGB"><feFuncR type="discrete" tableValues="0.431373 0.431373"/><feFuncG type="discrete" tableValues="0.454902 0.454902"/><feFuncB type="discrete" tableValues="0.478431 0.478431"/><feFuncA type="linear" slope="0.431373" intercept="0"/></feComponentTransfer><feGaussianBlur stdDeviation="0.723123 0.723123"/></filter><filter id="fx1" x="-10%" y="-10%" width="120%" height="120%" filterUnits="userSpaceOnUse" primitiveUnits="userSpaceOnUse"><feComponentTransfer color-interpolation-filters="sRGB"><feFuncR type="discrete" tableValues="0.431373 0.431373"/><feFuncG type="discrete" tableValues="0.454902 0.454902"/><feFuncB type="discrete" tableValues="0.478431 0.478431"/><feFuncA type="linear" slope="0.431373" intercept="0"/></feComponentTransfer><feGaussianBlur stdDeviation="0.723123 0.723123"/></filter><filter id="fx2" x="-10%" y="-10%" width="120%" height="120%" filterUnits="userSpaceOnUse" primitiveUnits="userSpaceOnUse"><feComponentTransfer color-interpolation-filters="sRGB"><feFuncR type="discrete" tableValues="0.431373 0.431373"/><feFuncG type="discrete" tableValues="0.454902 0.454902"/><feFuncB type="discrete" tableValues="0.478431 0.478431"/><feFuncA type="linear" slope="0.431373" intercept="0"/></feComponentTransfer><feGaussianBlur stdDeviation="0.723123 0.723123"/></filter><filter id="fx3" x="-10%" y="-10%" width="120%" height="120%" filterUnits="userSpaceOnUse" primitiveUnits="userSpaceOnUse"><feComponentTransfer color-interpolation-filters="sRGB"><feFuncR type="discrete" tableValues="0.431373 0.431373"/><feFuncG type="discrete" tableValues="0.454902 0.454902"/><feFuncB type="discrete" tableValues="0.478431 0.478431"/><feFuncA type="linear" slope="0.431373" intercept="0"/></feComponentTransfer><feGaussianBlur stdDeviation="0.723123 0.723123"/></filter><filter id="fx4" x="-10%" y="-10%" width="120%" height="120%" filterUnits="userSpaceOnUse" primitiveUnits="userSpaceOnUse"><feComponentTransfer color-interpolation-filters="sRGB"><feFuncR type="discrete" tableValues="0.431373 0.431373"/><feFuncG type="discrete" tableValues="0.454902 0.454902"/><feFuncB type="discrete" tableValues="0.478431 0.478431"/><feFuncA type="linear" slope="0.431373" intercept="0"/></feComponentTransfer><feGaussianBlur stdDeviation="0.723123 0.723123"/></filter><filter id="fx5" x="-10%" y="-10%" width="120%" height="120%" filterUnits="userSpaceOnUse" primitiveUnits="userSpaceOnUse"><feComponentTransfer color-interpolation-filters="sRGB"><feFuncR type="discrete" tableValues="0.431373 0.431373"/><feFuncG type="discrete" tableValues="0.454902 0.454902"/><feFuncB type="discrete" tableValues="0.478431 0.478431"/><feFuncA type="linear" slope="0.431373" intercept="0"/></feComponentTransfer><feGaussianBlur stdDeviation="0.723123 0.723123"/></filter><filter id="fx6" x="-10%" y="-10%" width="120%" height="120%" filterUnits="userSpaceOnUse" primitiveUnits="userSpaceOnUse"><feComponentTransfer color-interpolation-filters="sRGB"><feFuncR type="discrete" tableValues="0.431373 0.431373"/><feFuncG type="discrete" tableValues="0.454902 0.454902"/><feFuncB type="discrete" tableValues="0.478431 0.478431"/><feFuncA type="linear" slope="0.431373" intercept="0"/></feComponentTransfer><feGaussianBlur stdDeviation="0.723123 0.723123"/></filter><filter id="fx7" x="-10%" y="-10%" width="120%" height="120%" filterUnits="userSpaceOnUse" primitiveUnits="userSpaceOnUse"><feComponentTransfer color-interpolation-filters="sRGB"><feFuncR type="discrete" tableValues="0.431373 0.431373"/><feFuncG type="discrete" tableValues="0.454902 0.454902"/><feFuncB type="discrete" tableValues="0.478431 0.478431"/><feFuncA type="linear" slope="0.431373" intercept="0"/></feComponentTransfer><feGaussianBlur stdDeviation="0.723123 0.723123"/></filter><filter id="fx8" x="-10%" y="-10%" width="120%" height="120%" filterUnits="userSpaceOnUse" primitiveUnits="userSpaceOnUse"><feComponentTransfer color-interpolation-filters="sRGB"><feFuncR type="discrete" tableValues="0.431373 0.431373"/><feFuncG type="discrete" tableValues="0.454902 0.454902"/><feFuncB type="discrete" tableValues="0.478431 0.478431"/><feFuncA type="linear" slope="0.431373" intercept="0"/></feComponentTransfer><feGaussianBlur stdDeviation="0.723123 0.723123"/></filter><filter id="fx9" x="-10%" y="-10%" width="120%" height="120%" filterUnits="userSpaceOnUse" primitiveUnits="userSpaceOnUse"><feComponentTransfer color-interpolation-filters="sRGB"><feFuncR type="discrete" tableValues="0.431373 0.431373"/><feFuncG type="discrete" tableValues="0.454902 0.454902"/><feFuncB type="discrete" tableValues="0.478431 0.478431"/><feFuncA type="linear" slope="0.431373" intercept="0"/></feComponentTransfer><feGaussianBlur stdDeviation="0.723123 0.723123"/></filter><filter id="fx10" x="-10%" y="-10%" width="120%" height="120%" filterUnits="userSpaceOnUse" primitiveUnits="userSpaceOnUse"><feComponentTransfer color-interpolation-filters="sRGB"><feFuncR type="discrete" tableValues="0.431373 0.431373"/><feFuncG type="discrete" tableValues="0.454902 0.454902"/><feFuncB type="discrete" tableValues="0.478431 0.478431"/><feFuncA type="linear" slope="0.431373" intercept="0"/></feComponentTransfer><feGaussianBlur stdDeviation="0.723123 0.723123"/></filter><filter id="fx11" x="-10%" y="-10%" width="120%" height="120%" filterUnits="userSpaceOnUse" primitiveUnits="userSpaceOnUse"><feComponentTransfer color-interpolation-filters="sRGB"><feFuncR type="discrete" tableValues="0.431373 0.431373"/><feFuncG type="discrete" tableValues="0.454902 0.454902"/><feFuncB type="discrete" tableValues="0.478431 0.478431"/><feFuncA type="linear" slope="0.431373" intercept="0"/></feComponentTransfer><feGaussianBlur stdDeviation="0.723123 0.723123"/></filter><filter id="fx12" x="-10%" y="-10%" width="120%" height="120%" filterUnits="userSpaceOnUse" primitiveUnits="userSpaceOnUse"><feComponentTransfer color-interpolation-filters="sRGB"><feFuncR type="discrete" tableValues="0.431373 0.431373"/><feFuncG type="discrete" tableValues="0.454902 0.454902"/><feFuncB type="discrete" tableValues="0.478431 0.478431"/><feFuncA type="linear" slope="0.431373" intercept="0"/></feComponentTransfer><feGaussianBlur stdDeviation="0.723123 0.723123"/></filter><filter id="fx13" x="-10%" y="-10%" width="120%" height="120%" filterUnits="userSpaceOnUse" primitiveUnits="userSpaceOnUse"><feComponentTransfer color-interpolation-filters="sRGB"><feFuncR type="discrete" tableValues="0.431373 0.431373"/><feFuncG type="discrete" tableValues="0.454902 0.454902"/><feFuncB type="discrete" tableValues="0.478431 0.478431"/><feFuncA type="linear" slope="0.431373" intercept="0"/></feComponentTransfer><feGaussianBlur stdDeviation="0.723123 0.723123"/></filter><filter id="fx14" x="-10%" y="-10%" width="120%" height="120%" filterUnits="userSpaceOnUse" primitiveUnits="userSpaceOnUse"><feComponentTransfer color-interpolation-filters="sRGB"><feFuncR type="discrete" tableValues="0.431373 0.431373"/><feFuncG type="discrete" tableValues="0.454902 0.454902"/><feFuncB type="discrete" tableValues="0.478431 0.478431"/><feFuncA type="linear" slope="0.431373" intercept="0"/></feComponentTransfer><feGaussianBlur stdDeviation="0.723123 0.723123"/></filter><filter id="fx15" x="-10%" y="-10%" width="120%" height="120%" filterUnits="userSpaceOnUse" primitiveUnits="userSpaceOnUse"><feComponentTransfer color-interpolation-filters="sRGB"><feFuncR type="discrete" tableValues="0.431373 0.431373"/><feFuncG type="discrete" tableValues="0.454902 0.454902"/><feFuncB type="discrete" tableValues="0.478431 0.478431"/><feFuncA type="linear" slope="0.431373" intercept="0"/></feComponentTransfer><feGaussianBlur stdDeviation="0.723123 0.723123"/></filter><filter id="fx16" x="-10%" y="-10%" width="120%" height="120%" filterUnits="userSpaceOnUse" primitiveUnits="userSpaceOnUse"><feComponentTransfer color-interpolation-filters="sRGB"><feFuncR type="discrete" tableValues="0.431373 0.431373"/><feFuncG type="discrete" tableValues="0.454902 0.454902"/><feFuncB type="discrete" tableValues="0.478431 0.478431"/><feFuncA type="linear" slope="0.431373" intercept="0"/></feComponentTransfer><feGaussianBlur stdDeviation="0.723123 0.723123"/></filter><filter id="fx17" x="-10%" y="-10%" width="120%" height="120%" filterUnits="userSpaceOnUse" primitiveUnits="userSpaceOnUse"><feComponentTransfer color-interpolation-filters="sRGB"><feFuncR type="discrete" tableValues="0.431373 0.431373"/><feFuncG type="discrete" tableValues="0.454902 0.454902"/><feFuncB type="discrete" tableValues="0.478431 0.478431"/><feFuncA type="linear" slope="0.431373" intercept="0"/></feComponentTransfer><feGaussianBlur stdDeviation="0.723123 0.723123"/></filter><filter id="fx18" x="-10%" y="-10%" width="120%" height="120%" filterUnits="userSpaceOnUse" primitiveUnits="userSpaceOnUse"><feComponentTransfer color-interpolation-filters="sRGB"><feFuncR type="discrete" tableValues="0.431373 0.431373"/><feFuncG type="discrete" tableValues="0.454902 0.454902"/><feFuncB type="discrete" tableValues="0.478431 0.478431"/><feFuncA type="linear" slope="0.431373" intercept="0"/></feComponentTransfer><feGaussianBlur stdDeviation="0.723123 0.723123"/></filter><filter id="fx19" x="-10%" y="-10%" width="120%" height="120%" filterUnits="userSpaceOnUse" primitiveUnits="userSpaceOnUse"><feComponentTransfer color-interpolation-filters="sRGB"><feFuncR type="discrete" tableValues="0.431373 0.431373"/><feFuncG type="discrete" tableValues="0.454902 0.454902"/><feFuncB type="discrete" tableValues="0.478431 0.478431"/><feFuncA type="linear" slope="0.431373" intercept="0"/></feComponentTransfer><feGaussianBlur stdDeviation="0.723123 0.723123"/></filter><filter id="fx20" x="-10%" y="-10%" width="120%" height="120%" filterUnits="userSpaceOnUse" primitiveUnits="userSpaceOnUse"><feComponentTransfer color-interpolation-filters="sRGB"><feFuncR type="discrete" tableValues="0.431373 0.431373"/><feFuncG type="discrete" tableValues="0.454902 0.454902"/><feFuncB type="discrete" tableValues="0.478431 0.478431"/><feFuncA type="linear" slope="0.431373" intercept="0"/></feComponentTransfer><feGaussianBlur stdDeviation="0.723123 0.723123"/></filter><clipPath id="clip21"><rect x="0" y="0" width="1280" height="720"/></clipPath><clipPath id="clip22"><rect x="25" y="23" width="48" height="31"/></clipPath><clipPath id="clip23"><rect x="0" y="0" width="98" height="87"/></clipPath><clipPath id="clip24"><rect x="24" y="23" width="23" height="31"/></clipPath><clipPath id="clip25"><rect x="0" y="0" width="72" height="87"/></clipPath><clipPath id="clip26"><rect x="26" y="23" width="51" height="31"/></clipPath><clipPath id="clip27"><rect x="0" y="0" width="103" height="87"/></clipPath><clipPath id="clip28"><rect x="26" y="34" width="28" height="9"/></clipPath><clipPath id="clip29"><rect x="0" y="0" width="80" height="87"/></clipPath><clipPath id="clip30"><rect x="25" y="23" width="23" height="31"/></clipPath><clipPath id="clip31"><rect x="0" y="0" width="72" height="87"/></clipPath><clipPath id="clip32"><rect x="25" y="23" width="82" height="31"/></clipPath><clipPath id="clip33"><rect x="0" y="0" width="132" height="87"/></clipPath><clipPath id="clip34"><rect x="25" y="34" width="28" height="9"/></clipPath><clipPath id="clip35"><rect x="0" y="0" width="99" height="87"/></clipPath><clipPath id="clip36"><rect x="25" y="23" width="23" height="31"/></clipPath><clipPath id="clip37"><rect x="0" y="0" width="73" height="87"/></clipPath><clipPath id="clip38"><rect x="26" y="23" width="21" height="31"/></clipPath><clipPath id="clip39"><rect x="0" y="0" width="73" height="87"/></clipPath><clipPath id="clip40"><rect x="26" y="23" width="21" height="31"/></clipPath><clipPath id="clip41"><rect x="0" y="0" width="72" height="87"/></clipPath><clipPath id="clip42"><rect x="24" y="23" width="23" height="31"/></clipPath><clipPath id="clip43"><rect x="0" y="0" width="72" height="87"/></clipPath><clipPath id="clip44"><rect x="26" y="23" width="21" height="31"/></clipPath><clipPath id="clip45"><rect x="0" y="0" width="83" height="87"/></clipPath><clipPath id="clip46"><rect x="26" y="23" width="21" height="31"/></clipPath><clipPath id="clip47"><rect x="0" y="0" width="83" height="87"/></clipPath><clipPath id="clip48"><rect x="25" y="23" width="23" height="31"/></clipPath><clipPath id="clip49"><rect x="0" y="0" width="73" height="87"/></clipPath><clipPath id="clip50"><rect x="26" y="23" width="21" height="31"/></clipPath><clipPath id="clip51"><rect x="0" y="0" width="73" height="87"/></clipPath><clipPath id="clip52"><rect x="25" y="23" width="48" height="31"/></clipPath><clipPath id="clip53"><rect x="0" y="0" width="99" height="87"/></clipPath><clipPath id="clip54"><rect x="25" y="23" width="23" height="31"/></clipPath><clipPath id="clip55"><rect x="0" y="0" width="73" height="87"/></clipPath><clipPath id="clip56"><rect x="26" y="23" width="51" height="31"/></clipPath><clipPath id="clip57"><rect x="0" y="0" width="78" height="87"/></clipPath><clipPath id="clip58"><rect x="26" y="34" width="27" height="9"/></clipPath><clipPath id="clip59"><rect x="0" y="0" width="79" height="86"/></clipPath><clipPath id="clip60"><rect x="24" y="23" width="23" height="31"/></clipPath><clipPath id="clip61"><rect x="0" y="0" width="72" height="86"/></clipPath><clipPath id="clip62"><rect x="26" y="23" width="82" height="31"/></clipPath><clipPath id="clip63"><rect x="0" y="0" width="115" height="86"/></clipPath></defs><g clip-path="url(#clip21)"><rect x="0" y="0" width="1280" height="720" fill="#FFFFFF"/><path d="M481.752 381.35 261.928 507.253 258.025 253.957Z" stroke="#000000" stroke-width="1.33333" stroke-miterlimit="8" fill="#FFFFFF" fill-rule="evenodd"/><text font-family="DengXian,DengXian_MSFontService,sans-serif" font-weight="700" font-size="48" transform="translate(280.443 387)">Mux</text><g clip-path="url(#clip22)" filter="url(#fx0)" transform="translate(94 245)"><g clip-path="url(#clip23)"><path d="M20.7041-10.3521 20.7041-13.4775 23.3057-13.4775 23.3057-10.3521ZM11.6348-10.3521 11.6348-13.4775 14.2183-13.4775 14.2183-10.3521ZM2.56543-10.3521 2.56543-13.4775 5.16699-13.4775 5.16699-10.3521ZM28.967 1.44531 28.967-0.487793 35.4709-0.487793 35.4709-21.6436 29.6535-17.7773 29.6535-19.855 35.7238-24.0103 37.7292-24.0103 37.7292-0.487793 43.2756-0.487793 43.2756 1.44531Z" fill="#4472C4" transform="translate(26.0016 50)"/></g></g><text fill="#4472C4" font-family="DengXian,DengXian_MSFontService,sans-serif" font-weight="400" font-size="37" transform="translate(120.002 294)">…1</text><g clip-path="url(#clip24)" filter="url(#fx1)" transform="translate(150 245)"><g clip-path="url(#clip25)"><path d="M17.958-11.2915C17.958-7.03988 17.2715-3.79395 15.8984-1.55371 14.5254 0.686523 12.4959 1.80664 9.81006 1.80664 7.14827 1.80664 5.13989 0.710612 3.78491-1.48145 2.42993-3.6735 1.75244-6.94352 1.75244-11.2915 1.75244-15.7118 2.41187-18.9998 3.73071-21.1558 5.04956-23.3117 7.11816-24.3896 9.93652-24.3896 12.6465-24.3896 14.6609-23.3057 15.9797-21.1377 17.2986-18.9697 17.958-15.6877 17.958-11.2915ZM15.6455-11.2915C15.6455-15.1818 15.1969-18.0182 14.2996-19.8008 13.4023-21.5833 11.9419-22.4746 9.91846-22.4746 7.82275-22.4746 6.32023-21.5803 5.41089-19.7917 4.50155-18.0032 4.04688-15.1698 4.04688-11.2915 4.04688-7.49756 4.5166-4.68823 5.45605-2.86353 6.39551-1.03882 7.85889-0.126465 9.84619-0.126465 11.8215-0.126465 13.2818-1.06291 14.2273-2.93579 15.1728-4.80867 15.6455-7.59391 15.6455-11.2915Z" fill="#4472C4" transform="translate(26.0016 50)"/></g></g><text fill="#4472C4" font-family="DengXian,DengXian_MSFontService,sans-serif" font-weight="400" font-size="37" transform="translate(176.002 294)">0</text><g clip-path="url(#clip26)" filter="url(#fx2)" transform="translate(179 245)"><g clip-path="url(#clip27)"><path d="M2.80029 1.44531 2.80029-0.487793 9.3042-0.487793 9.3042-21.6436 3.48682-17.7773 3.48682-19.855 9.55713-24.0103 11.5625-24.0103 11.5625-0.487793 17.1089-0.487793 17.1089 1.44531ZM32.6336 1.44531 32.6336-0.487793 39.1375-0.487793 39.1375-21.6436 33.3202-17.7773 33.3202-19.855 39.3905-24.0103 41.3958-24.0103 41.3958-0.487793 46.9422-0.487793 46.9422 1.44531Z" fill="#4472C4" transform="translate(26.8349 50)"/></g></g><text fill="#4472C4" font-family="DengXian,DengXian_MSFontService,sans-serif" font-weight="400" font-size="37" transform="translate(205.835 294)">1 1</text><text font-family="DengXian,DengXian_MSFontService,sans-serif" font-weight="700" font-size="37" transform="translate(334.933 573)">0</text><text font-family="DengXian,DengXian_MSFontService,sans-serif" font-weight="700" font-size="37" transform="translate(334.933 618)">1</text><text font-family="DengXian,DengXian_MSFontService,sans-serif" font-weight="700" font-size="37" transform="translate(334.933 662)">0</text><text font-family="DengXian,DengXian_MSFontService,sans-serif" font-weight="700" font-size="37" transform="translate(334.933 707)">1</text><path d="M1144.5 508.5 925.5 379.5 1144.5 250.5Z" stroke="#000000" stroke-width="1.33333" stroke-miterlimit="8" fill="#FFFFFF" fill-rule="evenodd"/><text font-family="DengXian,DengXian_MSFontService,sans-serif" font-weight="700" font-size="48" transform="translate(988.936 391)">DMux</text><path d="M0.666667-9.55292e-07 0.666762 66.6002-0.666571 66.6002-0.666667 9.55292e-07ZM4.00009 65.2669 0.000104987 73.2669-3.99991 65.2669Z" transform="matrix(1 0 0 -1 345.5 529.767)"/><g clip-path="url(#clip28)" filter="url(#fx3)" transform="translate(81 390)"><g clip-path="url(#clip29)"><path d="M20.7041-10.3521 20.7041-13.4775 23.3057-13.4775 23.3057-10.3521ZM11.6348-10.3521 11.6348-13.4775 14.2183-13.4775 14.2183-10.3521ZM2.56543-10.3521 2.56543-13.4775 5.16699-13.4775 5.16699-10.3521Z" fill="#FF0000" transform="translate(26.9241 50)"/></g></g><text fill="#FF0000" font-family="DengXian,DengXian_MSFontService,sans-serif" font-weight="400" font-size="37" transform="translate(107.924 439)">…</text><g clip-path="url(#clip30)" filter="url(#fx4)" transform="translate(118 390)"><g clip-path="url(#clip31)"><path d="M17.958-11.2915C17.958-7.03988 17.2715-3.79395 15.8984-1.55371 14.5254 0.686523 12.4959 1.80664 9.81006 1.80664 7.14827 1.80664 5.13989 0.710612 3.78491-1.48145 2.42993-3.6735 1.75244-6.94352 1.75244-11.2915 1.75244-15.7118 2.41187-18.9998 3.73071-21.1558 5.04956-23.3117 7.11816-24.3896 9.93652-24.3896 12.6465-24.3896 14.6609-23.3057 15.9797-21.1377 17.2986-18.9697 17.958-15.6877 17.958-11.2915ZM15.6455-11.2915C15.6455-15.1818 15.1969-18.0182 14.2996-19.8008 13.4023-21.5833 11.9419-22.4746 9.91846-22.4746 7.82275-22.4746 6.32023-21.5803 5.41089-19.7917 4.50155-18.0032 4.04688-15.1698 4.04688-11.2915 4.04688-7.49756 4.5166-4.68823 5.45605-2.86353 6.39551-1.03882 7.85889-0.126465 9.84619-0.126465 11.8215-0.126465 13.2818-1.06291 14.2273-2.93579 15.1728-4.80867 15.6455-7.59391 15.6455-11.2915Z" fill="#FF0000" transform="translate(26.2574 50)"/></g></g><text fill="#FF0000" font-family="DengXian,DengXian_MSFontService,sans-serif" font-weight="400" font-size="37" transform="translate(144.257 439)">0</text><g clip-path="url(#clip32)" filter="url(#fx5)" transform="translate(148 390)"><g clip-path="url(#clip33)"><path d="M2.80029 1.44531 2.80029-0.487793 9.3042-0.487793 9.3042-21.6436 3.48682-17.7773 3.48682-19.855 9.55713-24.0103 11.5625-24.0103 11.5625-0.487793 17.1089-0.487793 17.1089 1.44531ZM32.6336 1.44531 32.6336-0.487793 39.1375-0.487793 39.1375-21.6436 33.3202-17.7773 33.3202-19.855 39.3905-24.0103 41.3958-24.0103 41.3958-0.487793 46.9422-0.487793 46.9422 1.44531ZM77.6247-11.2915C77.6247-7.03988 76.9382-3.79395 75.5651-1.55371 74.1921 0.686523 72.1626 1.80664 69.4767 1.80664 66.8149 1.80664 64.8066 0.710612 63.4516-1.48145 62.0966-3.6735 61.4191-6.94352 61.4191-11.2915 61.4191-15.7118 62.0785-18.9998 63.3974-21.1558 64.7162-23.3117 66.7848-24.3896 69.6032-24.3896 72.3132-24.3896 74.3276-23.3057 75.6464-21.1377 76.9653-18.9697 77.6247-15.6877 77.6247-11.2915ZM75.3122-11.2915C75.3122-15.1818 74.8635-18.0182 73.9662-19.8008 73.0689-21.5833 71.6086-22.4746 69.5851-22.4746 67.4894-22.4746 65.9869-21.5803 65.0776-19.7917 64.1682-18.0032 63.7135-15.1698 63.7135-11.2915 63.7135-7.49756 64.1833-4.68823 65.1227-2.86353 66.0622-1.03882 67.5256-0.126465 69.5129-0.126465 71.4881-0.126465 72.9485-1.06291 73.894-2.93579 74.8394-4.80867 75.3122-7.59391 75.3122-11.2915Z" fill="#FF0000" transform="translate(26.0908 50)"/></g></g><text fill="#FF0000" font-family="DengXian,DengXian_MSFontService,sans-serif" font-weight="400" font-size="37" transform="translate(174.091 439)">1 1 0</text><path d="M123.5 455.833 257.197 455.833 257.197 457.167 123.5 457.167ZM255.864 452.5 263.864 456.5 255.864 460.5Z"/><path d="M123.5 310.833 256.833 310.833 256.833 312.167 123.5 312.167ZM255.5 307.5 263.5 311.5 255.5 315.5Z"/><path d="M480.5 379.167 919.366 379.167 919.366 379.833 480.5 379.833ZM918.033 375.5 926.033 379.5 918.033 383.5Z"/><g clip-path="url(#clip34)" filter="url(#fx6)" transform="translate(529 315)"><g clip-path="url(#clip35)"><path d="M20.7041-10.3521 20.7041-13.4775 23.3057-13.4775 23.3057-10.3521ZM11.6348-10.3521 11.6348-13.4775 14.2183-13.4775 14.2183-10.3521ZM2.56543-10.3521 2.56543-13.4775 5.16699-13.4775 5.16699-10.3521Z" fill="#4472C4" transform="translate(26.0151 50)"/></g></g><text fill="#4472C4" font-family="DengXian,DengXian_MSFontService,sans-serif" font-weight="400" font-size="37" transform="translate(555.015 364)">…</text><g clip-path="url(#clip36)" filter="url(#fx7)" transform="translate(575 315)"><g clip-path="url(#clip37)"><path d="M17.958-11.2915C17.958-7.03988 17.2715-3.79395 15.8984-1.55371 14.5254 0.686523 12.4959 1.80664 9.81006 1.80664 7.14827 1.80664 5.13989 0.710612 3.78491-1.48145 2.42993-3.6735 1.75244-6.94352 1.75244-11.2915 1.75244-15.7118 2.41187-18.9998 3.73071-21.1558 5.04956-23.3117 7.11816-24.3896 9.93652-24.3896 12.6465-24.3896 14.6609-23.3057 15.9797-21.1377 17.2986-18.9697 17.958-15.6877 17.958-11.2915ZM15.6455-11.2915C15.6455-15.1818 15.1969-18.0182 14.2996-19.8008 13.4023-21.5833 11.9419-22.4746 9.91846-22.4746 7.82275-22.4746 6.32023-21.5803 5.41089-19.7917 4.50155-18.0032 4.04688-15.1698 4.04688-11.2915 4.04688-7.49756 4.5166-4.68823 5.45605-2.86353 6.39551-1.03882 7.85889-0.126465 9.84619-0.126465 11.8215-0.126465 13.2818-1.06291 14.2273-2.93579 15.1728-4.80867 15.6455-7.59391 15.6455-11.2915Z" fill="#FF0000" transform="translate(26.5151 50)"/></g></g><text fill="#FF0000" font-family="DengXian,DengXian_MSFontService,sans-serif" font-weight="400" font-size="37" transform="translate(601.515 364)">0</text><g clip-path="url(#clip38)" filter="url(#fx8)" transform="translate(605 315)"><g clip-path="url(#clip39)"><path d="M2.80029 1.44531 2.80029-0.487793 9.3042-0.487793 9.3042-21.6436 3.48682-17.7773 3.48682-19.855 9.55713-24.0103 11.5625-24.0103 11.5625-0.487793 17.1089-0.487793 17.1089 1.44531Z" fill="#4472C4" transform="translate(26.3484 50)"/></g></g><text fill="#4472C4" font-family="DengXian,DengXian_MSFontService,sans-serif" font-weight="400" font-size="37" transform="translate(631.348 364)">1</text><g clip-path="url(#clip40)" filter="url(#fx9)" transform="translate(635 315)"><g clip-path="url(#clip41)"><path d="M2.80029 1.44531 2.80029-0.487793 9.3042-0.487793 9.3042-21.6436 3.48682-17.7773 3.48682-19.855 9.55713-24.0103 11.5625-24.0103 11.5625-0.487793 17.1089-0.487793 17.1089 1.44531Z" fill="#FF0000" transform="translate(26.1818 50)"/></g></g><text fill="#FF0000" font-family="DengXian,DengXian_MSFontService,sans-serif" font-weight="400" font-size="37" transform="translate(661.182 364)">1</text><g clip-path="url(#clip42)" filter="url(#fx10)" transform="translate(665 315)"><g clip-path="url(#clip43)"><path d="M17.958-11.2915C17.958-7.03988 17.2715-3.79395 15.8984-1.55371 14.5254 0.686523 12.4959 1.80664 9.81006 1.80664 7.14827 1.80664 5.13989 0.710612 3.78491-1.48145 2.42993-3.6735 1.75244-6.94352 1.75244-11.2915 1.75244-15.7118 2.41187-18.9998 3.73071-21.1558 5.04956-23.3117 7.11816-24.3896 9.93652-24.3896 12.6465-24.3896 14.6609-23.3057 15.9797-21.1377 17.2986-18.9697 17.958-15.6877 17.958-11.2915ZM15.6455-11.2915C15.6455-15.1818 15.1969-18.0182 14.2996-19.8008 13.4023-21.5833 11.9419-22.4746 9.91846-22.4746 7.82275-22.4746 6.32023-21.5803 5.41089-19.7917 4.50155-18.0032 4.04688-15.1698 4.04688-11.2915 4.04688-7.49756 4.5166-4.68823 5.45605-2.86353 6.39551-1.03882 7.85889-0.126465 9.84619-0.126465 11.8215-0.126465 13.2818-1.06291 14.2273-2.93579 15.1728-4.80867 15.6455-7.59391 15.6455-11.2915Z" fill="#4472C4" transform="translate(26.0151 50)"/></g></g><text fill="#4472C4" font-family="DengXian,DengXian_MSFontService,sans-serif" font-weight="400" font-size="37" transform="translate(691.015 364)">0</text><g clip-path="url(#clip44)" filter="url(#fx11)" transform="translate(694 315)"><g clip-path="url(#clip45)"><path d="M2.80029 1.44531 2.80029-0.487793 9.3042-0.487793 9.3042-21.6436 3.48682-17.7773 3.48682-19.855 9.55713-24.0103 11.5625-24.0103 11.5625-0.487793 17.1089-0.487793 17.1089 1.44531Z" fill="#FF0000" transform="translate(26.8484 50)"/></g></g><text fill="#FF0000" font-family="DengXian,DengXian_MSFontService,sans-serif" font-weight="400" font-size="37" transform="translate(720.848 364)">1</text><g clip-path="url(#clip46)" filter="url(#fx12)" transform="translate(724 315)"><g clip-path="url(#clip47)"><path d="M2.80029 1.44531 2.80029-0.487793 9.3042-0.487793 9.3042-21.6436 3.48682-17.7773 3.48682-19.855 9.55713-24.0103 11.5625-24.0103 11.5625-0.487793 17.1089-0.487793 17.1089 1.44531Z" fill="#4472C4" transform="translate(26.6818 50)"/></g></g><text fill="#4472C4" font-family="DengXian,DengXian_MSFontService,sans-serif" font-weight="400" font-size="37" transform="translate(750.682 364)">1</text><g clip-path="url(#clip48)" filter="url(#fx13)" transform="translate(754 315)"><g clip-path="url(#clip49)"><path d="M17.958-11.2915C17.958-7.03988 17.2715-3.79395 15.8984-1.55371 14.5254 0.686523 12.4959 1.80664 9.81006 1.80664 7.14827 1.80664 5.13989 0.710612 3.78491-1.48145 2.42993-3.6735 1.75244-6.94352 1.75244-11.2915 1.75244-15.7118 2.41187-18.9998 3.73071-21.1558 5.04956-23.3117 7.11816-24.3896 9.93652-24.3896 12.6465-24.3896 14.6609-23.3057 15.9797-21.1377 17.2986-18.9697 17.958-15.6877 17.958-11.2915ZM15.6455-11.2915C15.6455-15.1818 15.1969-18.0182 14.2996-19.8008 13.4023-21.5833 11.9419-22.4746 9.91846-22.4746 7.82275-22.4746 6.32023-21.5803 5.41089-19.7917 4.50155-18.0032 4.04688-15.1698 4.04688-11.2915 4.04688-7.49756 4.5166-4.68823 5.45605-2.86353 6.39551-1.03882 7.85889-0.126465 9.84619-0.126465 11.8215-0.126465 13.2818-1.06291 14.2273-2.93579 15.1728-4.80867 15.6455-7.59391 15.6455-11.2915Z" fill="#FF0000" transform="translate(26.5151 50)"/></g></g><text fill="#FF0000" font-family="DengXian,DengXian_MSFontService,sans-serif" font-weight="400" font-size="37" transform="translate(780.515 364)">0</text><g clip-path="url(#clip50)" filter="url(#fx14)" transform="translate(784 315)"><g clip-path="url(#clip51)"><path d="M2.80029 1.44531 2.80029-0.487793 9.3042-0.487793 9.3042-21.6436 3.48682-17.7773 3.48682-19.855 9.55713-24.0103 11.5625-24.0103 11.5625-0.487793 17.1089-0.487793 17.1089 1.44531Z" fill="#4472C4" transform="translate(26.3484 50)"/></g></g><text fill="#4472C4" font-family="DengXian,DengXian_MSFontService,sans-serif" font-weight="400" font-size="37" transform="translate(810.348 364)">1</text><path d="M1144.5 310.833 1277.83 310.833 1277.83 312.167 1144.5 312.167ZM1276.5 307.5 1284.5 311.5 1276.5 315.5Z"/><path d="M1143.5 455.833 1277.2 455.833 1277.2 457.167 1143.5 457.167ZM1275.86 452.5 1283.86 456.5 1275.86 460.5Z"/><g clip-path="url(#clip52)" filter="url(#fx15)" transform="translate(1119 245)"><g clip-path="url(#clip53)"><path d="M20.7041-10.3521 20.7041-13.4775 23.3057-13.4775 23.3057-10.3521ZM11.6348-10.3521 11.6348-13.4775 14.2183-13.4775 14.2183-10.3521ZM2.56543-10.3521 2.56543-13.4775 5.16699-13.4775 5.16699-10.3521ZM28.967 1.44531 28.967-0.487793 35.4709-0.487793 35.4709-21.6436 29.6535-17.7773 29.6535-19.855 35.7238-24.0103 37.7292-24.0103 37.7292-0.487793 43.2756-0.487793 43.2756 1.44531Z" fill="#4472C4" transform="translate(26.3456 50)"/></g></g><text fill="#4472C4" font-family="DengXian,DengXian_MSFontService,sans-serif" font-weight="400" font-size="37" transform="translate(1145.35 294)">…1</text><g clip-path="url(#clip54)" filter="url(#fx16)" transform="translate(1175 245)"><g clip-path="url(#clip55)"><path d="M17.958-11.2915C17.958-7.03988 17.2715-3.79395 15.8984-1.55371 14.5254 0.686523 12.4959 1.80664 9.81006 1.80664 7.14827 1.80664 5.13989 0.710612 3.78491-1.48145 2.42993-3.6735 1.75244-6.94352 1.75244-11.2915 1.75244-15.7118 2.41187-18.9998 3.73071-21.1558 5.04956-23.3117 7.11816-24.3896 9.93652-24.3896 12.6465-24.3896 14.6609-23.3057 15.9797-21.1377 17.2986-18.9697 17.958-15.6877 17.958-11.2915ZM15.6455-11.2915C15.6455-15.1818 15.1969-18.0182 14.2996-19.8008 13.4023-21.5833 11.9419-22.4746 9.91846-22.4746 7.82275-22.4746 6.32023-21.5803 5.41089-19.7917 4.50155-18.0032 4.04688-15.1698 4.04688-11.2915 4.04688-7.49756 4.5166-4.68823 5.45605-2.86353 6.39551-1.03882 7.85889-0.126465 9.84619-0.126465 11.8215-0.126465 13.2818-1.06291 14.2273-2.93579 15.1728-4.80867 15.6455-7.59391 15.6455-11.2915Z" fill="#4472C4" transform="translate(26.3456 50)"/></g></g><text fill="#4472C4" font-family="DengXian,DengXian_MSFontService,sans-serif" font-weight="400" font-size="37" transform="translate(1201.35 294)">0</text><g clip-path="url(#clip56)" filter="url(#fx17)" transform="translate(1205 245)"><g clip-path="url(#clip57)"><path d="M2.80029 1.44531 2.80029-0.487793 9.3042-0.487793 9.3042-21.6436 3.48682-17.7773 3.48682-19.855 9.55713-24.0103 11.5625-24.0103 11.5625-0.487793 17.1089-0.487793 17.1089 1.44531ZM32.6336 1.44531 32.6336-0.487793 39.1375-0.487793 39.1375-21.6436 33.3202-17.7773 33.3202-19.855 39.3905-24.0103 41.3958-24.0103 41.3958-0.487793 46.9422-0.487793 46.9422 1.44531Z" fill="#4472C4" transform="translate(26.179 50)"/></g></g><text fill="#4472C4" font-family="DengXian,DengXian_MSFontService,sans-serif" font-weight="400" font-size="37" transform="translate(1231.18 294)">1 1</text><g clip-path="url(#clip58)" filter="url(#fx18)" transform="translate(1102 395)"><g clip-path="url(#clip59)"><path d="M20.7041-10.3521 20.7041-13.4775 23.3057-13.4775 23.3057-10.3521ZM11.6348-10.3521 11.6348-13.4775 14.2183-13.4775 14.2183-10.3521ZM2.56543-10.3521 2.56543-13.4775 5.16699-13.4775 5.16699-10.3521Z" fill="#FF0000" transform="translate(26.6895 50)"/></g></g><text fill="#FF0000" font-family="DengXian,DengXian_MSFontService,sans-serif" font-weight="400" font-size="37" transform="translate(1128.69 443)">…</text><g clip-path="url(#clip60)" filter="url(#fx19)" transform="translate(1139 395)"><g clip-path="url(#clip61)"><path d="M17.958-11.2915C17.958-7.03988 17.2715-3.79395 15.8984-1.55371 14.5254 0.686523 12.4959 1.80664 9.81006 1.80664 7.14827 1.80664 5.13989 0.710612 3.78491-1.48145 2.42993-3.6735 1.75244-6.94352 1.75244-11.2915 1.75244-15.7118 2.41187-18.9998 3.73071-21.1558 5.04956-23.3117 7.11816-24.3896 9.93652-24.3896 12.6465-24.3896 14.6609-23.3057 15.9797-21.1377 17.2986-18.9697 17.958-15.6877 17.958-11.2915ZM15.6455-11.2915C15.6455-15.1818 15.1969-18.0182 14.2996-19.8008 13.4023-21.5833 11.9419-22.4746 9.91846-22.4746 7.82275-22.4746 6.32023-21.5803 5.41089-19.7917 4.50155-18.0032 4.04688-15.1698 4.04688-11.2915 4.04688-7.49756 4.5166-4.68823 5.45605-2.86353 6.39551-1.03882 7.85889-0.126465 9.84619-0.126465 11.8215-0.126465 13.2818-1.06291 14.2273-2.93579 15.1728-4.80867 15.6455-7.59391 15.6455-11.2915Z" fill="#FF0000" transform="translate(26.0228 50)"/></g></g><text fill="#FF0000" font-family="DengXian,DengXian_MSFontService,sans-serif" font-weight="400" font-size="37" transform="translate(1165.02 443)">0</text><g clip-path="url(#clip62)" filter="url(#fx20)" transform="translate(1168 395)"><g clip-path="url(#clip63)"><path d="M2.80029 1.44531 2.80029-0.487793 9.3042-0.487793 9.3042-21.6436 3.48682-17.7773 3.48682-19.855 9.55713-24.0103 11.5625-24.0103 11.5625-0.487793 17.1089-0.487793 17.1089 1.44531ZM32.6336 1.44531 32.6336-0.487793 39.1375-0.487793 39.1375-21.6436 33.3202-17.7773 33.3202-19.855 39.3905-24.0103 41.3958-24.0103 41.3958-0.487793 46.9422-0.487793 46.9422 1.44531ZM77.6247-11.2915C77.6247-7.03988 76.9382-3.79395 75.5651-1.55371 74.1921 0.686523 72.1626 1.80664 69.4767 1.80664 66.8149 1.80664 64.8066 0.710612 63.4516-1.48145 62.0966-3.6735 61.4191-6.94352 61.4191-11.2915 61.4191-15.7118 62.0785-18.9998 63.3974-21.1558 64.7162-23.3117 66.7848-24.3896 69.6032-24.3896 72.3132-24.3896 74.3276-23.3057 75.6464-21.1377 76.9653-18.9697 77.6247-15.6877 77.6247-11.2915ZM75.3122-11.2915C75.3122-15.1818 74.8635-18.0182 73.9662-19.8008 73.0689-21.5833 71.6086-22.4746 69.5851-22.4746 67.4894-22.4746 65.9869-21.5803 65.0776-19.7917 64.1682-18.0032 63.7135-15.1698 63.7135-11.2915 63.7135-7.49756 64.1833-4.68823 65.1227-2.86353 66.0622-1.03882 67.5256-0.126465 69.5129-0.126465 71.4881-0.126465 72.9485-1.06291 73.894-2.93579 74.8394-4.80867 75.3122-7.59391 75.3122-11.2915Z" fill="#FF0000" transform="translate(26.8561 50)"/></g></g><text fill="#FF0000" font-family="DengXian,DengXian_MSFontService,sans-serif" font-weight="400" font-size="37" transform="translate(1194.86 443)">1 1 0</text><path d="M0.666667-9.55292e-07 0.666762 66.6002-0.666571 66.6002-0.666667 9.55292e-07ZM4.00009 65.2669 0.000104987 73.2669-3.99991 65.2669Z" transform="matrix(1 0 0 -1 1067.5 529.767)"/><text font-family="DengXian,DengXian_MSFontService,sans-serif" font-weight="700" font-size="37" transform="translate(1051.01 569)">0</text><text font-family="DengXian,DengXian_MSFontService,sans-serif" font-weight="700" font-size="37" transform="translate(1051.01 614)">1</text><text font-family="DengXian,DengXian_MSFontService,sans-serif" font-weight="700" font-size="37" transform="translate(1051.01 658)">0</text><text font-family="DengXian,DengXian_MSFontService,sans-serif" font-weight="700" font-size="37" transform="translate(1051.01 703)">1</text></g></svg>