<svg width="1280" height="720" xmlns="http://www.w3.org/2000/svg" xmlns:xlink="http://www.w3.org/1999/xlink" overflow="hidden"><defs><clipPath id="clip0"><rect x="0" y="0" width="1280" height="720"/></clipPath></defs><g clip-path="url(#clip0)"><rect x="0" y="0" width="1280" height="720" fill="#FFFFFF"/><path d="M181.663 9.6 366.186 9.6 366.186 48.5333 181.663 48.5333Z" fill="#ED7D31" fill-rule="evenodd"/><path d="M181.663 48.5333 366.186 48.5333 366.186 87.4667 181.663 87.4667Z" fill="#F8D7CD" fill-rule="evenodd"/><path d="M181.663 87.4667 366.186 87.4667 366.186 126.4 181.663 126.4Z" fill="#FCECE8" fill-rule="evenodd"/><path d="M181.663 126.4 366.186 126.4 366.186 165.333 181.663 165.333Z" fill="#F8D7CD" fill-rule="evenodd"/><path d="M181.663 165.333 366.186 165.333 366.186 204.267 181.663 204.267Z" fill="#FCECE8" fill-rule="evenodd"/><path d="M181.663 204.267 366.186 204.267 366.186 243.2 181.663 243.2Z" fill="#F8D7CD" fill-rule="evenodd"/><path d="M181.663 243.2 366.186 243.2 366.186 282.133 181.663 282.133Z" fill="#FCECE8" fill-rule="evenodd"/><path d="M181.663 282.133 366.186 282.133 366.186 321.067 181.663 321.067Z" fill="#F8D7CD" fill-rule="evenodd"/><path d="M181.663 321.067 366.186 321.067 366.186 360 181.663 360Z" fill="#FCECE8" fill-rule="evenodd"/><path d="M181.663 360 366.186 360 366.186 398.933 181.663 398.933Z" fill="#F8D7CD" fill-rule="evenodd"/><path d="M181.663 398.933 366.186 398.933 366.186 437.867 181.663 437.867Z" fill="#FCECE8" fill-rule="evenodd"/><path d="M181.663 437.867 366.186 437.867 366.186 476.8 181.663 476.8Z" fill="#F8D7CD" fill-rule="evenodd"/><path d="M181.663 476.8 366.186 476.8 366.186 515.733 181.663 515.733Z" fill="#FCECE8" fill-rule="evenodd"/><path d="M181.663 515.733 366.186 515.733 366.186 554.667 181.663 554.667Z" fill="#F8D7CD" fill-rule="evenodd"/><path d="M181.663 554.667 366.186 554.667 366.186 593.6 181.663 593.6Z" fill="#FCECE8" fill-rule="evenodd"/><path d="M181.663 593.6 366.186 593.6 366.186 632.533 181.663 632.533Z" fill="#F8D7CD" fill-rule="evenodd"/><path d="M181.663 632.533 366.186 632.533 366.186 671.467 181.663 671.467Z" fill="#FCECE8" fill-rule="evenodd"/><path d="M181.663 671.467 366.186 671.467 366.186 710.4 181.663 710.4Z" fill="#F8D7CD" fill-rule="evenodd"/><path d="M180.997 48.5333 366.852 48.5333" stroke="#FFFFFF" stroke-width="4" stroke-linejoin="round" stroke-miterlimit="10" fill="none" fill-rule="evenodd"/><path d="M180.997 87.4667 366.852 87.4667" stroke="#FFFFFF" stroke-width="1.33333" stroke-linejoin="round" stroke-miterlimit="10" fill="none" fill-rule="evenodd"/><path d="M180.997 126.4 366.852 126.4" stroke="#FFFFFF" stroke-width="1.33333" stroke-linejoin="round" stroke-miterlimit="10" fill="none" fill-rule="evenodd"/><path d="M180.997 165.333 366.852 165.333" stroke="#FFFFFF" stroke-width="1.33333" stroke-linejoin="round" stroke-miterlimit="10" fill="none" fill-rule="evenodd"/><path d="M180.997 204.267 366.852 204.267" stroke="#FFFFFF" stroke-width="1.33333" stroke-linejoin="round" stroke-miterlimit="10" fill="none" fill-rule="evenodd"/><path d="M180.997 243.2 366.852 243.2" stroke="#FFFFFF" stroke-width="1.33333" stroke-linejoin="round" stroke-miterlimit="10" fill="none" fill-rule="evenodd"/><path d="M180.997 282.133 366.852 282.133" stroke="#FFFFFF" stroke-width="1.33333" stroke-linejoin="round" stroke-miterlimit="10" fill="none" fill-rule="evenodd"/><path d="M180.997 321.067 366.852 321.067" stroke="#FFFFFF" stroke-width="1.33333" stroke-linejoin="round" stroke-miterlimit="10" fill="none" fill-rule="evenodd"/><path d="M180.997 360 366.852 360" stroke="#FFFFFF" stroke-width="1.33333" stroke-linejoin="round" stroke-miterlimit="10" fill="none" fill-rule="evenodd"/><path d="M180.997 398.933 366.852 398.933" stroke="#FFFFFF" stroke-width="1.33333" stroke-linejoin="round" stroke-miterlimit="10" fill="none" fill-rule="evenodd"/><path d="M180.997 437.867 366.852 437.867" stroke="#FFFFFF" stroke-width="1.33333" stroke-linejoin="round" stroke-miterlimit="10" fill="none" fill-rule="evenodd"/><path d="M180.997 476.8 366.852 476.8" stroke="#FFFFFF" stroke-width="1.33333" stroke-linejoin="round" stroke-miterlimit="10" fill="none" fill-rule="evenodd"/><path d="M180.997 515.733 366.852 515.733" stroke="#FFFFFF" stroke-width="1.33333" stroke-linejoin="round" stroke-miterlimit="10" fill="none" fill-rule="evenodd"/><path d="M180.997 554.667 366.852 554.667" stroke="#FFFFFF" stroke-width="1.33333" stroke-linejoin="round" stroke-miterlimit="10" fill="none" fill-rule="evenodd"/><path d="M180.997 593.6 366.852 593.6" stroke="#FFFFFF" stroke-width="1.33333" stroke-linejoin="round" stroke-miterlimit="10" fill="none" fill-rule="evenodd"/><path d="M180.997 632.533 366.852 632.533" stroke="#FFFFFF" stroke-width="1.33333" stroke-linejoin="round" stroke-miterlimit="10" fill="none" fill-rule="evenodd"/><path d="M180.997 671.467 366.852 671.467" stroke="#FFFFFF" stroke-width="1.33333" stroke-linejoin="round" stroke-miterlimit="10" fill="none" fill-rule="evenodd"/><path d="M181.663 8.93333 181.663 711.067" stroke="#FFFFFF" stroke-width="1.33333" stroke-linejoin="round" stroke-miterlimit="10" fill="none" fill-rule="evenodd"/><path d="M366.186 8.93333 366.186 711.067" stroke="#FFFFFF" stroke-width="1.33333" stroke-linejoin="round" stroke-miterlimit="10" fill="none" fill-rule="evenodd"/><path d="M180.997 9.6 366.852 9.6" stroke="#FFFFFF" stroke-width="1.33333" stroke-linejoin="round" stroke-miterlimit="10" fill="none" fill-rule="evenodd"/><path d="M180.997 710.4 366.852 710.4" stroke="#FFFFFF" stroke-width="1.33333" stroke-linejoin="round" stroke-miterlimit="10" fill="none" fill-rule="evenodd"/><text font-family="Times New Roman,Times New Roman_MSFontService,sans-serif" font-weight="400" font-size="24" transform="translate(261.924 76)">…</text><text font-family="Times New Roman,Times New Roman_MSFontService,sans-serif" font-weight="400" font-size="24" transform="translate(255.924 115)">100</text><text font-family="Times New Roman,Times New Roman_MSFontService,sans-serif" font-weight="400" font-size="24" transform="translate(261.924 154)">10</text><text font-family="Times New Roman,Times New Roman_MSFontService,sans-serif" font-weight="400" font-size="24" transform="translate(261.924 232)">…</text><text font-family="Times New Roman,Times New Roman_MSFontService,sans-serif" font-weight="400" font-size="24" transform="translate(261.924 660)">…</text><text font-family="Times New Roman,Times New Roman_MSFontService,sans-serif" font-weight="400" font-size="24" transform="translate(30.9335 38)">RAM</text><text fill="#70AD47" font-family="Times New Roman,Times New Roman_MSFontService,sans-serif" font-weight="400" font-size="24" transform="translate(160.748 38)">0</text><text fill="#70AD47" font-family="Times New Roman,Times New Roman_MSFontService,sans-serif" font-weight="400" font-size="24" transform="translate(156.35 116)">16</text><text fill="#70AD47" font-family="Times New Roman,Times New Roman_MSFontService,sans-serif" font-weight="400" font-size="24" transform="translate(156.349 154)">17</text><text fill="#70AD47" font-family="Times New Roman,Times New Roman_MSFontService,sans-serif" font-weight="400" font-size="24" transform="translate(156.349 195)">18</text><text fill="#70AD47" font-family="Times New Roman,Times New Roman_MSFontService,sans-serif" font-weight="400" font-size="24" transform="translate(146.892 273)">100</text><text fill="#70AD47" font-family="Times New Roman,Times New Roman_MSFontService,sans-serif" font-weight="400" font-size="24" transform="translate(146.892 312)">101</text><text fill="#70AD47" font-family="Times New Roman,Times New Roman_MSFontService,sans-serif" font-weight="400" font-size="24" transform="translate(146.892 351)">102</text><text fill="#70AD47" font-family="Times New Roman,Times New Roman_MSFontService,sans-serif" font-weight="400" font-size="24" transform="translate(146.892 388)">103</text><text fill="#70AD47" font-family="Times New Roman,Times New Roman_MSFontService,sans-serif" font-weight="400" font-size="24" transform="translate(146.892 428)">104</text><text fill="#70AD47" font-family="Times New Roman,Times New Roman_MSFontService,sans-serif" font-weight="400" font-size="24" transform="translate(146.892 465)">105</text><text fill="#70AD47" font-family="Times New Roman,Times New Roman_MSFontService,sans-serif" font-weight="400" font-size="24" transform="translate(146.892 505)">106</text><text fill="#70AD47" font-family="Times New Roman,Times New Roman_MSFontService,sans-serif" font-weight="400" font-size="24" transform="translate(146.892 544)">107</text><text fill="#70AD47" font-family="Times New Roman,Times New Roman_MSFontService,sans-serif" font-weight="400" font-size="24" transform="translate(146.892 583)">108</text><text fill="#70AD47" font-family="Times New Roman,Times New Roman_MSFontService,sans-serif" font-weight="400" font-size="24" transform="translate(146.892 622)">109</text><text fill="#70AD47" font-family="Times New Roman,Times New Roman_MSFontService,sans-serif" font-weight="400" font-size="24" transform="translate(146.892 661)">…</text><text font-family="Times New Roman,Times New Roman_MSFontService,sans-serif" font-weight="400" font-size="24" transform="translate(123.552 115)">arr</text><text font-family="Times New Roman,Times New Roman_MSFontService,sans-serif" font-weight="400" font-size="24" transform="translate(150.219 115)">:</text><text font-family="Times New Roman,Times New Roman_MSFontService,sans-serif" font-weight="400" font-size="24" transform="translate(135.841 152)">n:</text><path d="M526.5 307.75 633 307.75 633 284.5 679.5 331 633 377.5 633 354.25 526.5 354.25Z" stroke="#BC8C00" stroke-width="1.33333" stroke-miterlimit="8" fill="#FFC000" fill-rule="evenodd"/><path d="M876.591 9.6 1061.11 9.6 1061.11 48.5333 876.591 48.5333Z" fill="#ED7D31" fill-rule="evenodd"/><path d="M876.591 48.5333 1061.11 48.5333 1061.11 87.4667 876.591 87.4667Z" fill="#F8D7CD" fill-rule="evenodd"/><path d="M876.591 87.4667 1061.11 87.4667 1061.11 126.4 876.591 126.4Z" fill="#FCECE8" fill-rule="evenodd"/><path d="M876.591 126.4 1061.11 126.4 1061.11 165.333 876.591 165.333Z" fill="#F8D7CD" fill-rule="evenodd"/><path d="M876.591 165.333 1061.11 165.333 1061.11 204.267 876.591 204.267Z" fill="#FCECE8" fill-rule="evenodd"/><path d="M876.591 204.267 1061.11 204.267 1061.11 243.2 876.591 243.2Z" fill="#F8D7CD" fill-rule="evenodd"/><path d="M876.591 243.2 1061.11 243.2 1061.11 282.133 876.591 282.133Z" fill="#FCECE8" fill-rule="evenodd"/><path d="M876.591 282.133 1061.11 282.133 1061.11 321.067 876.591 321.067Z" fill="#F8D7CD" fill-rule="evenodd"/><path d="M876.591 321.067 1061.11 321.067 1061.11 360 876.591 360Z" fill="#FCECE8" fill-rule="evenodd"/><path d="M876.591 360 1061.11 360 1061.11 398.933 876.591 398.933Z" fill="#F8D7CD" fill-rule="evenodd"/><path d="M876.591 398.933 1061.11 398.933 1061.11 437.867 876.591 437.867Z" fill="#FCECE8" fill-rule="evenodd"/><path d="M876.591 437.867 1061.11 437.867 1061.11 476.8 876.591 476.8Z" fill="#F8D7CD" fill-rule="evenodd"/><path d="M876.591 476.8 1061.11 476.8 1061.11 515.733 876.591 515.733Z" fill="#FCECE8" fill-rule="evenodd"/><path d="M876.591 515.733 1061.11 515.733 1061.11 554.667 876.591 554.667Z" fill="#F8D7CD" fill-rule="evenodd"/><path d="M876.591 554.667 1061.11 554.667 1061.11 593.6 876.591 593.6Z" fill="#FCECE8" fill-rule="evenodd"/><path d="M876.591 593.6 1061.11 593.6 1061.11 632.533 876.591 632.533Z" fill="#F8D7CD" fill-rule="evenodd"/><path d="M876.591 632.533 1061.11 632.533 1061.11 671.467 876.591 671.467Z" fill="#FCECE8" fill-rule="evenodd"/><path d="M876.591 671.467 1061.11 671.467 1061.11 710.4 876.591 710.4Z" fill="#F8D7CD" fill-rule="evenodd"/><path d="M875.924 48.5333 1061.78 48.5333" stroke="#FFFFFF" stroke-width="4" stroke-linejoin="round" stroke-miterlimit="10" fill="none" fill-rule="evenodd"/><path d="M875.924 87.4667 1061.78 87.4667" stroke="#FFFFFF" stroke-width="1.33333" stroke-linejoin="round" stroke-miterlimit="10" fill="none" fill-rule="evenodd"/><path d="M875.924 126.4 1061.78 126.4" stroke="#FFFFFF" stroke-width="1.33333" stroke-linejoin="round" stroke-miterlimit="10" fill="none" fill-rule="evenodd"/><path d="M875.924 165.333 1061.78 165.333" stroke="#FFFFFF" stroke-width="1.33333" stroke-linejoin="round" stroke-miterlimit="10" fill="none" fill-rule="evenodd"/><path d="M875.924 204.267 1061.78 204.267" stroke="#FFFFFF" stroke-width="1.33333" stroke-linejoin="round" stroke-miterlimit="10" fill="none" fill-rule="evenodd"/><path d="M875.924 243.2 1061.78 243.2" stroke="#FFFFFF" stroke-width="1.33333" stroke-linejoin="round" stroke-miterlimit="10" fill="none" fill-rule="evenodd"/><path d="M875.924 282.133 1061.78 282.133" stroke="#FFFFFF" stroke-width="1.33333" stroke-linejoin="round" stroke-miterlimit="10" fill="none" fill-rule="evenodd"/><path d="M875.924 321.067 1061.78 321.067" stroke="#FFFFFF" stroke-width="1.33333" stroke-linejoin="round" stroke-miterlimit="10" fill="none" fill-rule="evenodd"/><path d="M875.924 360 1061.78 360" stroke="#FFFFFF" stroke-width="1.33333" stroke-linejoin="round" stroke-miterlimit="10" fill="none" fill-rule="evenodd"/><path d="M875.924 398.933 1061.78 398.933" stroke="#FFFFFF" stroke-width="1.33333" stroke-linejoin="round" stroke-miterlimit="10" fill="none" fill-rule="evenodd"/><path d="M875.924 437.867 1061.78 437.867" stroke="#FFFFFF" stroke-width="1.33333" stroke-linejoin="round" stroke-miterlimit="10" fill="none" fill-rule="evenodd"/><path d="M875.924 476.8 1061.78 476.8" stroke="#FFFFFF" stroke-width="1.33333" stroke-linejoin="round" stroke-miterlimit="10" fill="none" fill-rule="evenodd"/><path d="M875.924 515.733 1061.78 515.733" stroke="#FFFFFF" stroke-width="1.33333" stroke-linejoin="round" stroke-miterlimit="10" fill="none" fill-rule="evenodd"/><path d="M875.924 554.667 1061.78 554.667" stroke="#FFFFFF" stroke-width="1.33333" stroke-linejoin="round" stroke-miterlimit="10" fill="none" fill-rule="evenodd"/><path d="M875.924 593.6 1061.78 593.6" stroke="#FFFFFF" stroke-width="1.33333" stroke-linejoin="round" stroke-miterlimit="10" fill="none" fill-rule="evenodd"/><path d="M875.924 632.533 1061.78 632.533" stroke="#FFFFFF" stroke-width="1.33333" stroke-linejoin="round" stroke-miterlimit="10" fill="none" fill-rule="evenodd"/><path d="M875.924 671.467 1061.78 671.467" stroke="#FFFFFF" stroke-width="1.33333" stroke-linejoin="round" stroke-miterlimit="10" fill="none" fill-rule="evenodd"/><path d="M876.591 8.93333 876.591 711.067" stroke="#FFFFFF" stroke-width="1.33333" stroke-linejoin="round" stroke-miterlimit="10" fill="none" fill-rule="evenodd"/><path d="M1061.11 8.93333 1061.11 711.067" stroke="#FFFFFF" stroke-width="1.33333" stroke-linejoin="round" stroke-miterlimit="10" fill="none" fill-rule="evenodd"/><path d="M875.924 9.6 1061.78 9.6" stroke="#FFFFFF" stroke-width="1.33333" stroke-linejoin="round" stroke-miterlimit="10" fill="none" fill-rule="evenodd"/><path d="M875.924 710.4 1061.78 710.4" stroke="#FFFFFF" stroke-width="1.33333" stroke-linejoin="round" stroke-miterlimit="10" fill="none" fill-rule="evenodd"/><text font-family="Times New Roman,Times New Roman_MSFontService,sans-serif" font-weight="400" font-size="24" transform="translate(956.852 76)">…</text><text font-family="Times New Roman,Times New Roman_MSFontService,sans-serif" font-weight="400" font-size="24" transform="translate(950.852 115)">100</text><text font-family="Times New Roman,Times New Roman_MSFontService,sans-serif" font-weight="400" font-size="24" transform="translate(956.852 154)">10</text><text font-family="Times New Roman,Times New Roman_MSFontService,sans-serif" font-weight="400" font-size="24" transform="translate(956.852 232)">…</text><text font-family="Times New Roman,Times New Roman_MSFontService,sans-serif" font-weight="400" font-size="24" transform="translate(958.852 271)">-</text><text font-family="Times New Roman,Times New Roman_MSFontService,sans-serif" font-weight="400" font-size="24" transform="translate(966.852 271)">1</text><text font-family="Times New Roman,Times New Roman_MSFontService,sans-serif" font-weight="400" font-size="24" transform="translate(958.852 310)">-</text><text font-family="Times New Roman,Times New Roman_MSFontService,sans-serif" font-weight="400" font-size="24" transform="translate(966.852 310)">1</text><text font-family="Times New Roman,Times New Roman_MSFontService,sans-serif" font-weight="400" font-size="24" transform="translate(958.852 349)">-</text><text font-family="Times New Roman,Times New Roman_MSFontService,sans-serif" font-weight="400" font-size="24" transform="translate(966.852 349)">1</text><text font-family="Times New Roman,Times New Roman_MSFontService,sans-serif" font-weight="400" font-size="24" transform="translate(958.852 388)">-</text><text font-family="Times New Roman,Times New Roman_MSFontService,sans-serif" font-weight="400" font-size="24" transform="translate(966.852 388)">1</text><text font-family="Times New Roman,Times New Roman_MSFontService,sans-serif" font-weight="400" font-size="24" transform="translate(958.852 427)">-</text><text font-family="Times New Roman,Times New Roman_MSFontService,sans-serif" font-weight="400" font-size="24" transform="translate(966.852 427)">1</text><text font-family="Times New Roman,Times New Roman_MSFontService,sans-serif" font-weight="400" font-size="24" transform="translate(958.852 466)">-</text><text font-family="Times New Roman,Times New Roman_MSFontService,sans-serif" font-weight="400" font-size="24" transform="translate(966.852 466)">1</text><text font-family="Times New Roman,Times New Roman_MSFontService,sans-serif" font-weight="400" font-size="24" transform="translate(958.852 505)">-</text><text font-family="Times New Roman,Times New Roman_MSFontService,sans-serif" font-weight="400" font-size="24" transform="translate(966.852 505)">1</text><text font-family="Times New Roman,Times New Roman_MSFontService,sans-serif" font-weight="400" font-size="24" transform="translate(958.852 544)">-</text><text font-family="Times New Roman,Times New Roman_MSFontService,sans-serif" font-weight="400" font-size="24" transform="translate(966.852 544)">1</text><text font-family="Times New Roman,Times New Roman_MSFontService,sans-serif" font-weight="400" font-size="24" transform="translate(958.852 582)">-</text><text font-family="Times New Roman,Times New Roman_MSFontService,sans-serif" font-weight="400" font-size="24" transform="translate(966.852 582)">1</text><text font-family="Times New Roman,Times New Roman_MSFontService,sans-serif" font-weight="400" font-size="24" transform="translate(958.852 621)">-</text><text font-family="Times New Roman,Times New Roman_MSFontService,sans-serif" font-weight="400" font-size="24" transform="translate(966.852 621)">1</text><text font-family="Times New Roman,Times New Roman_MSFontService,sans-serif" font-weight="400" font-size="24" transform="translate(956.852 660)">…</text><text fill="#70AD47" font-family="Times New Roman,Times New Roman_MSFontService,sans-serif" font-weight="400" font-size="24" transform="translate(851.277 116)">16</text><text fill="#70AD47" font-family="Times New Roman,Times New Roman_MSFontService,sans-serif" font-weight="400" font-size="24" transform="translate(851.277 154)">17</text><text fill="#70AD47" font-family="Times New Roman,Times New Roman_MSFontService,sans-serif" font-weight="400" font-size="24" transform="translate(851.277 195)">18</text><text fill="#70AD47" font-family="Times New Roman,Times New Roman_MSFontService,sans-serif" font-weight="400" font-size="24" transform="translate(841.82 273)">100</text><text fill="#70AD47" font-family="Times New Roman,Times New Roman_MSFontService,sans-serif" font-weight="400" font-size="24" transform="translate(841.82 312)">101</text><text fill="#70AD47" font-family="Times New Roman,Times New Roman_MSFontService,sans-serif" font-weight="400" font-size="24" transform="translate(841.82 351)">102</text><text fill="#70AD47" font-family="Times New Roman,Times New Roman_MSFontService,sans-serif" font-weight="400" font-size="24" transform="translate(841.82 388)">103</text><text fill="#70AD47" font-family="Times New Roman,Times New Roman_MSFontService,sans-serif" font-weight="400" font-size="24" transform="translate(841.82 428)">104</text><text fill="#70AD47" font-family="Times New Roman,Times New Roman_MSFontService,sans-serif" font-weight="400" font-size="24" transform="translate(841.82 465)">105</text><text fill="#70AD47" font-family="Times New Roman,Times New Roman_MSFontService,sans-serif" font-weight="400" font-size="24" transform="translate(841.82 505)">106</text><text fill="#70AD47" font-family="Times New Roman,Times New Roman_MSFontService,sans-serif" font-weight="400" font-size="24" transform="translate(841.82 544)">107</text><text fill="#70AD47" font-family="Times New Roman,Times New Roman_MSFontService,sans-serif" font-weight="400" font-size="24" transform="translate(841.82 583)">108</text><text fill="#70AD47" font-family="Times New Roman,Times New Roman_MSFontService,sans-serif" font-weight="400" font-size="24" transform="translate(841.82 622)">109</text><text fill="#70AD47" font-family="Times New Roman,Times New Roman_MSFontService,sans-serif" font-weight="400" font-size="24" transform="translate(841.82 661)">…</text><text font-family="Times New Roman,Times New Roman_MSFontService,sans-serif" font-weight="400" font-size="24" transform="translate(818.48 115)">arr</text><text font-family="Times New Roman,Times New Roman_MSFontService,sans-serif" font-weight="400" font-size="24" transform="translate(845.147 115)">:</text><text font-family="Times New Roman,Times New Roman_MSFontService,sans-serif" font-weight="400" font-size="24" transform="translate(830.768 152)">n:</text><text fill="#70AD47" font-family="Times New Roman,Times New Roman_MSFontService,sans-serif" font-weight="400" font-size="24" transform="translate(858.645 39)">0</text></g></svg>