<svg width="1280" height="720" xmlns="http://www.w3.org/2000/svg" xmlns:xlink="http://www.w3.org/1999/xlink" overflow="hidden"><defs><clipPath id="clip0"><rect x="0" y="0" width="1280" height="720"/></clipPath></defs><g clip-path="url(#clip0)"><rect x="0" y="0" width="1280" height="720" fill="#FFFFFF"/><rect x="510.5" y="160.5" width="186" height="369" stroke="#000000" stroke-width="1.33333" stroke-miterlimit="8" fill="#D6DCE5"/><text font-family="Times New Roman,Times New Roman_MSFontService,sans-serif" font-weight="400" font-size="24" transform="translate(558.254 344)">ROM32K</text><path d="M434 335 499.333 335 499.333 337 434 337ZM498 332 506 336 498 340Z"/><path d="M691 337 756.333 337 756.333 339 691 339ZM755 334 763 338 755 342Z"/><text font-family="Times New Roman,Times New Roman_MSFontService,sans-serif" font-weight="400" font-size="24" transform="translate(412.102 317)">address</text><text font-family="Times New Roman,Times New Roman_MSFontService,sans-serif" font-weight="400" font-size="24" transform="translate(707.298 320)">out</text><path d="M0 0 17.5257 30.6804" stroke="#000000" stroke-width="0.666667" stroke-miterlimit="8" fill="none" fill-rule="evenodd" transform="matrix(-1 0 0 1 475.026 320.5)"/><path d="M0 0 17.5257 30.6804" stroke="#000000" stroke-width="0.666667" stroke-miterlimit="8" fill="none" fill-rule="evenodd" transform="matrix(-1 0 0 1 733.026 320.5)"/><text font-family="Times New Roman,Times New Roman_MSFontService,sans-serif" font-weight="400" font-size="24" transform="translate(447.74 370)">15</text><text font-family="Times New Roman,Times New Roman_MSFontService,sans-serif" font-weight="400" font-size="24" transform="translate(703.914 369)">16</text><path d="M271.5 187.5 368.917 187.5 368.917 187.5 410.667 187.5 438.5 187.5 438.5 230.667 438.5 230.667 438.5 249.167 438.5 261.5 410.667 261.5 404.203 291.47 368.917 261.5 271.5 261.5 271.5 249.167 271.5 230.667 271.5 230.667Z" stroke="#BC8C00" stroke-width="1.33333" stroke-miterlimit="8" fill="#FFC000" fill-rule="evenodd"/><text fill="#FFFFFF" font-family="Times New Roman,Times New Roman_MSFontService,sans-serif" font-weight="400" font-size="24" transform="translate(292.511 218)">Fed from the</text><text fill="#FFFFFF" font-family="Times New Roman,Times New Roman_MSFontService,sans-serif" font-weight="400" font-size="24" transform="translate(296.178 246)">program PC</text><text font-family="Times New Roman,Times New Roman_MSFontService,sans-serif" font-weight="400" font-size="24" transform="translate(781.157 346)">ROM32K[address]</text><path d="M809.5 187.5 837.333 187.5 837.333 187.5 879.083 187.5 976.5 187.5 976.5 230.667 976.5 230.667 976.5 249.167 976.5 261.5 879.083 261.5 836.469 299.364 837.333 261.5 809.5 261.5 809.5 249.167 809.5 230.667 809.5 230.667Z" stroke="#BC8C00" stroke-width="1.33333" stroke-miterlimit="8" fill="#FFC000" fill-rule="evenodd"/><text fill="#FFFFFF" font-family="Times New Roman,Times New Roman_MSFontService,sans-serif" font-weight="400" font-size="24" transform="translate(855.997 218)">Current</text><text fill="#FFFFFF" font-family="Times New Roman,Times New Roman_MSFontService,sans-serif" font-weight="400" font-size="24" transform="translate(841.33 246)">instruction</text></g></svg>