<svg width="1280" height="720" xmlns="http://www.w3.org/2000/svg" xmlns:xlink="http://www.w3.org/1999/xlink" overflow="hidden"><defs><clipPath id="clip0"><rect x="0" y="0" width="1280" height="720"/></clipPath></defs><g clip-path="url(#clip0)"><rect x="0" y="0" width="1280" height="720" fill="#FFFFFF"/><path d="M129.45 98.8564 394.253 98.8564 394.253 137.79 129.45 137.79Z" fill="#F8CBAD" fill-rule="evenodd"/><path d="M129.45 137.79 394.253 137.79 394.253 176.723 129.45 176.723Z" fill="#F8CBAD" fill-rule="evenodd"/><path d="M129.45 176.723 394.253 176.723 394.253 215.656 129.45 215.656Z" fill="#F8CBAD" fill-rule="evenodd"/><path d="M129.45 215.656 394.253 215.656 394.253 254.59 129.45 254.59Z" fill="#F8CBAD" fill-rule="evenodd"/><path d="M129.45 254.59 394.253 254.59 394.253 293.523 129.45 293.523Z" fill="#F8CBAD" fill-rule="evenodd"/><path d="M129.45 293.523 394.253 293.523 394.253 332.456 129.45 332.456Z" fill="#F8CBAD" fill-rule="evenodd"/><path d="M129.45 332.456 394.253 332.456 394.253 371.39 129.45 371.39Z" fill="#F8CBAD" fill-rule="evenodd"/><path d="M129.45 371.39 394.253 371.39 394.253 410.323 129.45 410.323Z" fill="#F8CBAD" fill-rule="evenodd"/><path d="M129.45 410.323 394.253 410.323 394.253 449.256 129.45 449.256Z" fill="#F8CBAD" fill-rule="evenodd"/><path d="M129.45 449.256 394.253 449.256 394.253 488.19 129.45 488.19Z" fill="#F8CBAD" fill-rule="evenodd"/><path d="M129.45 488.19 394.253 488.19 394.253 527.123 129.45 527.123Z" fill="#F8CBAD" fill-rule="evenodd"/><path d="M129.45 527.123 394.253 527.123 394.253 566.056 129.45 566.056Z" fill="#F8CBAD" fill-rule="evenodd"/><path d="M129.45 566.056 394.253 566.056 394.253 604.99 129.45 604.99Z" fill="#F8CBAD" fill-rule="evenodd"/><path d="M128.783 137.79 394.919 137.79" stroke="#FFFFFF" stroke-width="4" stroke-linejoin="round" stroke-miterlimit="10" fill="none" fill-rule="evenodd"/><path d="M128.783 176.723 394.919 176.723" stroke="#FFFFFF" stroke-width="1.33333" stroke-linejoin="round" stroke-miterlimit="10" fill="none" fill-rule="evenodd"/><path d="M128.783 215.656 394.919 215.656" stroke="#FFFFFF" stroke-width="1.33333" stroke-linejoin="round" stroke-miterlimit="10" fill="none" fill-rule="evenodd"/><path d="M128.783 254.59 394.919 254.59" stroke="#FFFFFF" stroke-width="1.33333" stroke-linejoin="round" stroke-miterlimit="10" fill="none" fill-rule="evenodd"/><path d="M128.783 293.523 394.919 293.523" stroke="#FFFFFF" stroke-width="1.33333" stroke-linejoin="round" stroke-miterlimit="10" fill="none" fill-rule="evenodd"/><path d="M128.783 332.456 394.919 332.456" stroke="#FFFFFF" stroke-width="1.33333" stroke-linejoin="round" stroke-miterlimit="10" fill="none" fill-rule="evenodd"/><path d="M128.783 371.39 394.919 371.39" stroke="#FFFFFF" stroke-width="1.33333" stroke-linejoin="round" stroke-miterlimit="10" fill="none" fill-rule="evenodd"/><path d="M128.783 410.323 394.919 410.323" stroke="#FFFFFF" stroke-width="1.33333" stroke-linejoin="round" stroke-miterlimit="10" fill="none" fill-rule="evenodd"/><path d="M128.783 449.256 394.919 449.256" stroke="#FFFFFF" stroke-width="1.33333" stroke-linejoin="round" stroke-miterlimit="10" fill="none" fill-rule="evenodd"/><path d="M128.783 488.19 394.919 488.19" stroke="#FFFFFF" stroke-width="1.33333" stroke-linejoin="round" stroke-miterlimit="10" fill="none" fill-rule="evenodd"/><path d="M128.783 527.123 394.919 527.123" stroke="#FFFFFF" stroke-width="1.33333" stroke-linejoin="round" stroke-miterlimit="10" fill="none" fill-rule="evenodd"/><path d="M128.783 566.056 394.919 566.056" stroke="#FFFFFF" stroke-width="1.33333" stroke-linejoin="round" stroke-miterlimit="10" fill="none" fill-rule="evenodd"/><path d="M129.45 98.1897 129.45 605.656" stroke="#FFFFFF" stroke-width="1.33333" stroke-linejoin="round" stroke-miterlimit="10" fill="none" fill-rule="evenodd"/><path d="M394.253 98.1897 394.253 605.656" stroke="#FFFFFF" stroke-width="1.33333" stroke-linejoin="round" stroke-miterlimit="10" fill="none" fill-rule="evenodd"/><path d="M128.783 98.8564 394.919 98.8564" stroke="#FFFFFF" stroke-width="1.33333" stroke-linejoin="round" stroke-miterlimit="10" fill="none" fill-rule="evenodd"/><path d="M128.783 604.99 394.919 604.99" stroke="#FFFFFF" stroke-width="1.33333" stroke-linejoin="round" stroke-miterlimit="10" fill="none" fill-rule="evenodd"/><text font-family="Times New Roman,Times New Roman_MSFontService,sans-serif" font-weight="400" font-size="24" transform="translate(167.191 127)">1111010100000000</text><text font-family="Times New Roman,Times New Roman_MSFontService,sans-serif" font-weight="400" font-size="24" transform="translate(165.851 166)">0000000000000000</text><text font-family="Times New Roman,Times New Roman_MSFontService,sans-serif" font-weight="400" font-size="24" transform="translate(249.851 205)">…</text><text font-family="Times New Roman,Times New Roman_MSFontService,sans-serif" font-weight="400" font-size="24" transform="translate(166.298 243)">0011000000000001</text><text font-family="Times New Roman,Times New Roman_MSFontService,sans-serif" font-weight="400" font-size="24" transform="translate(165.851 282)">0000101000000000</text><text font-family="Times New Roman,Times New Roman_MSFontService,sans-serif" font-weight="400" font-size="24" transform="translate(165.851 321)">0000000000000000</text><text font-family="Times New Roman,Times New Roman_MSFontService,sans-serif" font-weight="400" font-size="24" transform="translate(249.851 360)">…</text><text font-family="Times New Roman,Times New Roman_MSFontService,sans-serif" font-weight="400" font-size="24" transform="translate(165.851 399)">0000000000000000</text><text font-family="Times New Roman,Times New Roman_MSFontService,sans-serif" font-weight="400" font-size="24" transform="translate(249.851 438)">…</text><text font-family="Times New Roman,Times New Roman_MSFontService,sans-serif" font-weight="400" font-size="24" transform="translate(165.851 477)">0000000000000000</text><text font-family="Times New Roman,Times New Roman_MSFontService,sans-serif" font-weight="400" font-size="24" transform="translate(165.851 516)">0000000000000000</text><text font-family="Times New Roman,Times New Roman_MSFontService,sans-serif" font-weight="400" font-size="24" transform="translate(249.851 555)">…</text><text font-family="Times New Roman,Times New Roman_MSFontService,sans-serif" font-weight="400" font-size="24" transform="translate(166.298 594)">1011010100000000</text><path d="M502.5 320.5 577.5 320.5 577.5 300.5 617.5 340.5 577.5 380.5 577.5 360.5 502.5 360.5Z" stroke="#AE5A21" stroke-width="1.33333" stroke-miterlimit="8" fill="#ED7D31" fill-rule="evenodd"/><text fill="#FFFFFF" font-family="Times New Roman,Times New Roman_MSFontService,sans-serif" font-weight="400" font-size="24" transform="translate(516.424 348)">refresh</text><path d="M662.99 222.832 719.669 222.832 719.669 278.134 662.99 278.134Z" fill-rule="evenodd"/><path d="M719.669 222.832 776.347 222.832 776.347 278.134 719.669 278.134Z" fill-rule="evenodd"/><path d="M776.347 222.832 833.025 222.832 833.025 278.134 776.347 278.134Z" fill-rule="evenodd"/><path d="M833.025 222.832 889.704 222.832 889.704 278.134 833.025 278.134Z" fill-rule="evenodd"/><path d="M889.704 222.832 946.382 222.832 946.382 278.134 889.704 278.134Z" fill="#F2F2F2" fill-rule="evenodd"/><path d="M946.382 222.832 1003.06 222.832 1003.06 278.134 946.382 278.134Z" fill-rule="evenodd"/><path d="M1003.06 222.832 1059.74 222.832 1059.74 278.134 1003.06 278.134Z" fill="#F2F2F2" fill-rule="evenodd"/><path d="M1059.74 222.832 1116.42 222.832 1116.42 278.134 1059.74 278.134Z" fill-rule="evenodd"/><path d="M1116.42 222.832 1173.1 222.832 1173.1 278.134 1116.42 278.134Z" fill="#F2F2F2" fill-rule="evenodd"/><path d="M1173.1 222.832 1229.77 222.832 1229.77 278.134 1173.1 278.134Z" fill-rule="evenodd"/><path d="M662.99 278.134 719.669 278.134 719.669 333.437 662.99 333.437Z" fill="#F2F2F2" fill-rule="evenodd"/><path d="M719.669 278.134 776.347 278.134 776.347 333.437 719.669 333.437Z" fill="#F2F2F2" fill-rule="evenodd"/><path d="M776.347 278.134 833.025 278.134 833.025 333.437 776.347 333.437Z" fill="#F2F2F2" fill-rule="evenodd"/><path d="M833.025 278.134 889.704 278.134 889.704 333.437 833.025 333.437Z" fill="#F2F2F2" fill-rule="evenodd"/><path d="M889.704 278.134 946.382 278.134 946.382 333.437 889.704 333.437Z" fill-rule="evenodd"/><path d="M946.382 278.134 1003.06 278.134 1003.06 333.437 946.382 333.437Z" fill="#F2F2F2" fill-rule="evenodd"/><path d="M1003.06 278.134 1059.74 278.134 1059.74 333.437 1003.06 333.437Z" fill-rule="evenodd"/><path d="M1059.74 278.134 1116.42 278.134 1116.42 333.437 1059.74 333.437Z" fill="#F2F2F2" fill-rule="evenodd"/><path d="M1116.42 278.134 1173.1 278.134 1173.1 333.437 1116.42 333.437Z" fill="#F2F2F2" fill-rule="evenodd"/><path d="M1173.1 278.134 1229.77 278.134 1229.77 333.437 1173.1 333.437Z" fill="#F2F2F2" fill-rule="evenodd"/><path d="M662.99 333.437 1229.77 333.437 1229.77 458.237 662.99 458.237Z" fill="#E9EBF5" fill-rule="evenodd"/><path d="M662.99 458.237 719.669 458.237 719.669 513.539 662.99 513.539Z" fill-rule="evenodd"/><path d="M719.669 458.237 776.347 458.237 776.347 513.539 719.669 513.539Z" fill="#F2F2F2" fill-rule="evenodd"/><path d="M776.347 458.237 833.025 458.237 833.025 513.539 776.347 513.539Z" fill-rule="evenodd"/><path d="M833.025 458.237 889.704 458.237 889.704 513.539 833.025 513.539Z" fill-rule="evenodd"/><path d="M889.704 458.237 946.382 458.237 946.382 513.539 889.704 513.539Z" fill="#F2F2F2" fill-rule="evenodd"/><path d="M946.382 458.237 1003.06 458.237 1003.06 513.539 946.382 513.539Z" fill-rule="evenodd"/><path d="M1003.06 458.237 1059.74 458.237 1059.74 513.539 1003.06 513.539Z" fill="#F2F2F2" fill-rule="evenodd"/><path d="M1059.74 458.237 1116.42 458.237 1116.42 513.539 1059.74 513.539Z" fill-rule="evenodd"/><path d="M1116.42 458.237 1173.1 458.237 1173.1 513.539 1116.42 513.539Z" fill="#F2F2F2" fill-rule="evenodd"/><path d="M1173.1 458.237 1229.77 458.237 1229.77 513.539 1173.1 513.539Z" fill="#F2F2F2" fill-rule="evenodd"/><path d="M719.669 222.165 719.669 334.104" stroke="#FFFFFF" stroke-width="1.33333" stroke-linejoin="round" stroke-miterlimit="10" fill="none" fill-rule="evenodd"/><path d="M719.669 457.57 719.669 514.206" stroke="#FFFFFF" stroke-width="1.33333" stroke-linejoin="round" stroke-miterlimit="10" fill="none" fill-rule="evenodd"/><path d="M776.347 222.165 776.347 334.104" stroke="#FFFFFF" stroke-width="1.33333" stroke-linejoin="round" stroke-miterlimit="10" fill="none" fill-rule="evenodd"/><path d="M776.347 457.57 776.347 514.206" stroke="#FFFFFF" stroke-width="1.33333" stroke-linejoin="round" stroke-miterlimit="10" fill="none" fill-rule="evenodd"/><path d="M833.025 222.165 833.025 334.104" stroke="#FFFFFF" stroke-width="1.33333" stroke-linejoin="round" stroke-miterlimit="10" fill="none" fill-rule="evenodd"/><path d="M833.025 457.57 833.025 514.206" stroke="#FFFFFF" stroke-width="1.33333" stroke-linejoin="round" stroke-miterlimit="10" fill="none" fill-rule="evenodd"/><path d="M889.704 222.165 889.704 334.104" stroke="#FFFFFF" stroke-width="1.33333" stroke-linejoin="round" stroke-miterlimit="10" fill="none" fill-rule="evenodd"/><path d="M889.704 457.57 889.704 514.206" stroke="#FFFFFF" stroke-width="1.33333" stroke-linejoin="round" stroke-miterlimit="10" fill="none" fill-rule="evenodd"/><path d="M946.382 222.165 946.382 334.104" stroke="#FFFFFF" stroke-width="1.33333" stroke-linejoin="round" stroke-miterlimit="10" fill="none" fill-rule="evenodd"/><path d="M946.382 457.57 946.382 514.206" stroke="#FFFFFF" stroke-width="1.33333" stroke-linejoin="round" stroke-miterlimit="10" fill="none" fill-rule="evenodd"/><path d="M1003.06 222.165 1003.06 334.104" stroke="#FFFFFF" stroke-width="1.33333" stroke-linejoin="round" stroke-miterlimit="10" fill="none" fill-rule="evenodd"/><path d="M1003.06 457.57 1003.06 514.206" stroke="#FFFFFF" stroke-width="1.33333" stroke-linejoin="round" stroke-miterlimit="10" fill="none" fill-rule="evenodd"/><path d="M1059.74 222.165 1059.74 334.104" stroke="#FFFFFF" stroke-width="1.33333" stroke-linejoin="round" stroke-miterlimit="10" fill="none" fill-rule="evenodd"/><path d="M1059.74 457.57 1059.74 514.206" stroke="#FFFFFF" stroke-width="1.33333" stroke-linejoin="round" stroke-miterlimit="10" fill="none" fill-rule="evenodd"/><path d="M1116.42 222.165 1116.42 334.104" stroke="#FFFFFF" stroke-width="1.33333" stroke-linejoin="round" stroke-miterlimit="10" fill="none" fill-rule="evenodd"/><path d="M1116.42 457.57 1116.42 514.206" stroke="#FFFFFF" stroke-width="1.33333" stroke-linejoin="round" stroke-miterlimit="10" fill="none" fill-rule="evenodd"/><path d="M1173.1 222.165 1173.1 334.104" stroke="#FFFFFF" stroke-width="1.33333" stroke-linejoin="round" stroke-miterlimit="10" fill="none" fill-rule="evenodd"/><path d="M1173.1 457.57 1173.1 514.206" stroke="#FFFFFF" stroke-width="1.33333" stroke-linejoin="round" stroke-miterlimit="10" fill="none" fill-rule="evenodd"/><path d="M662.324 278.134 1230.44 278.134" stroke="#FFFFFF" stroke-width="4" stroke-linejoin="round" stroke-miterlimit="10" fill="none" fill-rule="evenodd"/><path d="M662.324 333.437 1230.44 333.437" stroke="#FFFFFF" stroke-width="1.33333" stroke-linejoin="round" stroke-miterlimit="10" fill="none" fill-rule="evenodd"/><path d="M662.324 458.237 1230.44 458.237" stroke="#FFFFFF" stroke-width="1.33333" stroke-linejoin="round" stroke-miterlimit="10" fill="none" fill-rule="evenodd"/><path d="M662.99 222.165 662.99 514.206" stroke="#FFFFFF" stroke-width="1.33333" stroke-linejoin="round" stroke-miterlimit="10" fill="none" fill-rule="evenodd"/><path d="M1229.77 222.165 1229.77 514.206" stroke="#FFFFFF" stroke-width="1.33333" stroke-linejoin="round" stroke-miterlimit="10" fill="none" fill-rule="evenodd"/><path d="M662.324 222.832 1230.44 222.832" stroke="#FFFFFF" stroke-width="1.33333" stroke-linejoin="round" stroke-miterlimit="10" fill="none" fill-rule="evenodd"/><path d="M662.324 513.539 1230.44 513.539" stroke="#FFFFFF" stroke-width="1.33333" stroke-linejoin="round" stroke-miterlimit="10" fill="none" fill-rule="evenodd"/><text font-family="Times New Roman,Times New Roman_MSFontService,sans-serif" font-weight="700" font-size="24" transform="translate(1132.76 251)">…</text><text font-family="Times New Roman,Times New Roman_MSFontService,sans-serif" font-weight="700" font-size="24" transform="translate(1132.76 306)">…</text><text font-family="Times New Roman,Times New Roman_MSFontService,sans-serif" font-weight="700" font-size="32" transform="translate(942.382 369)">.</text><text font-family="Times New Roman,Times New Roman_MSFontService,sans-serif" font-weight="700" font-size="32" transform="translate(942.382 407)">.</text><text font-family="Times New Roman,Times New Roman_MSFontService,sans-serif" font-weight="700" font-size="32" transform="translate(942.382 446)">.</text><text font-family="Times New Roman,Times New Roman_MSFontService,sans-serif" font-weight="700" font-size="24" transform="translate(1132.76 486)">…</text><text fill="#548235" font-family="Times New Roman,Times New Roman_MSFontService,sans-serif" font-weight="400" font-size="24" transform="translate(643.697 260)">0</text><text fill="#548235" font-family="Times New Roman,Times New Roman_MSFontService,sans-serif" font-weight="400" font-size="24" transform="translate(643.697 315)">1</text><text fill="#548235" font-family="Times New Roman,Times New Roman_MSFontService,sans-serif" font-weight="400" font-size="24" transform="translate(646.493 377)">.</text><text fill="#548235" font-family="Times New Roman,Times New Roman_MSFontService,sans-serif" font-weight="400" font-size="24" transform="translate(646.493 406)">.</text><text fill="#548235" font-family="Times New Roman,Times New Roman_MSFontService,sans-serif" font-weight="400" font-size="24" transform="translate(646.493 435)">.</text><text fill="#548235" font-family="Times New Roman,Times New Roman_MSFontService,sans-serif" font-weight="400" font-size="24" transform="translate(687.658 212)">0</text><text fill="#548235" font-family="Times New Roman,Times New Roman_MSFontService,sans-serif" font-weight="400" font-size="24" transform="translate(742.649 212)">1</text><text fill="#548235" font-family="Times New Roman,Times New Roman_MSFontService,sans-serif" font-weight="400" font-size="24" transform="translate(613.561 493)">255</text><text fill="#548235" font-family="Times New Roman,Times New Roman_MSFontService,sans-serif" font-weight="400" font-size="24" transform="translate(797.639 212)">2</text><text fill="#548235" font-family="Times New Roman,Times New Roman_MSFontService,sans-serif" font-weight="400" font-size="24" transform="translate(854.338 212)">3</text><text fill="#548235" font-family="Times New Roman,Times New Roman_MSFontService,sans-serif" font-weight="400" font-size="24" transform="translate(913.368 212)">4</text><text fill="#548235" font-family="Times New Roman,Times New Roman_MSFontService,sans-serif" font-weight="400" font-size="24" transform="translate(972.397 212)">5</text><text fill="#548235" font-family="Times New Roman,Times New Roman_MSFontService,sans-serif" font-weight="400" font-size="24" transform="translate(1025.83 212)">6</text><text fill="#548235" font-family="Times New Roman,Times New Roman_MSFontService,sans-serif" font-weight="400" font-size="24" transform="translate(1133.85 212)">…</text><text fill="#548235" font-family="Times New Roman,Times New Roman_MSFontService,sans-serif" font-weight="400" font-size="24" transform="translate(1081.96 212)">7</text><text fill="#548235" font-family="Times New Roman,Times New Roman_MSFontService,sans-serif" font-weight="400" font-size="24" transform="translate(1185.73 212)">511</text><text fill="#548235" font-family="Times New Roman,Times New Roman_MSFontService,sans-serif" font-weight="400" font-size="24" transform="translate(110.002 127)">0</text><text fill="#548235" font-family="Times New Roman,Times New Roman_MSFontService,sans-serif" font-weight="400" font-size="24" transform="translate(107.567 165)">1</text><text fill="#548235" font-family="Times New Roman,Times New Roman_MSFontService,sans-serif" font-weight="400" font-size="24" transform="translate(100.784 244)">31</text><text fill="#548235" font-family="Times New Roman,Times New Roman_MSFontService,sans-serif" font-weight="400" font-size="24" transform="translate(99.7488 279)">32</text><text fill="#548235" font-family="Times New Roman,Times New Roman_MSFontService,sans-serif" font-weight="400" font-size="24" transform="translate(98.7132 321)">33</text><text fill="#548235" font-family="Times New Roman,Times New Roman_MSFontService,sans-serif" font-weight="400" font-size="24" transform="translate(98.7132 400)">6</text><text fill="#548235" font-family="Times New Roman,Times New Roman_MSFontService,sans-serif" font-weight="400" font-size="24" transform="translate(110.713 400)">3</text><text fill="#548235" font-family="Times New Roman,Times New Roman_MSFontService,sans-serif" font-weight="400" font-size="24" transform="translate(76.0856 477)">8159</text><text fill="#548235" font-family="Times New Roman,Times New Roman_MSFontService,sans-serif" font-weight="400" font-size="24" transform="translate(77.5093 517)">8160</text><text fill="#548235" font-family="Times New Roman,Times New Roman_MSFontService,sans-serif" font-weight="400" font-size="24" transform="translate(76.0856 594)">8191</text><path d="M405.5 110.5C412.404 110.5 418 111.433 418 112.583L418 174.917C418 176.067 423.597 177 430.5 177 423.597 177 418 177.933 418 179.083L418 241.417C418 242.567 412.404 243.5 405.5 243.5" stroke="#4472C4" stroke-width="0.666667" stroke-miterlimit="8" fill="none" fill-rule="evenodd"/><path d="M406.5 264.5C413.404 264.5 419 265.433 419 266.583L419 328.917C419 330.067 424.597 331 431.5 331 424.597 331 419 331.933 419 333.083L419 395.417C419 396.567 413.404 397.5 406.5 397.5" stroke="#4472C4" stroke-width="0.666667" stroke-miterlimit="8" fill="none" fill-rule="evenodd"/><path d="M405.5 468.5C412.404 468.5 418 469.433 418 470.583L418 533.417C418 534.567 423.597 535.5 430.5 535.5 423.597 535.5 418 536.433 418 537.583L418 600.417C418 601.567 412.404 602.5 405.5 602.5" stroke="#4472C4" stroke-width="0.666667" stroke-miterlimit="8" fill="none" fill-rule="evenodd"/><text fill="#548235" font-family="Times New Roman,Times New Roman_MSFontService,sans-serif" font-weight="400" font-size="24" transform="translate(445.535 185)">r</text><text fill="#548235" font-family="Times New Roman,Times New Roman_MSFontService,sans-serif" font-weight="400" font-size="24" transform="translate(453.535 185)">ow 0</text><text fill="#548235" font-family="Times New Roman,Times New Roman_MSFontService,sans-serif" font-weight="400" font-size="24" transform="translate(442.118 336)">r</text><text fill="#548235" font-family="Times New Roman,Times New Roman_MSFontService,sans-serif" font-weight="400" font-size="24" transform="translate(450.118 336)">ow 1</text><text fill="#548235" font-family="Times New Roman,Times New Roman_MSFontService,sans-serif" font-weight="400" font-size="24" transform="translate(439.814 543)">r</text><text fill="#548235" font-family="Times New Roman,Times New Roman_MSFontService,sans-serif" font-weight="400" font-size="24" transform="translate(447.814 543)">ow 255</text><text fill="#548235" font-family="Times New Roman,Times New Roman_MSFontService,sans-serif" font-weight="400" font-size="24" transform="translate(798.495 165)">Display Unit (256 by 512, b/w)</text></g></svg>