<svg width="1280" height="720" xmlns="http://www.w3.org/2000/svg" xmlns:xlink="http://www.w3.org/1999/xlink" overflow="hidden"><defs><clipPath id="clip0"><rect x="0" y="0" width="1280" height="720"/></clipPath></defs><g clip-path="url(#clip0)"><rect x="0" y="0" width="1280" height="720" fill="#FFFFFF"/><rect x="580.5" y="76.5001" width="220" height="95" stroke="#000000" stroke-width="1.33333" stroke-miterlimit="8" fill="#D6DCE5"/><text font-family="Times New Roman,Times New Roman_MSFontService,sans-serif" font-weight="400" font-size="24" transform="translate(671.378 132)">DFF</text><path d="M690.5 171.5 699.5 156.5 708.5 171.5Z" stroke="#000000" stroke-width="1.33333" stroke-miterlimit="8" fill="#FFFFFF" fill-rule="evenodd"/><path d="M508 123 573.333 123 573.333 125 508 125ZM572 120 580 124 572 128Z"/><path d="M800 123 865.333 123 865.333 125 800 125ZM864 120 872 124 864 128Z"/><rect x="580.5" y="199.5" width="220" height="95" stroke="#000000" stroke-width="1.33333" stroke-miterlimit="8" fill="#D6DCE5"/><text font-family="Times New Roman,Times New Roman_MSFontService,sans-serif" font-weight="400" font-size="24" transform="translate(671.378 255)">DFF</text><path d="M690.5 294.5 699.5 280.5 708.5 294.5Z" stroke="#000000" stroke-width="1.33333" stroke-miterlimit="8" fill="#FFFFFF" fill-rule="evenodd"/><path d="M508 246 573.333 246 573.333 248 508 248ZM572 243 580 247 572 251Z"/><path d="M800 247 865.333 247 865.333 249 800 249ZM864 244 872 248 864 252Z"/><rect x="580.5" y="404.5" width="220" height="95" stroke="#000000" stroke-width="1.33333" stroke-miterlimit="8" fill="#D6DCE5"/><text font-family="Times New Roman,Times New Roman_MSFontService,sans-serif" font-weight="400" font-size="24" transform="translate(664.267 460)">DFF</text><path d="M690.5 499.5 699.5 485.5 708.5 499.5Z" stroke="#000000" stroke-width="1.33333" stroke-miterlimit="8" fill="#FFFFFF" fill-rule="evenodd"/><path d="M508 451 573.333 451 573.333 453 508 453ZM572 448 580 452 572 456Z"/><path d="M800 452 865.333 452 865.333 454 800 454ZM864 449 872 453 864 457Z"/><text font-family="DengXian,DengXian_MSFontService,sans-serif" font-weight="700" font-size="37" transform="translate(694.933 306)">.</text><text font-family="DengXian,DengXian_MSFontService,sans-serif" font-weight="700" font-size="37" transform="translate(694.933 351)">.</text><text font-family="DengXian,DengXian_MSFontService,sans-serif" font-weight="700" font-size="37" transform="translate(694.933 395)">.</text><path d="M287.5 24.5001 505.5 79.0001 505.5 496 287.5 550.5Z" stroke="#41719C" stroke-width="1.33333" stroke-miterlimit="8" fill="#5B9BD5" fill-rule="evenodd"/><text fill="#FFFFFF" font-family="DengXian,DengXian_MSFontService,sans-serif" font-weight="400" font-size="24" transform="matrix(6.12323e-17 1 -1 6.12323e-17 380.83 181)">Combinational Logic</text><text font-family="Times New Roman,Times New Roman_MSFontService,sans-serif" font-style="italic" font-weight="700" font-size="27" transform="translate(376.268 465)">f</text><text font-family="Times New Roman,Times New Roman_MSFontService,sans-serif" font-style="italic" font-weight="400" font-size="27" transform="translate(551.156 556)">s</text><text font-family="Times New Roman,Times New Roman_MSFontService,sans-serif" font-style="italic" font-weight="400" font-size="27" transform="translate(561.489 556)">tate[t]=f( input, state[t</text><text font-family="Times New Roman,Times New Roman_MSFontService,sans-serif" font-style="italic" font-weight="400" font-size="27" transform="translate(805.989 556)">-</text><text font-family="Times New Roman,Times New Roman_MSFontService,sans-serif" font-style="italic" font-weight="400" font-size="27" transform="translate(814.822 556)">1])</text><path d="M889.5 110.5C899.165 110.5 907 111.806 907 113.417L907 291.583C907 293.194 914.835 294.5 924.5 294.5 914.835 294.5 907 295.806 907 297.417L907 475.583C907 477.194 899.165 478.5 889.5 478.5" stroke="#4472C4" stroke-width="0.666667" stroke-miterlimit="8" fill="none" fill-rule="evenodd"/><text font-family="Times New Roman,Times New Roman_MSFontService,sans-serif" font-weight="400" font-size="24" transform="translate(86.0478 255)">Input</text><text font-family="Times New Roman,Times New Roman_MSFontService,sans-serif" font-weight="400" font-size="24" transform="translate(950.934 255)">Output</text><path d="M68.5001 265.5 261.5 265.5 261.5 252.5 287.5 278.5 261.5 304.5 261.5 291.5 68.5001 291.5Z" stroke="#41719C" stroke-width="1.33333" stroke-miterlimit="8" fill="#5B9BD5" fill-rule="evenodd"/><path d="M941.5 260.5 1024.5 260.5 1024.5 247.5 1050.5 273.5 1024.5 299.5 1024.5 286.5 941.5 286.5Z" stroke="#41719C" stroke-width="1.33333" stroke-miterlimit="8" fill="#5B9BD5" fill-rule="evenodd"/><path d="M176.5 340.5 258.5 340.5 258.5 327.5 284.5 353.5 258.5 379.5 258.5 366.5 176.5 366.5Z" stroke="#41719C" stroke-width="1.33333" stroke-miterlimit="8" fill="#5B9BD5" fill-rule="evenodd"/><path d="M223.5 397 208.75 397 208.75 630.5 179.25 630.5 179.25 397 164.5 397 194 367.5Z" stroke="#41719C" stroke-width="1.33333" stroke-miterlimit="8" fill="#5B9BD5" fill-rule="evenodd"/><path d="M976.5 584.5 993.5 584.5 993.5 304.5 1027.5 304.5 1027.5 584.5 1044.5 584.5 1010.5 618.5Z" stroke="#41719C" stroke-width="1.33333" stroke-miterlimit="8" fill="#5B9BD5" fill-rule="evenodd"/><path d="M992.5 649.25 245.999 649.25 245.999 665.5 213.5 633 245.999 600.5 245.999 616.75 992.5 616.75Z" stroke="#41719C" stroke-width="1.33333" stroke-miterlimit="8" fill="#5B9BD5" fill-rule="evenodd"/></g></svg>