<svg width="1280" height="720" xmlns="http://www.w3.org/2000/svg" xmlns:xlink="http://www.w3.org/1999/xlink" overflow="hidden"><defs><clipPath id="clip0"><rect x="0" y="0" width="1280" height="720"/></clipPath></defs><g clip-path="url(#clip0)"><rect x="0" y="0" width="1280" height="720" fill="#FFFFFF"/><path d="M359.5 98.5001 359.5 627.985" stroke="#ED7D31" stroke-width="0.666667" stroke-miterlimit="8" fill="none" fill-rule="evenodd"/><path d="M460.5 98.5001 460.5 627.985" stroke="#ED7D31" stroke-width="0.666667" stroke-miterlimit="8" fill="none" fill-rule="evenodd"/><path d="M870.5 98.5001 870.5 627.985" stroke="#ED7D31" stroke-width="0.666667" stroke-miterlimit="8" fill="none" fill-rule="evenodd"/><path d="M769.5 98.5001 769.5 627.985" stroke="#ED7D31" stroke-width="0.666667" stroke-miterlimit="8" fill="none" fill-rule="evenodd"/><path d="M563.5 98.5001 563.5 627.985" stroke="#ED7D31" stroke-width="0.666667" stroke-miterlimit="8" fill="none" fill-rule="evenodd"/><path d="M666.5 98.5001 666.5 627.985" stroke="#ED7D31" stroke-width="0.666667" stroke-miterlimit="8" fill="none" fill-rule="evenodd"/><text font-family="Times New Roman,Times New Roman_MSFontService,sans-serif" font-weight="400" font-size="24" transform="translate(227.011 211)">Time</text><text font-family="Times New Roman,Times New Roman_MSFontService,sans-serif" font-weight="400" font-size="24" transform="translate(407.256 377)">a</text><text font-family="Times New Roman,Times New Roman_MSFontService,sans-serif" font-weight="400" font-size="24" transform="translate(250.072 381)">in</text><text font-family="Times New Roman,Times New Roman_MSFontService,sans-serif" font-weight="400" font-size="24" transform="translate(403.825 211)">1</text><text font-family="Times New Roman,Times New Roman_MSFontService,sans-serif" font-weight="400" font-size="24" transform="translate(505.928 211)">2</text><text font-family="Times New Roman,Times New Roman_MSFontService,sans-serif" font-weight="400" font-size="24" transform="translate(609.736 211)">3</text><text font-family="Times New Roman,Times New Roman_MSFontService,sans-serif" font-weight="400" font-size="24" transform="translate(712.936 211)">4</text><text font-family="Times New Roman,Times New Roman_MSFontService,sans-serif" font-weight="400" font-size="24" transform="translate(814.732 211)">5</text><text font-family="Times New Roman,Times New Roman_MSFontService,sans-serif" font-weight="400" font-size="24" transform="translate(915.532 211)">…</text><text font-family="Times New Roman,Times New Roman_MSFontService,sans-serif" font-weight="400" font-size="24" transform="translate(611.331 379)">c</text><text font-family="Times New Roman,Times New Roman_MSFontService,sans-serif" font-weight="400" font-size="24" transform="translate(712.13 381)">d</text><text font-family="Times New Roman,Times New Roman_MSFontService,sans-serif" font-weight="400" font-size="24" transform="translate(507.24 381)">b</text><text font-family="Times New Roman,Times New Roman_MSFontService,sans-serif" font-weight="400" font-size="24" transform="translate(817.038 381)">e</text><text font-family="Times New Roman,Times New Roman_MSFontService,sans-serif" font-weight="400" font-size="24" transform="translate(501.223 513)">f</text><text font-family="Times New Roman,Times New Roman_MSFontService,sans-serif" font-weight="400" font-size="24" transform="translate(509.223 513)">(a)</text><text font-family="Times New Roman,Times New Roman_MSFontService,sans-serif" font-weight="400" font-size="24" transform="translate(597.146 515)">f</text><text font-family="Times New Roman,Times New Roman_MSFontService,sans-serif" font-weight="400" font-size="24" transform="translate(605.146 515)">(b)</text><text font-family="Times New Roman,Times New Roman_MSFontService,sans-serif" font-weight="400" font-size="24" transform="translate(696.311 515)">f</text><text font-family="Times New Roman,Times New Roman_MSFontService,sans-serif" font-weight="400" font-size="24" transform="translate(704.311 515)">(c)</text><text font-family="Times New Roman,Times New Roman_MSFontService,sans-serif" font-weight="400" font-size="24" transform="translate(799.165 515)">f</text><text font-family="Times New Roman,Times New Roman_MSFontService,sans-serif" font-weight="400" font-size="24" transform="translate(807.165 515)">(d)</text><path d="M322.599 419.199 406.28 481.759 405.083 483.361 321.401 420.801ZM402.989 473.642 407.271 483.749 396.366 482.501C395.818 482.439 395.424 481.943 395.487 481.394 395.549 480.845 396.045 480.451 396.594 480.514L405.795 481.567 404.761 482.95 401.148 474.423C400.932 473.914 401.17 473.327 401.678 473.112 402.187 472.896 402.774 473.134 402.989 473.642Z" fill="#ED7D31"/><path d="M421.626 412.22 509.297 482.509 508.046 484.07 420.374 413.78ZM506.283 474.286 510.221 484.531 499.364 482.916C498.818 482.835 498.441 482.326 498.522 481.78 498.604 481.233 499.112 480.856 499.659 480.938L508.819 482.301 507.739 483.649 504.416 475.004C504.218 474.488 504.475 473.91 504.991 473.711 505.507 473.513 506.085 473.771 506.283 474.286Z" fill="#ED7D31"/><path d="M523.611 412.208 614.743 482.528 613.521 484.111 522.389 413.792ZM611.576 474.361 615.703 484.531 604.819 483.118C604.271 483.047 603.885 482.545 603.956 481.998 604.027 481.45 604.528 481.064 605.076 481.135L614.261 482.327 613.205 483.695 609.723 475.113C609.515 474.601 609.761 474.018 610.273 473.811 610.785 473.603 611.368 473.849 611.576 474.361Z" fill="#ED7D31"/><path d="M627.635 412.228 715.531 484.485 714.261 486.03 626.365 413.772ZM712.617 476.225 716.429 486.518 705.593 484.769C705.048 484.681 704.677 484.168 704.765 483.623 704.853 483.078 705.366 482.707 705.912 482.795L715.055 484.27 713.958 485.605 710.742 476.92C710.55 476.402 710.814 475.826 711.332 475.635 711.85 475.443 712.425 475.707 712.617 476.225Z" fill="#ED7D31"/><path d="M737.663 412.252 819.149 484.453 817.823 485.95 736.337 413.748ZM816.543 476.091 819.971 486.518 809.208 484.37C808.666 484.262 808.315 483.735 808.423 483.193 808.531 482.652 809.058 482.3 809.599 482.409L818.682 484.221 817.536 485.514 814.643 476.716C814.471 476.191 814.756 475.626 815.281 475.454 815.806 475.281 816.371 475.567 816.543 476.091Z" fill="#ED7D31"/><text font-family="Times New Roman,Times New Roman_MSFontService,sans-serif" font-weight="400" font-size="24" transform="translate(240.357 511)">out</text><path d="M827.663 414.252 909.149 486.453 907.823 487.95 826.337 415.748ZM906.543 478.091 909.971 488.518 899.208 486.37C898.666 486.262 898.315 485.735 898.423 485.193 898.531 484.652 899.058 484.3 899.599 484.409L908.682 486.221 907.536 487.514 904.643 478.716C904.471 478.191 904.756 477.626 905.281 477.454 905.806 477.281 906.371 477.567 906.543 478.091Z" fill="#ED7D31"/></g></svg>