<svg width="1280" height="720" xmlns="http://www.w3.org/2000/svg" xmlns:xlink="http://www.w3.org/1999/xlink" overflow="hidden"><defs><clipPath id="clip0"><rect x="0" y="0" width="1280" height="720"/></clipPath></defs><g clip-path="url(#clip0)"><rect x="0" y="0" width="1280" height="720" fill="#FFFFFF"/><path d="M359.5 98.5001 359.5 627.985" stroke="#ED7D31" stroke-width="0.666667" stroke-miterlimit="8" fill="none" fill-rule="evenodd"/><path d="M460.5 98.5001 460.5 627.985" stroke="#ED7D31" stroke-width="0.666667" stroke-miterlimit="8" fill="none" fill-rule="evenodd"/><path d="M870.5 98.5001 870.5 627.985" stroke="#ED7D31" stroke-width="0.666667" stroke-miterlimit="8" fill="none" fill-rule="evenodd"/><path d="M769.5 98.5001 769.5 627.985" stroke="#ED7D31" stroke-width="0.666667" stroke-miterlimit="8" fill="none" fill-rule="evenodd"/><path d="M563.5 98.5001 563.5 627.985" stroke="#ED7D31" stroke-width="0.666667" stroke-miterlimit="8" fill="none" fill-rule="evenodd"/><path d="M666.5 98.5001 666.5 627.985" stroke="#ED7D31" stroke-width="0.666667" stroke-miterlimit="8" fill="none" fill-rule="evenodd"/><text font-family="Times New Roman,Times New Roman_MSFontService,sans-serif" font-weight="400" font-size="24" transform="translate(227.011 211)">Time</text><text font-family="Times New Roman,Times New Roman_MSFontService,sans-serif" font-weight="400" font-size="24" transform="translate(407.256 377)">a</text><text font-family="Times New Roman,Times New Roman_MSFontService,sans-serif" font-weight="400" font-size="24" transform="translate(236.975 379)">state</text><text font-family="Times New Roman,Times New Roman_MSFontService,sans-serif" font-weight="400" font-size="24" transform="translate(403.825 211)">1</text><text font-family="Times New Roman,Times New Roman_MSFontService,sans-serif" font-weight="400" font-size="24" transform="translate(505.928 211)">2</text><text font-family="Times New Roman,Times New Roman_MSFontService,sans-serif" font-weight="400" font-size="24" transform="translate(609.736 211)">3</text><text font-family="Times New Roman,Times New Roman_MSFontService,sans-serif" font-weight="400" font-size="24" transform="translate(712.936 211)">4</text><text font-family="Times New Roman,Times New Roman_MSFontService,sans-serif" font-weight="400" font-size="24" transform="translate(814.732 211)">5</text><text font-family="Times New Roman,Times New Roman_MSFontService,sans-serif" font-weight="400" font-size="24" transform="translate(915.532 211)">…</text><text font-family="Times New Roman,Times New Roman_MSFontService,sans-serif" font-weight="400" font-size="24" transform="translate(591.004 379)">c</text><text font-family="Times New Roman,Times New Roman_MSFontService,sans-serif" font-weight="400" font-size="24" transform="translate(601.671 379)">=f(b)</text><text font-family="Times New Roman,Times New Roman_MSFontService,sans-serif" font-weight="400" font-size="24" transform="translate(690.48 381)">d</text><text font-family="Times New Roman,Times New Roman_MSFontService,sans-serif" font-weight="400" font-size="24" transform="translate(702.48 381)">=f(c)</text><text font-family="Times New Roman,Times New Roman_MSFontService,sans-serif" font-weight="400" font-size="24" transform="translate(489.395 381)">b</text><text font-family="Times New Roman,Times New Roman_MSFontService,sans-serif" font-weight="400" font-size="24" transform="translate(501.395 381)">=f(a)</text><text font-family="Times New Roman,Times New Roman_MSFontService,sans-serif" font-weight="400" font-size="24" transform="translate(793.754 378)">e</text><text font-family="Times New Roman,Times New Roman_MSFontService,sans-serif" font-weight="400" font-size="24" transform="translate(804.42 378)">=f(d)</text><path d="M455 459.5C473.924 459.5 490.451 439.757 495.182 411.5L487.182 411.5 504.5 395.5 519.182 411.5 511.182 411.5C506.451 439.757 489.924 459.5 471 459.5Z" fill="#A5A5A5" fill-rule="evenodd"/><path d="M429.5 395.5C429.5 426.09 443.537 452.403 463 458.3 440.51 465.113 418.697 442.521 414.278 407.837 413.761 403.773 413.5 399.642 413.5 395.5Z" fill="#858585" fill-rule="evenodd"/><path d="M455 459.5C473.924 459.5 490.451 439.757 495.182 411.5L487.182 411.5 504.5 395.5 519.182 411.5 511.182 411.5C506.451 439.757 489.924 459.5 471 459.5L455 459.5C432.08 459.5 413.5 430.846 413.5 395.5L429.5 395.5C429.5 426.09 443.537 452.403 463 458.3" stroke="#787878" stroke-width="1.33333" stroke-miterlimit="8" fill="none" fill-rule="evenodd"/><path d="M565 459.5C583.924 459.5 600.451 439.757 605.182 411.5L597.182 411.5 614.5 395.5 629.182 411.5 621.182 411.5C616.451 439.757 599.924 459.5 581 459.5Z" fill="#A5A5A5" fill-rule="evenodd"/><path d="M539.5 395.5C539.5 426.09 553.537 452.403 573 458.3 550.51 465.113 528.697 442.521 524.278 407.837 523.761 403.773 523.5 399.642 523.5 395.5Z" fill="#858585" fill-rule="evenodd"/><path d="M565 459.5C583.924 459.5 600.451 439.757 605.182 411.5L597.182 411.5 614.5 395.5 629.182 411.5 621.182 411.5C616.451 439.757 599.924 459.5 581 459.5L565 459.5C542.08 459.5 523.5 430.846 523.5 395.5L539.5 395.5C539.5 426.09 553.537 452.403 573 458.3" stroke="#787878" stroke-width="1.33333" stroke-miterlimit="8" fill="none" fill-rule="evenodd"/><path d="M675.313 463.5C693.923 463.5 710.177 443.449 714.829 414.75L706.704 414.75 724.25 398.5 739.204 414.75 731.079 414.75C726.426 443.449 710.173 463.5 691.562 463.5Z" fill="#A5A5A5" fill-rule="evenodd"/><path d="M650.75 398.5C650.75 429.41 664.418 456.045 683.438 462.199 661.349 469.346 639.804 446.62 635.317 411.44 634.774 407.181 634.5 402.846 634.5 398.5Z" fill="#858585" fill-rule="evenodd"/><path d="M675.313 463.5C693.923 463.5 710.177 443.449 714.829 414.75L706.704 414.75 724.25 398.5 739.204 414.75 731.079 414.75C726.426 443.449 710.173 463.5 691.562 463.5L675.313 463.5C652.772 463.5 634.5 434.399 634.5 398.5L650.75 398.5C650.75 429.41 664.418 456.045 683.438 462.199" stroke="#787878" stroke-width="1.33333" stroke-miterlimit="8" fill="none" fill-rule="evenodd"/><path d="M785.813 463.5C804.651 463.5 821.104 443.449 825.813 414.75L817.688 414.75 835.25 398.5 850.188 414.75 842.063 414.75C837.354 443.449 820.901 463.5 802.063 463.5Z" fill="#A5A5A5" fill-rule="evenodd"/><path d="M760.75 398.5C760.75 429.47 774.638 456.14 793.938 462.231 771.567 469.291 749.794 446.481 745.307 411.284 744.77 407.075 744.5 402.793 744.5 398.5Z" fill="#858585" fill-rule="evenodd"/><path d="M785.813 463.5C804.651 463.5 821.104 443.449 825.813 414.75L817.688 414.75 835.25 398.5 850.188 414.75 842.063 414.75C837.354 443.449 820.901 463.5 802.063 463.5L785.813 463.5C762.996 463.5 744.5 434.399 744.5 398.5L760.75 398.5C760.75 429.47 774.638 456.14 793.938 462.231" stroke="#787878" stroke-width="1.33333" stroke-miterlimit="8" fill="none" fill-rule="evenodd"/></g></svg>