<svg width="1280" height="720" xmlns="http://www.w3.org/2000/svg" xmlns:xlink="http://www.w3.org/1999/xlink" overflow="hidden"><defs><filter id="fx0" x="-10%" y="-10%" width="120%" height="120%" filterUnits="userSpaceOnUse" primitiveUnits="userSpaceOnUse"><feComponentTransfer color-interpolation-filters="sRGB"><feFuncR type="discrete" tableValues="0 0"/><feFuncG type="discrete" tableValues="0 0"/><feFuncB type="discrete" tableValues="0 0"/><feFuncA type="linear" slope="0.4" intercept="0"/></feComponentTransfer><feGaussianBlur stdDeviation="1.77778 1.77778"/></filter><filter id="fx1" x="-10%" y="-10%" width="120%" height="120%" filterUnits="userSpaceOnUse" primitiveUnits="userSpaceOnUse"><feComponentTransfer color-interpolation-filters="sRGB"><feFuncR type="discrete" tableValues="0 0"/><feFuncG type="discrete" tableValues="0 0"/><feFuncB type="discrete" tableValues="0 0"/><feFuncA type="linear" slope="0.4" intercept="0"/></feComponentTransfer><feGaussianBlur stdDeviation="1.77778 1.77778"/></filter><clipPath id="clip2"><rect x="0" y="0" width="1280" height="720"/></clipPath><clipPath id="clip3"><path d="M417.5 255.5 417.5 306.5 695.5 306.5 695.5 255.5ZM1.90735e-05 1.07288e-05 1280 1.07288e-05 1280 720 1.90735e-05 720Z" fill-rule="evenodd" clip-rule="evenodd"/></clipPath><clipPath id="clip4"><rect x="-2" y="-2" width="296" height="69"/></clipPath><clipPath id="clip5"><rect x="0" y="0" width="293" height="66"/></clipPath><clipPath id="clip6"><path d="M417.5 379.5 417.5 430.5 695.5 430.5 695.5 379.5ZM1.90735e-05 1.07288e-05 1280 1.07288e-05 1280 720 1.90735e-05 720Z" fill-rule="evenodd" clip-rule="evenodd"/></clipPath><clipPath id="clip7"><rect x="-2" y="-2" width="296" height="69"/></clipPath><clipPath id="clip8"><rect x="0" y="0" width="293" height="66"/></clipPath></defs><g clip-path="url(#clip2)"><rect x="0" y="0" width="1280" height="720" fill="#FFFFFF"/><g clip-path="url(#clip3)"><g clip-path="url(#clip4)" filter="url(#fx0)" transform="translate(413 251)"><g clip-path="url(#clip5)"><rect x="7.32849" y="7.32849" width="278" height="51" stroke="#2F528F" stroke-miterlimit="8" fill="#DAE3F3"/></g></g></g><rect x="417.5" y="255.5" width="278" height="51" stroke="#2F528F" stroke-width="1.33333" stroke-miterlimit="8" fill="#DAE3F3"/><text font-family="Consolas,Consolas_MSFontService,sans-serif" font-weight="400" font-size="24" transform="translate(442.095 289)">Load R1, 5782</text><g clip-path="url(#clip6)"><g clip-path="url(#clip7)" filter="url(#fx1)" transform="translate(413 375)"><g clip-path="url(#clip8)"><rect x="7.32849" y="7.32849" width="278" height="51" stroke="#2F528F" stroke-miterlimit="8" fill="#DAE3F3"/></g></g></g><rect x="417.5" y="379.5" width="278" height="51" stroke="#2F528F" stroke-width="1.33333" stroke-miterlimit="8" fill="#DAE3F3"/><text font-family="Consolas,Consolas_MSFontService,sans-serif" font-weight="400" font-size="24" transform="translate(442.095 413)">JMP</text><text font-family="Consolas,Consolas_MSFontService,sans-serif" font-weight="400" font-size="24" transform="translate(494.762 413)">67</text><text font-family="Consolas,Consolas_MSFontService,sans-serif" font-weight="400" font-size="24" transform="translate(521.095 413)">3</text><path d="M88.8522 204.267 213.993 204.267 213.993 243.2 88.8522 243.2Z" fill="#4472C4" fill-rule="evenodd"/><path d="M88.8522 243.2 213.993 243.2 213.993 282.133 88.8522 282.133Z" fill="#CFD5EA" fill-rule="evenodd"/><path d="M88.8522 282.133 213.993 282.133 213.993 321.067 88.8522 321.067Z" fill="#E9EBF5" fill-rule="evenodd"/><path d="M88.8522 321.067 213.993 321.067 213.993 360 88.8522 360Z" fill="#CFD5EA" fill-rule="evenodd"/><path d="M88.8522 360 213.993 360 213.993 398.933 88.8522 398.933Z" fill="#E9EBF5" fill-rule="evenodd"/><path d="M88.8522 398.933 213.993 398.933 213.993 437.867 88.8522 437.867Z" fill="#CFD5EA" fill-rule="evenodd"/><path d="M88.8522 437.867 213.993 437.867 213.993 476.8 88.8522 476.8Z" fill="#E9EBF5" fill-rule="evenodd"/><path d="M88.8522 476.8 213.993 476.8 213.993 515.733 88.8522 515.733Z" fill="#CFD5EA" fill-rule="evenodd"/><path d="M88.1855 243.2 214.66 243.2" stroke="#FFFFFF" stroke-width="4" stroke-linejoin="round" stroke-miterlimit="10" fill="none" fill-rule="evenodd"/><path d="M88.1855 282.133 214.66 282.133" stroke="#FFFFFF" stroke-width="1.33333" stroke-linejoin="round" stroke-miterlimit="10" fill="none" fill-rule="evenodd"/><path d="M88.1855 321.067 214.66 321.067" stroke="#FFFFFF" stroke-width="1.33333" stroke-linejoin="round" stroke-miterlimit="10" fill="none" fill-rule="evenodd"/><path d="M88.1855 360 214.66 360" stroke="#FFFFFF" stroke-width="1.33333" stroke-linejoin="round" stroke-miterlimit="10" fill="none" fill-rule="evenodd"/><path d="M88.1855 398.933 214.66 398.933" stroke="#FFFFFF" stroke-width="1.33333" stroke-linejoin="round" stroke-miterlimit="10" fill="none" fill-rule="evenodd"/><path d="M88.1855 437.867 214.66 437.867" stroke="#FFFFFF" stroke-width="1.33333" stroke-linejoin="round" stroke-miterlimit="10" fill="none" fill-rule="evenodd"/><path d="M88.1855 476.8 214.66 476.8" stroke="#FFFFFF" stroke-width="1.33333" stroke-linejoin="round" stroke-miterlimit="10" fill="none" fill-rule="evenodd"/><path d="M88.8522 203.6 88.8522 516.4" stroke="#FFFFFF" stroke-width="1.33333" stroke-linejoin="round" stroke-miterlimit="10" fill="none" fill-rule="evenodd"/><path d="M213.993 203.6 213.993 516.4" stroke="#FFFFFF" stroke-width="1.33333" stroke-linejoin="round" stroke-miterlimit="10" fill="none" fill-rule="evenodd"/><path d="M88.1855 204.267 214.66 204.267" stroke="#FFFFFF" stroke-width="1.33333" stroke-linejoin="round" stroke-miterlimit="10" fill="none" fill-rule="evenodd"/><path d="M88.1855 515.733 214.66 515.733" stroke="#FFFFFF" stroke-width="1.33333" stroke-linejoin="round" stroke-miterlimit="10" fill="none" fill-rule="evenodd"/><text fill="#FFFFFF" font-family="DengXian,DengXian_MSFontService,sans-serif" font-weight="700" font-size="24" transform="translate(125.589 231)">Prog</text><text font-family="DengXian,DengXian_MSFontService,sans-serif" font-weight="400" font-size="24" transform="translate(143.006 270)">…</text><text font-family="DengXian,DengXian_MSFontService,sans-serif" font-weight="400" font-size="24" transform="translate(143.006 309)">…</text><text font-family="DengXian,DengXian_MSFontService,sans-serif" font-weight="400" font-size="24" transform="translate(143.006 348)">…</text><text font-family="DengXian,DengXian_MSFontService,sans-serif" font-weight="400" font-size="24" transform="translate(143.006 387)">…</text><text font-family="DengXian,DengXian_MSFontService,sans-serif" font-weight="400" font-size="24" transform="translate(143.006 426)">…</text><text font-family="DengXian,DengXian_MSFontService,sans-serif" font-weight="400" font-size="24" transform="translate(143.006 465)">…</text><text font-family="DengXian,DengXian_MSFontService,sans-serif" font-weight="400" font-size="24" transform="translate(143.006 504)">…</text><path d="M1014.65 187.052 1139.79 187.052 1139.79 225.452 1014.65 225.452Z" fill="#4472C4" fill-rule="evenodd"/><path d="M1014.65 225.452 1139.79 225.452 1139.79 264.385 1014.65 264.385Z" fill="#CFD5EA" fill-rule="evenodd"/><path d="M1014.65 264.385 1139.79 264.385 1139.79 303.318 1014.65 303.318Z" fill="#E9EBF5" fill-rule="evenodd"/><path d="M1014.65 303.318 1139.79 303.318 1139.79 342.252 1014.65 342.252Z" fill="#CFD5EA" fill-rule="evenodd"/><path d="M1014.65 342.252 1139.79 342.252 1139.79 381.185 1014.65 381.185Z" fill="#E9EBF5" fill-rule="evenodd"/><path d="M1014.65 381.185 1139.79 381.185 1139.79 420.118 1014.65 420.118Z" fill="#CFD5EA" fill-rule="evenodd"/><path d="M1014.65 420.118 1139.79 420.118 1139.79 459.052 1014.65 459.052Z" fill="#E9EBF5" fill-rule="evenodd"/><path d="M1014.65 459.052 1139.79 459.052 1139.79 497.985 1014.65 497.985Z" fill="#CFD5EA" fill-rule="evenodd"/><path d="M1013.99 225.452 1140.46 225.452" stroke="#FFFFFF" stroke-width="4" stroke-linejoin="round" stroke-miterlimit="10" fill="none" fill-rule="evenodd"/><path d="M1013.99 264.385 1140.46 264.385" stroke="#FFFFFF" stroke-width="1.33333" stroke-linejoin="round" stroke-miterlimit="10" fill="none" fill-rule="evenodd"/><path d="M1013.99 303.318 1140.46 303.318" stroke="#FFFFFF" stroke-width="1.33333" stroke-linejoin="round" stroke-miterlimit="10" fill="none" fill-rule="evenodd"/><path d="M1013.99 342.252 1140.46 342.252" stroke="#FFFFFF" stroke-width="1.33333" stroke-linejoin="round" stroke-miterlimit="10" fill="none" fill-rule="evenodd"/><path d="M1013.99 381.185 1140.46 381.185" stroke="#FFFFFF" stroke-width="1.33333" stroke-linejoin="round" stroke-miterlimit="10" fill="none" fill-rule="evenodd"/><path d="M1013.99 420.118 1140.46 420.118" stroke="#FFFFFF" stroke-width="1.33333" stroke-linejoin="round" stroke-miterlimit="10" fill="none" fill-rule="evenodd"/><path d="M1013.99 459.052 1140.46 459.052" stroke="#FFFFFF" stroke-width="1.33333" stroke-linejoin="round" stroke-miterlimit="10" fill="none" fill-rule="evenodd"/><path d="M1014.65 186.385 1014.65 498.652" stroke="#FFFFFF" stroke-width="1.33333" stroke-linejoin="round" stroke-miterlimit="10" fill="none" fill-rule="evenodd"/><path d="M1139.79 186.385 1139.79 498.652" stroke="#FFFFFF" stroke-width="1.33333" stroke-linejoin="round" stroke-miterlimit="10" fill="none" fill-rule="evenodd"/><path d="M1013.99 187.052 1140.46 187.052" stroke="#FFFFFF" stroke-width="1.33333" stroke-linejoin="round" stroke-miterlimit="10" fill="none" fill-rule="evenodd"/><path d="M1013.99 497.985 1140.46 497.985" stroke="#FFFFFF" stroke-width="1.33333" stroke-linejoin="round" stroke-miterlimit="10" fill="none" fill-rule="evenodd"/><text fill="#FFFFFF" font-family="DengXian,DengXian_MSFontService,sans-serif" font-weight="700" font-size="24" transform="translate(1050.56 214)">RAM</text><text font-family="DengXian,DengXian_MSFontService,sans-serif" font-weight="400" font-size="24" transform="translate(1068.81 252)">…</text><text font-family="DengXian,DengXian_MSFontService,sans-serif" font-weight="400" font-size="24" transform="translate(1068.81 291)">…</text><text font-family="DengXian,DengXian_MSFontService,sans-serif" font-weight="400" font-size="24" transform="translate(1068.81 330)">…</text><text font-family="DengXian,DengXian_MSFontService,sans-serif" font-weight="400" font-size="24" transform="translate(1068.81 369)">…</text><text font-family="DengXian,DengXian_MSFontService,sans-serif" font-weight="400" font-size="24" transform="translate(1068.81 408)">…</text><text font-family="DengXian,DengXian_MSFontService,sans-serif" font-weight="400" font-size="24" transform="translate(1068.81 447)">…</text><text font-family="DengXian,DengXian_MSFontService,sans-serif" font-weight="400" font-size="24" transform="translate(1068.81 486)">…</text><text font-family="Consolas,Consolas_MSFontService,sans-serif" font-weight="400" font-size="24" transform="translate(38.0075 270)">670</text><text font-family="Consolas,Consolas_MSFontService,sans-serif" font-weight="400" font-size="24" transform="translate(27.7688 387)">loo</text><text font-family="Consolas,Consolas_MSFontService,sans-serif" font-weight="400" font-size="24" transform="translate(67.2688 387)">p</text><text font-family="Consolas,Consolas_MSFontService,sans-serif" font-weight="400" font-size="24" transform="translate(1162.41 250)">5780</text><text font-family="Consolas,Consolas_MSFontService,sans-serif" font-weight="400" font-size="24" transform="translate(1162.41 328)">weight</text><path d="M710.161 270.013 1000.57 317.434 1000.25 319.407 709.839 271.987ZM999.742 314.258 1006.99 319.495 998.453 322.153Z" fill="#4472C4"/><path d="M398.023 409.917 240.379 381.179 240.738 379.212 398.382 407.949ZM241.153 384.37 234 379 242.588 376.5Z" fill="#4472C4"/></g></svg>