<svg width="1280" height="720" xmlns="http://www.w3.org/2000/svg" xmlns:xlink="http://www.w3.org/1999/xlink" overflow="hidden"><defs><clipPath id="clip0"><rect x="0" y="0" width="1280" height="720"/></clipPath></defs><g clip-path="url(#clip0)"><rect x="0" y="0" width="1280" height="720" fill="#FFFFFF"/><rect x="211.5" y="116.5" width="796" height="505" stroke="#2F528F" stroke-width="1.33333" stroke-miterlimit="8" fill="#A9D18E"/><text font-family="Times New Roman,Times New Roman_MSFontService,sans-serif" font-weight="700" font-size="24" transform="translate(505.988 96)">Computer System</text><rect x="5.50005" y="296.5" width="144" height="100" stroke="#2F528F" stroke-width="1.33333" stroke-miterlimit="8" fill="#F8CBAD"/><rect x="1069.5" y="296.5" width="144" height="100" stroke="#2F528F" stroke-width="1.33333" stroke-miterlimit="8" fill="#F8CBAD"/><text font-family="Times New Roman,Times New Roman_MSFontService,sans-serif" font-weight="700" font-size="24" transform="translate(43.8524 355)">Input</text><text font-family="Times New Roman,Times New Roman_MSFontService,sans-serif" font-weight="700" font-size="24" transform="translate(1103.89 354)">Output</text><rect x="849.5" y="154.5" width="125" height="434" stroke="#2F528F" stroke-width="1.33333" stroke-miterlimit="8" fill="#F8CBAD"/><text font-family="Times New Roman,Times New Roman_MSFontService,sans-serif" font-weight="700" font-size="24" transform="translate(386.333 248)">instruction</text><rect x="529.5" y="154.5" width="177" height="434" stroke="#2F528F" stroke-width="1.33333" stroke-miterlimit="8" fill="#F8CBAD"/><text font-family="Times New Roman,Times New Roman_MSFontService,sans-serif" font-weight="700" font-size="24" transform="translate(594.998 185)">CPU</text><rect x="567.5" y="489.5" width="114" height="75" stroke="#2F528F" stroke-width="1.33333" stroke-miterlimit="8" fill="#B4C7E7"/><path d="M652.765 242.61 654.5 336.98 583.368 384.5 584.235 316.232 606.789 297.492 582.5 284.776 582.5 214.5 652.765 242.61Z" stroke="#2F528F" stroke-width="1.33333" stroke-miterlimit="8" fill="#B4C7E7" fill-rule="evenodd"/><text font-family="Times New Roman,Times New Roman_MSFontService,sans-serif" font-weight="700" font-size="24" transform="translate(601.153 306)">ALU</text><text font-family="Times New Roman,Times New Roman_MSFontService,sans-serif" font-weight="700" font-size="24" transform="translate(584.54 535)">Control</text><text font-family="Times New Roman,Times New Roman_MSFontService,sans-serif" font-weight="700" font-size="24" transform="translate(721.289 244)">Data out</text><path d="M367.5 261 498.5 261 498.5 249.5 521.5 272.5 498.5 295.5 498.5 284 367.5 284Z" stroke="#2F528F" stroke-width="1.33333" stroke-miterlimit="8" fill="#767171" fill-rule="evenodd"/><path d="M525.5 469 386.5 469 386.5 480.5 363.5 457.5 386.5 434.5 386.5 446 525.5 446Z" stroke="#2F528F" stroke-width="1.33333" stroke-miterlimit="8" fill="#767171" fill-rule="evenodd"/><path d="M149.5 339.5 195.5 339.5 195.5 336.5 201.5 342.5 195.5 348.5 195.5 345.5 149.5 345.5Z" stroke="#000000" stroke-width="1.33333" stroke-miterlimit="8" fill-rule="evenodd"/><path d="M1009.5 339.5 1055.5 339.5 1055.5 336.5 1061.5 342.5 1055.5 348.5 1055.5 345.5 1009.5 345.5Z" stroke="#000000" stroke-width="1.33333" stroke-miterlimit="8" fill-rule="evenodd"/><rect x="239.5" y="154.5" width="126" height="434" stroke="#2F528F" stroke-width="1.33333" stroke-miterlimit="8" fill="#F8CBAD"/><text font-family="Times New Roman,Times New Roman_MSFontService,sans-serif" font-weight="700" font-size="24" transform="translate(247.717 357)">instruction</text><text font-family="Times New Roman,Times New Roman_MSFontService,sans-serif" font-weight="700" font-size="24" transform="translate(259.717 386)">memory</text><text font-family="Times New Roman,Times New Roman_MSFontService,sans-serif" font-weight="700" font-size="24" transform="translate(886.717 365)">data</text><text font-family="Times New Roman,Times New Roman_MSFontService,sans-serif" font-weight="700" font-size="24" transform="translate(868.717 394)">memory</text><path d="M706.5 256 824.5 256 824.5 244.5 847.5 267.5 824.5 290.5 824.5 279 706.5 279Z" stroke="#2F528F" stroke-width="1.33333" stroke-miterlimit="8" fill="#767171" fill-rule="evenodd"/><path d="M846.5 472 731.5 472 731.5 483.5 708.5 460.5 731.5 437.5 731.5 449 846.5 449Z" stroke="#2F528F" stroke-width="1.33333" stroke-miterlimit="8" fill="#767171" fill-rule="evenodd"/><text font-family="Times New Roman,Times New Roman_MSFontService,sans-serif" font-weight="700" font-size="24" transform="translate(748.328 436)">Data in</text><text font-family="Times New Roman,Times New Roman_MSFontService,sans-serif" font-weight="700" font-size="24" transform="translate(408.775 496)">Address</text><text font-family="Times New Roman,Times New Roman_MSFontService,sans-serif" font-weight="700" font-size="24" transform="translate(408.775 525)">of next</text><text font-family="Times New Roman,Times New Roman_MSFontService,sans-serif" font-weight="700" font-size="24" transform="translate(408.775 554)">instructio</text><text font-family="Times New Roman,Times New Roman_MSFontService,sans-serif" font-weight="700" font-size="24" transform="translate(507.442 554)">n</text></g></svg>