<svg width="1280" height="720" xmlns="http://www.w3.org/2000/svg" xmlns:xlink="http://www.w3.org/1999/xlink" overflow="hidden"><defs><clipPath id="clip0"><rect x="0" y="0" width="1280" height="720"/></clipPath></defs><g clip-path="url(#clip0)"><rect x="0" y="0" width="1280" height="720" fill="#FFFFFF"/><rect x="363.5" y="139.5" width="503" height="403" stroke="#2F528F" stroke-width="1.33333" stroke-miterlimit="8" fill="#A9D18E"/><text font-family="Times New Roman,Times New Roman_MSFontService,sans-serif" font-weight="700" font-size="24" transform="translate(516.629 128)">Computer</text><text font-family="Times New Roman,Times New Roman_MSFontService,sans-serif" font-weight="700" font-size="24" transform="translate(627.529 128)">S</text><text font-family="Times New Roman,Times New Roman_MSFontService,sans-serif" font-weight="700" font-size="24" transform="translate(640.862 128)">ystem</text><rect x="161.5" y="290.5" width="145" height="101" stroke="#2F528F" stroke-width="1.33333" stroke-miterlimit="8" fill="#F8CBAD"/><rect x="924.5" y="290.5" width="144" height="101" stroke="#2F528F" stroke-width="1.33333" stroke-miterlimit="8" fill="#F8CBAD"/><text font-family="Times New Roman,Times New Roman_MSFontService,sans-serif" font-weight="700" font-size="24" transform="translate(207.658 349)">Input</text><text font-family="Times New Roman,Times New Roman_MSFontService,sans-serif" font-weight="700" font-size="24" transform="translate(958.881 349)">Output</text><rect x="407.5" y="183.5" width="125" height="315" stroke="#2F528F" stroke-width="1.33333" stroke-miterlimit="8" fill="#F8CBAD"/><text font-family="Times New Roman,Times New Roman_MSFontService,sans-serif" font-weight="700" font-size="24" transform="translate(428.008 172)">Memory</text><rect x="420.5" y="200.5" width="102" height="129" stroke="#2F528F" stroke-width="1.33333" stroke-miterlimit="8" fill="#F4B183"/><rect x="417.5" y="346.5" width="103" height="134" stroke="#2F528F" stroke-width="1.33333" stroke-miterlimit="8" fill="#FFD966"/><rect x="640.5" y="183.5" width="177" height="315" stroke="#2F528F" stroke-width="1.33333" stroke-miterlimit="8" fill="#F8CBAD"/><text font-family="Times New Roman,Times New Roman_MSFontService,sans-serif" font-weight="700" font-size="24" transform="translate(700.862 172)">CPU</text><rect x="676.5" y="405.5" width="113" height="75" stroke="#2F528F" stroke-width="1.33333" stroke-miterlimit="8" fill="#B4C7E7"/><path d="M772.765 233.776 774.5 328.701 703.368 376.5 704.235 307.831 726.789 288.98 702.5 276.189 702.5 205.5 772.765 233.776Z" stroke="#2F528F" stroke-width="1.33333" stroke-miterlimit="8" fill="#B4C7E7" fill-rule="evenodd"/><text font-family="Times New Roman,Times New Roman_MSFontService,sans-serif" font-weight="700" font-size="24" transform="translate(721.289 296)">ALU</text><text font-family="Times New Roman,Times New Roman_MSFontService,sans-serif" font-weight="700" font-size="24" transform="translate(695.813 450)">Control</text><text font-family="Times New Roman,Times New Roman_MSFontService,sans-serif" font-weight="700" font-size="24" transform="translate(426.105 273)">Program</text><text font-family="Times New Roman,Times New Roman_MSFontService,sans-serif" font-weight="700" font-size="24" transform="translate(445.483 421)">Data</text><path d="M535.5 284 617.5 284 617.5 272.5 640.5 295.5 617.5 318.5 617.5 307 535.5 307Z" stroke="#2F528F" stroke-width="1.33333" stroke-miterlimit="8" fill="#767171" fill-rule="evenodd"/><path d="M637.5 360 555.5 360 555.5 371.5 532.5 348.5 555.5 325.5 555.5 337 637.5 337Z" stroke="#2F528F" stroke-width="1.33333" stroke-miterlimit="8" fill="#767171" fill-rule="evenodd"/><path d="M307.5 341.5 354.5 341.5 354.5 338.5 360.5 344.5 354.5 350.5 354.5 347.5 307.5 347.5Z" stroke="#000000" stroke-width="1.33333" stroke-miterlimit="8" fill-rule="evenodd"/><path d="M868.5 339.5 914.5 339.5 914.5 336.5 920.5 342.5 914.5 348.5 914.5 345.5 868.5 345.5Z" stroke="#000000" stroke-width="1.33333" stroke-miterlimit="8" fill-rule="evenodd"/></g></svg>