<svg width="1280" height="720" xmlns="http://www.w3.org/2000/svg" xmlns:xlink="http://www.w3.org/1999/xlink" overflow="hidden"><defs><clipPath id="clip0"><rect x="0" y="0" width="1280" height="720"/></clipPath><linearGradient x1="513.5" y1="251.5" x2="428.5" y2="251.5" gradientUnits="userSpaceOnUse" spreadMethod="reflect" id="fill1"><stop offset="0" stop-color="#D2D2D2"/><stop offset="0.5" stop-color="#C8C8C8"/><stop offset="1" stop-color="#C0C0C0"/></linearGradient></defs><g clip-path="url(#clip0)"><rect x="0" y="0" width="1280" height="720" fill="#FFFFFF"/><rect x="297.5" y="121.5" width="635" height="337" stroke="#000000" stroke-width="1.33333" stroke-linecap="square" stroke-miterlimit="8" stroke-dasharray="4 1.33333" fill="#FFFFFF"/><text font-family="Times New Roman,Times New Roman_MSFontService,sans-serif" font-weight="400" font-size="24" transform="translate(1012.38 240)">out</text><path d="M428.5 177.5 513.5 249.841 428.5 325.5Z" stroke="#A5A5A5" stroke-width="0.666667" stroke-miterlimit="8" fill="url(#fill1)" fill-rule="evenodd"/><text font-family="Times New Roman,Times New Roman_MSFontService,sans-serif" font-weight="400" font-size="24" transform="translate(437.637 262)">Mux</text><path d="M262 215 421.614 215 421.614 217 262 217ZM420.281 212 428.281 216 420.281 220Z"/><path d="M471 95 471 206.744 469 206.744 469 95ZM474 205.411 470 213.411 466 205.411Z"/><text font-family="Times New Roman,Times New Roman_MSFontService,sans-serif" font-weight="400" font-size="24" transform="translate(454.277 84)">load</text><text font-family="Times New Roman,Times New Roman_MSFontService,sans-serif" font-weight="400" font-size="24" transform="translate(263.444 205)">in</text><path d="M359 272 421.367 272 421.367 274 359 274ZM420.034 269 428.034 273 420.034 277Z"/><path d="M513 250 575.367 250 575.367 252 513 252ZM574.034 247 582.034 251 574.034 255Z"/><rect x="582.5" y="204.5" width="220" height="95" stroke="#000000" stroke-width="1.33333" stroke-miterlimit="8" fill="#D6DCE5"/><text font-family="Times New Roman,Times New Roman_MSFontService,sans-serif" font-weight="400" font-size="24" transform="translate(673.745 260)">DFF</text><path d="M692.5 298.5 702 284.5 711.5 298.5Z" stroke="#000000" stroke-width="1.33333" stroke-miterlimit="8" fill="#FFFFFF" fill-rule="evenodd"/><path d="M0 9C-1.20948e-15 4.02944 4.25329-1.14582e-15 9.5-2.29164e-15 14.7467-4.58328e-15 19 4.02944 19 9 19 13.9706 14.7467 18 9.5 18 4.25329 18-6.04738e-15 13.9706 0 9Z" stroke="#AFABAB" stroke-width="1.33333" stroke-miterlimit="8" fill="#D0CECE" fill-rule="evenodd" transform="matrix(-1 0 0 1 870.5 242.5)"/><path d="M0 0 48.9786 0.000104987" stroke="#000000" stroke-width="2" stroke-miterlimit="8" fill="none" fill-rule="evenodd" transform="matrix(1 0 0 -1 802 251)"/><path d="M870 250 1029.61 250 1029.61 252 870 252ZM1028.28 247 1036.28 251 1028.28 255Z"/><path d="M359 273 359 412.303" stroke="#000000" stroke-width="2" stroke-miterlimit="8" fill="none" fill-rule="evenodd"/><path d="M0 0 501.996 0.000104987" stroke="#000000" stroke-width="2" stroke-miterlimit="8" fill="none" fill-rule="evenodd" transform="matrix(1 0 0 -1 359 412)"/><path d="M861 260 861 412.24" stroke="#000000" stroke-width="2" stroke-miterlimit="8" fill="none" fill-rule="evenodd"/></g></svg>